<?xml version="1.0" encoding="UTF-8"?>
<svg style="content-visibility:visible;height:100%;transform:translate3d(0px, 0px, 0px);width:100%" viewBox="0 0 1886 1690" xmlns="http://www.w3.org/2000/svg" xmlns:xlink="http://www.w3.org/1999/xlink">
<defs>
<clipPath id="o">
<rect width="1886" height="1690"/>
</clipPath>
<clipPath id="n">
<path d="m-4.484-111.22c-82.33 0-149.07 55.53-149.07 124.03 0 68.501 66.741 124.03 149.07 124.03 82.33 0 149.07-55.53 149.07-124.03 0-68.501-66.741-124.03-149.07-124.03" fill="#fff"/>
</clipPath>
<symbol id="m">
<g transform="matrix(2.609 0 0 2.609 410.82 3583.9)" display="block">
<path d="m249.97-1208.3c7.211-11.178 20.775-16.878 33.9-17.177 13.125-0.30005 25.925 4.11 37.909 9.5719 7.999 3.646 15.944 7.8361 24.616 9.119 34.057 5.04 61.754-35.154 96.091-32.794 19.818 1.3619 37.261 19.175 38.552 39.371 0.70801 11.079-2.811 22.691 1.1 33.054 8.627 22.86 44.894 21.92 55.631 43.832 6.897 14.076-0.78003 32.007-13.336 41.163-12.556 9.156-28.582 11.531-43.967 12.864-14.309 1.24-28.761 1.811-42.994-0.13391-21.08-2.88-42.069-11.248-63.01-7.4611-19.125 3.458-36.261 16.853-55.676 16.276-37.826-1.123-44.243-39.865-57.725-67.043-11.909-24.006-28.245-54.051-11.091-80.642z" fill="#f00"/>
</g>
</symbol>
<symbol id="k">
<g transform="matrix(2.609 0 0 2.609 391 3611)" display="block">
<g>
<path d="m105.94-1035c1.769 2.014 3.267 4.389 4.342 7.394 8.729 24.398-36.407 39.972-53.978 34.136-17.279-5.742-27.136-23.27-37.708-38.093-3.954-5.546-8.718-11.214-15.343-12.772-4.527-1.073-9.25-0.047974-13.824 0.78894-26.407 4.817-53.752-2.9-59.811-32.27-5.276-25.618 6.051-56.209 21.488-76.429 17.461-22.879 34.983-19.526 59.029-12.631 17.919 5.139 25.716 8.699 32.57 27.611 7.654 21.119 14.491 42.872 25.91 62.352 5.592 9.5389 12.258 19.105 20.45 26.617 5.66 5.191 12.21 7.9861 16.875 13.296z" fill="#f00"/>
</g>
</g>
</symbol>
<linearGradient id="i" x1="87.54" x2="341.22" y1="-1175" y2="-779.63" gradientUnits="userSpaceOnUse">
<stop stop-color="#7ccaff" offset="0"/>
<stop stop-color="#b7def8" offset=".5"/>
<stop stop-color="#f1f1f1" offset="1"/>
</linearGradient>
<symbol id="h">
<g transform="matrix(2.609 0 0 2.609 417.5 3592.7)" display="block">
<g>
<path d="m234.18-1173.9c-8.272 12.691-26.245 20.943-28.755 36.326-1.977 12.172 6.821 24.16 4.959 36.352-1.869 12.266-13.791 20.389-25.45 24.633-11.659 4.2369-24.424 6.3359-34.416 13.69-24.903 18.345-21.07 59.534-44.354 79.903-4.729 4.143-10.296 7.118-16.091 9.635v-192.23c0-4.575 4.008-8.313 8.906-8.313h135.2z" fill="#f00"/>
</g>
</g>
</symbol>
<clipPath id="f">
<path d="m283.29-1171.3h-193.18v298.96h193.18v-298.96" fill="#fff"/>
</clipPath>
<clipPath id="e">
<path d="m438.13-1185.1h-189.34v132.62h189.34v-132.62" fill="#fff"/>
</clipPath>
<linearGradient id="d" x1="-253" x2="-187" y1="20" y2="23" gradientUnits="userSpaceOnUse">
<stop stop-color="#8ccffd" offset="0"/>
<stop stop-color="#5188c1" offset=".43"/>
<stop stop-color="#154284" offset="1"/>
</linearGradient>
<mask id="b">
<path d="m-53.625-130.38s-51.375 4.375-80.544 14.247c-22.273 7.539-91.331 35.128-91.331 35.128s1 229 0 255.5c12 54 63 106 117.5 140s54.875 34.563 54.875 34.563l-0.5-479.44z" fill="url(#c)"/>
</mask>
<linearGradient id="c" x1="-253" x2="-187" y1="20" y2="23" gradientUnits="userSpaceOnUse">
<stop stop-color="#fff" stop-opacity=".83" offset="0"/>
<stop stop-color="#fff" stop-opacity=".915" offset=".41"/>
<stop stop-color="#fff" offset="1"/>
</linearGradient>
<clipPath id="a">
<path d="m0 0h510v462h-510z"/>
</clipPath>
<mask id="g" mask-type="alpha">
<use xlink:href="#h"/>
</mask>
<mask id="j" mask-type="alpha">
<use xlink:href="#k"/>
</mask>
<mask id="l" mask-type="alpha">
<use xlink:href="#m"/>
</mask>
</defs>
<g clip-path="url(#o)">
<g transform="matrix(2.609 0 0 2.609 386.8 3613.5)" display="block" opacity=".7">
<g opacity="1" style="mix-blend-mode:multiply">
<path d="m223.02-913.92c101.25-5.666 190.33-3.313 249.04 2.489 59.217 5.942 88.022 15.33 80.099 26.974-7.943 11.748-50.39 24.359-107.47 37.444-57.464 12.936-129.56 26.352-206.55 36.303-149.98 20.342-291.76 14.795-328.16-17.828-36.671-32.408 106.07-74.85 313.04-85.382z" fill="#e4efff"/>
</g>
</g>
<g transform="matrix(1.6325 0 0 1.6325 9.8025 2265.7)" display="block">
<g>
<g>
<g>
<path d="m415.91-1114.3c-68.071-9.0861-130.85 38.92-139.92 106.98-9.087 68.051 38.909 130.82 106.97 139.91 68.078 9.064 130.85-38.914 139.93-106.98 9.076-68.066-38.931-130.85-106.99-139.92z" fill="#2f72de"/>
</g>
</g>
</g>
</g>
<g transform="matrix(1.3647 0 0 1.6501 667.89 628.46)" clip-path="url(#n)" display="block">
<g>
<g>
<path d="m-139.1-20.292 19.05-4.547 1.413-5.638 19.509-10.025-29.214-12.855-4.949 3.752-3.154-13.6 8.549 1.717 1.111-5.877 3.793 2.61 11.014-6.335 4.234 3.45s18.369-8.363 18.369-8.363-18.369 2.478-18.369 2.478-16.764-5.886-16.764-5.886l-14.595 4.745-42.437-1.337-24.825 11.248 15.939 2.619 4.57-1.581 5.738 14.112-10.018 26.485s21.133 24.363 21.133 24.363 23.139 8.025 23.139 8.025-12.213-20.983-12.213-20.983l18.977-8.577z" fill="#fff"/>
</g>
<g>
<path d="m-112.69-51.966s0.533 5.73 0.533 5.73l13.032 5.734 6.765-18.177-20.33 6.713z" fill="#fff"/>
</g>
<g>
<path d="m-92.364-50.587s8.026 0.87 8.026 0.87-8.026-8.962-8.026-8.962l-2.37 6.367 2.37 1.725z" fill="#fff"/>
</g>
<g>
<path d="m-96.956-67.64 13.286-1.764s-5.706-6.599-5.706-6.599l-9.753 4.44 2.173 3.923z" fill="#fff"/>
</g>
<g>
<path d="m-145.87 9.268-6.125-2.125 11.431 11.711h3.031l-5.334-4.161-3.003-5.425z" fill="#fff"/>
</g>
<g>
<path d="m-85.506 37.137-15.017-10.793-14.044-11.651-25.992 1.796 3.031 2.365 5.459 1.629-4.567 20.128s22.9 27.375 22.9 27.375-4.583-5.478-4.583-5.478l-1.238 4.586 6.933 41.183 15.044 8.395-7.522-15.135 15.012-26.061 17.047-15.795-4.123-15.854-8.34-6.69z" fill="#fff"/>
</g>
<g>
<path d="m24.432 16.357-8.255-11.569 6.675 0.541-4.7-23.017s-13.486 8.127-13.486 8.127l2.349 1.509-21.901-14.071-25.018 0.158-15.246 27.827 14.57 17.497 5.046-2.025 23.289 2.025s3.923 40.614 3.923 40.614l9.274 20.497 19.795-12.472s3.685-6.751 3.685-6.751l6.4-30.022 16.175-20.699s-21.534-3.787-21.534-3.787l-1.041 5.618z" fill="#fff"/>
</g>
<g>
<path d="m-32.361-44.555 2.059 7.277h-11.316s-0.333 6.955-0.333 6.955v3.106s8.411 0.98 8.411 0.98l13.002-11.041s1.615 0.428 1.615 0.428l2.488-0.963s4.501-0.754 4.501-0.754l0.474-1.171-4.41-13.368-1.774 0.977-14.717 7.574z" fill="#fff"/>
</g>
<g>
<path d="m-11.8-33.72-0.134-4.847-3.936 0.659s4.07 4.188 4.07 4.188z" fill="#fff"/>
</g>
<g>
<path d="m-10.933-37.218-0.98-0.595 0.113 4.093 4.414-0.18-3.547-3.318z" fill="#fff"/>
</g>
<g>
<path d="m-9.249-33.261c0.037999-0.024998 1.863-0.639 1.863-0.639l-2.681 0.109s0.78 0.555 0.818 0.53z" fill="#fff"/>
</g>
<g>
<path d="m-6.066-28.797-0.0079999-1.899-0.541-0.224-0.771-2.98-1.863 0.639s3.183 4.464 3.183 4.464z" fill="#fff"/>
</g>
<g>
<path d="m19.789-66.972-11.436-2.809-0.602 1.542 0.084-0.215s-5.124-0.643-5.124-0.643-4.078 4.673-4.078 4.673l6.492 2.91-2.657 6.803-8.026 2.582s-0.508-0.977-0.508-0.977h-9.804l4.118 12.482 1.246 0.688 4.44 0.425 9.011 12.665 2.956-12.892 13.553-25.227 0.335-2.007z" fill="#fff"/>
</g>
<g>
<path d="m-0.341-75.532 1.159 6.197s7.017 0.881 7.017 0.881l0.518-1.327-8.694-5.751z" fill="#fff"/>
</g>
<g>
<path d="m-20.658-59.447 6.273-2.313v1.376l5.125 5.086 1.967-1.442s0.688-7.684 0.688-7.684l0.067-0.229 0.472-1.07 4.395-4.085 2.347-0.283-1.017-5.441-12.573 7.078s-7.744 9.007-7.744 9.007z" fill="#fff"/>
</g>
<g>
<path d="m-18.22-64.653-2.961 0.911 0.523 4.295s3.014-3.506 3.014-3.506l-0.576-1.7z" fill="#fff"/>
</g>
<g>
<path d="m35.193 7.083s2.14 2.408 2.14 2.408c0.357-0.267 20.865-11.681 20.865-11.681l-1.665-3.99-17.149-0.469-11.955 1.52 7.764 12.212z" fill="#fff"/>
</g>
<g>
<path d="m128.05 28.752s-3.08-7e-3 -3.08-7e-3l3.201-13.568 2.154 1.18 1.185-25.547v1.138l15.282-1.884s1.977-3.757 1.977-3.757l-7.688-18.618 9.69 3.421 0.612 4.594 8.367-17.875-8.367-10.623s-3.285 3.809-3.285 3.809l-10.803 12.529s20.661-23.962 20.661-23.962l26.599-6.554 1.694-2.809s-53.635-5.751-53.635-5.751-25.635 2.726-25.635 2.726 0.514 0.617 0.514 0.617-4.573-5.483-4.573-5.483l-50.692 10.7-23.553-3.878-9.217 5.885 1.859 3.451 11.249 20.89-13.108-24.341-12.789 23.804-0.764 1.423-1.235 5.385 11.511 8.116 5.863 1.665v10.879s13.652 7.513 13.652 7.513 3.692-0.469 3.692-0.469l2.14-17.021 30.86 10.8s15.439 30.63 15.439 30.63l13.176-28.689 4.057 1.739 15.873 16.05-1.026 3.79 3.924 22.926 19.252 9.756-15.033-14.58zm-13.768-92.801-3.343-4.009s0.55901 0.671 0.55901 0.671 2.784 3.338 2.784 3.338z" fill="#fff"/>
</g>
<g>
<path d="m144.85 22.829c-0.014008-0.036001-0.028-0.061001-0.040009-0.055-0.31799 0.147-9.213 8.652-9.213 8.652l10.412 5.448 4.863-11.422h-4.079s-1.943-2.623-1.943-2.623z" fill="#fff"/>
</g>
<g>
<path d="m150.87 63.705-4.079-1.553-9.306 21.349 18.253-2.408 0.70599-3.927 2.593 1.074 29.708-19.617s-27.91-5.885-27.91-5.885l-9.965 10.967z" fill="#fff"/>
</g>
<g>
<path d="m195.54 75.541-6.793-16.918-27.91 18.43 2.633 4.04s4.305-0.745 4.305-0.745l12.946 10.638 14.819-15.445z" fill="#fff"/>
</g>
<g>
<path d="m-29.243-48.191h1.765l-3.585-11.784-4.91 4.144 3.282 2.952s3.448 4.688 3.448 4.688z" fill="#fff"/>
</g>
<g>
<path d="m-34.456-47.076 5.213-1.115s-2.606-3.544-2.606-3.544l-2.607 4.659z" fill="#fff"/>
</g>
<g>
<path d="m-37.325-54.422s-1.522 0.709-1.522 0.709l-1.721 4.631 4.448-1.806s-1.092-3.543-1.205-3.534z" fill="#fff"/>
</g>
</g>
</g>
<g display="block" mask="url(#l)">
<g transform="translate(1953 718)" opacity=".567">
<g transform="translate(-596 -376)" opacity="1">
<g transform="translate(0 432.1)" opacity="1">
<path d="m459.5 10.35v1.3h-783v-1.3h783z" fill="#007ae5"/>
</g>
<g transform="translate(0 417.2)" opacity="1">
<path d="m459.5 10.35v1.3h-783v-1.3h783z" fill="#007ae5"/>
</g>
<g transform="translate(0 402.3)" opacity="1">
<path d="m459.5 10.35v1.3h-783v-1.3h783z" fill="#007ae5"/>
</g>
<g transform="translate(0 387.4)" opacity="1">
<path d="m459.5 10.35v1.3h-783v-1.3h783z" fill="#007ae5"/>
</g>
<g transform="translate(0 372.5)" opacity="1">
<path d="m459.5 10.35v1.3h-783v-1.3h783z" fill="#007ae5"/>
</g>
<g transform="translate(0 357.6)" opacity="1">
<path d="m459.5 10.35v1.3h-783v-1.3h783z" fill="#007ae5"/>
</g>
<g transform="translate(0 342.7)" opacity="1">
<path d="m459.5 10.35v1.3h-783v-1.3h783z" fill="#007ae5"/>
</g>
<g transform="translate(0 327.8)" opacity="1">
<path d="m459.5 10.35v1.3h-783v-1.3h783z" fill="#007ae5"/>
</g>
<g transform="translate(0 312.9)" opacity="1">
<path d="m459.5 10.35v1.3h-783v-1.3h783z" fill="#007ae5"/>
</g>
<g transform="translate(0 298)" opacity="1">
<path d="m459.5 10.35v1.3h-783v-1.3h783z" fill="#007ae5"/>
</g>
<g transform="translate(0 283.1)" opacity="1">
<path d="m459.5 10.35v1.3h-783v-1.3h783z" fill="#007ae5"/>
</g>
<g transform="translate(0 268.2)" opacity="1">
<path d="m459.5 10.35v1.3h-783v-1.3h783z" fill="#007ae5"/>
</g>
<g transform="translate(0 253.3)" opacity="1">
<path d="m459.5 10.35v1.3h-783v-1.3h783z" fill="#007ae5"/>
</g>
<g transform="translate(0 238.4)" opacity="1">
<path d="m459.5 10.35v1.3h-783v-1.3h783z" fill="#007ae5"/>
</g>
<g transform="translate(0 223.5)" opacity="1">
<path d="m459.5 10.35v1.3h-783v-1.3h783z" fill="#007ae5"/>
</g>
<g transform="translate(0 208.6)" opacity="1">
<path d="m459.5 10.35v1.3h-783v-1.3h783z" fill="#007ae5"/>
</g>
<g transform="translate(0 193.7)" opacity="1">
<path d="m459.5 10.35v1.3h-783v-1.3h783z" fill="#007ae5"/>
</g>
<g transform="translate(0 178.8)" opacity="1">
<path d="m459.5 10.35v1.3h-783v-1.3h783z" fill="#007ae5"/>
</g>
<g transform="translate(0 163.9)" opacity="1">
<path d="m459.5 10.35v1.3h-783v-1.3h783z" fill="#007ae5"/>
</g>
<g transform="translate(0 149)" opacity="1">
<path d="m459.5 10.35v1.3h-783v-1.3h783z" fill="#007ae5"/>
</g>
<g transform="translate(0 134.1)" opacity="1">
<path d="m459.5 10.35v1.3h-783v-1.3h783z" fill="#007ae5"/>
</g>
<g transform="translate(0 119.2)" opacity="1">
<path d="m459.5 10.35v1.3h-783v-1.3h783z" fill="#007ae5"/>
</g>
<g transform="translate(0 104.3)" opacity="1">
<path d="m459.5 10.35v1.3h-783v-1.3h783z" fill="#007ae5"/>
</g>
<g transform="translate(0 89.4)" opacity="1">
<path d="m459.5 10.35v1.3h-783v-1.3h783z" fill="#007ae5"/>
</g>
<g transform="translate(0 74.5)" opacity="1">
<path d="m459.5 10.35v1.3h-783v-1.3h783z" fill="#007ae5"/>
</g>
<g transform="translate(0 59.6)" opacity="1">
<path d="m459.5 10.35v1.3h-783v-1.3h783z" fill="#007ae5"/>
</g>
<g transform="translate(0 44.7)" opacity="1">
<path d="m459.5 10.35v1.3h-783v-1.3h783z" fill="#007ae5"/>
</g>
<g transform="translate(0 29.8)" opacity="1">
<path d="m459.5 10.35v1.3h-783v-1.3h783z" fill="#007ae5"/>
</g>
<g transform="translate(0 14.9)" opacity="1">
<path d="m459.5 10.35v1.3h-783v-1.3h783z" fill="#007ae5"/>
</g>
<g opacity="1">
<path d="m459.5 10.35v1.3h-783v-1.3h783z" fill="#007ae5"/>
</g>
</g>
</g>
</g>
<g display="block" mask="url(#j)">
<g transform="translate(1041 922)">
<g transform="translate(-596 -376)">
<g transform="translate(0 432.1)">
<path d="m277-0.65v1.3h-554v-1.3h554z" fill="#007ae5"/>
</g>
<g transform="translate(0 417.2)">
<path d="m277-0.65v1.3h-554v-1.3h554z" fill="#007ae5"/>
</g>
<g transform="translate(0 402.3)">
<path d="m277-0.65v1.3h-554v-1.3h554z" fill="#007ae5"/>
</g>
<g transform="translate(0 387.4)">
<path d="m277-0.65v1.3h-554v-1.3h554z" fill="#007ae5"/>
</g>
<g transform="translate(0 372.5)">
<path d="m277-0.65v1.3h-554v-1.3h554z" fill="#007ae5"/>
</g>
<g transform="translate(0 357.6)">
<path d="m277-0.65v1.3h-554v-1.3h554z" fill="#007ae5"/>
</g>
<g transform="translate(0 342.7)">
<path d="m277-0.65v1.3h-554v-1.3h554z" fill="#007ae5"/>
</g>
<g transform="translate(0 327.8)">
<path d="m277-0.65v1.3h-554v-1.3h554z" fill="#007ae5"/>
</g>
<g transform="translate(0 312.9)">
<path d="m277-0.65v1.3h-554v-1.3h554z" fill="#007ae5"/>
</g>
<g transform="translate(0 298)">
<path d="m277-0.65v1.3h-554v-1.3h554z" fill="#007ae5"/>
</g>
<g transform="translate(0 283.1)">
<path d="m277-0.65v1.3h-554v-1.3h554z" fill="#007ae5"/>
</g>
<g transform="translate(0 268.2)">
<path d="m277-0.65v1.3h-554v-1.3h554z" fill="#007ae5"/>
</g>
<g transform="translate(0 253.3)">
<path d="m277-0.65v1.3h-554v-1.3h554z" fill="#007ae5"/>
</g>
<g transform="translate(0 238.4)">
<path d="m277-0.65v1.3h-554v-1.3h554z" fill="#007ae5"/>
</g>
<g transform="translate(0 223.5)">
<path d="m277-0.65v1.3h-554v-1.3h554z" fill="#007ae5"/>
</g>
<g transform="translate(0 208.6)">
<path d="m277-0.65v1.3h-554v-1.3h554z" fill="#007ae5"/>
</g>
<g transform="translate(0 193.7)">
<path d="m277-0.65v1.3h-554v-1.3h554z" fill="#007ae5"/>
</g>
<g transform="translate(0 178.8)">
<path d="m277-0.65v1.3h-554v-1.3h554z" fill="#007ae5"/>
</g>
<g transform="translate(0 163.9)">
<path d="m277-0.65v1.3h-554v-1.3h554z" fill="#007ae5"/>
</g>
<g transform="translate(0 149)">
<path d="m277-0.65v1.3h-554v-1.3h554z" fill="#007ae5"/>
</g>
<g transform="translate(0 134.1)">
<path d="m277-0.65v1.3h-554v-1.3h554z" fill="#007ae5"/>
</g>
<g transform="translate(0 119.2)">
<path d="m277-0.65v1.3h-554v-1.3h554z" fill="#007ae5"/>
</g>
<g transform="translate(0 104.3)">
<path d="m277-0.65v1.3h-554v-1.3h554z" fill="#007ae5"/>
</g>
<g transform="translate(0 89.4)">
<path d="m277-0.65v1.3h-554v-1.3h554z" fill="#007ae5"/>
</g>
<g transform="translate(0 74.5)">
<path d="m277-0.65v1.3h-554v-1.3h554z" fill="#007ae5"/>
</g>
<g transform="translate(0 59.6)">
<path d="m277-0.65v1.3h-554v-1.3h554z" fill="#007ae5"/>
</g>
<g transform="translate(0 44.7)">
<path d="m277-0.65v1.3h-554v-1.3h554z" fill="#007ae5"/>
</g>
<g transform="translate(0 29.8)">
<path d="m277-0.65v1.3h-554v-1.3h554z" fill="#007ae5"/>
</g>
<g transform="translate(0 14.9)">
<path d="m277-0.65v1.3h-554v-1.3h554z" fill="#007ae5"/>
</g>
<g>
<path d="m277-0.65v1.3h-554v-1.3h554z" fill="#007ae5"/>
</g>
</g>
</g>
</g>
<g transform="matrix(2.609 0 0 2.609 416.9 3592.1)" display="block">
<g>
<g transform="matrix(.99678 .080199 -.080199 .99678 -70.61 -25.543)">
<g>
<path d="m485.3-1014.9c-12.857 3.969-25.541 8.65-38.112 13.702 32.097-27.086 20.344-56.284 20.344-56.284-36.654 30.989-34.745 53.348-32.437 61.212-7.769 3.357-15.428 6.979-23.041 10.727 24.962-35.373 5.297-60.928 5.297-60.928-25.109 36.968-20.022 57.752-15.7 66.057-12.356 6.428-24.443 13.405-36.269 20.791 23.146-39.779-0.642-63.849-0.642-63.849-21.555 41.866-12.017 61.816-6.787 68.58-27.413 17.758-53.192 37.953-76.559 60.233-2.952 2.814 1.563 7.266 4.519 4.447 14.432-13.76 29.835-26.74 45.983-38.857 46.124 29.515 65.44 10.066 65.44 10.066-20.667-18.818-38.703-21.668-51.352-20.067 11.122-7.786 22.451-15.303 34.16-22.215 0.65802 2.954 8.03 28.798 64.894 29.63 0 0-11.222-36.141-64.318-29.979 18.807-11.07 38.334-20.832 58.266-29.383 40.795 42.499 64.957 26.636 64.957 26.636-21.253-29.714-43.86-31.875-56.315-30.163 12.303-5.006 24.718-9.604 37.277-13.544 54.696 11.011 65.634-14.526 65.634-14.526-36.36-13.748-56.661-0.71399-65.239 7.714z" fill="#7ccaff"/>
</g>
</g>
<g transform="matrix(.99488 .10106 -.10106 .99488 -92.947 -27.969)">
<g>
<path d="m367.69-1165.1c-10.883 10.978-21.204 22.585-31.211 34.506 17.875-44.816-9.833-68.049-9.833-68.049-20.382 51.237-6.351 72.865 0.24298 79.586-6.057 7.605-11.859 15.42-17.547 23.337 6.161-49.354-27.596-64.614-27.596-64.614-5.446 51.05 10.954 69.362 19.828 75.441-9.045 13.199-17.52 26.809-25.509 40.693 1.936-52.838-35.195-64.361-35.195-64.361 0.80501 54.092 21.265 69.149 30.225 73.175-18.175 32.828-33.375 67.241-45.003 102.46-1.469 4.449 5.516 6.518 6.987 2.062 7.182-21.754 15.768-43.242 25.579-64.258 62.713 4.9579 71.767-25.204 71.767-25.204-31.126-7.8909-50.947-1.02-62.9 7.446 7.059-13.908 14.474-27.655 22.601-40.995 2.265 2.6381 23.719 24.841 81.798-5.0809 0 0-30.926-30.556-81.403 4.416 13.071-21.394 27.579-41.852 43.153-61.302 64.337 21 80.243-8.149 80.243-8.149-37.615-18.615-61.696-8.576-73.392-0.10205 9.76-11.73 19.854-23.105 30.451-33.893 61.39-18.433 58.658-50.232 58.658-50.232-44.287 5.738-57.81 29.932-61.944 43.114z" fill="#7ccaff"/>
</g>
</g>
<g transform="matrix(.99506 -.09932 .09932 .99506 86.795 3.55)">
<g>
<g>
<g>
<path d="m71.201-878.25c0.090004 0.10699 0.203 0.216 0.29301 0.323 0.281 0.31 0.561 0.64502 0.84299 0.95502 0.979 1.091 1.947 2.168 2.913 3.27 0.539 0.61804 1.089 1.249 1.614 1.8781l1.854 2.2469 0.046997 0.057007c0.294-0.23401 0.597-0.43597 0.904-0.62 0.083-0.10297 0.17-0.20099 0.261-0.29498l-2.136-2.234c-1.838-1.874-3.755-3.679-5.622-5.506-0.17-0.17603-0.342-0.328-0.51199-0.50403l-0.30801-0.28796-6.044-5.495s5.893 6.212 5.893 6.212z" fill="#d6f6fb"/>
</g>
</g>
</g>
<g>
<g>
<g>
<path d="m-12.922-943.03 0.0039997 0.0060425c1.948 5.293 3.919 10.237 5.901 14.866 0.096 0.22101 0.197 0.44604 0.293 0.66699 2.584 5.962 5.197 11.388 7.816 16.306 0.112 0.21802 0.226 0.42603 0.344 0.64001 3.921 7.305 7.873 13.5 11.808 18.725 0.151 0.19904 0.296 0.40302 0.449 0.59198 5.226 6.872 10.416 12.061 15.449 15.913 0.222 0.17499 0.449 0.34601 0.672 0.51099 20.532 15.315 38.301 8.665 45.303 4.868 0.33501-0.33704 0.653-0.65601 0.909-0.948 0.703-0.79901 1.485-1.479 2.306-1.97 0.225-0.27698 0.476-0.52197 0.76-0.71997 9.403-19.968 1.333-34.498-13.289-44.955-0.26-0.19098-0.522-0.37299-0.793-0.55603-4.88-3.391-10.441-6.349-16.304-8.907-0.257-0.11499-0.514-0.229-0.777-0.33899-6.36-2.738-13.051-5.029-19.572-6.924-0.253-0.072998-0.512-0.151-0.766-0.224-6.588-1.89-12.991-3.386-18.688-4.545-0.281-0.062012-0.558-0.11902-0.831-0.16998-10.161-2.04-17.961-3.011-20.391-3.293-0.523-0.05603-0.799-0.086975-0.799-0.086975 0.071 0.18597 0.129 0.36395 0.196 0.54395z" fill="#7ccaff"/>
</g>
</g>
</g>
<g>
<g>
<g>
<g>
<path d="m-11.573-940.33s0.0050001 0.0059814 0.0050001 0.0059814c1.593 1.002 7.918 5.055 17.595 11.906 0.257 0.17603 0.517 0.367 0.778 0.54901 5.048 3.578 10.952 7.887 17.554 12.891 0.232 0.177 0.463 0.35303 0.699 0.53601 5.4 4.107 11.247 8.669 17.443 13.682 0.207 0.16797 0.415 0.33496 0.627 0.508 5.952 4.819 12.22 10.044 18.715 15.659 0.206 0.17798 0.407 0.349 0.613 0.52698 5.304 4.588 10.758 9.444 16.319 14.539 0.194-0.15399 0.39-0.29901 0.59-0.43201-2.326-2.133-4.635-4.222-6.921-6.267-0.271-0.245-0.543-0.49103-0.82-0.73102-5.505-4.918-10.881-9.57-16.081-13.961-0.283-0.237-0.562-0.46698-0.835-0.70197-7.003-5.884-13.668-11.282-19.889-16.171-0.285-0.22699-0.569-0.45398-0.859-0.67603-6.346-4.976-12.214-9.407-17.484-13.283-0.364-0.276-0.725-0.53503-1.09-0.80103-14.24-10.451-23.902-16.681-26.355-18.236-0.523-0.055969-0.799-0.086975-0.799-0.086975 0.071 0.18597 0.128 0.36401 0.195 0.54401z" fill="#fff"/>
</g>
</g>
</g>
</g>
<g>
<g>
<g>
<g>
<path d="m71.752-876.01s0.712-0.096008 0.712-0.096008c-0.019997-0.12598-5.312-39.729-5.312-39.729-0.26-0.19196-0.522-0.37396-0.793-0.55701l5.265 39.429 0.128 0.953z" fill="#fff"/>
</g>
</g>
</g>
</g>
<g>
<g>
<g>
<g>
<path d="m54.853-890.68 0.71-0.112c-0.02-0.12604-5.507-34.501-5.507-34.501-0.257-0.11499-0.515-0.22998-0.778-0.33997l5.426 34.006s0.149 0.94702 0.149 0.94702z" fill="#fff"/>
</g>
</g>
</g>
</g>
<g>
<g>
<g>
<g>
<path d="m34.144-907.55 0.695-0.14502c-0.019001-0.099976-5.132-24.864-5.132-24.864-0.253-0.072998-0.512-0.15094-0.766-0.224l5.014 24.307 0.189 0.92603z" fill="#fff"/>
</g>
</g>
</g>
</g>
<g>
<g>
<g>
<g>
<path d="m15.839-921.43 0.663-0.263c-0.026001-0.059998-6.249-15.635-6.249-15.635-0.281-0.062012-0.559-0.11798-0.832-0.16901l5.965 14.943 0.453 1.124z" fill="#fff"/>
</g>
</g>
</g>
</g>
<g>
<g>
<g>
<g>
<path d="m25.058-914.44 0.194-0.059998-0.204-0.67804-0.689 0.20203s-21.918 6.492-21.918 6.492c0.112 0.21802 0.226 0.427 0.344 0.64099 0 0 22.273-6.597 22.273-6.597z" fill="#fff"/>
</g>
</g>
</g>
</g>
<g>
<g>
<g>
<g>
<path d="m6.805-927.87s0.177-0.046997 0.177-0.046997-0.181-0.69598-0.181-0.69598l-0.774 0.19397-11.694 2.959c0.096 0.22101 0.197 0.44702 0.293 0.66803l12.179-3.078z" fill="#fff"/>
</g>
</g>
</g>
</g>
<g>
<g>
<g>
<g>
<path d="m43.128-900.25s0.209-0.088013 0.209-0.088013-0.275-0.65399-0.275-0.65399l-0.561 0.23401-27.908 11.64c0.151 0.19897 0.296 0.40198 0.449 0.59094l28.086-11.723z" fill="#fff"/>
</g>
</g>
</g>
</g>
<g>
<g>
<g>
<g>
<path d="m62.456-884.07s0.208-0.078003 0.208-0.078003l-0.258-0.66699-0.563 0.21802-31.352 11.978c0.222 0.17505 0.449 0.34601 0.672 0.51105l31.293-11.962z" fill="#fff"/>
</g>
</g>
</g>
</g>
</g>
<g transform="matrix(.99534 -.096454 .096454 .99534 90.75 9.2126)">
<path d="m124.81-984.67c-2.222 1.418-4.038 3.248-5.56 5.376-1.513 2.136-2.72 4.581-3.525 7.435-0.407 1.422-0.694 2.967-0.862 4.631-0.055 0.64203-0.090996 1.302-0.109 1.981-0.0019989-0.0040283-0.0049973-0.007019-0.0069962-0.01001-3.109-4.514-6.091-9.252-9.125-14.018-1.901-2.989-3.817-5.985-5.742-8.975-0.0029984-0.0050049-0.0069962-0.0090332-0.0099945-0.014038 1.379-0.11096 2.567-0.41595 3.691-0.78595 1.344-0.47302 2.569-1.067 3.674-1.783 2.219-1.421 4.036-3.25 5.546-5.389 1.502-2.147 2.711-4.593 3.512-7.45 0.407-1.422 0.694-2.966 0.864-4.629 0.148-1.685 0.219-3.447-0.055-5.559-1.786 0.024963-3.228 0.39996-4.592 0.85297-1.342 0.47504-2.567 1.069-3.672 1.784-2.223 1.418-4.038 3.248-5.56 5.376-1.514 2.136-2.721 4.581-3.526 7.435-0.407 1.422-0.694 2.967-0.862 4.631-0.104 1.216-0.164 2.476-0.086998 3.876-0.0029984-0.0039673-0.0050049-0.0079956-0.0080032-0.011963-3.094-4.806-6.233-9.598-9.399-14.358-2.178-3.297-4.389-6.572-6.616-9.822h-9.9945e-4c1.127-0.17603 2.072-0.50201 2.96-0.87305 1.114-0.5 2.103-1.102 2.966-1.808 1.73-1.408 3.025-3.173 3.992-5.207 0.958-2.0411 1.6-4.341 1.804-7.001 0.105-1.328 0.084999-2.757-0.057999-4.288-0.17-1.553-0.423-3.1741-1.048-5.1-1.593 0.10693-2.814 0.5199-3.953 0.9989-1.111 0.50208-2.1 1.104-2.964 1.8091-1.733 1.406-3.028 3.171-4.007 5.1949-0.97 2.031-1.612 4.332-1.819 6.989-0.106 1.327-0.084 2.757 0.060997 4.29 0.091003 0.81598 0.208 1.655 0.387 2.543-9.9945e-4 -0.0020142-0.0019989-0.0029907-0.0029984-0.0040283-2.845-4.121-5.729-8.2159-8.654-12.269-1.487-2.0811-2.998-4.1311-4.518-6.176-0.0040054-0.0059814-0.0080032-0.010986-0.012001-0.016968 1.146-0.53711 2.03-1.2111 2.832-1.9291 0.89-0.84094 1.647-1.751 2.266-2.735 1.243-1.964 2.018-4.176 2.439-6.574 0.411-2.4031 0.481-4.988 0.078003-7.821-0.198-1.4149-0.532-2.9-0.997-4.4559-0.495-1.572-1.079-3.191-2.064-5.021-1.407 0.56799-2.413 1.3479-3.33 2.174-0.888 0.84204-1.644 1.7531-2.264 2.736-1.247 1.962-2.021 4.1741-2.454 6.566-0.424 2.397-0.494 4.981-0.095001 7.812 0.19701 1.4139 0.53101 2.901 0.999 4.458 0.262 0.828 0.554 1.673 0.912 2.552-0.885-1.182-1.77-2.365-2.655-3.547 0 0-4.566-5.864-4.566-5.864-1.508-1.974-3.097-3.864-4.646-5.796 0 0-2.34-2.879-2.34-2.879s-0.269-0.31299-0.269-0.31299l-0.0089989-0.010986c0.993-0.74097 1.734-1.575 2.39-2.4399 0.733-1.019 1.33-2.087 1.789-3.208 0.922-2.239 1.368-4.655 1.454-7.203 0.076-2.552-0.194-5.2311-0.944-8.089-0.372-1.427-0.881-2.906-1.524-4.4341-0.673-1.5389-1.437-3.1119-2.608-4.835-1.259 0.82397-2.11 1.799-2.871 2.807-0.731 1.02-1.329 2.09-1.788 3.21-0.926 2.2371-1.37 4.652-1.469 7.196-0.09 2.547 0.181 5.228 0.927 8.084 0.371 1.427 0.88 2.906 1.526 4.4351 0.26 0.59094 0.543 1.1899 0.847 1.797-7e-3 -0.0090332-0.014999-0.015015-0.021999-0.024048-1.541-1.796-3.054-3.656-4.644-5.406 0 0-4.909-5.502-4.909-5.502s-5.033-5.343-5.033-5.343c-0.687-0.71704-1.383-1.428-2.079-2.123 0-0.006958-0.0060005-0.01001-0.0089989-0.014038 0.697-1.2159 1.108-2.434 1.431-3.653 0.327-1.342 0.522-2.686 0.585-4.03 0.13-2.688-0.196-5.3789-0.868-8.0719-0.681-2.6931-1.695-5.389-3.169-8.087-0.734-1.349-1.599-2.7001-2.594-4.051-1.023-1.351-2.133-2.702-3.634-4.056-0.831 1.339-1.27 2.681-1.623 4.0231-0.324 1.3419-0.52 2.6849-0.584 4.0289-0.134 2.688 0.194 5.379 0.853 8.072 0.669 2.693 1.683 5.389 3.154 8.087 0.633 1.166 1.386 2.334 2.217 3.501-0.02-0.02002-0.040001-0.040039-0.060001-0.060059-2.515-2.485-5.065-4.8999-7.656-7.257 0.0010014-0.015991 0.0010014-0.016968-0.014-0.022949-0.596-0.55701-1.2-1.1071-1.811-1.6531-0.648-0.58496-1.289-1.1599-1.938-1.729-0.0039997-0.0039062-0.0090008-0.0079346-0.013-0.011963-0.266-1.827-0.741-3.4-1.269-4.908-0.566-1.546-1.211-2.995-1.936-4.348-1.448-2.709-3.17-5.085-5.1-7.207-1.936-2.116-4.072-3.9869-6.485-5.5229-1.204-0.77002-2.489-1.4441-3.85-2.024-1.379-0.55798-2.81-1.054-4.476-1.2629 0.263 1.9139 0.762 3.543 1.312 5.1079 0.568 1.5441 1.213 2.994 1.938 4.347 1.445 2.7109 3.167 5.087 5.09 7.218 1.928 2.125 4.065 3.9969 6.476 5.535 1.204 0.771 2.488 1.444 3.851 2.022 1.37 0.552 2.793 1.0399 4.448 1.2469 9.9945e-4 9.7656e-4 0.0019989 0.0020752 0.0030003 0.0030518 0.728 0.67493 1.441 1.359 2.153 2.0439 0.873 0.84705 1.746 1.6951 2.612 2.548 0 0 7e-3 0.011108 0.014 0.022095 2.325 2.2939 4.609 4.63 6.867 7.0139 0.0029984 0.0030518 0.0059986 0.0070801 0.0089989 0.01001-0.274-0.18994-0.547-0.37695-0.818-0.55493-1.317-0.83606-2.6-1.516-3.848-2.0391-2.497-1.051-4.873-1.559-7.158-1.656-2.282-0.085938-4.476 0.22205-6.549 1.078-1.037 0.42407-2.04 1.004-3.008 1.738-0.961 0.76794-1.899 1.639-2.733 2.974 1.45 1.4349 2.798 2.406 4.122 3.2729 1.317 0.83301 2.6 1.5131 3.848 2.037 2.497 1.0541 4.874 1.562 7.162 1.6741 2.286 0.10095 4.479-0.20898 6.553-1.0601 1.038-0.42297 2.04-1.0039 3.008-1.741 0.84-0.67603 1.659-1.449 2.409-2.5289 0.0039997 0.0039062 7e-3 0.0079346 0.011 0.011963 0.744 0.80493 1.49 1.61 2.225 2.437 0.11 0.11694 0.226 0.24597 0.336 0.36401l4.854 5.505s4.717 5.641 4.717 5.641c1.591 1.8579 3.084 3.825 4.619 5.735 0 0 0.687 0.85803 0.687 0.85803s0.016998 0.021973 0.016998 0.021973c-1.386-0.72803-2.63-1.172-3.828-1.524-1.366-0.37195-2.657-0.59497-3.872-0.66602-2.433-0.14795-4.604 0.22498-6.578 0.99207-1.968 0.77698-3.747 1.934-5.261 3.615-0.759 0.83691-1.442 1.824-2.052 2.958-0.593 1.167-1.137 2.433-1.457 4.1439 1.655 0.94702 3.085 1.448 4.466 1.8501 1.365 0.3689 2.656 0.59192 3.872 0.66394 2.435 0.15198 4.606-0.22095 6.586-0.974 1.976-0.76294 3.754-1.92 5.27-3.597 0.759-0.83594 1.443-1.824 2.052-2.9609 0.547-1.082 1.043-2.265 1.366-3.795 0 0 0.0049973 0.0059814 0.0049973 0.0059814l1.02 1.286s2.235 2.947 2.235 2.947c1.478 1.962 3.004 3.8931 4.441 5.897l4.343 5.9751c0.904 1.282 1.816 2.575 2.712 3.8619 0.308 0.44397 0.617 0.87097 0.918 1.304 0.0040054 0.0061035 0.0080032 0.011108 0.012001 0.01709-1.024-0.68604-1.993-1.213-2.941-1.6791-1.357-0.63794-2.66-1.121-3.91-1.4469-2.501-0.65808-4.816-0.776-6.991-0.48608-2.171 0.30103-4.206 0.995-6.055 2.234-0.925 0.61597-1.798 1.387-2.618 2.311-0.808 0.95801-1.58 2.0179-2.194 3.54 1.562 1.2339 2.964 2.005 4.332 2.674 1.356 0.63501 2.659 1.119 3.909 1.446 2.502 0.66199 4.817 0.77893 6.997 0.50391 2.176-0.28601 4.212-0.98193 6.062-2.2159 0.926-0.61499 1.797-1.386 2.616-2.312 0.692-0.82495 1.352-1.744 1.913-2.95 0.0029984 0.0039062 0.0049973 0.006958 0.0079956 0.010986 1.233 1.7749 2.45 3.5439 3.651 5.34 3.212 4.761 6.374 9.57 9.465 14.425 0.0029984 0.0040283 0.0049973 0.007019 0.0069962 0.01001-1.357-1.012-2.604-1.709-3.818-2.306-1.357-0.638-2.661-1.121-3.91-1.447-2.501-0.65802-4.816-0.776-6.991-0.48602-2.171 0.30103-4.207 0.995-6.056 2.234-0.926 0.61499-1.797 1.387-2.617 2.311-0.808 0.95801-1.581 2.017-2.195 3.539 1.562 1.234 2.964 2.007 4.332 2.676 1.356 0.63501 2.659 1.118 3.909 1.445 2.502 0.66199 4.817 0.77899 6.997 0.50397 2.176-0.28699 4.212-0.98096 6.062-2.2159 0.92599-0.61401 1.798-1.386 2.617-2.313 0.76-0.90601 1.484-1.916 2.077-3.309 0.0019989 0.0039673 0.0049973 0.006958 0.0069962 0.010986 2.088 3.245 4.138 6.516 6.17 9.797 3.07 4.962 6.108 9.928 9.114 14.932 0.0049973 0.0079956 0.0089951 0.016968 0.014 0.024963-0.922-0.59698-1.803-1.078-2.666-1.502-1.357-0.638-2.66-1.121-3.91-1.447-2.501-0.65802-4.816-0.776-6.991-0.48602-2.171 0.30103-4.207 0.995-6.056 2.234-0.926 0.61499-1.797 1.387-2.617 2.311-0.808 0.95801-1.581 2.018-2.195 3.54 1.562 1.234 2.964 2.006 4.332 2.675 1.356 0.63501 2.659 1.118 3.909 1.445 2.502 0.66199 4.817 0.78003 6.997 0.50403 2.176-0.28601 4.212-0.98199 6.062-2.216 0.926-0.61499 1.798-1.386 2.617-2.313 0.636-0.75806 1.246-1.588 1.777-2.651 9.9945e-4 0.0019531 0.0019989 0.0029907 0.0029984 0.0049438 1.651 2.759 3.31 5.5291 4.952 8.309 2.713 4.566 5.436 9.219 8.378 13.825 0.0050049 0.007019 0.0039978 0.0059814 0.0039978 0.0059814-0.348-0.18597-0.69199-0.35999-1.035-0.52899-1.357-0.638-2.66-1.122-3.91-1.448-2.501-0.65802-4.816-0.776-6.991-0.48602-2.171 0.30103-4.207 0.995-6.056 2.234-0.926 0.61499-1.797 1.388-2.617 2.311-0.80801 0.95801-1.58 2.018-2.194 3.54 1.562 1.234 2.964 2.006 4.331 2.675 1.356 0.63501 2.659 1.119 3.909 1.446 2.503 0.66199 4.817 0.77899 6.997 0.50299 2.176-0.28601 4.212-0.98004 6.062-2.215 0.926-0.61499 1.798-1.386 2.617-2.313 0.481-0.57404 0.945-1.199 1.375-1.923 0.0019989 0.0030518 0.0039978 0.007019 0.0059967 0.01001 1.781 2.644 3.648 5.263 5.642 7.817 1.59 2.031 3.282 4.043 5.033 5.939 1.759 1.89 3.553 3.711 5.345 5.424 3.59 3.4691 7.186 6.6671 10.61 9.914 0.94 0.89801 1.88 1.797 2.781 2.705 1.182-2.029 2.297-4.109 3.352-6.229-0.883-0.81-1.767-1.603-2.644-2.386-3.677-3.272-7.329-6.31-10.783-9.427-3.484-3.13-6.672-6.309-9.668-9.909-1.727-2.068-3.386-4.226-4.997-6.447-0.0019989-0.0029907-0.0049973-0.006958-0.0069962-0.01001 0.851-0.15399 1.639-0.37195 2.396-0.62097 1.344-0.47302 2.569-1.067 3.674-1.783 2.219-1.421 4.036-3.25 5.546-5.389 1.503-2.147 2.711-4.593 3.513-7.45 0.407-1.422 0.694-2.965 0.864-4.628 0.14799-1.685 0.218-3.448-0.056-5.56-1.787 0.025024-3.228 0.40002-4.592 0.85303-1.342 0.47498-2.567 1.069-3.672 1.784z" fill="#ffae36"/>
</g>
</g>
</g>
<g transform="matrix(2.609 0 0 2.609 416.9 3592.1)" display="block">
<g>
<g>
<g>
<path d="m84.181-1171.7v315.16c0 4.453 3.644 8.096 8.097 8.096h188.22c4.453 0 8.096-3.643 8.096-8.096v-315.16c0-4.453-3.643-8.097-8.096-8.097h-188.22c-4.453 0-8.097 3.644-8.097 8.097z" fill="#154284"/>
</g>
<g>
<path d="m282.69-1165.6v285.06c0 4.574-4.009 8.313-8.907 8.313h-174.8c-4.898 0-8.906-3.739-8.906-8.313v-285.06c0-4.575 4.008-8.313 8.906-8.313h174.8c2.537 0 4.831 1.006 6.457 2.605 1.518 1.4911 2.45 3.5021 2.45 5.708z" fill="url(#i)"/>
</g>
<g style="mix-blend-mode:screen">
<path d="m180.53-859.72c0 3.235 2.623 5.858 5.858 5.858s5.858-2.623 5.858-5.858-2.623-5.858-5.858-5.858-5.858 2.623-5.858 5.858z" fill="#c8d0e1" fill-opacity=".19"/>
</g>
<g>
<g>
<path d="m176.82-859.72c0.28 5.192 4.149 9.569 9.568 9.569 5.188 0 9.592-4.365 9.569-9.569-0.022995-5.036-4.064-9.303-9.103-9.544-5.599-0.26801-9.744 4.162-10.034 9.544-0.070007 1.302 1.954 1.298 2.024 0 0.51999-9.658 15.089-9.748 15.089 0s-14.568 9.666-15.089 0c-0.070007-1.296-2.094-1.304-2.024 0z" fill="#c8d0e1"/>
</g>
</g>
</g>
</g>
</g>
<g display="block" mask="url(#g)">
<g transform="translate(1400.5 896)" opacity=".567">
<g transform="translate(-596 -376)" opacity="1">
<g transform="translate(0 432.1)" opacity="1">
<path d="m277-0.65v1.3h-554v-1.3h554z" fill="#007ae5"/>
</g>
<g transform="translate(0 417.2)" opacity="1">
<path d="m277-0.65v1.3h-554v-1.3h554z" fill="#007ae5"/>
</g>
<g transform="translate(0 402.3)" opacity="1">
<path d="m277-0.65v1.3h-554v-1.3h554z" fill="#007ae5"/>
</g>
<g transform="translate(0 387.4)" opacity="1">
<path d="m277-0.65v1.3h-554v-1.3h554z" fill="#007ae5"/>
</g>
<g transform="translate(0 372.5)" opacity="1">
<path d="m277-0.65v1.3h-554v-1.3h554z" fill="#007ae5"/>
</g>
<g transform="translate(0 357.6)" opacity="1">
<path d="m277-0.65v1.3h-554v-1.3h554z" fill="#007ae5"/>
</g>
<g transform="translate(0 342.7)" opacity="1">
<path d="m277-0.65v1.3h-554v-1.3h554z" fill="#007ae5"/>
</g>
<g transform="translate(0 327.8)" opacity="1">
<path d="m277-0.65v1.3h-554v-1.3h554z" fill="#007ae5"/>
</g>
<g transform="translate(0 312.9)" opacity="1">
<path d="m277-0.65v1.3h-554v-1.3h554z" fill="#007ae5"/>
</g>
<g transform="translate(0 298)" opacity="1">
<path d="m277-0.65v1.3h-554v-1.3h554z" fill="#007ae5"/>
</g>
<g transform="translate(0 283.1)" opacity="1">
<path d="m277-0.65v1.3h-554v-1.3h554z" fill="#007ae5"/>
</g>
<g transform="translate(0 268.2)" opacity="1">
<path d="m277-0.65v1.3h-554v-1.3h554z" fill="#007ae5"/>
</g>
<g transform="translate(0 253.3)" opacity="1">
<path d="m277-0.65v1.3h-554v-1.3h554z" fill="#007ae5"/>
</g>
<g transform="translate(0 238.4)" opacity="1">
<path d="m277-0.65v1.3h-554v-1.3h554z" fill="#007ae5"/>
</g>
<g transform="translate(0 223.5)" opacity="1">
<path d="m277-0.65v1.3h-554v-1.3h554z" fill="#007ae5"/>
</g>
<g transform="translate(0 208.6)" opacity="1">
<path d="m277-0.65v1.3h-554v-1.3h554z" fill="#007ae5"/>
</g>
<g transform="translate(0 193.7)" opacity="1">
<path d="m277-0.65v1.3h-554v-1.3h554z" fill="#007ae5"/>
</g>
<g transform="translate(0 178.8)" opacity="1">
<path d="m277-0.65v1.3h-554v-1.3h554z" fill="#007ae5"/>
</g>
<g transform="translate(0 163.9)" opacity="1">
<path d="m277-0.65v1.3h-554v-1.3h554z" fill="#007ae5"/>
</g>
<g transform="translate(0 149)" opacity="1">
<path d="m277-0.65v1.3h-554v-1.3h554z" fill="#007ae5"/>
</g>
<g transform="translate(0 134.1)" opacity="1">
<path d="m277-0.65v1.3h-554v-1.3h554z" fill="#007ae5"/>
</g>
<g transform="translate(0 119.2)" opacity="1">
<path d="m277-0.65v1.3h-554v-1.3h554z" fill="#007ae5"/>
</g>
<g transform="translate(0 104.3)" opacity="1">
<path d="m277-0.65v1.3h-554v-1.3h554z" fill="#007ae5"/>
</g>
<g transform="translate(0 89.4)" opacity="1">
<path d="m277-0.65v1.3h-554v-1.3h554z" fill="#007ae5"/>
</g>
<g transform="translate(0 74.5)" opacity="1">
<path d="m277-0.65v1.3h-554v-1.3h554z" fill="#007ae5"/>
</g>
<g transform="translate(0 59.6)" opacity="1">
<path d="m277-0.65v1.3h-554v-1.3h554z" fill="#007ae5"/>
</g>
<g transform="translate(0 44.7)" opacity="1">
<path d="m277-0.65v1.3h-554v-1.3h554z" fill="#007ae5"/>
</g>
<g transform="translate(0 29.8)" opacity="1">
<path d="m277-0.65v1.3h-554v-1.3h554z" fill="#007ae5"/>
</g>
<g transform="translate(0 14.9)" opacity="1">
<path d="m277-0.65v1.3h-554v-1.3h554z" fill="#007ae5"/>
</g>
<g opacity="1">
<path d="m277-0.65v1.3h-554v-1.3h554z" fill="#007ae5"/>
</g>
</g>
</g>
</g>
<g transform="matrix(2.609 0 0 2.609 416.9 3592.1)" clip-path="url(#f)" display="block">
<g transform="translate(0 -292.25)">
<g style="mix-blend-mode:screen">
<path d="m282.69-1165.6v31.919l-192.62 168.45v-39.773l190.17-166.3c1.518 1.4911 2.45 3.5021 2.45 5.708z" fill="#e2ebff" fill-opacity=".19"/>
</g>
<g style="mix-blend-mode:screen">
<path d="m282.69-1109.5v57.086l-191.7 167.64-0.917-1.053v-55.23l192.62-168.44z" fill="#e2ebff" fill-opacity=".19"/>
</g>
</g>
</g>
<g clip-path="url(#e)" display="none"/>
<g transform="translate(944.5 845)" display="block">
<g>
<path d="m0 0m-53.625-130.38s-51.375 4.375-80.544 14.247c-22.273 7.539-91.331 35.128-91.331 35.128s1 229 0 255.5c12 54 63 106 117.5 140s54.875 34.563 54.875 34.563l-0.5-479.44z" fill="url(#d)" mask="url(#b)"/>
</g>
</g>
<g transform="matrix(2.609 0 0 2.609 416.9 3592.1)" display="block">
<g>
<g>
<g transform="translate(-.383)">
<path d="m248.3-989.32c0 34.932-66.456 70.087-66.456 70.087s-66.455-35.155-66.455-70.087v-15.562-78.811l27.11-11.332c25.074-10.481 53.616-10.481 78.691 0l27.11 11.332v78.811 15.562z" fill="#ff9a3c"/>
</g>
<g>
<path d="m180.73-1102.9c-13.032 0.14099-26.042 2.739-38.232 7.834l-27.11 11.332v94.373c0 32.256 56.661 64.7 65.342 69.482v-183.02z" fill="#fbfbfb" fill-opacity=".4"/>
</g>
<g>
<path d="m236.61-993.15c0 28.784-54.759 57.752-54.759 57.752s-54.76-28.968-54.76-57.752v-12.823-64.941l22.339-9.338c20.662-8.636 44.18-8.636 64.842 0 0 0 22.338 9.338 22.338 9.338v64.941 12.823z" fill="#00cdff"/>
</g>
<g>
<path d="m180.73-1086.7c-10.673 0.14001-21.325 2.277-31.308 6.4501l-22.338 9.338v77.764c0 26.353 45.893 52.856 53.646 57.145v-150.7z" fill="#fbfbfb" fill-opacity=".4"/>
</g>
<g>
<g>
<path d="m198.5-992.79h-33.303c-3.662 0-6.632-2.969-6.632-6.631v-35.521c0-3.662 2.97-6.632 6.632-6.632h33.303c3.662 0 6.632 2.97 6.632 6.632v35.521c0 3.662-2.97 6.631-6.632 6.631z" fill="#ffae36"/>
</g>
<g>
<g>
<path d="m186.45-1031.6h-9.211c-3.838 0-6.96-3.121-6.96-6.959v-14.445c0-3.838 3.122-6.9591 6.96-6.9591h9.211c3.838 0 6.96 3.1211 6.96 6.9591v14.445c0 3.838-3.122 6.959-6.96 6.959zm-9.211-26.166c-2.626 0-4.762 2.136-4.762 4.7621v14.445c0 2.626 2.136 4.761 4.762 4.761h9.211c2.626 0 4.762-2.135 4.762-4.761v-14.445c0-2.6261-2.136-4.7621-4.762-4.7621h-9.211z" fill="#ffae36"/>
</g>
</g>
<g>
<g>
<path d="m189.53-1023.1c0 4.245-3.442 7.686-7.687 7.686s-7.686-3.441-7.686-7.686 3.441-7.686 7.686-7.686 7.687 3.441 7.687 7.686z" fill="#154284"/>
</g>
<g>
<path d="m187.88-1003.6h-12.065l2.335-14.4h7.395l2.335 14.4z" fill="#154284"/>
</g>
</g>
</g>
</g>
</g>
</g>
<g transform="matrix(2.609 0 0 2.609 416.9 3600.6)" display="block">
<g>
<g>
<path d="m313.05-1074.5v-113.74h-78.033v113.74h78.033z" fill="#154284" fill-opacity=".62"/>
</g>
<g>
<path d="m311.02-1078.3v-113.74h-78.033v113.74h78.033z" fill="#e6f5fc"/>
</g>
<g>
<g>
<path d="m256.01-1184c-1.818 0-1.82 2.825 0 2.825h31.985c1.818 0 1.821-2.825 0-2.825h-31.985z" fill="#7ccaff"/>
</g>
</g>
<g>
<g>
<path d="m247.54-1172.9h-8.163c-0.909 0-0.90999 1.413 0 1.413h57.092 8.163c0.909 0 0.91-1.413 0-1.413h-57.092z" fill="#7ccaff"/>
</g>
</g>
<g>
<g>
<path d="m247.54-1166.6h-8.163c-0.909 0-0.90999 1.4121 0 1.4121h57.092 8.163c0.909 0 0.91-1.4121 0-1.4121h-57.092z" fill="#7ccaff"/>
</g>
</g>
<g>
<g>
<path d="m247.54-1160.3h-8.163c-0.909 0-0.90999 1.412 0 1.412h57.092 8.163c0.909 0 0.91-1.412 0-1.412h-57.092z" fill="#7ccaff"/>
</g>
</g>
<g>
<g>
<path d="m247.54-1153.6h-8.163c-0.909 0-0.90999 1.4131 0 1.4131h57.092 8.163c0.909 0 0.91-1.4131 0-1.4131h-57.092z" fill="#7ccaff"/>
</g>
</g>
<g>
<g>
<path d="m247.54-1148.1h-8.163c-0.909 0-0.90999 1.412 0 1.412h57.092 8.163c0.909 0 0.91-1.412 0-1.412h-57.092z" fill="#7ccaff"/>
</g>
</g>
<g>
<g>
<path d="m247.54-1143.3h-8.163c-0.909 0-0.90999 1.413 0 1.413h57.092 8.163c0.909 0 0.91-1.413 0-1.413h-57.092z" fill="#7ccaff"/>
</g>
</g>
<g>
<path d="m279.91-1101.1c0 4.469-3.623 8.0909-8.091 8.0909-4.468 0-8.091-3.6219-8.091-8.0909s3.623-8.0911 8.091-8.0911c4.468 0 8.091 3.6221 8.091 8.0911z" fill="#7ccaff"/>
</g>
<g>
<path d="m0 0" fill-opacity="0" stroke="#fff" stroke-linecap="round" stroke-linejoin="round" stroke-width="3.6"/>
</g>
</g>
</g>
<g transform="matrix(2.609 0 0 2.609 416.9 3592.1)" display="block">
<g>
<g>
<path d="m118.44-925.7v-108.19h-152.17v108.19h152.17z" fill="#e6f5fc"/>
</g>
<g>
<g>
<path d="m75.042-932.42h-9.829v-53.758h-14.129v53.758h-3.269v-9.114h-14.129v9.114h-4.098v-46.924h-14.128v46.924h-2.442v-27.899h-14.128v27.899h-2.404v-39.864h-14.128v39.864h-8.747v-62.893-9.083c0-1.393-2.164-1.395-2.164 0v63.975 9.083c0 0.58502 0.496 1.082 1.082 1.082h89.85 12.663c1.393 0 1.395-2.164 0-2.164z" fill="#7ccaff"/>
</g>
</g>
<g>
<g>
<path d="m68.292-1021.9h19.327c1.514 0 1.516-2.939 0-2.939h-19.327c-1.514 0-1.516 2.939 0 2.939z" fill="#7ccaff"/>
</g>
</g>
<g>
<g>
<path d="m49.447-1015.7h48.372 6.952c0.757 0 0.758-1.469 0-1.469h-48.372-6.952c-0.757 0-0.758 1.469 0 1.469z" fill="#7ccaff"/>
</g>
</g>
<g>
<g>
<path d="m49.447-1010.3h48.372 6.952c0.757 0 0.758-1.469 0-1.469h-48.372-6.952c-0.757 0-0.758 1.469 0 1.469z" fill="#7ccaff"/>
</g>
</g>
<g>
<g>
<path d="m49.447-1004.9h30.027c0.757 0 0.758-1.469 0-1.469h-30.027c-0.757 0-0.758 1.469 0 1.469z" fill="#7ccaff"/>
</g>
</g>
<g>
<g>
<path d="m84.906-1004.9h20.26c0.757 0 0.758-1.469 0-1.469h-20.26c-0.757 0-0.758 1.469 0 1.469z" fill="#7ccaff"/>
</g>
</g>
<g>
<g>
<path d="m49.447-999.36h11.792c0.757 0 0.758-1.469 0-1.469h-11.792c-0.757 0-0.758 1.469 0 1.469z" fill="#7ccaff"/>
</g>
</g>
<g>
<g>
<path d="m66.167-999.36h11.791c0.757 0 0.758-1.469 0-1.469h-11.791c-0.757 0-0.758 1.469 0 1.469z" fill="#7ccaff"/>
</g>
</g>
<g>
<g>
<path d="m59.468-994.61h22.543c0.757 0 0.758-1.469 0-1.469h-22.543c-0.757 0-0.758 1.469 0 1.469z" fill="#7ccaff"/>
</g>
</g>
<g>
<g>
<path d="m49.447-994.61h5.896c0.757 0 0.758-1.469 0-1.469h-5.896c-0.757 0-0.758 1.469 0 1.469z" fill="#7ccaff"/>
</g>
</g>
<g>
<g>
<path d="m84.671-994.61h8.376c0.757 0 0.758-1.469 0-1.469h-8.376c-0.757 0-0.758 1.469 0 1.469z" fill="#7ccaff"/>
</g>
</g>
<g>
<g>
<path d="m96.79-994.61h8.376c0.757 0 0.758-1.469 0-1.469h-8.376c-0.757 0-0.758 1.469 0 1.469z" fill="#7ccaff"/>
</g>
</g>
<g>
<g>
<path d="m82.757-999.36h22.409c0.757 0 0.758-1.469 0-1.469h-22.409c-0.757 0-0.758 1.469 0 1.469z" fill="#7ccaff"/>
</g>
</g>
</g>
</g>
<g transform="matrix(2.609 0 0 2.609 416.9 3592.1)" display="block">
<g>
<g>
<g>
<path d="m77.707-881.34s-52.025 1.892-54.162 10.404c-2.138 8.512 87.715 32.815 113.31 23.147 25.59-9.667 32.453-15.658 32.453-15.658s1.924-9.7661-39.149-14.967c-41.073-5.201-52.447-2.926-52.447-2.926z" fill="#02033b"/>
</g>
<g>
<g>
<path d="m115.32-859.61s28.928-9.457 31.153-16.725c2.225-7.268-8.345-58.932-13.908-63.939-5.387-4.848-34.372-9.175-36.198-9.443v-0.013977s-0.029999 0.0050049-0.045998 0.006958c-0.015999-0.0019531-0.044998-0.006958-0.044998-0.006958v0.013977c-1.826 0.26801-30.811 4.595-36.198 9.443-5.563 5.007-16.133 56.671-13.908 63.939 2.225 7.268 31.153 16.725 31.153 16.725s2.781-6.954 2.781-6.954l-20.443-16.402s8.588-28.38 11.456-21.704c2.868 6.676 8.431 29.205 8.431 29.205h16.728 0.090996 16.728s5.563-22.529 8.431-29.205c2.868-6.676 11.547 21.704 11.547 21.704l-19.128 16.758s1.375 6.598 1.375 6.598zm-19.451-129.13c-4.354 0.13403-8.006 3.636-9.505 7.633-2.372 6.326-0.791 20.955 4.744 22.932 5.535 1.977 11.861 1.858 14.234-3.223 3.577-7.662 2.794-25.749-8.039-27.264-0.48499-0.067993-0.963-0.092957-1.434-0.078003zm4.919 40.593v-13.391h-8.842v13.391s4.511 4.295 8.842 0zm8.661-19.659c1.252-2.323 3.134-6.603 4.798-11.23 1.664-4.6281-1.46-5.422-2.92-7.877-1.46-2.455-1.669-1.804 0.626-3.546 2.295-1.743 1.877-4.26-2.504-5.809-4.381-1.549-6.467 1.162-13.082 1.936-6.615 0.77399-2.772-1.161-8.196 0.58099-5.424 1.742-7.51 7.357-7.51 12.585 0 5.228 1.463 6.733 2.086 11.23 0.177 1.274 0.59901 2.354 1.109 3.259-0.86 8.002 1.369 16.891 4.315 16.946 3.755 0.06897 5.007-2.156 8.105 0 3.098 2.156 13.591-0.90302 10.98-5.284-1.476-2.477-0.249-7.071 0.512-10.257 0.576-0.74701 1.195-1.632 1.681-2.534zm-8.661 1.734c-5.233-1.254-8.445 0.62598-10.948 1.795-1.113 0.52002-2.132-1.123-2.92-3.105 0.037003-2.193 0.228-4.875 0.834-7.054 1.252-4.5 3.755-4.019 9.938-4.213 6.183-0.19397 6.543-3.837 7.376 1.356 0.458 2.854 0.712 6.808 0.848 9.792-1.402 1.43-0.866 2.45-5.128 1.429zm-7.281 2.399c0 0.74902 1.28 1.356 2.86 1.356s2.86-0.60699 2.86-1.356-1.28-1.356-2.86-1.356-2.86 0.60699-2.86 1.356z" fill="#2f72de"/>
<g>
<g>
<g>
<path d="m95.864-988.74c-4.354 0.13403-8.006 3.636-9.505 7.633-2.372 6.326-0.791 20.955 4.744 22.932 5.535 1.977 11.861 1.858 14.234-3.223 3.577-7.662 2.794-25.749-8.039-27.264-0.48499-0.067993-0.963-0.092957-1.434-0.078003z" fill="#ffa085"/>
</g>
</g>
<g>
<g>
<path d="m100.78-948.15v-13.391h-8.842v13.391s4.511 4.295 8.842 0z" fill="#ffa085"/>
</g>
</g>
<g>
<path d="m109.44-967.81c1.252-2.323 3.134-6.603 4.798-11.23 1.664-4.6281-1.46-5.422-2.92-7.877-1.46-2.455-1.669-1.804 0.626-3.546 2.295-1.743 1.877-4.26-2.504-5.809-4.381-1.549-6.467 1.162-13.082 1.936-6.615 0.77399-2.772-1.161-8.196 0.58099-5.424 1.742-7.51 7.357-7.51 12.585 0 5.228 1.463 6.733 2.086 11.23 0.177 1.274 0.59901 2.354 1.109 3.259-0.86 8.002 1.369 16.891 4.315 16.946 3.755 0.06897 5.007-2.156 8.105 0 3.098 2.156 13.591-0.90302 10.98-5.284-1.476-2.477-0.249-7.071 0.512-10.257 0.576-0.74701 1.195-1.632 1.681-2.534zm-8.661 1.734c-5.233-1.254-8.445 0.62598-10.948 1.795-1.113 0.52002-2.132-1.123-2.92-3.105 0.037003-2.193 0.228-4.875 0.834-7.054 1.252-4.5 3.755-4.019 9.938-4.213 6.183-0.19397 6.543-3.837 7.376 1.356 0.458 2.854 0.712 6.808 0.848 9.792-1.402 1.43-0.866 2.45-5.128 1.429z" fill="#02033b"/>
</g>
<g>
<g>
<path d="m93.502-963.68c0 0.74902 1.28 1.356 2.86 1.356s2.86-0.60699 2.86-1.356-1.28-1.356-2.86-1.356-2.86 0.60699-2.86 1.356z" fill="#ffa085"/>
</g>
</g>
</g>
</g>
</g>
<g>
<g>
<path d="m67.852-859.61h28.51 28.51l11.126-31.709h-39.636-39.637l11.127 31.709z" fill="#fff"/>
</g>
</g>
<g>
<path d="m28.348-872.8c-1.762 0.28699-3.528 0.82196-4.803 1.865-4.522 3.699-2.385 10.076 1.091 14.989 1.481 2.093 3.206 3.92 4.762 5.1609 6.37 5.079 15.285 7.618 23.732 9.265 9.609 1.873 19.541 2.551 29.386 2.867 2.937 0.093994 21.517 1.887 23.056 0.17102 0 0 4.831-5.382 4.832-5.383 0.119-0.13202-26.203-12.933-27.863-13.67-14.312-6.354-37.219-18.033-54.193-15.265z" fill="#182659"/>
</g>
<g>
<path d="m116.58-840.72-2.706-1.408s-2.125 6.791-2.125 6.791c3.719 2.496 22.725 7.456 21.303 0.74103-1.422-6.715-16.472-6.124-16.472-6.124z" fill="#182659"/>
</g>
<g>
<path d="m162.02-869.66c-16.974-2.768-39.881 8.911-54.193 15.265-1.66 0.737-27.982 13.538-27.863 13.67 9.9945e-4 0.0010376 4.831 5.383 4.831 5.383 1.539 1.716 20.12-0.075989 23.056-0.16998 9.845-0.31598 19.777-0.99402 29.386-2.867 8.447-1.647 17.363-4.187 23.733-9.266 1.556-1.241 3.28-3.067 4.761-5.16 3.476-4.913 5.614-11.29 1.092-14.989-1.275-1.043-3.041-1.579-4.803-1.866z" fill="#182659"/>
</g>
<g>
<path d="m63.49-834.6c-1.422 6.715 17.584 1.755 21.303-0.74103 0 0-2.125-6.791-2.125-6.791l-2.706 1.408s-15.05-0.591-16.472 6.124z" fill="#182659"/>
</g>
</g>
<g>
<g>
<path d="m-5.943-945.68 3.508-1.59s2.505 5.337 3.721 8.022c1.217 2.685 1.133 4.88-0.251 6.586-1.384 1.706-5.44-7.243-5.524-5.048-0.084 2.195 0.406 0.89502-0.083 2.195-0.489 1.3-2.517-3.174-2.028-4.474 0.489-1.3 0.657-5.691 0.657-5.691z" fill="#ffa085"/>
</g>
<g>
<path d="m-68.628-941.6c1.02 0.94299 1.213 5.852 0.193 4.909-1.02-0.94299 0 0-1.059-1.925-1.059-1.925-0.673 7.892-2.675 6.987-2.002-0.90399-3.061-2.829-3.177-5.774-0.116-2.945-0.268-8.839-0.268-8.839l3.848-0.151s2.118 3.85 3.138 4.793z" fill="#ffa085"/>
</g>
<g>
<path d="m-56.209-1018.1c6.342-3.788 16.981-3.99 22.088-3.84 1.791 0.053955 2.905 0.151 2.905 0.151s1.553 0 3.883 0.263c1.269 0.146 2.772 0.36694 4.379 0.71399 5.368 1.157 11.182 3.601 14.39 8.411 2.91 4.363 3.196 10.451 3.599 15.533 1.162 14.653 0.992 29.776 2.891 44.495 0.374 2.898 0.812 5.787 1.331 8.663h-5.477s-5.95-12.379-7.854-28.565c-1.904-16.19-1.903-19.998-6.191 9.999 0 0-7.197 5.231-17.609 5.071-4.969-0.077026-10.67-1.381-16.669-5.073 0 0-1.904-18.091-1.904-23.328 0-5.237-10.951 8.093-13.331 15.711-2.381 7.618-0.952 25.233-0.952 25.233h-4.761s-5.713-15.474-3.095-31.899c2.619-16.425 13.807-36.421 22.377-41.539z" fill="#ff9a3c"/>
</g>
<g>
<path d="m-56.148-839.93c1.336 1.796 3.323 1.263 3.323 1.263s3.676 2.774 5.434 3.74c1.758 0.966 4.624 1.554 4.233 3.426-0.391 1.872-5.6 1.799-6.837 1.197-1.237-0.60297-2.865-0.98096-3.972-0.40497-1.107 0.57599-3.386 0.50397-3.907 0-0.521-0.50403-0.13-3.888 0-5.544 0.13-1.656 1.726-3.677 1.726-3.677z" fill="#005167"/>
</g>
<g>
<path d="m-27.423-839.93c1.336 1.796 3.323 1.263 3.323 1.263s3.676 2.774 5.434 3.74c1.758 0.966 4.624 1.554 4.233 3.426-0.391 1.872-5.6 1.799-6.837 1.197-1.237-0.60297-2.865-0.98096-3.972-0.40497-1.107 0.57599-3.386 0.50397-3.907 0-0.521-0.50403-0.13-3.888 0-5.544 0.13-1.656 1.726-3.677 1.726-3.677z" fill="#005167"/>
</g>
<g>
<path d="m-20.087-962.34c0.175 0.49701 0.344 1.02 0.508 1.565 5.571 18.541 3.838 62.777 2.056 70.746-2.252 10.068-5.471 52.045-5.471 52.045h-5.538c-7.845-21.134-7.613-45.457-5.976-53.876 1.637-8.419-3.613-44.039-5.5-42.369-0.882 0.77997 0.632 13.029-0.060001 22.979-0.143 2.049-0.341 4.096-0.593 6.135-0.968 7.841-2.921 15.283-5.348 22.777-2.523 7.79-3.4 15.974-4.256 24.08-0.713 6.744-1.305 13.506-1.743 20.274h-5.341s-3.138-9.355-5.907-22.749c-2.769-13.394 0.346-27.555 2.942-33.226 1.125-2.458 0.468-5.642 0.058998-8.196-0.471-2.944-1.198-5.838-1.857-8.743-1.383-6.092-2.601-12.243-2.874-18.5-0.692-15.852 10.549-32.942 10.549-32.942 14.702 10.141 34.35 0 34.35 0z" fill="#002834"/>
</g>
<g>
<path d="m-22.953-1020.8s-7.931 8.34-7.931 8.34l-3.897-5.776 7.448-3.278c1.269 0.146 2.773 0.36798 4.38 0.71399z" fill="#d9f8ff"/>
</g>
<g>
<path d="m-34.781-1018.6s-4.384 6.123-4.384 6.123l-9.397-8.308 5.698-1.612 8.083 3.797z" fill="#d9f8ff"/>
</g>
<g>
<path d="m-46.332-1044.3c1.079-0.328 2.144-0.78198 2.902-1.647 0.689-0.78601 0.988-1.8461 1.765-2.566 0.949-0.88 2.297-1.006 3.521-1.158 1.315-0.16309 2.44-0.82202 3.744-0.96411 0.908-0.098999 1.908 0.15405 2.482 0.86511 0.994 1.2329 1.029 1.7479 2.656 1.0819 0.76-0.31091 1.628-0.26392 2.416-0.031982 0.788 0.23303 1.512 0.63806 2.228 1.041 0.362 0.20398 0.733 0.41406 1.004 0.729 0.271 0.31494 0.427 0.76196 0.291 1.155-0.102 0.29492-0.349 0.51392-0.503 0.78491-0.384 0.67603-0.12 1.571 0.411 2.139 1 1.069 2.691 1.046 2.837 2.795 0.128 1.531-1.163 3.061-2.059 4.163-0.546 0.672-1.117 1.386-1.243 2.243-0.11 0.74597 0.119 1.411 0.497 2.042 1.047 1.75 3.236 3.234 2.508 5.439-0.286 0.86707-1.067 1.455-1.721 2.092-1.504 1.464-2.493 3.421-4.125 4.741-1.889 1.528-4.42 2.02-6.849 2.07-1.49 0.031006-3.066-0.11298-4.289-0.96503-0.932-0.64899-1.584-1.66-2.574-2.215-2.705-1.516-6.783 1.298-8.979-1.443-1.542-1.925 0.027-4.437 0.348-6.4921 0.257-1.6429-0.138-3.36 0.287-4.9679 0.226-0.854 0.677-1.649 0.786-2.525 0.267-2.139-2.005-2.178-2.896-3.636-1.739-2.8451 2.781-4.2311 4.555-4.77z" fill="#005167"/>
</g>
<g>
<path d="m-42.067-1036.3c1.022-0.76099 2.515-0.81299 3.345-1.78 0.794-0.92505 0.906-2.584 2.094-2.854 1.098-0.25 1.892 0.95801 2.679 1.764 0.748 0.76599 1.767 1.2629 2.831 1.382 0.779 0.087036 1.58-0.020996 2.344 0.15796 0.764 0.17908 1.524 0.78198 1.506 1.566-0.013 0.58704-0.445 1.066-0.758 1.563-0.24 0.38-0.356 0.802-0.401 1.2469-0.22 2.1691 1.25 4.8551-1.669 5.5591-0.867 0.20898-1.775 0.14795-2.659 0.26892-1.958 0.26807-3.943 1.42-5.791 0.72009-0.871-0.33008-1.543-1.0281-2.168-1.718-1.013-1.118-2.013-2.318-2.437-3.766s-0.126-3.209 1.084-4.11z" fill="#ffa085"/>
</g>
</g>
</g>
</g>
<g transform="matrix(2.609 0 0 2.609 416.9 3592.1)" display="block">
<g>
<g>
<g>
<g>
<path d="m315.32-861.55c-0.142 3.327-2.661 6.05-6.077 6.078-3.292 0.026978-6.105-2.787-6.078-6.078 0.063995-7.8651 11.823-7.812 12.155 0 0.078003 1.837 2.944 1.847 2.866 0-0.207-4.873-3.925-8.923-8.943-8.9431-4.847-0.019958-8.963 4.095-8.943 8.9431 0.02002 4.862 4.066 8.943 8.943 8.943 5.018 0 8.736-4.086 8.943-8.943 0.078003-1.8441-2.788-1.84-2.866 0z" fill="#ff5c9a"/>
</g>
</g>
<g>
<path d="m256.66-848.53h146.49c9.665 0 17.5-7.835 17.5-17.5v-54.059c0-9.665-7.835-17.5-17.5-17.5h-146.49c-9.665 0-17.5 7.835-17.5 17.5v54.059c0 9.665 7.835 17.5 17.5 17.5z" fill="#2f72de"/>
</g>
<g>
<g>
<g>
<path d="m283.99-884.81v0.66705c0 0.070007-0.020996 0.13-0.062012 0.17798-0.041992 0.047974-0.10599 0.072021-0.19299 0.072021h-1.165v2.466h-1.02v-2.466h-4.162c-0.088013 0-0.16202-0.027039-0.22501-0.07605-0.063995-0.049988-0.10501-0.112-0.12201-0.18597l-0.11798-0.59601s4.561-6.053 4.561-6.053h1.086v5.994h1.42zm-2.44 0v-3.8669c0-0.11304 0.0039978-0.23804 0.011993-0.37305 0.0090027-0.13501 0.02301-0.27295 0.040009-0.41296 0 0-3.416 4.653-3.416 4.653h3.364z" fill="#fff"/>
</g>
</g>
<g>
<g>
<path d="m304.28-887.29c-0.083008 0.104-0.16199 0.20599-0.23801 0.30402-0.076996 0.098022-0.14999 0.19598-0.22 0.29199 0.22299-0.15198 0.46701-0.271 0.733-0.354s0.55701-0.12402 0.871-0.12402c0.379 0 0.737 0.062012 1.073 0.18604s0.629 0.30597 0.88 0.54401c0.25101 0.23798 0.45001 0.52899 0.599 0.87598 0.14801 0.34698 0.22202 0.74304 0.22202 1.188 0 0.43201-0.078003 0.83301-0.23502 1.204-0.15701 0.37097-0.37601 0.69397-0.65799 0.96796-0.28101 0.27502-0.62 0.49103-1.014 0.64801-0.39499 0.15704-0.82999 0.23505-1.305 0.23505-0.47101 0-0.89902-0.074036-1.283-0.22504-0.384-0.14996-0.70999-0.36499-0.978-0.64197-0.26801-0.27704-0.47598-0.612-0.62198-1.007-0.14603-0.39502-0.21902-0.836-0.21902-1.325 0-0.409 0.089996-0.84698 0.27103-1.312 0.181-0.46497 0.47098-0.95996 0.86798-1.488l2.381-3.2c0.061005-0.078979 0.14499-0.14502 0.25198-0.20001 0.10699-0.053955 0.23001-0.08197 0.37-0.08197h1.034l-2.782 3.514zm0.681 5c0.314 0 0.599-0.050964 0.854-0.15198 0.255-0.10004 0.47299-0.23804 0.65399-0.41699 0.181-0.17902 0.32001-0.39203 0.41901-0.63605 0.097992-0.245 0.147-0.50995 0.147-0.79797 0-0.30597-0.048004-0.58099-0.14401-0.828-0.096008-0.24597-0.23099-0.45599-0.40799-0.62799-0.17599-0.172-0.388-0.30402-0.63202-0.396-0.24399-0.091003-0.51199-0.13702-0.80399-0.13702-0.315 0-0.59799 0.05304-0.85101 0.16003-0.25299 0.10699-0.46799 0.25098-0.64499 0.43201-0.17599 0.18097-0.31201 0.38995-0.40601 0.62799-0.093994 0.23798-0.13998 0.48596-0.13998 0.74298 0 0.30103 0.044006 0.57501 0.13098 0.82397 0.087006 0.24805 0.215 0.46301 0.38303 0.64203 0.16699 0.17902 0.37198 0.31702 0.61398 0.41498 0.242 0.098022 0.51801 0.14801 0.828 0.14801z" fill="#fff"/>
</g>
<g>
<path d="m321.49-886.31c0.58499 0.16595 1.034 0.44299 1.348 0.83099 0.315 0.388 0.47101 0.88397 0.47101 1.492 0 0.409-0.078003 0.77997-0.233 1.1089-0.155 0.33002-0.37 0.60901-0.647 0.841-0.27701 0.23102-0.60999 0.40802-0.99799 0.53302-0.388 0.12402-0.81601 0.18604-1.282 0.18604-0.46701 0-0.89499-0.062012-1.283-0.18604-0.388-0.125-0.72202-0.302-1.001-0.53302-0.27899-0.23199-0.496-0.51099-0.64801-0.841-0.15298-0.32898-0.229-0.69995-0.229-1.1089 0-0.60803 0.15701-1.104 0.47101-1.492s0.76401-0.66504 1.348-0.83099c-0.49298-0.18304-0.86499-0.45703-1.116-0.82104-0.25101-0.36395-0.37601-0.79999-0.37601-1.306 0-0.34399 0.068024-0.66699 0.203-0.96802 0.13501-0.30096 0.328-0.56299 0.57602-0.78497 0.24899-0.22302 0.54599-0.396 0.89301-0.52301 0.34698-0.12701 0.73398-0.19 1.162-0.19 0.423 0 0.80899 0.062988 1.158 0.19s0.64801 0.29999 0.896 0.52301c0.24902 0.22198 0.44101 0.48401 0.57602 0.78497 0.13498 0.30103 0.203 0.62402 0.203 0.96802 0 0.50598-0.12601 0.94202-0.37701 1.306-0.25 0.36401-0.62201 0.638-1.115 0.82104zm-1.341 4.063c0.30499 0 0.578-0.041992 0.82098-0.12701 0.242-0.085022 0.44702-0.20502 0.61502-0.35999 0.168-0.15503 0.29599-0.34003 0.38599-0.55603 0.08902-0.216 0.134-0.45496 0.134-0.716 0-0.32397-0.053009-0.59998-0.16-0.828-0.10699-0.229-0.25098-0.41595-0.43198-0.56-0.181-0.14398-0.38901-0.24896-0.625-0.31696-0.23502-0.067017-0.48203-0.10205-0.73901-0.10205s-0.505 0.035034-0.73999 0.10205c-0.23502 0.067993-0.444 0.17297-0.625 0.31696-0.181 0.14404-0.32501 0.33099-0.43201 0.56-0.10699 0.22803-0.16 0.50403-0.16 0.828 0 0.26105 0.045013 0.5 0.134 0.716s0.21799 0.401 0.38599 0.55603c0.168 0.15497 0.37302 0.27496 0.61502 0.35999 0.242 0.085022 0.51599 0.12701 0.82199 0.12701zm0-7.753c-0.27899 0-0.52499 0.040955-0.73599 0.12396-0.21201 0.083008-0.388 0.19598-0.53 0.34003-0.142 0.14301-0.25 0.31201-0.32101 0.50397-0.071991 0.19202-0.108 0.39703-0.108 0.61499 0 0.21405 0.029999 0.42102 0.091003 0.62201 0.061005 0.20105 0.159 0.37799 0.29501 0.53302 0.13498 0.15503 0.31 0.27899 0.526 0.37299 0.216 0.093994 0.47699 0.14099 0.78299 0.14099 0.30499 0 0.565-0.046997 0.78101-0.14099s0.39099-0.21796 0.52701-0.37299c0.13498-0.15503 0.23297-0.33197 0.29398-0.53302 0.061005-0.20099 0.09201-0.40796 0.09201-0.62201 0-0.21796-0.036011-0.42297-0.108-0.61499-0.071991-0.19196-0.17801-0.36096-0.32001-0.50397-0.142-0.14404-0.319-0.25702-0.53-0.34003-0.21201-0.083008-0.457-0.12396-0.73599-0.12396z" fill="#fff"/>
</g>
</g>
<g>
<g>
<path d="m340.36-886.11c0 0.81995-0.087982 1.53-0.26498 2.1299-0.17599 0.599-0.418 1.096-0.72299 1.489-0.306 0.39301-0.66602 0.68402-1.083 0.87604-0.41699 0.19196-0.86401 0.28796-1.339 0.28796-0.47897 0-0.92499-0.096008-1.337-0.28796-0.41202-0.19202-0.77103-0.48303-1.077-0.87604-0.30499-0.39301-0.54498-0.89001-0.71899-1.489-0.17398-0.59998-0.26199-1.31-0.26199-2.1299 0-0.82001 0.088013-1.531 0.26199-2.1331 0.17401-0.60199 0.414-1.101 0.71899-1.496 0.306-0.39398 0.66501-0.68799 1.077-0.88 0.41199-0.19202 0.858-0.28699 1.337-0.28699 0.47501 0 0.92203 0.094971 1.339 0.28699 0.41699 0.19202 0.77701 0.48602 1.083 0.88 0.30499 0.39502 0.547 0.89398 0.72299 1.496 0.177 0.60205 0.26498 1.313 0.26498 2.1331zm-1.21 0c0-0.716-0.059998-1.317-0.17999-1.803-0.12-0.48596-0.28201-0.87701-0.48502-1.174-0.203-0.297-0.43799-0.50995-0.703-0.638-0.267-0.12799-0.54398-0.19397-0.832-0.19397-0.28699 0-0.564 0.065979-0.83099 0.19397-0.26498 0.12805-0.49899 0.341-0.69998 0.638-0.20102 0.297-0.36102 0.68805-0.48001 1.174-0.12 0.48602-0.17999 1.087-0.17999 1.803 0 0.71594 0.059998 1.316 0.17999 1.799 0.11899 0.48505 0.27899 0.87402 0.48001 1.171 0.20099 0.297 0.435 0.50897 0.69998 0.63898 0.267 0.12805 0.54401 0.19202 0.83099 0.19202 0.28802 0 0.565-0.063965 0.832-0.19202 0.26501-0.13 0.5-0.34198 0.703-0.63898 0.203-0.297 0.36502-0.68597 0.48502-1.171 0.12-0.48297 0.17999-1.083 0.17999-1.799z" fill="#fff"/>
</g>
<g>
<path d="m347.96-886.11c0 0.81995-0.088989 1.53-0.26498 2.1299-0.177 0.599-0.418 1.096-0.72302 1.489-0.306 0.39301-0.66599 0.68402-1.083 0.87604-0.41702 0.19196-0.86301 0.28796-1.339 0.28796-0.479 0-0.92599-0.096008-1.338-0.28796-0.41202-0.19202-0.77002-0.48303-1.076-0.87604-0.30499-0.39301-0.54599-0.89001-0.72-1.489-0.17398-0.59998-0.26199-1.31-0.26199-2.1299 0-0.82001 0.088013-1.531 0.26199-2.1331 0.17401-0.60199 0.41501-1.101 0.72-1.496 0.306-0.39398 0.664-0.68799 1.076-0.88 0.41199-0.19202 0.85898-0.28699 1.338-0.28699 0.47601 0 0.922 0.094971 1.339 0.28699 0.41699 0.19202 0.77698 0.48602 1.083 0.88 0.30502 0.39502 0.54602 0.89398 0.72302 1.496 0.17599 0.60205 0.26498 1.313 0.26498 2.1331zm-1.21 0c0-0.716-0.061005-1.317-0.181-1.803-0.12-0.48596-0.28201-0.87701-0.48502-1.174-0.20297-0.297-0.43698-0.50995-0.702-0.638-0.267-0.12799-0.54398-0.19397-0.832-0.19397-0.28699 0-0.565 0.065979-0.83099 0.19397-0.26498 0.12805-0.49899 0.341-0.69998 0.638-0.20102 0.297-0.36102 0.68805-0.48001 1.174-0.12 0.48602-0.17999 1.087-0.17999 1.803 0 0.71594 0.059998 1.316 0.17999 1.799 0.11899 0.48505 0.27899 0.87402 0.48001 1.171 0.20099 0.297 0.435 0.50897 0.69998 0.63898 0.26599 0.12805 0.54401 0.19202 0.83099 0.19202 0.28802 0 0.565-0.063965 0.832-0.19202 0.26501-0.13 0.49902-0.34198 0.702-0.63898 0.203-0.297 0.36502-0.68597 0.48502-1.171 0.12-0.48297 0.181-1.083 0.181-1.799z" fill="#fff"/>
</g>
</g>
<g>
<g>
<path d="m387.56-884.81v0.66705c0 0.070007-0.020996 0.13-0.063019 0.17798-0.040985 0.047974-0.10599 0.072021-0.19199 0.072021h-1.166v2.466h-1.02v-2.466h-4.162c-0.085999 0-0.16202-0.027039-0.22601-0.07605-0.062012-0.049988-0.103-0.112-0.121-0.18597l-0.11798-0.59601 4.562-6.053h1.085v5.994h1.421zm-2.441 0v-3.8669c0-0.11304 0.0050049-0.23804 0.013-0.37305 0.0079956-0.13501 0.020996-0.27295 0.039001-0.41296l-3.415 4.653h3.363z" fill="#fff"/>
</g>
<g>
<path d="m395.13-886.11c0 0.81995-0.08902 1.53-0.26501 2.1299-0.177 0.599-0.418 1.096-0.72299 1.489-0.306 0.39301-0.66602 0.68402-1.083 0.87604-0.41699 0.19196-0.86301 0.28796-1.339 0.28796-0.479 0-0.92603-0.096008-1.338-0.28796-0.41199-0.19202-0.771-0.48303-1.077-0.87604-0.30499-0.39301-0.54501-0.89001-0.71899-1.489-0.17401-0.59998-0.26199-1.31-0.26199-2.1299 0-0.82001 0.087982-1.531 0.26199-2.1331 0.17398-0.60199 0.414-1.101 0.71899-1.496 0.306-0.39398 0.66501-0.68799 1.077-0.88 0.41199-0.19202 0.85901-0.28699 1.338-0.28699 0.47598 0 0.922 0.094971 1.339 0.28699 0.41699 0.19202 0.77701 0.48602 1.083 0.88 0.30499 0.39502 0.54599 0.89398 0.72299 1.496 0.17599 0.60205 0.26501 1.313 0.26501 2.1331zm-1.21 0c0-0.716-0.061005-1.317-0.181-1.803-0.12-0.48596-0.28198-0.87701-0.48499-1.174-0.203-0.297-0.43701-0.50995-0.702-0.638-0.267-0.12799-0.54401-0.19397-0.832-0.19397-0.28702 0-0.564 0.065979-0.83102 0.19397-0.26498 0.12805-0.49899 0.341-0.69998 0.638-0.20102 0.297-0.36099 0.68805-0.48001 1.174-0.12 0.48602-0.17999 1.087-0.17999 1.803 0 0.71594 0.059998 1.316 0.17999 1.799 0.11902 0.48505 0.27899 0.87402 0.48001 1.171 0.20099 0.297 0.435 0.50897 0.69998 0.63898 0.26703 0.12805 0.54401 0.19202 0.83102 0.19202 0.28799 0 0.565-0.063965 0.832-0.19202 0.26498-0.13 0.49899-0.34198 0.702-0.63898 0.203-0.297 0.36499-0.68597 0.48499-1.171 0.12-0.48297 0.181-1.083 0.181-1.799z" fill="#fff"/>
</g>
<g>
<path d="m402.72-886.11c0 0.81995-0.089996 1.53-0.26599 2.1299-0.177 0.599-0.418 1.096-0.72299 1.489-0.306 0.39301-0.66602 0.68402-1.083 0.87604-0.41699 0.19196-0.86301 0.28796-1.338 0.28796-0.479 0-0.92603-0.096008-1.338-0.28796-0.41199-0.19202-0.771-0.48303-1.077-0.87604-0.30499-0.39301-0.54501-0.89001-0.71899-1.489-0.17401-0.59998-0.26202-1.31-0.26202-2.1299 0-0.82001 0.088013-1.531 0.26202-2.1331 0.17398-0.60199 0.414-1.101 0.71899-1.496 0.306-0.39398 0.66501-0.68799 1.077-0.88 0.41199-0.19202 0.85901-0.28699 1.338-0.28699 0.47498 0 0.92099 0.094971 1.338 0.28699 0.41699 0.19202 0.77701 0.48602 1.083 0.88 0.30499 0.39502 0.54599 0.89398 0.72299 1.496 0.17599 0.60205 0.26599 1.313 0.26599 2.1331zm-1.211 0c0-0.716-0.059998-1.317-0.17999-1.803-0.12-0.48596-0.28198-0.87701-0.48499-1.174-0.203-0.297-0.43701-0.50995-0.702-0.638-0.26703-0.12799-0.54401-0.19397-0.832-0.19397-0.28702 0-0.56403 0.065979-0.83102 0.19397-0.26498 0.12805-0.5 0.341-0.69998 0.638-0.20102 0.297-0.362 0.68805-0.48102 1.174-0.12 0.48602-0.17999 1.087-0.17999 1.803 0 0.71594 0.059998 1.316 0.17999 1.799 0.11902 0.48505 0.28 0.87402 0.48102 1.171 0.19998 0.297 0.435 0.50897 0.69998 0.63898 0.267 0.12805 0.54401 0.19202 0.83102 0.19202 0.28799 0 0.56497-0.063965 0.832-0.19202 0.26498-0.13 0.49899-0.34198 0.702-0.63898 0.203-0.297 0.36499-0.68597 0.48499-1.171 0.12-0.48297 0.17999-1.083 0.17999-1.799z" fill="#fff"/>
</g>
</g>
</g>
<g>
<g>
<path d="m263.99-862.22c0 0.435-0.069 0.83197-0.20599 1.1949-0.13699 0.36401-0.332 0.67603-0.58301 0.93805-0.25098 0.26196-0.55298 0.46497-0.905 0.60901-0.35199 0.14398-0.741 0.21698-1.168 0.21698-0.42599 0-0.815-0.072998-1.166-0.21698-0.35101-0.14404-0.651-0.34705-0.90201-0.60901-0.25101-0.26202-0.44598-0.57404-0.58301-0.93805-0.138-0.36298-0.207-0.75995-0.207-1.1949s0.069-0.83301 0.207-1.196c0.13702-0.36395 0.332-0.67596 0.58301-0.94 0.25101-0.263 0.55099-0.46796 0.90201-0.61298 0.35098-0.146 0.73999-0.21802 1.166-0.21802 0.427 0 0.81601 0.072021 1.168 0.21802 0.35202 0.14502 0.65402 0.34998 0.905 0.61298 0.25101 0.26404 0.44601 0.57605 0.58301 0.94 0.13699 0.36304 0.20599 0.76105 0.20599 1.196zm-0.80499 0c0-0.35699-0.049011-0.677-0.146-0.96002-0.097015-0.28302-0.23502-0.52301-0.41299-0.71899-0.17801-0.19403-0.39401-0.34601-0.647-0.45001-0.254-0.10602-0.53799-0.159-0.85101-0.159-0.31 0-0.59198 0.052979-0.84598 0.159-0.25302 0.104-0.47 0.25598-0.65002 0.45001-0.17999 0.19598-0.31699 0.43597-0.414 0.71899-0.096985 0.28302-0.146 0.60303-0.146 0.96002s0.049011 0.67395 0.146 0.95599c0.097015 0.28198 0.23401 0.521 0.414 0.71698 0.18002 0.19598 0.397 0.34601 0.65002 0.44897 0.254 0.104 0.53598 0.15601 0.84598 0.15601 0.31302 0 0.59702-0.052002 0.85101-0.15601 0.25299-0.10297 0.46899-0.25299 0.647-0.44897 0.17798-0.19598 0.31598-0.435 0.41299-0.71698 0.096985-0.28204 0.146-0.599 0.146-0.95599z" fill="#fff"/>
</g>
<g>
<path d="m269.4-859.33h-0.69699c-0.14301 0-0.24799-0.054993-0.315-0.16595l-1.506-2.072c-0.046021-0.065002-0.096008-0.112-0.14801-0.14099-0.053009-0.028015-0.13501-0.041992-0.245-0.041992h-0.595v2.421h-0.78101v-5.801h1.639c0.367 0 0.685 0.036987 0.952 0.11096 0.267 0.074036 0.487 0.18103 0.66101 0.32202 0.17398 0.14099 0.30399 0.31 0.38699 0.508 0.083008 0.19904 0.125 0.42102 0.125 0.66602 0 0.20502-0.032013 0.396-0.097015 0.57501-0.065002 0.17798-0.159 0.33698-0.28101 0.479-0.12299 0.14197-0.27298 0.263-0.44897 0.36298-0.177 0.099976-0.37701 0.17499-0.60101 0.22699 0.10001 0.05603 0.185 0.13904 0.258 0.24701l1.693 2.303zm-2.68-2.9919c0.22702 0 0.427-0.028015 0.60101-0.083008 0.17398-0.054993 0.319-0.133 0.43698-0.23401 0.117-0.10199 0.20602-0.22302 0.26501-0.36304 0.05899-0.14099 0.089996-0.29596 0.089996-0.466 0-0.34497-0.11401-0.60498-0.341-0.77997-0.22598-0.17603-0.56699-0.26398-1.02-0.26398h-0.858v2.19h0.82599z" fill="#fff"/>
</g>
<g>
<path d="m288.43-865.13c0.367 0 0.686 0.042969 0.957 0.12799 0.27103 0.085022 0.496 0.20502 0.67401 0.362 0.17801 0.15601 0.311 0.34497 0.39902 0.56702 0.087982 0.22101 0.13199 0.46899 0.13199 0.74097 0 0.26904-0.048004 0.51703-0.142 0.74103-0.093994 0.22296-0.233 0.41602-0.41501 0.578s-0.40799 0.289-0.67599 0.37897c-0.26801 0.090027-0.578 0.13501-0.92902 0.13501h-0.931v2.17h-0.78098v-5.801h1.712zm0 3.008c0.22403 0 0.42203-0.030029 0.59302-0.090027 0.172-0.05896 0.315-0.14099 0.43298-0.24799 0.117-0.10699 0.20602-0.23401 0.26501-0.383 0.05899-0.14801 0.089996-0.31097 0.089996-0.48901 0-0.37-0.11499-0.659-0.34299-0.867-0.228-0.20801-0.57401-0.31195-1.038-0.31195h-0.931v2.389h0.931z" fill="#fff"/>
</g>
</g>
<g>
<g>
<path d="m361.82-920.92c0 0.435-0.067993 0.83398-0.20599 1.197-0.138 0.36304-0.332 0.67499-0.58401 0.93701-0.25101 0.26202-0.552 0.46399-0.90399 0.60797-0.35202 0.14502-0.742 0.21704-1.168 0.21704s-0.815-0.072021-1.166-0.21704c-0.35098-0.14398-0.65198-0.34595-0.90298-0.60797-0.25101-0.26202-0.444-0.57397-0.582-0.93701-0.138-0.36298-0.207-0.76196-0.207-1.197s0.069-0.83301 0.207-1.196c0.138-0.36298 0.33099-0.67596 0.582-0.93896 0.25101-0.263 0.552-0.46802 0.90298-0.61401 0.35101-0.14502 0.74002-0.21802 1.166-0.21802s0.81598 0.072998 1.168 0.21802c0.35199 0.146 0.65298 0.35101 0.90399 0.61401 0.25201 0.263 0.44601 0.57599 0.58401 0.93896 0.138 0.36304 0.20599 0.76105 0.20599 1.196zm-0.806 0c0-0.35602-0.048004-0.67603-0.14502-0.95905-0.096985-0.28296-0.23499-0.52301-0.41299-0.71899-0.17899-0.19598-0.39301-0.34601-0.64798-0.45099-0.25302-0.10498-0.53702-0.15802-0.85001-0.15802-0.31 0-0.59302 0.05304-0.84601 0.15802-0.255 0.10498-0.47 0.255-0.64999 0.45099-0.17902 0.19598-0.31799 0.43604-0.41501 0.71899-0.096985 0.28302-0.146 0.60303-0.146 0.95905 0 0.35596 0.049011 0.67596 0.146 0.95795 0.097015 0.28204 0.23599 0.52002 0.41501 0.716 0.17999 0.19604 0.39499 0.34503 0.64999 0.44904 0.25299 0.104 0.53601 0.15601 0.84601 0.15601 0.31299 0 0.59698-0.052002 0.85001-0.15601 0.25497-0.104 0.46899-0.25299 0.64798-0.44904 0.17801-0.19598 0.31601-0.43396 0.41299-0.716 0.097015-0.28198 0.14502-0.60199 0.14502-0.95795z" fill="#fff"/>
</g>
<g>
<path d="m367.23-918.02h-0.69498c-0.14401 0-0.24902-0.05603-0.31601-0.16602l-1.507-2.073c-0.046021-0.065002-0.095001-0.11102-0.14801-0.14001-0.053009-0.028015-0.134-0.041992-0.245-0.041992h-0.59402v2.421h-0.78198v-5.802h1.639c0.367 0 0.68399 0.037964 0.952 0.112 0.267 0.073975 0.48801 0.18097 0.66199 0.32196 0.17401 0.14001 0.30301 0.30902 0.38699 0.50806 0.084015 0.198 0.12601 0.42096 0.12601 0.66595 0 0.20502-0.03299 0.39703-0.097992 0.57501-0.065002 0.17798-0.15799 0.33698-0.28201 0.479-0.12198 0.14203-0.272 0.26202-0.44897 0.362-0.17603 0.099976-0.37701 0.17603-0.60101 0.22699 0.10101 0.05603 0.186 0.13904 0.259 0.24701l1.692 2.304zm-2.679-2.992c0.22598 0 0.42599-0.028015 0.60001-0.083008 0.17398-0.054993 0.32098-0.13397 0.43698-0.23499 0.11801-0.10101 0.207-0.22205 0.26602-0.362 0.059998-0.14099 0.088989-0.29504 0.088989-0.46503 0-0.34601-0.11301-0.60699-0.34-0.78198-0.22702-0.17499-0.56702-0.263-1.021-0.263h-0.85703v2.19h0.82602z" fill="#fff"/>
</g>
<g>
<path d="m386.26-923.83c0.367 0 0.68802 0.042969 0.95901 0.12799 0.26999 0.085022 0.495 0.20502 0.673 0.362 0.17798 0.15698 0.311 0.34601 0.39899 0.56702 0.088013 0.22198 0.13202 0.46899 0.13202 0.74097 0 0.27002-0.048004 0.51703-0.142 0.74103-0.095001 0.224-0.233 0.41602-0.41501 0.578-0.18301 0.16199-0.40701 0.28796-0.67599 0.37897-0.26901 0.090027-0.57901 0.13605-0.93002 0.13605h-0.92999v2.17h-0.78198v-5.802h1.712zm0 3.008c0.224 0 0.422-0.030029 0.59402-0.088989 0.172-0.059998 0.31497-0.14203 0.43298-0.24902 0.11801-0.10602 0.20502-0.23401 0.26501-0.38202 0.05899-0.14795 0.088989-0.31195 0.088989-0.48999 0-0.37-0.11401-0.65796-0.34201-0.86597-0.228-0.20801-0.57401-0.31201-1.039-0.31201h-0.92999v2.388h0.92999z" fill="#fff"/>
</g>
</g>
<g>
<g>
<path d="m380.79-868.64c0 0.60901-0.06601 1.135-0.19702 1.58-0.13098 0.44397-0.31 0.81396-0.53699 1.104-0.22601 0.29199-0.49301 0.508-0.802 0.65094-0.31 0.14203-0.64001 0.21301-0.99301 0.21301-0.35498 0-0.68597-0.070984-0.991-0.21301-0.306-0.14294-0.573-0.35895-0.79898-0.65094-0.22702-0.29004-0.40402-0.66003-0.534-1.104-0.13-0.44501-0.19501-0.97101-0.19501-1.58 0-0.60699 0.065002-1.136 0.19501-1.581 0.12997-0.44702 0.30698-0.81604 0.534-1.109 0.22598-0.29303 0.49298-0.51001 0.79898-0.65198 0.30502-0.14301 0.63602-0.21405 0.991-0.21405 0.353 0 0.68301 0.071045 0.99301 0.21405 0.30899 0.14197 0.57599 0.35895 0.802 0.65198 0.22699 0.29297 0.40601 0.66199 0.53699 1.109 0.13101 0.44501 0.19702 0.974 0.19702 1.581zm-0.89801 0c0-0.53101-0.044006-0.97601-0.133-1.336-0.08902-0.36102-0.20901-0.651-0.35901-0.87201-0.14999-0.21997-0.32498-0.37701-0.52301-0.47302-0.19699-0.094971-0.40198-0.14301-0.616-0.14301-0.21399 0-0.41898 0.048035-0.616 0.14301-0.198 0.096008-0.37 0.25305-0.51898 0.47302-0.14902 0.22101-0.26801 0.51099-0.35699 0.87201-0.08902 0.35999-0.13303 0.80499-0.13303 1.336s0.044006 0.97601 0.13303 1.335c0.088989 0.35901 0.20798 0.64905 0.35699 0.86902 0.14899 0.22003 0.32098 0.37799 0.51898 0.47302 0.19702 0.096008 0.40201 0.14301 0.616 0.14301 0.21402 0 0.41901-0.046997 0.616-0.14301 0.19803-0.095032 0.37302-0.25299 0.52301-0.47302 0.14999-0.21997 0.26999-0.51001 0.35901-0.86902 0.088989-0.35895 0.133-0.80396 0.133-1.335z" fill="#fff"/>
</g>
<g>
<path d="m396.43-868.64c0 0.60901-0.06601 1.135-0.19699 1.58-0.13101 0.44397-0.31 0.81396-0.53702 1.104-0.22598 0.29199-0.49298 0.508-0.802 0.65094-0.31 0.14203-0.63998 0.21301-0.99298 0.21301-0.35501 0-0.68701-0.070984-0.992-0.21301-0.306-0.14294-0.57199-0.35895-0.798-0.65094-0.22699-0.29004-0.40399-0.66003-0.534-1.104-0.13-0.44501-0.19501-0.97101-0.19501-1.58 0-0.60699 0.065002-1.136 0.19501-1.581 0.13-0.44702 0.30701-0.81604 0.534-1.109 0.22601-0.29303 0.492-0.51001 0.798-0.65198 0.30499-0.14301 0.63699-0.21405 0.992-0.21405 0.353 0 0.68298 0.071045 0.99298 0.21405 0.30902 0.14197 0.57602 0.35895 0.802 0.65198 0.22702 0.29297 0.40601 0.66199 0.53702 1.109 0.13098 0.44501 0.19699 0.974 0.19699 1.581zm-0.89801 0c0-0.53101-0.044983-0.97601-0.134-1.336-0.088989-0.36102-0.20898-0.651-0.35898-0.87201-0.14999-0.21997-0.32401-0.37701-0.522-0.47302-0.19699-0.094971-0.40201-0.14301-0.616-0.14301-0.21402 0-0.41901 0.048035-0.616 0.14301-0.198 0.096008-0.371 0.25305-0.52002 0.47302-0.14899 0.22101-0.267 0.51099-0.35599 0.87201-0.088989 0.35999-0.134 0.80499-0.134 1.336s0.045013 0.97601 0.134 1.335c0.088989 0.35901 0.207 0.64905 0.35599 0.86902 0.14902 0.22003 0.32202 0.37799 0.52002 0.47302 0.19699 0.096008 0.40198 0.14301 0.616 0.14301 0.21399 0 0.41901-0.046997 0.616-0.14301 0.198-0.095032 0.37201-0.25299 0.522-0.47302 0.14999-0.21997 0.26999-0.51001 0.35898-0.86902 0.08902-0.35895 0.134-0.80396 0.134-1.335z" fill="#fff"/>
</g>
</g>
<g>
<path d="m265.47-913.98h-7.422c-4.099 0-7.421-3.322-7.421-7.421 0-4.099 3.322-7.422 7.421-7.422h7.422c4.099 0 7.422 3.323 7.422 7.422 0 4.099-3.323 7.421-7.422 7.421z" fill="#00cdff"/>
</g>
<g>
<path d="m273.57-913.98h-7.421c-4.099 0-7.422-3.322-7.422-7.421 0-4.099 3.323-7.422 7.422-7.422h7.421c4.099 0 7.422 3.323 7.422 7.422 0 4.099-3.323 7.421-7.422 7.421z" fill="#f7ab3a"/>
</g>
</g>
<g>
<g opacity=".01">
<g opacity="1">
<path d="m463.32-846.78h-66.717v-11.873h66.717v11.873z" fill="#ff9a3c"/>
</g>
<g opacity="1">
<path d="m458.76-846.78h-38.936v-11.873h38.936v11.873z" fill="#ffae36"/>
</g>
<g opacity="1">
<path d="m451.93-846.78h-6.237v-11.873h6.237v11.873z" fill="#ffd239"/>
</g>
<g opacity="1" style="mix-blend-mode:multiply">
<path d="m463.32-846.78h-66.717v-1.771h66.717v1.771z" fill="#ff9a3c" fill-opacity=".5"/>
</g>
</g>
<g opacity=".01">
<g opacity="1">
<path d="m458.48-858.66h-66.716v-11.874h66.716v11.874z" fill="#ff9a3c"/>
</g>
<g opacity="1">
<path d="m453.92-858.66h-38.936v-11.874h38.936v11.874z" fill="#ffae36"/>
</g>
<g opacity="1">
<path d="m447.1-858.66h-6.237v-11.874h6.237v11.874z" fill="#ffd239"/>
</g>
<g opacity="1" style="mix-blend-mode:multiply">
<path d="m458.48-858.66h-66.716v-1.771h66.716v1.771z" fill="#ff9a3c" fill-opacity=".5"/>
</g>
</g>
<g opacity=".01">
<g opacity="1">
<path d="m463.32-870.53h-66.717v-11.873h66.717v11.873z" fill="#ff9a3c"/>
</g>
<g opacity="1">
<path d="m458.76-870.53h-38.936v-11.873h38.936v11.873z" fill="#ffae36"/>
</g>
<g opacity="1">
<path d="m451.93-870.53h-6.237v-11.873h6.237v11.873z" fill="#ffd239"/>
</g>
<g opacity="1" style="mix-blend-mode:multiply">
<path d="m463.32-870.53h-66.717v-1.77h66.717v1.77z" fill="#ff9a3c" fill-opacity=".5"/>
</g>
</g>
<g opacity=".01">
<g opacity="1">
<path d="m453.64-882.4h-66.716v-11.873h66.716v11.873z" fill="#ff9a3c"/>
</g>
<g opacity="1">
<path d="m449.08-882.4h-38.936v-11.873h38.936v11.873z" fill="#ffae36"/>
</g>
<g opacity="1">
<path d="m442.26-882.4h-6.237v-11.873h6.237v11.873z" fill="#ffd239"/>
</g>
<g opacity="1" style="mix-blend-mode:multiply">
<path d="m453.64-882.4h-66.716v-1.77h66.716v1.77z" fill="#ff9a3c" fill-opacity=".5"/>
</g>
</g>
<g opacity=".01">
<g opacity="1">
<path d="m458.48-894.28h-66.716v-11.873h66.716v11.873z" fill="#ff9a3c"/>
</g>
<g opacity="1">
<path d="m453.92-894.28h-38.936v-11.873h38.936v11.873z" fill="#ffae36"/>
</g>
<g opacity="1">
<path d="m447.1-894.28h-6.237v-11.873h6.237v11.873z" fill="#ffd239"/>
</g>
<g opacity="1" style="mix-blend-mode:multiply">
<path d="m458.48-894.28h-66.716v-1.771h66.716v1.771z" fill="#ff9a3c" fill-opacity=".5"/>
</g>
</g>
<g opacity=".01">
<g opacity="1">
<path d="m463.32-906.15h-66.717v-11.874h66.717v11.874z" fill="#ff9a3c"/>
</g>
<g opacity="1">
<path d="m458.76-906.15h-38.936v-11.874h38.936v11.874z" fill="#ffae36"/>
</g>
<g opacity="1">
<path d="m451.93-906.15h-6.237v-11.874h6.237v11.874z" fill="#ffd239"/>
</g>
<g opacity="1" style="mix-blend-mode:multiply">
<path d="m463.32-906.15h-66.717v-1.771h66.717v1.771z" fill="#ff9a3c" fill-opacity=".5"/>
</g>
</g>
</g>
<g>
<g>
<path d="m272.35-879.26c0 19.724-15.99 35.714-35.714 35.714-19.724 0-35.713-15.99-35.713-35.714 0-19.724 15.989-35.713 35.713-35.713 19.724 0 35.714 15.989 35.714 35.713z" fill="#ff9a3c"/>
</g>
<g>
<path d="m266.02-879.26c0 16.231-13.159 29.39-29.39 29.39-16.231 0-29.389-13.159-29.389-29.39 0-16.231 13.158-29.389 29.389-29.389 16.231 0 29.39 13.158 29.39 29.389z" fill="#ffae36"/>
</g>
<g>
<path d="m246.52-906.94s-30.909 48.212-30.909 48.212c1.233 1.262 2.579 2.411 4.021 3.435 0 0 31.684-49.421 31.684-49.421-1.519-0.87799-3.121-1.627-4.796-2.226zm8.01 4.377s-31.606 49.3-31.606 49.3c3.884 2.052 8.282 3.254 12.952 3.3719 0 0 27.135-42.325 27.135-42.325-2.002-4.07-4.919-7.606-8.481-10.347zm-17.149-6.069s-27.135 42.325-27.135 42.325c0.86 1.748 1.889 3.395 3.065 4.926 0 0 29.834-46.536 29.834-46.536-1.861-0.422-3.787-0.66498-5.764-0.71497z" fill="#ffd239" fill-opacity=".55"/>
</g>
</g>
</g>
</g>
<g transform="matrix(2.609 0 0 2.609 416.9 3592.1)" display="block">
<g>
<path d="m245.32-1259.6-0.12801-6.13-5.462-0.33997c-0.42799-2.001-1.203-3.864-2.268-5.525l3.55-4.379-4.427-4.246-4.1 3.62c-1.659-1.08-3.519-1.865-5.508-2.3l-0.588-5.61-6.135 0.13208s-0.33899 5.458-0.33899 5.458c-1.997 0.4259-3.863 1.204-5.524 2.267l-4.382-3.549s-4.244 4.428-4.244 4.428 3.622 4.1019 3.622 4.1019c-1.077 1.6581-1.867 3.519-2.3 5.5081l-5.609 0.58899s0.13 6.129 0.13 6.129l5.46 0.34399c0.424 1.9969 1.2 3.861 2.267 5.52 0 0-3.551 4.381-3.551 4.381l4.428 4.246 4.1-3.619c1.66 1.078 3.521 1.865 5.513 2.296l0.58301 5.61 6.136-0.12805s0.34-5.4609 0.34-5.4609c1.996-0.42603 3.861-1.202 5.522-2.269l4.381 3.552s4.246-4.426 4.246-4.426l-3.622-4.1029c1.076-1.66 1.864-3.52 2.301-5.51 0 0 5.608-0.58704 5.608-0.58704zm-21.75 5.113c-4.474 0.095947-8.177-3.453-8.273-7.9291-0.093994-4.4769 3.455-8.179 7.931-8.272 4.471-0.093994 8.175 3.452 8.27 7.9291 0.095993 4.476-3.454 8.1799-7.928 8.272z" fill="#3bb6d5"/>
</g>
</g>
<g transform="matrix(2.609 0 0 2.609 416.9 3592.1)" display="block">
<g>
<path d="m131.42-1249.5h-73.939s17.796-31.484 30.728-31.484c12.033 0 12.482 22.224 20.165 23.336 7.682 1.11 6.272-3.3501 12.483-3.3351 5.842 0.015015 10.563 11.483 10.563 11.483z" fill="#e4efff"/>
</g>
</g>
<g transform="matrix(2.609 0 0 2.609 416.9 3592.1)" display="block">
<g>
<g>
<path d="m298.09-1247.9-31.08-12.212c-3.409-1.339-5.086-5.188-3.747-8.597l13.025-33.148c1.339-3.4089 5.188-5.0859 8.597-3.7469l31.08 12.212c3.409 1.339 5.086 5.188 3.747 8.597l-13.025 33.148c-1.339 3.4091-5.188 5.0861-8.597 3.7471z" fill="#ffae36"/>
</g>
<g>
<g>
<path d="m301.05-1288.5-8.59-3.375c-3.579-1.406-5.346-5.4611-3.94-9.04l5.293-13.469c1.406-3.579 5.461-5.3459 9.04-3.9401l8.589 3.374c3.579 1.406 5.346 5.462 3.94 9.041l-5.292 13.469c-1.406 3.579-5.461 5.3461-9.04 3.9401zm0.99802-27.775c-2.449-0.96204-5.224 0.24792-6.186 2.6959l-5.292 13.469c-0.96201 2.448 0.24698 5.224 2.696 6.1859l8.589 3.375c2.449 0.96204 5.223-0.24792 6.185-2.6959l5.293-13.47c0.96198-2.448-0.24701-5.2229-2.696-6.1849l-8.589-3.375z" fill="#ffae36"/>
</g>
</g>
<g>
<g>
<path d="m300.81-1279.5c-1.555 3.958-6.025 5.906-9.984 4.351-3.959-1.5549-5.906-6.026-4.351-9.984 1.555-3.9579 6.025-5.9059 9.984-4.351 3.958 1.5551 5.906 6.026 4.351 9.984z" fill="#154284"/>
</g>
<g>
<path d="m292.14-1261.9-11.25-4.421 7.454-12.572 6.895 2.709-3.099 14.284z" fill="#154284"/>
</g>
</g>
</g>
</g>
<g transform="matrix(2.609 0 0 2.609 416.9 3592.1)" display="block">
<g>
<g opacity="0">
<g opacity="1">
<path d="m437.15-834.31c-0.071014 1.663-1.331 3.025-3.039 3.039-1.646 0.013-3.052-1.393-3.039-3.039 0.032013-3.932 5.912-3.906 6.078 0 0.039001 0.91797 1.471 0.92297 1.432 0-0.104-2.436-1.962-4.461-4.471-4.471-2.424-0.01001-4.481 2.047-4.471 4.471 0.01001 2.431 2.033 4.472 4.471 4.472 2.509 0 4.368-2.043 4.471-4.472 0.039001-0.922-1.393-0.92004-1.432 0z" fill="#ff5c9a"/>
</g>
</g>
<g opacity="0">
<g opacity="1">
<path d="m542.75-1053.5c-0.076965 1.806-1.445 3.285-3.3 3.3-1.787 0.013916-3.314-1.5131-3.3-3.3 0.034973-4.27 6.42-4.2419 6.6 0 0.041992 0.99695 1.598 1.0031 1.555 0-0.112-2.646-2.131-4.844-4.855-4.855-2.632-0.01001-4.866 2.223-4.855 4.855 0.010986 2.64 2.207 4.855 4.855 4.855 2.725 0 4.743-2.218 4.855-4.855 0.04303-1.001-1.513-0.99902-1.555 0z" fill="#ff5c9a"/>
</g>
</g>
<g opacity="0">
<g opacity="1">
<path d="m265.75-1214.5c-0.071014 1.663-1.331 3.025-3.039 3.0391-1.646 0.012939-3.051-1.3931-3.038-3.0391 0.031982-3.932 5.911-3.906 6.077 0 0.039001 0.91907 1.472 0.92297 1.433 0-0.104-2.436-1.963-4.462-4.472-4.4719-2.424-0.01001-4.481 2.048-4.471 4.4719 0.01001 2.431 2.033 4.4711 4.471 4.4711 2.509 0 4.369-2.042 4.472-4.4711 0.038971-0.922-1.394-0.91992-1.433 0z" fill="#ff5c9a"/>
</g>
</g>
<g opacity="0">
<g opacity="1">
<path d="m-92.912-931.37c-0.070999 1.664-1.331 3.025-3.039 3.039-1.646 0.013-3.052-1.393-3.039-3.039 0.031998-3.932 5.912-3.906 6.078 0 0.039001 0.91901 1.472 0.92303 1.433 0-0.104-2.436-1.963-4.461-4.472-4.471-2.424-0.0099487-4.481 2.047-4.471 4.471 0.0099945 2.431 2.033 4.472 4.471 4.472 2.509 0 4.369-2.043 4.472-4.472 0.038994-0.922-1.394-0.91998-1.433 0z" fill="#ff5c9a"/>
</g>
</g>
<g transform="matrix(0 0 0 0 491.27 -1200.4)">
<path d="m495.85-1200.2c-1.137 0.0079346-2.048 0.0079346-3.364-0.01001 1.364 0.017944 2.131 0.014038 3.364 0.014038 0.73199 0 0.827-1.2421-0.020996-1.2421-1.308 9.7656e-4 -2.817-0.14294-4.442 0.01001-1.178-0.0090332-3.166-0.0090332-4.368-0.0090332-0.81 0-0.95401 1.245 0.0029907 1.2421 1.271 0.0029297 1.941 0.0029297 3.314-0.015015-1.493 0.017944-2.235 0.017944-3.314 0.0090332-0.83701 0.0089111-0.71799 1.3269-0.0029907 1.3379 1.178-0.010986 2.974-0.010986 4.368-0.0089111 1.72-0.0020752 2.799-0.0020752 4.442-0.014038 0.979-0.006958 0.65698-1.306 0.020996-1.314z" fill="#4877dc"/>
</g>
<g transform="matrix(0 0 0 0 -103.53 -1078.9)">
<path d="m495.85-1200.2c-1.137 0.0079346-2.048 0.0079346-3.364-0.01001 1.364 0.017944 2.131 0.014038 3.364 0.014038 0.73199 0 0.827-1.2421-0.020996-1.2421-1.308 9.7656e-4 -2.817-0.14294-4.442 0.01001-1.178-0.0090332-3.166-0.0090332-4.368-0.0090332-0.81 0-0.95401 1.245 0.0029907 1.2421 1.271 0.0029297 1.941 0.0029297 3.314-0.015015-1.493 0.017944-2.235 0.017944-3.314 0.0090332-0.83701 0.0089111-0.71799 1.3269-0.0029907 1.3379 1.178-0.010986 2.974-0.010986 4.368-0.0089111 1.72-0.0020752 2.799-0.0020752 4.442-0.014038 0.979-0.006958 0.65698-1.306 0.020996-1.314z" fill="#4877dc"/>
</g>
<g transform="matrix(0 0 0 0 -2.925 -805.45)">
<path d="m495.85-1200.2c-1.137 0.0079346-2.048 0.0079346-3.364-0.01001 1.364 0.017944 2.131 0.014038 3.364 0.014038 0.73199 0 0.827-1.2421-0.020996-1.2421-1.308 9.7656e-4 -2.817-0.14294-4.442 0.01001-1.178-0.0090332-3.166-0.0090332-4.368-0.0090332-0.81 0-0.95401 1.245 0.0029907 1.2421 1.271 0.0029297 1.941 0.0029297 3.314-0.015015-1.493 0.017944-2.235 0.017944-3.314 0.0090332-0.83701 0.0089111-0.71799 1.3269-0.0029907 1.3379 1.178-0.010986 2.974-0.010986 4.368-0.0089111 1.72-0.0020752 2.799-0.0020752 4.442-0.014038 0.979-0.006958 0.65698-1.306 0.020996-1.314z" fill="#4877dc"/>
</g>
<g transform="matrix(0 0 0 0 491.27 -1200.4)">
<path d="m495.85-1200.2c-1.137 0.0079346-2.048 0.0079346-3.364-0.01001 1.364 0.017944 2.131 0.014038 3.364 0.014038 0.73199 0 0.827-1.2421-0.020996-1.2421-1.308 9.7656e-4 -2.817-0.14294-4.442 0.01001-1.178-0.0090332-3.166-0.0090332-4.368-0.0090332-0.81 0-0.95401 1.245 0.0029907 1.2421 1.271 0.0029297 1.941 0.0029297 3.314-0.015015-1.493 0.017944-2.235 0.017944-3.314 0.0090332-0.83701 0.0089111-0.71799 1.3269-0.0029907 1.3379 1.178-0.010986 2.974-0.010986 4.368-0.0089111 1.72-0.0020752 2.799-0.0020752 4.442-0.014038 0.979-0.006958 0.65698-1.306 0.020996-1.314z" fill="#4877dc"/>
</g>
<g transform="matrix(0 0 0 0 -103.53 -1078.9)">
<path d="m495.85-1200.2c-1.137 0.0079346-2.048 0.0079346-3.364-0.01001 1.364 0.017944 2.131 0.014038 3.364 0.014038 0.73199 0 0.827-1.2421-0.020996-1.2421-1.308 9.7656e-4 -2.817-0.14294-4.442 0.01001-1.178-0.0090332-3.166-0.0090332-4.368-0.0090332-0.81 0-0.95401 1.245 0.0029907 1.2421 1.271 0.0029297 1.941 0.0029297 3.314-0.015015-1.493 0.017944-2.235 0.017944-3.314 0.0090332-0.83701 0.0089111-0.71799 1.3269-0.0029907 1.3379 1.178-0.010986 2.974-0.010986 4.368-0.0089111 1.72-0.0020752 2.799-0.0020752 4.442-0.014038 0.979-0.006958 0.65698-1.306 0.020996-1.314z" fill="#4877dc"/>
</g>
<g transform="matrix(0 0 0 0 -2.925 -805.45)">
<path d="m495.85-1200.2c-1.137 0.0079346-2.048 0.0079346-3.364-0.01001 1.364 0.017944 2.131 0.014038 3.364 0.014038 0.73199 0 0.827-1.2421-0.020996-1.2421-1.308 9.7656e-4 -2.817-0.14294-4.442 0.01001-1.178-0.0090332-3.166-0.0090332-4.368-0.0090332-0.81 0-0.95401 1.245 0.0029907 1.2421 1.271 0.0029297 1.941 0.0029297 3.314-0.015015-1.493 0.017944-2.235 0.017944-3.314 0.0090332-0.83701 0.0089111-0.71799 1.3269-0.0029907 1.3379 1.178-0.010986 2.974-0.010986 4.368-0.0089111 1.72-0.0020752 2.799-0.0020752 4.442-0.014038 0.979-0.006958 0.65698-1.306 0.020996-1.314z" fill="#4877dc"/>
</g>
<g>
<g>
<path d="m487.03-931.41c0 1.149-0.931 2.08-2.08 2.08-1.149 0-2.08-0.93097-2.08-2.08 0-1.149 0.931-2.08 2.08-2.08 1.149 0 2.08 0.93097 2.08 2.08z" fill="#154284"/>
</g>
<g>
<path d="m497.33-931.41c0 1.149-0.931 2.08-2.08 2.08-1.149 0-2.081-0.93097-2.081-2.08 0-1.149 0.93198-2.08 2.081-2.08 1.149 0 2.08 0.93097 2.08 2.08z" fill="#154284"/>
</g>
<g>
<path d="m476.63-931.41c0 1.149-0.93198 2.08-2.081 2.08-1.149 0-2.08-0.93097-2.08-2.08 0-1.149 0.931-2.08 2.08-2.08 1.149 0 2.081 0.93097 2.081 2.08z" fill="#154284"/>
</g>
</g>
<g>
<g>
<path d="m296.49-811.4c0 0.80096-0.64801 1.449-1.449 1.449-0.80099 0-1.45-0.64801-1.45-1.449 0-0.80103 0.64899-1.45 1.45-1.45 0.80099 0 1.449 0.64899 1.449 1.45z" fill="#154284"/>
</g>
<g>
<path d="m303.67-811.4c0 0.80096-0.64798 1.449-1.449 1.449-0.80099 0-1.45-0.64801-1.45-1.449 0-0.80103 0.64899-1.45 1.45-1.45 0.80103 0 1.449 0.64899 1.449 1.45z" fill="#154284"/>
</g>
<g>
<path d="m289.25-811.4c0 0.80096-0.64902 1.449-1.45 1.449s-1.449-0.64801-1.449-1.449c0-0.80103 0.64801-1.45 1.449-1.45s1.45 0.64899 1.45 1.45z" fill="#154284"/>
</g>
</g>
<g>
<g>
<path d="m-5.774-1188.5c0 0.80103-0.649 1.45-1.45 1.45-0.801 0-1.45-0.64893-1.45-1.45s0.649-1.4501 1.45-1.4501c0.801 0 1.45 0.64905 1.45 1.4501z" fill="#154284"/>
</g>
<g>
<path d="m1.402-1188.5c0 0.80103-0.649 1.45-1.45 1.45-0.801 0-1.45-0.64893-1.45-1.45s0.649-1.4501 1.45-1.4501c0.801 0 1.45 0.64905 1.45 1.4501z" fill="#154284"/>
</g>
<g>
<path d="m-13.023-1188.5c0 0.80103-0.648 1.45-1.449 1.45-0.801 0-1.45-0.64893-1.45-1.45s0.649-1.4501 1.45-1.4501c0.801 0 1.449 0.64905 1.449 1.4501z" fill="#154284"/>
</g>
</g>
<g>
<g>
<path d="m187.18-888.96c0 1.38-1.119 2.498-2.499 2.498-1.38 0-2.498-1.118-2.498-2.498s1.118-2.499 2.498-2.499c1.38 0 2.499 1.119 2.499 2.499z" fill="#fff"/>
</g>
<g>
<path d="m199.55-888.96c0 1.38-1.118 2.498-2.498 2.498s-2.499-1.118-2.499-2.498 1.119-2.499 2.499-2.499 2.498 1.119 2.498 2.499z" fill="#fff"/>
</g>
<g>
<path d="m174.69-888.96c0 1.38-1.118 2.498-2.498 2.498s-2.499-1.118-2.499-2.498 1.119-2.499 2.499-2.499 2.498 1.119 2.498 2.499z" fill="#fff"/>
</g>
</g>
<g>
<path d="m-67.637-853.22c0 1.164-0.944 2.108-2.108 2.108-1.164 0-2.109-0.94403-2.109-2.108s0.945-2.109 2.109-2.109c1.164 0 2.108 0.94501 2.108 2.109z" fill="#dbdbdb"/>
</g>
</g>
</g>
<g transform="matrix(1.8178 0 0 1.8178 571.45 601.08)" clip-path="url(#a)" display="block">
<g transform="matrix(.78364 .62122 -.62122 .78364 300.06 -46.645)" display="block">
<g transform="matrix(2 0 0 2 110.81 29.744)">
<g transform="translate(16.979 73.161)">
<path d="m-1.569-0.402c-0.154 0.349 1.2 1.329 1.578 1.364 0.931-0.189 0.815-0.733 1.714-0.784-0.786-0.069-1.602-0.311-2.335-0.618-0.393-0.195-0.765-0.522-0.957 0.038z" fill="#ffa085"/>
</g>
</g>
<g transform="matrix(2 0 0 2 110.81 29.745)">
<g transform="translate(15.537 76.012)">
<path d="m1.069-2.352c-1.103 0.213-3.511 0.969-3.679 1.022-0.481 0.181-1.744 0.479-2.065 0.724-0.206 0.157-0.587 0.815-0.584 1.134 0.0039997 0.422 0.449 0.561 0.449 0.561-0.104 0.538 1.276 0.536 1.223 0.662-0.224 0.515 0.414 0.976 2.284 0.34 0.112-0.037 5.016-0.689 6.565-1.027-0.13-0.971-1.366-3.79-1.417-3.791-0.897 0.052-1.845 0.185-2.776 0.375z" fill="#ffa085"/>
</g>
</g>
</g>
<g transform="matrix(.92644 1.7725 -1.7725 .92644 458.03 86.1)" display="block">
<g transform="translate(20.964 82.212)">
<path d="m8.364-10.644c-0.324 0.102-0.606 0.241-0.818 0.395-3.871 2.808-16.389 15.691-20.887 17.976 1.033 1.276 1.808 2.407 2.224 3.365 7.322-3.905 24.458-15.686 23.785-18.933-0.616-2.975-2.871-3.252-4.304-2.803z" fill="#f7ab3a"/>
</g>
</g>
<g transform="matrix(.97665 .21482 -.21482 .97665 224.48 -2.8107)" display="block">
<g transform="matrix(2 0 0 2 110.81 29.745)">
<g transform="translate(35.014 62.522)">
<path d="m-3.222-16.287c-1.479 4.167-2.609 18.396-4.453 25.102-2.262 8.227 4.285 6.867 5.774 4.597 3.921-5.979 11.838-24.245 8.95-26.598-1.252-1.02-10.002-3.856-10.271-3.101z" fill="#f7ab3a"/>
</g>
</g>
<g transform="matrix(2 0 0 2 110.81 29.744)">
<g transform="translate(35.923 56.515)">
<path d="m-4.131-10.28c-1.045 2.94-2.199 10.958-3.936 17.529 2.052 0.933 5.063 1.989 7.252 2.575 0.894 0.24 3.577 1.051 4.482 1.211 3.297-7.361 4.4-16.644 2.473-18.214-1.252-1.02-10.002-3.856-10.271-3.101z" fill="#ffb13c"/>
</g>
</g>
</g>
<g transform="matrix(.96815 -.25038 .25038 .96815 92.231 100.73)" display="block">
<g transform="matrix(2 0 0 2 110.81 29.744)">
<g transform="translate(64.036 188.51)">
<path d="m4.945-1.958-3.119-1.734s-0.669 1.003-1.215 1.649c-1.052 1.246-6.097 2.149-6.097 3.918 0 0.893 1.879 1.695 3.411 1.756 1.533 0.061 2.876-0.025 3.697-0.508 1.021-0.603 2.966-1.137 3.294-1.687 0.57-0.956 0.121-2.066 0.121-2.066 0.161-0.986-0.092-1.328-0.092-1.328z" fill="#154284"/>
</g>
</g>
<g transform="matrix(2 0 0 2 110.81 29.744)">
<g transform="translate(66.975 186.6)">
<path d="m-2.328-0.135s0.632 1.088 1.812 1.738c0.669 0.367 2.614-0.324 2.614-0.324 0.162-0.987 0.23-1.655 0.23-1.655l-3.543-1.593s-0.321 0.837-1.113 1.834z" fill="#154284"/>
</g>
</g>
</g>
<g transform="matrix(1.9363 -.50076 .50076 1.9363 206.96 101.78)" display="block">
<g transform="translate(67.23 135.04)">
<path d="m-0.552-40.556c-0.279 2-7.54 23.345-5.608 46.054 1.931 22.689 3.93 44.868 3.93 44.868 0.041 0.166 3.075 1.815 4.6 0.133 0 0 1.593-22.717 4.651-44.152 2.001-14.018 12.726-27.78 13.142-39.265 0.133-3.675 1.107-11.876-2.804-13.302-4.807-1.753-7.932-1.065-11.879-0.013-4.154 1.107-5.24 3.635-6.032 5.677z" fill="#182659"/>
</g>
</g>
<g transform="translate(157 33.001)" display="block">
<g transform="matrix(2 0 0 2 110.81 29.744)">
<g transform="translate(47.742 188.51)">
<path d="m4.944-1.958-3.119-1.734s-0.668 1.003-1.214 1.649c-1.053 1.246-6.097 2.149-6.097 3.918 0 0.893 1.879 1.695 3.411 1.756 1.533 0.061 2.791-0.212 3.696-0.508 0.903-0.296 2.967-1.137 3.295-1.687 0.57-0.956 0.12-2.066 0.12-2.066 0.162-0.986-0.092-1.328-0.092-1.328z" fill="#154284"/>
</g>
</g>
<g transform="matrix(2 0 0 2 110.81 29.744)">
<g transform="translate(50.681 186.6)">
<path d="m-2.328-0.135s0.632 1.088 1.813 1.738c0.667 0.367 2.612-0.324 2.612-0.324 0.163-0.987 0.231-1.655 0.231-1.655l-3.543-1.593s-0.321 0.837-1.113 1.834z" fill="#154284"/>
</g>
</g>
</g>
<g transform="matrix(2 0 0 2 267.81 62.745)" display="block">
<g transform="translate(50.935 135.04)">
<path d="m-4.613-44.431c-0.198 1.422-4.814 7.045-3.511 23.691 2.362 30.175 5.894 71.106 5.894 71.106 0.042 0.166 3.075 1.815 4.601 0.133 0 0 1.592-22.717 4.651-44.152 1.204-8.437 1.778-16.675 2.184-23.251 0.485-7.846 7.091-25.816 7.091-25.816-2.325-2.316-8.225-4.098-11.775-4.394-3.55-0.296-7.612 0.828-9.135 2.683z" fill="#182659"/>
</g>
</g>
<g transform="matrix(1.5828 .23387 -.23387 1.5828 156.17 415.12)" display="block">
<g transform="translate(-211.8 851.9)">
<g>
<path d="m340.35-1046.1h-6.704v6.257s3.128 3.129 6.704 0v-6.257z" fill="#ffa085"/>
</g>
</g>
</g>
<g transform="matrix(.93725 .34865 -.34865 .93725 249.45 -22.173)" display="block">
<g transform="matrix(2 0 0 2 110.81 29.745)">
<g transform="translate(59 84.55)">
<path d="m-18.267 1.329s-2.267 8.996-0.92 9.703c3.048 1.599 12.057-2.67 19.066-5.262 7.01-2.592 20.655-4.267 20.655-5.824 0-4.201-3.846-12.577-3.846-12.577l-34.955 13.96z" fill="#fdba00"/>
</g>
</g>
<g transform="matrix(2 0 0 2 110.81 29.745)">
<g transform="translate(54.478 63.991)">
<path d="m-0.194-28.609c-1.652-0.0060005-7.735 0.36-7.735 0.36s-0.81 2.49-2.947 3.161c-1.467 0.461-2.524-0.634-2.524-0.634s-6.238 3.282-7.081 4.079c-3.267 3.091-3.27 7.061-1.949 9.942 10.832 23.629 5.914 35.427 7.274 36.895 3.337 3.6 38.907-7.441 38.615-12.766-1.032-18.852-12.501-33.435-13.362-34.75-2.794-4.26-5.333-6.267-10.291-6.287z" fill="#ffb03b"/>
</g>
</g>
</g>
<g transform="matrix(.93725 .34865 -.34865 .93725 249.45 -22.174)" display="block">
<g transform="matrix(2 0 0 2 110.81 29.744)">
<g transform="translate(16.979 73.161)">
<path d="m-1.569-0.402c-0.154 0.349 1.2 1.329 1.578 1.364 0.931-0.189 0.815-0.733 1.714-0.784-0.786-0.069-1.602-0.311-2.335-0.618-0.393-0.195-0.765-0.522-0.957 0.038z" fill="#ffa085"/>
</g>
</g>
<g transform="matrix(2 0 0 2 110.81 29.745)">
<g transform="translate(15.537 76.012)">
<path d="m1.069-2.352c-1.103 0.213-3.511 0.969-3.679 1.022-0.481 0.181-1.744 0.479-2.065 0.724-0.206 0.157-0.587 0.815-0.584 1.134 0.0039997 0.422 0.449 0.561 0.449 0.561-0.104 0.538 1.276 0.536 1.223 0.662-0.224 0.515 0.414 0.976 2.284 0.34 0.112-0.037 5.016-0.689 6.565-1.027-0.13-0.971-1.366-3.79-1.417-3.791-0.897 0.052-1.845 0.185-2.776 0.375z" fill="#ffa085"/>
</g>
</g>
</g>
<g transform="matrix(1.8745 .69731 -.69731 1.8745 342.94 44.339)" display="block">
<g transform="translate(34.015 69.823)">
<path d="m11.362-7.364c-0.34-0.0020003-0.652 0.043-0.9 0.125-4.545 1.488-20.404 9.922-25.386 10.721 0.594 1.531 0.983 2.844 1.086 3.884 8.167-1.477 28.086-7.449 28.438-10.746 0.324-3.02-1.736-3.973-3.238-3.984z" fill="#f7ab3a"/>
</g>
</g>
<g transform="matrix(.93725 .34865 -.34865 .93725 249.45 -22.173)" display="block">
<g transform="matrix(2 0 0 2 110.81 29.744)">
<g transform="translate(52.608 53.968)">
<path d="m2.868-14.873c-2.685 3.514-8.114 16.713-11.922 22.533-4.671 7.141 1.978 7.85 4.09 6.145 5.563-4.492 18.689-19.459 16.661-22.583-0.881-1.355-8.343-6.733-8.829-6.095z" fill="#f7ab3a"/>
</g>
</g>
<g transform="matrix(2 0 0 2 110.81 29.745)">
<g transform="translate(55.744 49.347)">
<path d="m-0.269-10.252c-2.629 1.682-5.446 9.759-9.112 15.483 1.844 2.57 6.067 5.856 10.012 7.197 5.392-5.999 8.75-12.744 8.75-15.231 0-5.937-6.25-9.625-9.65-7.449z" fill="#f7ab3a"/>
</g>
</g>
</g>
<g transform="matrix(1.5828 .23387 -.23387 1.5828 156.17 415.12)" display="block">
<g transform="translate(-211.8 851.9)">
<g>
<path d="m326.04-1063.1c-3.129-0.89404-4.023 1.788-3.576 3.5759 0.44699 1.7881 1.788 2.235 2.682 4.4701 0.89398 2.235 0 1.788 0.89398 4.47 0.89401 2.682 3.616 3.615 3.616 3.615s5.771 0.854 10.301 2.174c4.53 1.3191 4.857-5.3419 7.092-5.7889 2.235-0.44702 3.576-12.963 0-14.751-3.576-1.7881-6.258-1.7881-8.493-4.4701-2.235-2.682-2.235-1.788-8.046 0-5.811 1.7881-1.341 7.599-4.47 6.7051z" fill="#2f72de"/>
</g>
<g>
<path d="m345.26-1054.2c0.44699-2.682-3.129-3.5759-4.023-1.788-0.89398 1.788-7.152 0-8.046-3.576 0 0-1.341 1.7881-3.129 2.235-1.788 0.44702-1.341 4.4701-0.89401 8.046 0.44702 3.576 1.341 4.0231 4.023 4.4701 2.682 0.4469 7.152 1.3409 8.493-1.7881s0.89398-4.47 0.89398-4.47 2.235-0.44702 2.682-3.129z" fill="#ffa085"/>
</g>
</g>
</g>
</g>
</g>
</svg>
