<svg xmlns="http://www.w3.org/2000/svg" viewBox="0 0 291.28 93.47"><defs><style>.cls-1{fill:#fff;}</style></defs><title>Fichier 1</title><g id="Calque_2" data-name="Calque 2"><g id="Calque_1-2" data-name="Calque 1"><path class="cls-1" d="M71.22,0,58.87,24.72,46.54,0,24.43,38.3l5.77,10L45.9,21.1l7.38,14.8L39.28,64l6,10.46,2.42-5L58.87,47.1,69.63,68.73l2.9,5.87h41.72ZM78.54,64.1,64.46,35.91,71.85,21.1,97,64.6H78.81Z"/><path class="cls-1" d="M269.14,17.6a9.94,9.94,0,0,1,5.54,1.29,5.14,5.14,0,0,1,1.15,6.74,5,5,0,0,1-2.2,1.66,13.74,13.74,0,0,1,1,1.38c.36.52.71,1.06,1.06,1.62s.68,1.16,1,1.77.62,1.21.9,1.79h-4c-.3-.52-.6-1.06-.9-1.6s-.61-1.06-.93-1.57-.63-1-.94-1.45-.6-.84-.93-1.24H268.1v5.86h-3.67V18a20.3,20.3,0,0,1,2.45-.33C267.72,17.63,268.48,17.6,269.14,17.6Zm.21,3.08h-1.3V25.1h1a6.11,6.11,0,0,0,2.92-.51,1.85,1.85,0,0,0,.88-1.74,1.75,1.75,0,0,0-.89-1.68A5.58,5.58,0,0,0,269.35,20.68Z"/><path class="cls-1" d="M279.9,33.85V17.79h10.85v3h-7.24V24h6.43v3h-6.43v3.88h7.77v3Z"/><path class="cls-1" d="M110.05,33.85V17.79H120.9v3h-7.27V24h6.42v3h-6.42v3.88h7.76v3Z"/><path class="cls-1" d="M134.88,33.85c-1-1.84-2.16-3.65-3.36-5.45a56.28,56.28,0,0,0-3.89-5.07V33.85h-3.57V17.79h3c.5.51,1.07,1.13,1.69,1.87S130,21.2,130.59,22s1.28,1.72,1.91,2.62,1.23,1.77,1.78,2.61V17.79h3.6V33.85Z"/><path class="cls-1" d="M153.54,17.79v3.08H148.7v13h-3.62v-13h-4.84V17.79Z"/><path class="cls-1" d="M160.57,17.6a9.94,9.94,0,0,1,5.54,1.29,5.19,5.19,0,0,1,1.15,6.74A5.06,5.06,0,0,1,165,27.29c.32.4.65.86,1,1.38s.71,1.06,1.06,1.62.68,1.16,1,1.77.63,1.21.91,1.79h-4c-.3-.52-.6-1.06-.9-1.6s-.61-1.06-.93-1.57-.63-1-.94-1.45-.63-.87-.94-1.24H159.5v5.86h-3.62V18a20.3,20.3,0,0,1,2.45-.33C159.15,17.63,159.9,17.6,160.57,17.6Zm.21,3.08h-1.3V25.1h1a6.11,6.11,0,0,0,2.92-.51,1.85,1.85,0,0,0,.88-1.74,1.78,1.78,0,0,0-.89-1.68,5.58,5.58,0,0,0-2.61-.49Z"/><path class="cls-1" d="M261.42,25.81a9.65,9.65,0,0,1-.65,3.64A6.73,6.73,0,0,1,258.93,32,7.83,7.83,0,0,1,256,33.55a13.54,13.54,0,0,1-3.85.51c-.65,0-1.41,0-2.27-.08a18.17,18.17,0,0,1-2.55-.34V18a20.67,20.67,0,0,1,2.61-.32c.9,0,1.68-.08,2.33-.08a14.3,14.3,0,0,1,3.74.46,7.69,7.69,0,0,1,2.89,1.47,6.4,6.4,0,0,1,1.85,2.57A9.59,9.59,0,0,1,261.42,25.81ZM251,30.91h1.39a5.39,5.39,0,0,0,4-1.37,5.25,5.25,0,0,0,1.31-3.78,4.54,4.54,0,0,0-5.22-5.13h-.76a4.7,4.7,0,0,0-.75,0Z"/><path class="cls-1" d="M127.22,38a10,10,0,0,1,5.51,1.27,4.55,4.55,0,0,1,1.9,4.14,4.63,4.63,0,0,1-1.95,4.18,10,10,0,0,1-5.56,1.29H126V54.3h-3.62V38.46a21.26,21.26,0,0,1,2.51-.32C125.78,38.1,126.55,38,127.22,38Zm.23,3.09H126v4.63h1.14a6.25,6.25,0,0,0,2.83-.51,2,2,0,0,0,1-1.9,2.23,2.23,0,0,0-.25-1.11,1.88,1.88,0,0,0-.69-.71,3.25,3.25,0,0,0-1.1-.37,9.24,9.24,0,0,0-1.49-.06Z"/><path class="cls-1" d="M152.63,46.25a10,10,0,0,1-.62,3.63,7.49,7.49,0,0,1-1.68,2.62,7,7,0,0,1-2.54,1.6,9.54,9.54,0,0,1-6.27,0,7.12,7.12,0,0,1-4.26-4.21,10.61,10.61,0,0,1,0-7.26A7.53,7.53,0,0,1,139,40a7.24,7.24,0,0,1,2.55-1.6,9.06,9.06,0,0,1,3-.53,9.16,9.16,0,0,1,3.11.53,7.24,7.24,0,0,1,2.55,1.6A7.76,7.76,0,0,1,152,42.63,9.73,9.73,0,0,1,152.63,46.25Zm-12.27,0a7.3,7.3,0,0,0,.29,2.13,4.91,4.91,0,0,0,.84,1.64,3.55,3.55,0,0,0,1.33,1,4.59,4.59,0,0,0,3.6,0,3.51,3.51,0,0,0,1.35-1,4.89,4.89,0,0,0,.83-1.64,7,7,0,0,0,.29-2.13,7.08,7.08,0,0,0-.26-2.15,4.84,4.84,0,0,0-.83-1.65,3.51,3.51,0,0,0-1.35-1,4.09,4.09,0,0,0-1.79-.38,4,4,0,0,0-1.81.39,3.81,3.81,0,0,0-1.33,1.06,5,5,0,0,0-.89,1.58A7.42,7.42,0,0,0,140.36,46.25Z"/><path class="cls-1" d="M161.92,54.62a8.31,8.31,0,0,1-2.92-.47,5.4,5.4,0,0,1-2-1.33,5.2,5.2,0,0,1-1.18-2,8.42,8.42,0,0,1-.38-2.59v-10h3.62v9.69a5.49,5.49,0,0,0,.22,1.66,2.93,2.93,0,0,0,.6,1.11,2,2,0,0,0,.93.61,3.45,3.45,0,0,0,1.19.19,2.93,2.93,0,0,0,2.14-.81,3.77,3.77,0,0,0,.83-2.76V38.23h3.61v10a8.2,8.2,0,0,1-.39,2.6,5.38,5.38,0,0,1-1.2,2,5.49,5.49,0,0,1-2.07,1.31A8.5,8.5,0,0,1,161.92,54.62Z"/><path class="cls-1" d="M171.33,33.85V17.79h10.85v3h-7.24V24h6.43v3h-6.43v3.88h7.77v3Z"/><path class="cls-1" d="M190.2,17.6a10.12,10.12,0,0,1,5.52,1.26A4.61,4.61,0,0,1,197.63,23a4.64,4.64,0,0,1-1.95,4.19,10.08,10.08,0,0,1-5.56,1.28H189v5.38h-3.61V18a21.12,21.12,0,0,1,2.5-.33C188.76,17.63,189.53,17.6,190.2,17.6Zm.23,3.08H189v4.64h1.14a6.25,6.25,0,0,0,2.83-.51,2,2,0,0,0,.95-1.9,2.37,2.37,0,0,0-.24-1.11,2,2,0,0,0-.7-.71,3,3,0,0,0-1.1-.37A9.9,9.9,0,0,0,190.43,20.68Z"/><path class="cls-1" d="M205,17.6a9.94,9.94,0,0,1,5.54,1.29,5.14,5.14,0,0,1,1.15,6.74,5,5,0,0,1-2.24,1.66,15.52,15.52,0,0,1,1,1.38c.36.52.71,1.06,1.06,1.62s.68,1.16,1,1.77.62,1.21.9,1.79h-4c-.3-.52-.6-1.06-.9-1.6s-.61-1.06-.93-1.57-.63-1-.94-1.45-.6-.84-.93-1.24h-1.79v5.86h-3.61V18a20.14,20.14,0,0,1,2.44-.33C203.63,17.63,204.35,17.6,205,17.6Zm.21,3.08h-1.3V25.1h1a6.11,6.11,0,0,0,2.92-.51,1.85,1.85,0,0,0,.89-1.74,1.78,1.78,0,0,0-.9-1.68,5.58,5.58,0,0,0-2.61-.49Z"/><path class="cls-1" d="M215.77,33.85V17.79h10.86v3H219.4V24h6.42v3H219.4v3.88h7.76v3Z"/><path class="cls-1" d="M240.63,33.85c-1-1.84-2.16-3.65-3.36-5.45a57.29,57.29,0,0,0-3.85-5.07V33.85h-3.57V17.79h2.94c.51.51,1.08,1.13,1.7,1.87s1.24,1.54,1.89,2.38,1.28,1.72,1.91,2.62,1.23,1.77,1.78,2.61V17.79h3.56V33.85Z"/><path class="cls-1" d="M176.74,38a9.94,9.94,0,0,1,5.54,1.29,4.49,4.49,0,0,1,1.92,4,4.55,4.55,0,0,1-.77,2.77,5.17,5.17,0,0,1-2.24,1.65c.32.41.65.87,1,1.38a15.79,15.79,0,0,1,1,1.63c.29.57.69,1.15,1,1.76s.63,1.21.91,1.8h-4l-.89-1.6c-.3-.54-.61-1.07-.93-1.58a15.45,15.45,0,0,0-1-1.45c-.36-.45-.62-.87-.93-1.24h-1.75V54.3H172V38.46a22.49,22.49,0,0,1,2.45-.32C175.32,38.1,176.07,38,176.74,38Zm.21,3.09h-1.3v4.36h1a6.19,6.19,0,0,0,3-.39,1.85,1.85,0,0,0,.88-1.74,1.77,1.77,0,0,0-.89-1.68A5.4,5.4,0,0,0,177,41.1Z"/><path class="cls-1" d="M146.17,74.74c-.18-.56-.37-1.13-.57-1.72s-.41-1.18-.62-1.76h-6.27c-.21.59-.41,1.17-.61,1.76s-.4,1.16-.57,1.72h-3.76c.61-1.73,1.19-3.33,1.72-4.8s1.08-2.85,1.6-4.15,1-2.53,1.53-3.7,1-2.3,1.57-3.42h3.44q.8,1.68,1.56,3.42c.51,1.17,1,2.4,1.55,3.7s1,2.68,1.59,4.15,1.12,3.07,1.73,4.8Zm-4.34-12.43c-.08.24-.2.55-.36,1s-.33.87-.53,1.4l-.66,1.74c-.24.64-.5,1.29-.75,2h4.59c-.24-.7-.48-1.37-.71-2s-.45-1.22-.66-1.74-.39-1-.54-1.39Z"/><path class="cls-1" d="M156.93,58.49a10,10,0,0,1,5.52,1.26,5.43,5.43,0,0,1,.67,7.65,5.3,5.3,0,0,1-.67.67,10,10,0,0,1-5.57,1.29h-1.15v5.38h-3.62V58.9a21.26,21.26,0,0,1,2.51-.32Q155.94,58.49,156.93,58.49Zm.23,3.08h-.77l-.66,0v4.64h1.13a6.12,6.12,0,0,0,2.83-.51,2,2,0,0,0,.95-1.9,2.41,2.41,0,0,0-.24-1.12,1.69,1.69,0,0,0-.7-.7,2.87,2.87,0,0,0-1.1-.37A8.71,8.71,0,0,0,157.16,61.57Z"/><path class="cls-1" d="M171.86,58.49a10,10,0,0,1,5.52,1.26,5.43,5.43,0,0,1,.67,7.65,5.3,5.3,0,0,1-.67.67,10,10,0,0,1-5.57,1.29h-1.18v5.38H167V58.9a21.26,21.26,0,0,1,2.51-.32Q170.87,58.49,171.86,58.49Zm.24,3.08h-.78l-.66,0v4.64h1.13a6.12,6.12,0,0,0,2.83-.51,2,2,0,0,0,.95-1.9,2.41,2.41,0,0,0-.24-1.12,1.69,1.69,0,0,0-.7-.7,2.87,2.87,0,0,0-1.1-.37A8.52,8.52,0,0,0,172.1,61.57Z"/><path class="cls-1" d="M186.68,58.49a10,10,0,0,1,5.54,1.28,4.75,4.75,0,0,1-1.09,8.41c.32.4.65.86,1,1.38s.71,1.06,1.06,1.62.68,1.15,1,1.76.63,1.21.91,1.8h-4l-.9-1.6c-.3-.54-.61-1.07-.93-1.58s-.63-1-.94-1.45-.63-.87-.94-1.24h-1.76v5.87H182V58.9a22.49,22.49,0,0,1,2.45-.32C185.26,58.52,186,58.49,186.68,58.49Zm.21,3.08h-.71l-.59,0V66h1a6.11,6.11,0,0,0,2.92-.51,1.85,1.85,0,0,0,.88-1.74,1.77,1.77,0,0,0-.89-1.68,5.46,5.46,0,0,0-2.61-.5Z"/><path class="cls-1" d="M197.44,74.74V58.67h10.85v3h-7.24v3.15h6.43v3h-6.43v3.87h7.77v3Z"/><path class="cls-1" d="M222.27,74.74q-1.56-2.76-3.37-5.45a55.45,55.45,0,0,0-3.84-5.08V74.74h-3.57V58.67h2.94c.51.51,1.07,1.14,1.69,1.88s1.25,1.54,1.89,2.38,1.28,1.71,1.91,2.62,1.23,1.77,1.79,2.61V58.67h3.59V74.74Z"/><path class="cls-1" d="M243.09,66.69a9.27,9.27,0,0,1-.65,3.64,6.78,6.78,0,0,1-1.85,2.58,7.83,7.83,0,0,1-2.91,1.53,13.19,13.19,0,0,1-3.85.51c-.64,0-1.4,0-2.27-.08a19.77,19.77,0,0,1-2.55-.34V58.88a20.66,20.66,0,0,1,2.61-.31c.91-.06,1.68-.08,2.33-.08a14,14,0,0,1,3.75.46,7.7,7.7,0,0,1,2.93,1.46A6.53,6.53,0,0,1,242.49,63,9.68,9.68,0,0,1,243.09,66.69ZM232.63,71.8H234a4.69,4.69,0,0,0,5.31-5.15,4.53,4.53,0,0,0-5.21-5.12h-.77a3,3,0,0,0-.74.06Z"/><path class="cls-1" d="M250.81,58.49a10,10,0,0,1,5.54,1.28,5.16,5.16,0,0,1,1.14,6.75,5.11,5.11,0,0,1-2.23,1.66c.32.4.65.86,1,1.38s.71,1.06,1.05,1.62.69,1.15,1,1.76.63,1.21.9,1.8h-4l-.89-1.6c-.31-.54-.62-1.07-.94-1.58s-.63-1-.94-1.45-.62-.87-.93-1.24h-1.78v5.87h-3.62V58.9a22.49,22.49,0,0,1,2.45-.32Q249.8,58.49,250.81,58.49Zm.2,3.08h-.7l-.59,0V66h1a6.11,6.11,0,0,0,2.92-.51,1.86,1.86,0,0,0,.88-1.74,1.77,1.77,0,0,0-.89-1.65A5.53,5.53,0,0,0,251,61.57Z"/><path class="cls-1" d="M261.56,74.74V58.67h10.85v3h-7.23v3.15h6.45v3h-6.42v3.87H273v3Z"/><path class="cls-1" d="M40.75,74.59H3.47L22,42.69l9.9,17ZM19.87,67.41H15.78v7.15c.57-1,.91-1.57,1.31-2.23ZM24,60.31H19.87v7.11Zm4.12-7H24v7h0L28,53.55Z"/><path class="cls-1" d="M.72,86.77H0V81H1.12l1.42,4.4a.73.73,0,0,0,.09.26.49.49,0,0,1,0,.21l.06-.25a.29.29,0,0,1,.07-.22L4.24,81H5.36v5.75H4.63V82.1a1.55,1.55,0,0,1-.07.23l-1.48,4.4H2.35L.9,82.33a2.17,2.17,0,0,1-.07-.24,1.22,1.22,0,0,1-.06-.26Z"/><path class="cls-1" d="M10.07,85.42a1.64,1.64,0,0,1-.6,1.1,1.88,1.88,0,0,1-1.23.39,2.08,2.08,0,0,1-.78-.15,1.58,1.58,0,0,1-.59-.43,2,2,0,0,1-.38-.69,2.88,2.88,0,0,1-.13-.92,3.06,3.06,0,0,1,.13-1A1.82,1.82,0,0,1,6.87,83a1.63,1.63,0,0,1,.59-.45,2.08,2.08,0,0,1,.78-.15A1.77,1.77,0,0,1,9.63,83a2.28,2.28,0,0,1,.5,1.57v.32h-3a1.56,1.56,0,0,0,.33,1,1.1,1.1,0,0,0,.87.36A1.06,1.06,0,0,0,9,86a1,1,0,0,0,.36-.63ZM9.39,84.3a1.26,1.26,0,0,0-.3-.91,1.26,1.26,0,0,0-1.65,0,1.39,1.39,0,0,0-.34.91Z"/><path class="cls-1" d="M16,84.2a3.84,3.84,0,0,0,0-.48.7.7,0,0,0-.12-.34.45.45,0,0,0-.23-.2.87.87,0,0,0-.39-.07,1,1,0,0,0-.79.31,1.26,1.26,0,0,0-.29.89v2.46h-.7V84.2a3.84,3.84,0,0,0,0-.48.7.7,0,0,0-.12-.34.45.45,0,0,0-.23-.2.87.87,0,0,0-.39-.07,1,1,0,0,0-.79.31,1.3,1.3,0,0,0-.28.89v2.46H11V82.59h.63v.59a1.4,1.4,0,0,1,.55-.53,1.5,1.5,0,0,1,.75-.17,1.33,1.33,0,0,1,.67.16,1.53,1.53,0,0,1,.48.5,1.77,1.77,0,0,1,.59-.5,1.74,1.74,0,0,1,.75-.16,1.44,1.44,0,0,1,.71.15,1.1,1.1,0,0,1,.46.42,1.2,1.2,0,0,1,.14.49q0,.3,0,.6v2.63H16Z"/><path class="cls-1" d="M17.82,81h.68v2.15a1.56,1.56,0,0,1,1.36-.72,1.7,1.7,0,0,1,.74.16,1.57,1.57,0,0,1,.58.44,2.12,2.12,0,0,1,.38.71,3.13,3.13,0,0,1,0,1.85,1.82,1.82,0,0,1-.37.7,1.57,1.57,0,0,1-.58.44,1.93,1.93,0,0,1-.75.15,1.68,1.68,0,0,1-.76-.16,1.71,1.71,0,0,1-.6-.5v.53h-.68Zm.66,3.63a2,2,0,0,0,.32,1.21,1.09,1.09,0,0,0,.91.42,1.1,1.1,0,0,0,.91-.41A1.63,1.63,0,0,0,21,84.74a2,2,0,0,0-.33-1.24,1.09,1.09,0,0,0-.91-.42C18.89,83.1,18.48,83.6,18.48,84.65Z"/><path class="cls-1" d="M22.55,82.59h.68v.75a1.18,1.18,0,0,1,1.16-.84h.18v.74h-.16a1.13,1.13,0,0,0-.86.31,1.22,1.22,0,0,0-.29.89v2.33h-.71Z"/><path class="cls-1" d="M28.72,85.42a1.75,1.75,0,0,1-.6,1.1,2.13,2.13,0,0,1-2,.24,1.62,1.62,0,0,1-.6-.43,2,2,0,0,1-.37-.69,2.88,2.88,0,0,1-.13-.92,3.06,3.06,0,0,1,.13-1,1.93,1.93,0,0,1,.37-.71,1.67,1.67,0,0,1,.6-.45,2.08,2.08,0,0,1,.78-.15,1.77,1.77,0,0,1,1.39.55,2.27,2.27,0,0,1,.49,1.57v.32h-3a1.56,1.56,0,0,0,.33,1,1.13,1.13,0,0,0,.88.36,1,1,0,0,0,1.07-.85ZM28,84.3a1.37,1.37,0,0,0-.3-.91,1.07,1.07,0,0,0-.83-.31,1,1,0,0,0-.82.31,1.45,1.45,0,0,0-.35.91Z"/><path class="cls-1" d="M35.43,86.77h-.68v-.53a1.68,1.68,0,0,1-1.36.66,1.93,1.93,0,0,1-.75-.15,1.66,1.66,0,0,1-.58-.44,2,2,0,0,1-.37-.7,2.88,2.88,0,0,1-.13-.92,3,3,0,0,1,.13-.93,2,2,0,0,1,.38-.71,1.57,1.57,0,0,1,.58-.44,1.7,1.7,0,0,1,.74-.16,1.62,1.62,0,0,1,1.36.65V81h.68Zm-.65-2.12c0-1-.42-1.57-1.25-1.57a1.09,1.09,0,0,0-.91.42,2,2,0,0,0-.33,1.24,1.77,1.77,0,0,0,.33,1.13,1.13,1.13,0,0,0,.91.41,1.09,1.09,0,0,0,.92-.42A1.92,1.92,0,0,0,34.78,84.65Z"/><path class="cls-1" d="M40,85.42a1.75,1.75,0,0,1-.6,1.1,2.13,2.13,0,0,1-2,.24,1.7,1.7,0,0,1-.6-.43,2,2,0,0,1-.37-.69,2.88,2.88,0,0,1-.13-.92,3.06,3.06,0,0,1,.13-1,1.93,1.93,0,0,1,.37-.71,1.89,1.89,0,0,1,.6-.45,2.08,2.08,0,0,1,.78-.15,1.77,1.77,0,0,1,1.39.55,2.27,2.27,0,0,1,.49,1.57v.32h-3a1.52,1.52,0,0,0,.34,1A1.11,1.11,0,0,0,39,86a1.15,1.15,0,0,0,.39-.66Zm-.68-1.12a1.37,1.37,0,0,0-.3-.91,1.07,1.07,0,0,0-.83-.31,1,1,0,0,0-.82.31,1.45,1.45,0,0,0-.35.91Z"/><path class="cls-1" d="M43.46,84.91v.24a1.25,1.25,0,0,0,.21.82.85.85,0,0,0,.69.26.83.83,0,0,0,.8-.43,1.17,1.17,0,0,0,.08-.37V81H46v4.16a1.86,1.86,0,0,1-.4,1.32,1.67,1.67,0,0,1-1.26.43q-1.68,0-1.68-1.77v-.25Z"/><path class="cls-1" d="M48.71,81h.86l2.15,5.75h-.85l-.61-1.67H48l-.62,1.72h-.81ZM50,84.38l-.89-2.53-.9,2.53Z"/><path class="cls-1" d="M53.93,81h.76l1.17,4.6L57.08,81h.81l1.26,4.57L60.34,81h.75l-1.53,5.75h-.77L57.48,82l-1.26,4.74h-.8Z"/><path class="cls-1" d="M61.44,84.68A2.34,2.34,0,0,1,62,83a1.89,1.89,0,0,1,1.47-.58,1.91,1.91,0,0,1,1.48.58,2.81,2.81,0,0,1,0,3.29,2.17,2.17,0,0,1-3,0A2.36,2.36,0,0,1,61.44,84.68Zm.72,0a1.87,1.87,0,0,0,.33,1.19,1.19,1.19,0,0,0,1,.41,1.13,1.13,0,0,0,.94-.41,2.33,2.33,0,0,0,0-2.39,1.38,1.38,0,0,0-1.94,0A1.89,1.89,0,0,0,62.16,84.68Z"/><path class="cls-1" d="M66.3,82.59H67v.75a1.18,1.18,0,0,1,1.16-.84h.19v.74h-.17a1.13,1.13,0,0,0-.86.31,1.22,1.22,0,0,0-.29.89v2.33H66.3Z"/><path class="cls-1" d="M69,81h.7v5.75H69Z"/><path class="cls-1" d="M74.42,86.77h-.68v-.53a1.68,1.68,0,0,1-1.36.66,1.93,1.93,0,0,1-.75-.15,1.66,1.66,0,0,1-.58-.44,2,2,0,0,1-.37-.7,2.88,2.88,0,0,1-.13-.92,3,3,0,0,1,.13-.93,2.12,2.12,0,0,1,.38-.71,1.57,1.57,0,0,1,.58-.44,1.7,1.7,0,0,1,.74-.16,1.62,1.62,0,0,1,1.36.65V81h.68Zm-.65-2.12c0-1-.42-1.57-1.25-1.57a1.09,1.09,0,0,0-.91.42,2,2,0,0,0-.33,1.24,1.77,1.77,0,0,0,.33,1.13,1.17,1.17,0,0,0,.92.41,1.09,1.09,0,0,0,.91-.42A1.92,1.92,0,0,0,73.77,84.65Z"/><path class="cls-1" d="M75,82.59h.73l.88,3.2.83-3.2h.81l.82,3.2.92-3.2h.72l-1.27,4.18h-.71l-.88-3.22L77,86.77h-.71Z"/><path class="cls-1" d="M81.34,81h.71v.8h-.71Zm0,1.57h.71v4.18h-.71Z"/><path class="cls-1" d="M86.77,86.77h-.68v-.53a1.68,1.68,0,0,1-1.36.66,1.88,1.88,0,0,1-.74-.15,1.57,1.57,0,0,1-.58-.44,2.07,2.07,0,0,1-.38-.7,3.2,3.2,0,0,1-.13-.92,3.26,3.26,0,0,1,.13-.93,2.12,2.12,0,0,1,.38-.71,1.66,1.66,0,0,1,.58-.44,1.7,1.7,0,0,1,.74-.16,1.62,1.62,0,0,1,1.36.65V81h.68Zm-.65-2.12c0-1-.42-1.57-1.25-1.57a1.09,1.09,0,0,0-.91.42,2,2,0,0,0-.33,1.24A1.63,1.63,0,0,0,84,85.87a1.1,1.1,0,0,0,.91.41,1.09,1.09,0,0,0,.91-.42A1.92,1.92,0,0,0,86.12,84.65Z"/><path class="cls-1" d="M91.38,85.42a1.64,1.64,0,0,1-.6,1.1,1.88,1.88,0,0,1-1.23.39,2.08,2.08,0,0,1-.78-.15,1.58,1.58,0,0,1-.59-.43,2,2,0,0,1-.38-.69,2.88,2.88,0,0,1-.13-.92,3.06,3.06,0,0,1,.13-1,2.12,2.12,0,0,1,.38-.71,1.63,1.63,0,0,1,.59-.45,2.08,2.08,0,0,1,.78-.15,1.77,1.77,0,0,1,1.39.55,2.28,2.28,0,0,1,.5,1.57v.32h-3a1.56,1.56,0,0,0,.33,1,1.1,1.1,0,0,0,.87.36,1,1,0,0,0,1.08-.85ZM90.7,84.3a1.13,1.13,0,0,0-2-.91,1.39,1.39,0,0,0-.34.91Z"/><path class="cls-1" d="M93.63,80.77a1.84,1.84,0,0,1,.65.13,1.72,1.72,0,0,1,.55.37,2,2,0,0,1,.36.54,1.73,1.73,0,0,1,.12.64,1.82,1.82,0,0,1-.12.65,1.64,1.64,0,0,1-.37.53,1.72,1.72,0,0,1-.55.37A1.64,1.64,0,0,1,93,84a1.68,1.68,0,0,1-.54-.37,1.79,1.79,0,0,1-.37-.54,1.73,1.73,0,0,1-.12-.64,1.56,1.56,0,0,1,.13-.64,1.76,1.76,0,0,1,.37-.56,1.61,1.61,0,0,1,.53-.36A1.73,1.73,0,0,1,93.63,80.77Zm1.46,1.7A1.56,1.56,0,0,0,95,81.9a1.22,1.22,0,0,0-.3-.47,1.58,1.58,0,0,0-.48-.33,1.45,1.45,0,0,0-1.12,0,1.29,1.29,0,0,0-.46.31,1.63,1.63,0,0,0-.33.49,1.29,1.29,0,0,0-.11.55,1.45,1.45,0,0,0,.1.55,1.4,1.4,0,0,0,.32.47,1.58,1.58,0,0,0,.48.33,1.41,1.41,0,0,0,.54.11,1.55,1.55,0,0,0,.56-.11A1.44,1.44,0,0,0,95,83a1.48,1.48,0,0,0,.13-.55Zm-1.41-1c.53,0,.79.17.79.52a.6.6,0,0,1-.11.34.51.51,0,0,1-.32.17l.42.87h-.4l-.39-.81h-.35v.81H93v-1.9Zm-.36.23v.63h.3a.65.65,0,0,0,.36-.07A.25.25,0,0,0,94.1,82a.27.27,0,0,0-.12-.25.67.67,0,0,0-.37-.08Z"/><g id="Calque_3" data-name="Calque 3"><path class="cls-1" d="M151.05,90.79c-.16-.42-.31-.83-.45-1.24s-.28-.82-.44-1.24h-4.39l-.88,2.48h-1.42c.38-1,.71-2,1-2.85s.65-1.7,1-2.48.63-1.54.93-2.25.63-1.42,1-2.12h1.23c.33.7.65,1.41,1,2.12s.62,1.46.93,2.25.64,1.61,1,2.48.68,1.83,1.05,2.85Zm-1.28-3.6c-.29-.81-.59-1.59-.88-2.35s-.61-1.5-.92-2.2c-.33.7-.64,1.43-.93,2.2s-.59,1.54-.88,2.35Z"/><path class="cls-1" d="M159.35,90.58c-.3.08-.69.16-1.18.24a10.72,10.72,0,0,1-1.7.13,3.61,3.61,0,0,1-1.42-.25,2.24,2.24,0,0,1-.92-.69,3.06,3.06,0,0,1-.51-1.06,6.14,6.14,0,0,1-.15-1.35V83.51h1.3v3.81a3.25,3.25,0,0,0,.42,1.9,1.62,1.62,0,0,0,1.42.58h1.44V83.65h1.3Z"/><path class="cls-1" d="M167.27,83.51A35.88,35.88,0,0,1,166,87.43c-.49,1.25-1,2.37-1.42,3.36H163.4c-.46-1-.94-2.11-1.43-3.36a35.88,35.88,0,0,1-1.28-3.92h1.4c.12.46.25,1,.4,1.46s.32,1,.49,1.54.35,1,.53,1.48.34.9.5,1.28c.16-.38.33-.8.5-1.28l.53-1.48c.17-.48.34-1,.49-1.54s.29-1,.4-1.46Z"/><path class="cls-1" d="M168,87.17a4.63,4.63,0,0,1,.29-1.69,3.31,3.31,0,0,1,.74-1.2,3,3,0,0,1,1.06-.71,3.25,3.25,0,0,1,1.23-.24,2.84,2.84,0,0,1,2.26.92,4.22,4.22,0,0,1,.78,2.79v.22a1,1,0,0,1,0,.24h-5a2.67,2.67,0,0,0,.66,1.72,2.35,2.35,0,0,0,1.79.59,4.53,4.53,0,0,0,1.16-.12,3.38,3.38,0,0,0,.7-.23l.19,1.09a3.17,3.17,0,0,1-.84.27,6.13,6.13,0,0,1-1.35.14,4.37,4.37,0,0,1-1.64-.29,2.93,2.93,0,0,1-1.14-.79,3.17,3.17,0,0,1-.67-1.2A5.16,5.16,0,0,1,168,87.17Zm5-.72a2.16,2.16,0,0,0-.44-1.45,1.55,1.55,0,0,0-1.25-.56,1.68,1.68,0,0,0-.79.17,1.85,1.85,0,0,0-.58.46,1.79,1.79,0,0,0-.37.64,3.2,3.2,0,0,0-.18.74Z"/><path class="cls-1" d="M178.93,83.36h.82l.38.07.26.07-.22,1.13-.51-.13a4.7,4.7,0,0,0-.92-.08,3.53,3.53,0,0,0-.72.08l-.47.1v6.12h-1.3v-7a9.35,9.35,0,0,1,1.15-.32A7.83,7.83,0,0,1,178.93,83.36Z"/><path class="cls-1" d="M186.22,90.1a3.15,3.15,0,0,1-.65.29,3.11,3.11,0,0,1-1.13.18,3.76,3.76,0,0,1-1.24-.21,2.66,2.66,0,0,1-1-.65,3.22,3.22,0,0,1-.68-1.1,4.42,4.42,0,0,1-.26-1.57,4.51,4.51,0,0,1,.24-1.46,3.19,3.19,0,0,1,1.81-1.91,3.74,3.74,0,0,1,1.48-.27,8.46,8.46,0,0,1,1.59.13c.46.09.84.17,1.14.25v6.49a3.11,3.11,0,0,1-.86,2.44,4,4,0,0,1-2.64.75,6.25,6.25,0,0,1-1.29-.11,7,7,0,0,1-1.1-.25l.24-1.14a5.68,5.68,0,0,0,1,.27,5.83,5.83,0,0,0,1.18.12,2.44,2.44,0,0,0,1.67-.46,1.86,1.86,0,0,0,.52-1.47Zm0-5.4a4.36,4.36,0,0,0-.52-.11,6.61,6.61,0,0,0-.89,0,2,2,0,0,0-1.62.68,2.77,2.77,0,0,0-.57,1.82,3.58,3.58,0,0,0,.16,1.08,2.14,2.14,0,0,0,.44.74,1.75,1.75,0,0,0,.63.44,2,2,0,0,0,.73.14,2.82,2.82,0,0,0,1-.15,2.55,2.55,0,0,0,.68-.34Z"/><path class="cls-1" d="M189.74,83.72l1.19-.24a12.29,12.29,0,0,1,1.71-.12,3.73,3.73,0,0,1,1.44.24,2.33,2.33,0,0,1,.92.69,2.56,2.56,0,0,1,.48,1.06,5.58,5.58,0,0,1,.14,1.35v4.09h-1.3V87a5.48,5.48,0,0,0-.09-1.14,1.78,1.78,0,0,0-.3-.77,1.14,1.14,0,0,0-.56-.43,2.33,2.33,0,0,0-.87-.13h-1.45v6.14h-1.31Z"/><path class="cls-1" d="M197.37,87.17a4.84,4.84,0,0,1,.28-1.69,3.57,3.57,0,0,1,.75-1.2,3,3,0,0,1,1.06-.71,3.25,3.25,0,0,1,1.23-.24,2.82,2.82,0,0,1,2.25.92,4.17,4.17,0,0,1,.79,2.79v.22a1,1,0,0,1,0,.24h-5a2.67,2.67,0,0,0,.66,1.72,2.35,2.35,0,0,0,1.79.59,4.45,4.45,0,0,0,1.15-.12,3.68,3.68,0,0,0,.71-.23l.19,1.09a3.17,3.17,0,0,1-.84.27A6.13,6.13,0,0,1,201,91a4.37,4.37,0,0,1-1.64-.29,3,3,0,0,1-1.15-.79,3.29,3.29,0,0,1-.66-1.2A4.84,4.84,0,0,1,197.37,87.17Zm5-.72a2.23,2.23,0,0,0-.44-1.45,1.55,1.55,0,0,0-1.25-.56,1.68,1.68,0,0,0-.79.17,1.85,1.85,0,0,0-.58.46,2,2,0,0,0-.38.64,3.18,3.18,0,0,0-.17.74Z"/><path class="cls-1" d="M204.85,86h3.46v1.22h-3.46Z"/><path class="cls-1" d="M214.63,86.73c.15.19.34.43.57.74s.46.64.7,1,.49.76.73,1.16a12.72,12.72,0,0,1,.6,1.16h-1.48c-.19-.35-.39-.71-.61-1.08a10.85,10.85,0,0,0-.66-1c-.22-.29-.45-.64-.67-.93l-.59-.76h-2v3.79h-1.36V81.25a8,8,0,0,1,1.29-.19h1.29a5.36,5.36,0,0,1,3.12.77,2.69,2.69,0,0,1,1,2.27,2.65,2.65,0,0,1-.51,1.65A3.05,3.05,0,0,1,214.63,86.73Zm-2.06-4.55h-1.33v3.66h1a10.64,10.64,0,0,0,1.26-.07,3.07,3.07,0,0,0,.94-.27A1.39,1.39,0,0,0,215,85a1.92,1.92,0,0,0,.21-1A1.79,1.79,0,0,0,215,83a1.56,1.56,0,0,0-.57-.57,2.27,2.27,0,0,0-.84-.29,6.37,6.37,0,0,0-1.07,0Z"/><path class="cls-1" d="M218.63,90.79V80.15l1.3-.22v3.72a5,5,0,0,1,.78-.22,4.43,4.43,0,0,1,.81-.07,4,4,0,0,1,1.45.24,2.3,2.3,0,0,1,.91.69,2.64,2.64,0,0,1,.49,1.06,6.13,6.13,0,0,1,.14,1.35v4.09H223.2V87a5.48,5.48,0,0,0-.09-1.14,1.78,1.78,0,0,0-.3-.77,1.14,1.14,0,0,0-.56-.43,2.33,2.33,0,0,0-.87-.13H221l-.43.07-.36.07-.23.07v6Z"/><path class="cls-1" d="M233,87.15a4.42,4.42,0,0,1-.26,1.57,3.54,3.54,0,0,1-.7,1.2,3,3,0,0,1-1.09.78,3.38,3.38,0,0,1-1.37.27,3.56,3.56,0,0,1-1.37-.27,3,3,0,0,1-1.09-.78,3.54,3.54,0,0,1-.7-1.2,4.8,4.8,0,0,1,0-3.13,3.49,3.49,0,0,1,.7-1.21,3.36,3.36,0,0,1,1.09-.78,3.56,3.56,0,0,1,1.37-.27,3.23,3.23,0,0,1,2.46,1,3.49,3.49,0,0,1,.7,1.21A4.6,4.6,0,0,1,233,87.15Zm-1.36,0a3.09,3.09,0,0,0-.55-2,1.81,1.81,0,0,0-1.51-.72,1.79,1.79,0,0,0-1.5.72,3.1,3.1,0,0,0-.56,2,3.16,3.16,0,0,0,.56,2,1.79,1.79,0,0,0,1.5.72,1.81,1.81,0,0,0,1.51-.72,3.21,3.21,0,0,0,.52-2Zm-2-7.12,1.9,2-.54.61-1.36-1.23-1.36,1.23-.54-.61Z"/><path class="cls-1" d="M234.85,83.72l1.19-.24a9.84,9.84,0,0,1,1.71-.12,3.73,3.73,0,0,1,1.44.24,2.4,2.4,0,0,1,.92.69,2.56,2.56,0,0,1,.48,1.06,6.13,6.13,0,0,1,.14,1.35v4.09h-1.3V87a5.48,5.48,0,0,0-.09-1.14,1.78,1.78,0,0,0-.3-.77,1.14,1.14,0,0,0-.56-.43,2.55,2.55,0,0,0-.87-.13h-1.46v6.14h-1.3Z"/><path class="cls-1" d="M242.48,87.17a4.84,4.84,0,0,1,.28-1.69,3.65,3.65,0,0,1,.74-1.2,3.08,3.08,0,0,1,1.07-.71,3.25,3.25,0,0,1,1.23-.24,2.82,2.82,0,0,1,2.25.92,4.17,4.17,0,0,1,.79,2.79v.22a1,1,0,0,1,0,.24h-5a2.67,2.67,0,0,0,.66,1.72,2.35,2.35,0,0,0,1.79.59,4.45,4.45,0,0,0,1.15-.12,3.68,3.68,0,0,0,.71-.23l.18,1.09a3,3,0,0,1-.83.27,6.13,6.13,0,0,1-1.35.14,4.45,4.45,0,0,1-1.65-.29,3,3,0,0,1-1.8-2A4.78,4.78,0,0,1,242.48,87.17Zm5-.72A2.23,2.23,0,0,0,247,85a1.53,1.53,0,0,0-1.26-.56,1.68,1.68,0,0,0-.79.17,1.85,1.85,0,0,0-.58.46,2.06,2.06,0,0,0-.37.64,3.18,3.18,0,0,0-.17.74Z"/><path class="cls-1" d="M250,86h3.45v1.22H250Z"/><path class="cls-1" d="M261.46,90.79c-.15-.42-.3-.83-.44-1.24l-.44-1.24h-4.39l-.88,2.48h-1.42q.56-1.53,1.05-2.85c.33-.87.65-1.7,1-2.48s.62-1.54.93-2.25.63-1.42,1-2.12h1.24c.34.7.66,1.41,1,2.12s.62,1.46.93,2.25.63,1.61,1,2.48.68,1.83,1,2.85Zm-1.27-3.6c-.3-.81-.59-1.59-.89-2.35s-.6-1.5-.91-2.2c-.33.7-.64,1.43-.94,2.2s-.58,1.54-.87,2.35Z"/><path class="cls-1" d="M266.36,90.93a2.48,2.48,0,0,1-1.7-.52,2,2,0,0,1-.51-1.52V80.15l1.3-.22v8.75a2.33,2.33,0,0,0,.06.53.75.75,0,0,0,.18.34,1,1,0,0,0,.34.19,4.35,4.35,0,0,0,.52.1Z"/><path class="cls-1" d="M274.41,87.17a5.21,5.21,0,0,1-.21,1.52,3.53,3.53,0,0,1-.64,1.21,3,3,0,0,1-1,.78,3.18,3.18,0,0,1-1.39.28,3.54,3.54,0,0,1-1.12-.17,3.86,3.86,0,0,1-.72-.32v2.91H268V83.74c.31-.08.7-.16,1.16-.25a8.57,8.57,0,0,1,1.6-.13,4.07,4.07,0,0,1,1.51.26,3.3,3.3,0,0,1,1.15.76,3.4,3.4,0,0,1,.74,1.2A4.74,4.74,0,0,1,274.41,87.17Zm-1.35,0a2.8,2.8,0,0,0-.63-2,2.14,2.14,0,0,0-1.68-.69,7.06,7.06,0,0,0-.92,0,3.1,3.1,0,0,0-.53.1v4.59a2.58,2.58,0,0,0,.69.38,2.64,2.64,0,0,0,1,.18,2.29,2.29,0,0,0,1-.2,1.72,1.72,0,0,0,.64-.43,2.17,2.17,0,0,0,.36-.84A4.44,4.44,0,0,0,273.06,87.17Z"/><path class="cls-1" d="M275.84,87.17a4.84,4.84,0,0,1,.28-1.69,3.82,3.82,0,0,1,.74-1.2,3.08,3.08,0,0,1,1.07-.71,3.25,3.25,0,0,1,1.23-.24,2.82,2.82,0,0,1,2.25.92A4.17,4.17,0,0,1,282.2,87v.22a1,1,0,0,1,0,.24h-5a2.67,2.67,0,0,0,.66,1.72,2.35,2.35,0,0,0,1.79.59,4.53,4.53,0,0,0,1.16-.12,3.58,3.58,0,0,0,.7-.23l.18,1.09a3,3,0,0,1-.83.27,6.13,6.13,0,0,1-1.35.14,4.37,4.37,0,0,1-1.64-.29,3,3,0,0,1-1.15-.79,2.89,2.89,0,0,1-.66-1.2A4.84,4.84,0,0,1,275.84,87.17Zm5-.72A2.23,2.23,0,0,0,280.4,85a1.55,1.55,0,0,0-1.25-.56,1.7,1.7,0,0,0-.8.17,2,2,0,0,0-.58.46,2.27,2.27,0,0,0-.37.64,3.78,3.78,0,0,0-.17.74Z"/><path class="cls-1" d="M285.77,89.85a2.66,2.66,0,0,0,1.18-.21.7.7,0,0,0,.38-.67.88.88,0,0,0-.37-.75,5.86,5.86,0,0,0-1.25-.63c-.28-.12-.55-.23-.8-.35a2.57,2.57,0,0,1-.67-.41,2.27,2.27,0,0,1-.45-.57,1.81,1.81,0,0,1-.16-.83,1.87,1.87,0,0,1,.71-1.53,3,3,0,0,1,2-.57c.2,0,.41,0,.61,0l.58.08.46.1.32.1-.24,1.12a3.68,3.68,0,0,0-.66-.23,3.86,3.86,0,0,0-1.07-.12,2,2,0,0,0-1,.22.69.69,0,0,0-.4.68.88.88,0,0,0,.37.75,2,2,0,0,0,.47.27l.67.27c.34.13.65.26.92.38a3.17,3.17,0,0,1,.7.44,1.76,1.76,0,0,1,.44.61,2.21,2.21,0,0,1,.15.88,1.73,1.73,0,0,1-.75,1.52,3.62,3.62,0,0,1-2.13.52,5.58,5.58,0,0,1-1.52-.16,6.44,6.44,0,0,1-.74-.25l.24-1.12.72.26A4.34,4.34,0,0,0,285.77,89.85Z"/></g></g></g></svg>