<?xml version="1.0" encoding="UTF-8"?>
<svg style="content-visibility:visible;height:100%;transform:translate3d(0px, 0px, 0px);width:100%" viewBox="0 0 1920 1080" xmlns="http://www.w3.org/2000/svg">
<defs>
<clipPath id="b">
<rect width="1920" height="1080"/>
</clipPath>
<radialGradient id="a" cx="0" cy="0" r="100" gradientUnits="userSpaceOnUse">
<stop stop-color="#fff" offset="0"/>
<stop offset="1"/>
</radialGradient>
</defs>
<g clip-path="url(#b)">
<g transform="matrix(.84211 0 0 1 926 540)" display="block">
<g transform="translate(34 30)">
<path d="m490-206v412c0 11.038-8.962 20-20 20h-940c-11.038 0-20-8.962-20-20v-412c0-11.038 8.962-20 20-20h940c11.038 0 20 8.962 20 20z" fill="#fff"/>
<path d="m490-206v412c0 11.038-8.962 20-20 20h-940c-11.038 0-20-8.962-20-20v-412c0-11.038 8.962-20 20-20h940c11.038 0 20 8.962 20 20z" fill-opacity="0" stroke="#0a0a0a" stroke-width="12"/>
</g>
</g>
<g transform="translate(1153.8 69.92)" display="block">
<g transform="matrix(.81181 .58392 -.58392 .81181 66.687 664.38)">
<path d="m70.007-22.694-114.12 81.599c-9.959 7.12-23.932 4.797-31.053-5.161-7.12-9.958-4.798-23.931 5.16-31.051l114.12-81.599c9.958-7.12 23.932-4.797 31.052 5.161 7.12 9.958 4.798 23.931-5.16 31.051z" fill="#b5c5b8"/>
</g>
<g transform="matrix(.57675 -.81692 .81692 .57675 -280.13 732.32)">
<path d="m212.47-175.5-119.35-170.93c-10.415-14.915-10.751-32.893-0.748-39.95 10.003-7.057 26.708-0.629 37.122 14.286 0 0 119.35 170.93 119.35 170.93 10.414 14.915 10.752 32.893 0.74899 39.95-10.003 7.057-26.709 0.629-37.123-14.285z" fill="#b5c5b8"/>
</g>
<g transform="matrix(.81316 .58204 -.58204 .81316 -443.98 504.28)">
<path d="m70.007-22.693-114.12 81.598c-9.958 7.12-23.931 4.798-31.051-5.16h-9.9945e-4c-7.12-9.958-4.798-23.931 5.16-31.052l114.12-81.598c9.958-7.121 23.932-4.797 31.052 5.161s4.798 23.93-5.16 31.051z" fill="#ddbec6"/>
</g>
<g transform="matrix(.81396 .58092 -.58092 .81396 -447.46 365.05)">
<path d="m70.007-22.694s-114.12 81.599-114.12 81.599c-9.958 7.12-23.931 4.798-31.051-5.161-7.12-9.958-4.799-23.931 5.159-31.051l114.12-81.598c9.958-7.121 23.931-4.798 31.051 5.16 7.12 9.959 4.799 23.931-5.159 31.051z" fill="#bdc4d6"/>
</g>
<g transform="translate(-185.98 613.05)">
<path d="m0 0" fill="#b5c5b8"/>
</g>
</g>
<g transform="translate(1153.8 69.92)" display="block">
<g transform="matrix(.81074 .58541 -.58541 .81074 66.687 622.38)">
<path d="m70.007-22.694-114.12 81.599c-9.959 7.12-23.932 4.797-31.053-5.161-7.12-9.958-4.798-23.931 5.16-31.051l114.12-81.599c9.958-7.12 23.932-4.797 31.052 5.161 7.12 9.958 4.798 23.931-5.16 31.051z" fill="#ddbec6"/>
</g>
<g transform="matrix(.80658 .59113 -.59113 .80658 64.021 579.05)">
<path d="m70.007-22.694-114.12 81.599c-9.958 7.12-23.932 4.798-31.052-5.161-7.12-9.958-4.798-23.931 5.161-31.051l114.12-81.598c9.958-7.121 23.932-4.798 31.052 5.16 7.12 9.959 4.799 23.931-5.16 31.051z" fill="#bdc4d6"/>
</g>
</g>
<g transform="matrix(.72721 -1.3119 1.3119 .72721 109.68 690.96)" display="block">
<g transform="translate(82.537 66.276)">
<path d="m70.007-22.694-114.12 81.599c-9.958 7.12-23.931 4.798-31.051-5.16h-9.9945e-4c-7.12-9.958-4.798-23.931 5.16-31.051l114.12-81.599c9.958-7.12 23.932-4.798 31.052 5.16 7.12 9.959 4.798 23.931-5.16 31.051z" fill="#707070"/>
</g>
</g>
<g transform="matrix(1.1147 -1.0037 1.0037 1.1147 211.08 732.94)" display="block">
<g transform="translate(58.561 128.99)">
<path d="m-12.184-110.61 66.748 207.6c3.747 11.654-2.724 24.256-14.378 28.003-11.655 3.747-24.255-2.723-28.002-14.377l-66.748-207.6c-3.747-11.654 2.723-24.255 14.377-28.002 11.654-3.747 24.255 2.723 28.003 14.377z" fill="#707070"/>
</g>
</g>
<g transform="matrix(1.2436 -.83879 .83879 1.2436 197.05 515.89)" display="block">
<g transform="translate(77.965 67.87)">
<path d="m71.115 59.79c-4.39 5.17-10.68 7.83-17 7.83-1.51 0-3.01-0.15-4.5-0.46101-3.54-0.71999-6.94-2.309-9.87-4.8l-106.97-90.779c-9.33-7.92-10.49-22.04-2.57-31.371 4.39-5.169 10.67-7.829 17-7.829 5.09 0 10.21 1.729 14.38 5.26l106.96 90.77c2.94 2.489 5.06 5.6 6.36 8.98 2.81 7.36 1.64 16-3.79 22.4z" fill="#707070"/>
</g>
</g>
<g transform="matrix(1.2436 -.83879 .83879 1.2436 417.72 540.49)" display="block">
<g transform="translate(56.61 53.39)">
<path d="m55.21 51.3c-1.15 1.27-3.12 1.369-4.4 0.21l-37.26-33.79c-3.2 1.649-7.24 1.239-10.05-1.311l-14.84-13.46s-0.61 0.67-0.61 0.67c-0.48 0.531-0.99 1.01-1.55 1.431 0.21 0.68 0.32 1.39 0.35 2.1 0.12 2.42-0.68 4.879-2.43 6.809-0.32 0.351-0.65 0.67-1 0.95 0 0 12.68 27.521 12.68 27.521 0.32-0.040001 0.65-0.011002 0.99 0.079998 0 0 15.52 4.18 15.52 4.18 1.65 0.439 2.64 2.149 2.2 3.809-0.45 1.651-2.16 2.641-3.81 2.191 0 0-14.54-3.901-14.54-3.901-0.15 0.101-0.3 0.2-0.48 0.281-1.45 0.669-3.16 0.029999-3.83-1.411l-14.12-30.639c-2.46 0.16-4.99-0.641-6.95-2.42-1.93-1.74-2.97-4.12-3.08-6.53-0.099998-1.911 0.38-3.84 1.45-5.52-1.37-1.9-2.12-4.141-2.23-6.4-0.080002-1.64 0.17-3.29 0.76-4.85-0.26 0.02-0.53 0.02-0.8 0.02-5.09 0-10.21-1.731-14.37-5.26-2.94-2.49-5.06-5.601-6.36-8.971-2.81-7.359-1.64-16 3.79-22.399 4.39-5.17 10.67-7.83 16.99-7.83 1.51 0 3.02 0.149 4.51 0.46 3.54 0.719 6.94 2.32 9.87 4.799 5.17 4.391 7.83 10.681 7.83 17 0 0.111 0 0.22-0.0099993 0.33 3.75-0.939 7.89-0.049 10.95 2.731 2.44 2.21 3.75 5.229 3.91 8.3 0.15 3.059-0.87 6.189-3.08 8.63 0 0-0.61 0.669-0.61 0.669l14.84 13.46c1.82 1.64 2.79 3.88 2.9 6.151 0.059999 1.26-0.15 2.529-0.61 3.729l37.26 33.781c1.27 1.16 1.37 3.139 0.22 4.4z" fill="#090909"/>
</g>
</g>
<g transform="matrix(1.2858 -.77256 .77256 1.2858 1160.1 617.41)" display="block">
<g transform="translate(47.91 131.12)">
<path d="m45.045-101.76-46.601 213.03c-2.616 11.959-14.543 19.603-26.502 16.987-11.959-2.617-19.603-14.54-16.987-26.5l46.601-213.03c2.616-11.959 14.542-19.603 26.502-16.987 11.959 2.616 19.603 14.541 16.987 26.5z" fill="#707070"/>
</g>
</g>
<g transform="matrix(1.4672 .31187 -.31187 1.4672 1059.7 450.51)" display="block">
<g transform="translate(91.95 46.725)">
<path d="m59.927 42.717s-133.52-43.067-133.52-43.067c-11.65-3.758-18.108-16.366-14.35-28.016 3.758-11.651 16.365-18.109 28.016-14.351l133.52 43.067c11.65 3.758 18.108 16.366 14.351 28.016-3.758 11.651-16.365 18.109-28.016 14.351z" fill="#707070"/>
</g>
</g>
<g transform="matrix(1.198 .90272 -.90272 1.198 998.69 382.05)" display="block">
<g transform="translate(60.719 86.395)">
<path d="m-54.349 49.62 70.146-121.5c6.122-10.602 19.804-14.268 30.406-8.148v9.9945e-4c10.601 6.121 14.267 19.803 8.147 30.405l-70.146 121.5c-6.121 10.601-19.804 14.267-30.406 8.147v-9.9945e-4c-10.601-6.12-14.267-19.802-8.147-30.404z" fill="#707070"/>
</g>
</g>
<g transform="matrix(.92349 1.182 -1.182 .92349 902.21 525.59)" display="block">
<g transform="translate(27.321 27.321)">
<path d="m-15.639-18.157 0.985-0.805c9.937-8.109 24.702-6.614 32.811 3.323l0.805 0.986c8.109 9.935 6.614 24.7-3.323 32.809l-0.985 0.805c-9.937 8.11-24.701 6.614-32.811-3.321 0 0-0.804-0.986-0.804-0.986-8.11-9.937-6.615-24.702 3.322-32.811z" fill="#090909"/>
</g>
</g>
<g transform="matrix(1.5 0 0 1.5 356.69 891.53)" display="block">
<g transform="translate(402.21 48.638)">
<path d="m385.83 16.129h-771.66c-8.871 0-16.129-7.258-16.129-16.129s7.258-16.129 16.129-16.129h771.66c8.871 0 16.128 7.258 16.128 16.129s-7.257 16.129-16.128 16.129z" fill="#ccc"/>
</g>
<g transform="translate(402.21 16.38)">
<path d="m299.59 16.13h-599.19c-8.871 0-16.129-7.259-16.129-16.129v-2e-3c0-8.87 7.258-16.129 16.129-16.129h599.19c8.87 0 16.129 7.259 16.129 16.129v2e-3c0 8.87-7.259 16.129-16.129 16.129z" fill="#9b9b9b"/>
</g>
</g>
<g transform="matrix(.77256 1.2858 -1.2858 .77256 873.67 570.19)" display="block">
<g transform="translate(14.109 39.019)">
<path d="m-13.147 30.912s14.413-64.479 14.413-64.479c0.711-3.18 3.897-5.202 7.077-4.49 0 0 0.316 0.070999 0.316 0.070999 3.18 0.71 5.2 3.895 4.489 7.076 0 0-14.414 64.478-14.414 64.478-0.711 3.181-3.895 5.201-7.075 4.49 0 0-0.316-0.07-0.316-0.07-3.18-0.712-5.202-3.895-4.49-7.076z" fill="#090909"/>
</g>
</g>
<g transform="matrix(1.023 1.097 -1.097 1.023 816.28 480.76)" display="block">
<g transform="translate(38.12 18.096)">
<path d="m-33.173 5.281 62.286-22.038c3.072-1.088 6.475 0.537 7.562 3.609l0.109 0.304c1.087 3.072-0.537 6.477-3.609 7.563l-62.286 22.041c-3.074 1.086-6.477-0.538-7.564-3.61l-0.107-0.306c-1.088-3.072 0.537-6.476 3.609-7.563z" fill="#090909"/>
</g>
</g>
<g transform="matrix(1.023 1.097 -1.097 1.023 780.05 491.55)" display="block">
<g transform="translate(12.537 26.264)">
<path d="m-11.391 17.702 11.075-38.751c0.896-3.134 4.193-4.965 7.326-4.069l0.312 0.089001c3.134 0.895 4.965 4.192 4.069 7.326l-11.076 38.752c-0.895 3.133-4.192 4.965-7.326 4.069l-0.311-0.089001c-3.133-0.896-4.965-4.193-4.069-7.327z" fill="#090909"/>
</g>
</g>
<g transform="matrix(.77256 1.2858 -1.2858 .77256 764.8 574.81)" display="block">
<g transform="translate(24.101 16.322)">
<path d="m-19.923 4.105 34.176-18.617c2.862-1.56 6.479-0.493 8.039 2.368 1.559 2.862 0.493 6.48-2.369 8.039l-34.176 18.617c-2.862 1.56-6.48 0.493-8.038-2.368-1.56-2.862-0.493-6.479 2.368-8.039z" fill="#090909"/>
</g>
</g>
<g transform="matrix(.64279 .76605 -.76605 .64279 569.98 1045.1)" display="block">
<g>
<path d="m-319.25-291.5-5-13.75 12.75-7-8.5-7.25 11-7s-8.25-9-8.25-9 7.75-8.5 7.75-8.5l-4.5-10.75" fill-opacity="0" stroke="#b5c5b8" stroke-linecap="round" stroke-linejoin="round" stroke-width="3"/>
</g>
</g>
<g transform="matrix(1.5 0 0 1.5 1604.9 1054)" display="block">
<g transform="matrix(.11004 0 0 .11252 -644.5 -318.5)">
<path d="m0-51.5c29.527 0 53.5 23.077 53.5 51.5s-23.973 51.5-53.5 51.5-53.5-23.077-53.5-51.5 23.973-51.5 53.5-51.5z" fill="#fff"/>
</g>
<g>
<path d="m0 0" fill="url(#a)"/>
<path d="m0 0" fill-opacity="0" stroke="#fff" stroke-width="4"/>
</g>
<g>
<path d="m0 0" fill="url(#a)"/>
<path d="m0 0" fill-opacity="0" stroke="#fff" stroke-width="4"/>
</g>
<g>
<path d="m0 0" fill="url(#a)"/>
<path d="m0 0" fill-opacity="0" stroke="#fff" stroke-width="4"/>
</g>
<g>
<path d="m0 0" fill="url(#a)"/>
<path d="m0 0" fill-opacity="0" stroke="#fff" stroke-width="4"/>
</g>
<g>
<path d="m0 0" fill="url(#a)"/>
<path d="m0 0" fill-opacity="0" stroke="#fff" stroke-width="4"/>
</g>
<g>
<path d="m0 0" fill="url(#a)"/>
<path d="m0 0" fill-opacity="0" stroke="#fff" stroke-width="4"/>
</g>
<g>
<path d="m0 0" fill="url(#a)"/>
<path d="m0 0" fill-opacity="0" stroke="#fff" stroke-width="4"/>
</g>
</g>
</g>
</svg>
