<?xml version="1.0" encoding="UTF-8"?>
<svg style="content-visibility:visible;height:100%;transform:translate3d(0px, 0px, 0px);width:100%" viewBox="0 0 1600 1200" xmlns="http://www.w3.org/2000/svg">
<defs>
<clipPath id="b">
<rect width="1600" height="1200"/>
</clipPath>
<linearGradient id="a" x1="-1111.2" x2="-915.62" y1="1377.2" y2="1437.9" gradientUnits="userSpaceOnUse">
<stop stop-color="#3919bb" offset="0"/>
<stop stop-color="#4f10db" offset=".5"/>
<stop stop-color="#6507fa" offset="1"/>
</linearGradient>
</defs>
<g clip-path="url(#b)">
<g transform="translate(800 600)" display="block">
<g>
<path d="m800-600v1200h-1600v-1200h1600z" fill="#fff"/>
<path d="m800-600v1200h-1600v-1200h1600z" fill-opacity="0" stroke="#d40f34" stroke-width="0"/>
</g>
</g>
<g transform="translate(800 600)" display="block" opacity=".4">
<g opacity="1">
<path d="m442.58-213.94-94.116-54.341 94.113-54.335 0.83102 0.48102 93.285 53.857-94.113 54.338zm-87.453-54.341 87.453 50.492 87.45-50.489-87.453-50.49-87.45 50.487z" fill="#4a90e2"/>
</g>
<g opacity="1">
<path d="m261.02-213.95-94.113-54.338 94.113-54.338 94.114 54.338-94.114 54.338zm-87.45-54.338 87.45 50.489 87.451-50.489-87.451-50.49-87.45 50.49z" fill="#4a90e2"/>
</g>
<g opacity="1">
<path d="m351.8-161.53-0.832-0.481-93.284-53.857 94.113-54.338 94.116 54.341-94.113 54.335zm-87.453-54.338 87.453 50.49 87.45-50.487-87.453-50.492-87.45 50.489z" fill="#4a90e2"/>
</g>
<g opacity="1">
<path d="m442.59-109.12-0.832-0.482-93.284-53.856 94.113-54.335 0.83099 0.48199 93.285 53.856-94.113 54.335zm-87.454-54.338 87.454 50.49 87.45-50.487-87.453-50.489-87.451 50.486z" fill="#4a90e2"/>
</g>
<g opacity="1">
<path d="m79.453-213.95-0.832-0.48199-93.284-53.856 94.113-54.335 0.831 0.48099 93.285 53.857-94.113 54.335zm-87.453-54.338 87.453 50.489 87.45-50.486-87.453-50.49-87.45 50.487z" fill="#4a90e2"/>
</g>
<g opacity="1">
<path d="m170.24-161.53-94.114-54.341 94.114-54.335 94.113 54.338-94.113 54.338zm-87.451-54.341 87.451 50.493 87.45-50.49-87.45-50.489-87.451 50.486z" fill="#4a90e2"/>
</g>
<g opacity="1">
<path d="m261.02-109.12-0.83102-0.482-93.285-53.856 94.113-54.338 0.832 0.48201 93.284 53.856-94.113 54.338zm-87.453-54.338 87.453 50.49 87.451-50.49-87.454-50.489-87.45 50.489z" fill="#4a90e2"/>
</g>
<g opacity="1">
<path d="m351.8-56.704-0.832-0.482-93.284-53.856 94.113-54.338 0.832 0.48201 93.284 53.856-94.113 54.338zm-87.453-54.338 87.453 50.489 87.45-50.489-87.453-50.49-87.45 50.49z" fill="#4a90e2"/>
</g>
<g opacity="1">
<path d="m442.59-4.29-0.832-0.482-93.284-53.856 94.113-54.338 94.116 54.34-94.113 54.336zm-87.454-54.338 87.454 50.489 87.45-50.487-87.453-50.492-87.451 50.49z" fill="#4a90e2"/>
</g>
<g opacity="1">
<path d="m-102.11-213.95-0.832-0.48199-93.285-53.856 94.113-54.338 0.83199 0.48099 93.285 53.857-94.113 54.338zm-87.454-54.338 87.454 50.489 87.45-50.489-87.454-50.49-87.45 50.49z" fill="#4a90e2"/>
</g>
<g opacity="1">
<path d="m-11.329-161.54-0.831-0.481-93.285-53.857 94.113-54.338 0.832 0.48199 93.284 53.856-94.113 54.338zm-87.453-54.338 87.453 50.49 87.45-50.49-87.453-50.489-87.45 50.489z" fill="#4a90e2"/>
</g>
<g opacity="1">
<path d="m79.456-109.12-0.832-0.48199-93.284-53.856 94.113-54.338 94.113 54.341-94.11 54.335zm-87.453-54.338 87.453 50.49 87.447-50.487-87.45-50.492-87.45 50.489z" fill="#4a90e2"/>
</g>
<g opacity="1">
<path d="m170.24-56.704-94.114-54.341 94.111-54.335 0.83099 0.48201 93.285 53.856-94.113 54.338zm-87.451-54.341 87.451 50.492 87.45-50.489-87.453-50.49-87.448 50.487z" fill="#4a90e2"/>
</g>
<g opacity="1">
<path d="m261.02-4.29-0.83099-0.482-93.285-53.856 94.113-54.338 0.832 0.481 93.284 53.857-94.113 54.338zm-87.453-54.338 87.453 50.489 87.451-50.489-87.454-50.49-87.45 50.49z" fill="#4a90e2"/>
</g>
<g opacity="1">
<path d="m351.81 48.123-0.832-0.482-93.284-53.856 94.113-54.338 0.83102 0.482 93.285 53.856-94.113 54.338zm-87.453-54.338 87.453 50.49 87.45-50.49-87.453-50.489-87.45 50.489z" fill="#4a90e2"/>
</g>
<g opacity="1">
<path d="m442.59 100.54-0.832-0.482-93.285-53.856 94.114-54.338 0.83102 0.482 93.285 53.856-94.113 54.338zm-87.454-54.338 87.454 50.49 87.45-50.49-87.453-50.489-87.451 50.489z" fill="#4a90e2"/>
</g>
<g opacity="1">
<path d="m-283.68-213.95-0.83099-0.48199-93.285-53.856 94.113-54.335 0.832 0.48099 93.284 53.857-94.113 54.335zm-87.453-54.338 87.453 50.489 87.45-50.486-87.453-50.49-87.45 50.487z" fill="#4a90e2"/>
</g>
<g opacity="1">
<path d="m-192.9-161.54-94.116-54.341 94.113-54.335 0.83099 0.48199 93.285 53.856-94.113 54.338zm-87.454-54.341 87.454 50.493 87.45-50.49-87.453-50.489-87.451 50.486z" fill="#4a90e2"/>
</g>
<g opacity="1">
<path d="m-102.11-109.12-0.832-0.48199-93.285-53.856 94.114-54.338 0.831 0.48199 93.285 53.856-94.113 54.338zm-87.454-54.338 87.454 50.49 87.45-50.49-87.453-50.489-87.451 50.489z" fill="#4a90e2"/>
</g>
<g opacity="1">
<path d="m-11.326-56.707-0.831-0.482-93.285-53.856 94.113-54.338 0.832 0.48199 93.284 53.856-94.113 54.338zm-87.453-54.338 87.453 50.489 87.45-50.489-87.453-50.49-87.45 50.49z" fill="#4a90e2"/>
</g>
<g opacity="1">
<path d="m79.456-4.293-94.113-54.338 94.113-54.338 94.113 54.341-94.113 54.335zm-87.45-54.338 87.45 50.489 87.45-50.486-87.45-50.493-87.45 50.49z" fill="#4a90e2"/>
</g>
<g opacity="1">
<path d="m170.24 48.12-0.832-0.481-93.285-53.857 94.114-54.335 0.83099 0.482 93.285 53.856-94.113 54.335zm-87.454-54.338 87.454 50.49 87.45-50.487-87.453-50.489-87.451 50.486z" fill="#4a90e2"/>
</g>
<g opacity="1">
<path d="m261.02 100.54-94.116-54.341 94.113-54.335 0.832 0.482 93.284 53.856-94.113 54.338zm-87.453-54.341 87.453 50.493 87.45-50.49-87.453-50.489-87.45 50.486z" fill="#4a90e2"/>
</g>
<g opacity="1">
<path d="m351.81 152.95-0.83099-0.48201-93.285-53.856 94.113-54.338 0.83099 0.482 93.285 53.856-94.113 54.338zm-87.453-54.338 87.453 50.489 87.45-50.489-87.453-50.49-87.45 50.49z" fill="#4a90e2"/>
</g>
<g opacity="1">
<path d="m442.6 205.37-0.832-0.48201-93.285-53.856 94.114-54.338 0.83099 0.481 93.285 53.857-94.113 54.338zm-87.454-54.338 87.454 50.489 87.45-50.489-87.453-50.49-87.451 50.49z" fill="#4a90e2"/>
</g>
<g opacity="1">
<path d="m-465.25-213.95-0.832-0.48199-93.285-53.856 94.114-54.338 0.83099 0.48203 93.285 53.856-94.113 54.338zm-87.454-54.338 87.454 50.489 87.45-50.489-87.453-50.49-87.451 50.49z" fill="#4a90e2"/>
</g>
<g opacity="1">
<path d="m-374.46-161.54-0.83099-0.481-93.285-53.857 94.113-54.338 0.832 0.48199 93.284 53.856-94.113 54.338zm-87.453-54.338 87.453 50.49 87.451-50.49-87.454-50.489-87.45 50.489z" fill="#4a90e2"/>
</g>
<g opacity="1">
<path d="m-283.68-109.12-0.83099-0.482-93.285-53.856 94.113-54.338 94.116 54.341-94.113 54.335zm-87.453-54.338 87.453 50.49 87.45-50.487-87.453-50.492-87.45 50.489z" fill="#4a90e2"/>
</g>
<g opacity="1">
<path d="m-192.89-56.707-94.117-54.341 94.114-54.335 0.83101 0.48199 93.285 53.856-94.113 54.338zm-87.454-54.341 87.454 50.492 87.45-50.489-87.453-50.49-87.451 50.487z" fill="#4a90e2"/>
</g>
<g opacity="1">
<path d="m-102.11-4.293-0.831-0.482-93.285-53.856 94.114-54.338 0.831 0.481 93.285 53.857-94.114 54.338zm-87.453-54.338 87.453 50.489 87.451-50.489-87.453-50.49-87.451 50.49z" fill="#4a90e2"/>
</g>
<g opacity="1">
<path d="m-11.326 48.12-94.113-54.338 94.113-54.338 94.113 54.338-94.113 54.338zm-87.45-54.338 87.45 50.49 87.45-50.49-87.45-50.489-87.45 50.489z" fill="#4a90e2"/>
</g>
<g opacity="1">
<path d="m79.459 100.53-0.832-0.48199-93.284-53.856 94.113-54.338 0.831 0.482 93.285 53.856-94.113 54.338zm-87.453-54.338 87.453 50.49 87.45-50.49-87.453-50.489-87.45 50.489z" fill="#4a90e2"/>
</g>
<g opacity="1">
<path d="m170.24 152.95-0.832-0.48199-93.285-53.856 94.114-54.338 94.116 54.341-94.113 54.335zm-87.454-54.338 87.454 50.489 87.45-50.486-87.453-50.493-87.451 50.49z" fill="#4a90e2"/>
</g>
<g opacity="1">
<path d="m261.03 205.37-94.116-54.341 94.113-54.335 0.832 0.481 93.284 53.857-94.113 54.338zm-87.453-54.341 87.453 50.492 87.45-50.489-87.453-50.49-87.45 50.487z" fill="#4a90e2"/>
</g>
<g opacity="1">
<path d="m351.81 257.78-0.83099-0.48102-93.285-53.857 94.113-54.338 0.83099 0.48199 93.285 53.856-94.113 54.338zm-87.453-54.338 87.453 50.49 87.45-50.49-87.453-50.489-87.45 50.489z" fill="#4a90e2"/>
</g>
<g opacity="1">
<path d="m442.6 310.19-0.832-0.48199-93.285-53.856 94.114-54.338 0.83099 0.48199 93.285 53.856-94.113 54.338zm-87.454-54.338 87.454 50.49 87.45-50.49-87.453-50.489-87.451 50.489z" fill="#4a90e2"/>
</g>
<g opacity="1">
<path d="m-465.24-109.12-0.832-0.482-93.285-53.856 94.114-54.338 0.83099 0.48201 93.285 53.856-94.113 54.338zm-87.454-54.338 87.454 50.49 87.45-50.49-87.453-50.489-87.451 50.489z" fill="#4a90e2"/>
</g>
<g opacity="1">
<path d="m-374.46-56.71-0.83099-0.482-93.285-53.856 94.113-54.338 0.832 0.48199 93.284 53.856-94.113 54.338zm-87.453-54.338 87.453 50.49 87.45-50.49-87.453-50.49-87.45 50.49z" fill="#4a90e2"/>
</g>
<g opacity="1">
<path d="m-283.67-4.296-0.83099-0.482-93.285-53.856 94.113-54.338 94.116 54.341-94.113 54.335zm-87.453-54.338 87.453 50.489 87.45-50.486-87.453-50.493-87.45 50.49z" fill="#4a90e2"/>
</g>
<g opacity="1">
<path d="m-192.89 48.118-0.83199-0.482-93.285-53.856 94.114-54.336 0.83099 0.482 93.285 53.856-94.113 54.336zm-87.454-54.338 87.454 50.489 87.45-50.487-87.453-50.489-87.451 50.487z" fill="#4a90e2"/>
</g>
<g opacity="1">
<path d="m-102.11 100.53-94.116-54.341 94.113-54.335 94.114 54.338-94.111 54.338zm-87.453-54.341 87.453 50.493 87.448-50.49-87.451-50.489-87.45 50.486z" fill="#4a90e2"/>
</g>
<g opacity="1">
<path d="m-11.323 152.95-94.113-54.338 94.11-54.338 0.832 0.482 93.284 53.856-94.113 54.338zm-87.45-54.338 87.45 50.489 87.45-50.489-87.453-50.49-87.447 50.49z" fill="#4a90e2"/>
</g>
<g opacity="1">
<path d="m79.462 205.36-0.832-0.48199-93.285-53.856 94.114-54.338 0.831 0.481 93.285 53.857-94.113 54.338zm-87.453-54.338 87.453 50.489 87.45-50.489-87.453-50.49-87.45 50.49z" fill="#4a90e2"/>
</g>
<g opacity="1">
<path d="m170.25 257.77-0.83101-0.48099-93.285-53.857 94.114-54.338 94.116 54.341-94.114 54.335zm-87.453-54.338 87.453 50.49 87.451-50.487-87.453-50.492-87.451 50.489z" fill="#4a90e2"/>
</g>
<g opacity="1">
<path d="m261.03 310.19-0.83099-0.48199-93.285-53.856 94.113-54.335 0.83197 0.48199 93.284 53.856-94.113 54.335zm-87.453-54.338 87.453 50.49 87.45-50.487-87.453-50.489-87.45 50.486z" fill="#4a90e2"/>
</g>
<g opacity="1">
<path d="m351.82 362.61-94.117-54.341 94.114-54.335 0.83102 0.48201 93.285 53.856-94.113 54.338zm-87.453-54.341 87.453 50.492 87.45-50.489-87.453-50.49-87.45 50.487z" fill="#4a90e2"/>
</g>
<g opacity="1">
<path d="m442.6 415.02-0.83099-0.48199-93.285-53.856 94.114-54.338 0.83099 0.48102 93.285 53.857-94.114 54.338zm-87.453-54.338 87.453 50.489 87.451-50.489-87.453-50.49-87.451 50.49z" fill="#4a90e2"/>
</g>
<g opacity="1">
<path d="m-465.24-4.296-94.116-54.341 94.114-54.335 0.83102 0.482 93.285 53.856-94.114 54.338zm-87.453-54.341 87.453 50.492 87.451-50.489-87.453-50.49-87.451 50.487z" fill="#4a90e2"/>
</g>
<g opacity="1">
<path d="m-374.46 48.118-0.83099-0.482-93.285-53.856 94.113-54.338 0.832 0.481 93.284 53.857-94.113 54.338zm-87.453-54.338 87.453 50.489 87.45-50.489-87.453-50.49-87.45 50.49z" fill="#4a90e2"/>
</g>
<g opacity="1">
<path d="m-283.67 100.53-0.832-0.48199-93.284-53.856 94.113-54.338 0.83102 0.482 93.285 53.856-94.113 54.338zm-87.453-54.338 87.453 50.49 87.45-50.49-87.453-50.489-87.45 50.489z" fill="#4a90e2"/>
</g>
<g opacity="1">
<path d="m-192.89 152.95-0.83101-0.48201-93.285-53.856 94.114-54.338 94.116 54.341-94.114 54.335zm-87.453-54.338 87.453 50.49 87.451-50.487-87.453-50.492-87.451 50.489z" fill="#4a90e2"/>
</g>
<g opacity="1">
<path d="m-102.11 205.36-94.113-54.338 94.113-54.335 94.114 54.338-94.114 54.335zm-87.45-54.338 87.45 50.489 87.45-50.486-87.45-50.49-87.45 50.487z" fill="#4a90e2"/>
</g>
<g opacity="1">
<path d="m-11.32 257.77-94.116-54.34 94.113-54.336 0.831 0.48199 93.285 53.856-94.113 54.338zm-87.453-54.34 87.453 50.492 87.45-50.49-87.453-50.489-87.45 50.487z" fill="#4a90e2"/>
</g>
<g opacity="1">
<path d="m79.465 310.19-0.83199-0.48199-93.285-53.856 94.114-54.338 0.831 0.48199 93.285 53.856-94.113 54.338zm-87.453-54.338 87.453 50.49 87.45-50.49-87.453-50.489-87.45 50.489z" fill="#4a90e2"/>
</g>
<g opacity="1">
<path d="m170.25 362.6-0.83099-0.48199-93.285-53.856 94.113-54.338 0.832 0.48199 93.285 53.856-94.114 54.338zm-87.453-54.338 87.453 50.489 87.45-50.489-87.453-50.49-87.45 50.49z" fill="#4a90e2"/>
</g>
<g opacity="1">
<path d="m261.03 415.02-0.83099-0.48199-93.285-53.856 94.113-54.338 94.116 54.341-94.113 54.335zm-87.453-54.338 87.453 50.489 87.45-50.486-87.453-50.493-87.45 50.49z" fill="#4a90e2"/>
</g>
<g opacity="1">
<path d="m-465.24 100.53-94.116-54.341 94.113-54.335 0.832 0.482 93.285 53.856-94.114 54.338zm-87.453-54.341 87.453 50.493 87.451-50.49-87.454-50.489-87.45 50.486z" fill="#4a90e2"/>
</g>
<g opacity="1">
<path d="m-374.45 152.95-0.83099-0.48201-93.285-53.856 94.113-54.338 0.83099 0.482 93.285 53.856-94.113 54.338zm-87.453-54.338 87.453 50.49 87.45-50.49-87.453-50.489-87.45 50.489z" fill="#4a90e2"/>
</g>
<g opacity="1">
<path d="m-283.67 205.36-0.832-0.48199-93.285-53.856 94.114-54.338 0.83099 0.482 93.285 53.856-94.113 54.338zm-87.453-54.338 87.453 50.489 87.45-50.489-87.453-50.49-87.45 50.49z" fill="#4a90e2"/>
</g>
<g opacity="1">
<path d="m-192.89 257.77-94.113-54.338 94.113-54.338 94.114 54.338-94.114 54.338zm-87.45-54.338 87.45 50.489 87.451-50.489-87.451-50.49-87.45 50.49z" fill="#4a90e2"/>
</g>
<g opacity="1">
<path d="m-102.1 310.19-0.831-0.48102-93.285-53.857 94.113-54.338 94.117 54.341-94.114 54.335zm-87.453-54.338 87.453 50.49 87.45-50.487-87.453-50.492-87.45 50.489z" fill="#4a90e2"/>
</g>
<g opacity="1">
<path d="m-11.317 362.6-94.116-54.341 94.113-54.335 0.831 0.48199 93.285 53.856-94.113 54.338zm-87.453-54.341 87.453 50.492 87.45-50.489-87.453-50.49-87.45 50.487z" fill="#4a90e2"/>
</g>
<g opacity="1">
<path d="m79.467 415.02-0.831-0.48199-93.285-53.856 94.114-54.338 0.831 0.48099 93.285 53.857-94.114 54.338zm-87.453-54.338 87.453 50.489 87.451-50.489-87.453-50.49-87.451 50.49z" fill="#4a90e2"/>
</g>
<g opacity="1">
<path d="m-465.23 205.36-0.83102-0.48201-93.285-53.856 94.113-54.335 0.832 0.482 93.285 53.856-94.114 54.335zm-87.453-54.338 87.453 50.489 87.45-50.486-87.453-50.49-87.45 50.487z" fill="#4a90e2"/>
</g>
<g opacity="1">
<path d="m-374.45 257.77-94.116-54.341 94.113-54.335 0.83099 0.481 93.285 53.857-94.113 54.338zm-87.453-54.341 87.453 50.492 87.45-50.489-87.453-50.49-87.45 50.487z" fill="#4a90e2"/>
</g>
<g opacity="1">
<path d="m-283.67 310.19-0.832-0.48102-93.285-53.857 94.114-54.338 94.113 54.338-94.11 54.338zm-87.453-54.338 87.453 50.49 87.447-50.49-87.45-50.489-87.45 50.489z" fill="#4a90e2"/>
</g>
<g opacity="1">
<path d="m-192.88 362.6-94.113-54.338 94.11-54.338 0.832 0.48201 93.285 53.856-94.114 54.338zm-87.45-54.338 87.45 50.49 87.451-50.49-87.454-50.489-87.447 50.489z" fill="#4a90e2"/>
</g>
<g opacity="1">
<path d="m-102.1 415.01-0.831-0.48199-93.285-53.856 94.113-54.338 94.116 54.341-94.113 54.335zm-87.453-54.338 87.453 50.489 87.45-50.486-87.453-50.493-87.45 50.49z" fill="#4a90e2"/>
</g>
<g opacity="1">
<path d="m-465.23 310.18-0.83099-0.48102-93.285-53.857 94.113-54.338 94.117 54.341-94.114 54.335zm-87.453-54.338 87.453 50.49 87.45-50.487-87.453-50.492-87.45 50.489z" fill="#4a90e2"/>
</g>
<g opacity="1">
<path d="m-374.45 362.6-0.832-0.48199-93.284-53.856 94.113-54.335 0.83102 0.48201 93.285 53.856-94.113 54.335zm-87.453-54.338 87.453 50.49 87.45-50.487-87.453-50.489-87.45 50.486z" fill="#4a90e2"/>
</g>
<g opacity="1">
<path d="m-283.67 415.01-94.114-54.341 94.114-54.335 94.113 54.338-94.113 54.338zm-87.451-54.341 87.451 50.492 87.45-50.489-87.45-50.49-87.451 50.487z" fill="#4a90e2"/>
</g>
<g opacity="1">
<path d="m-465.23 415.01-0.83099-0.48199-93.285-53.856 94.113-54.338 0.832 0.48199 93.284 53.856-94.113 54.338zm-87.453-54.338 87.453 50.489 87.45-50.489-87.453-50.49-87.45 50.49z" fill="#4a90e2"/>
</g>
</g>
<g transform="matrix(.99429 0 0 1.0025 800 600)" display="block">
<g>
<path d="m0 0" fill="#b3e0ff"/>
<path d="m0 0" fill-opacity="0" stroke="#214883" stroke-linecap="round" stroke-width="4"/>
</g>
</g>
<g transform="matrix(-.49714 -.86108 .86823 -.50127 650.56 819.62)" display="block">
<g>
<path d="m0 0" fill="#b3e0ff"/>
<path d="m0 0" fill-opacity="0" stroke="#214883" stroke-linecap="round" stroke-width="4"/>
</g>
</g>
<g transform="matrix(-.99429 0 0 -1.0025 777.35 905.9)" display="block">
<g>
<path d="m0 0" fill="#b3e0ff"/>
<path d="m0 0" fill-opacity="0" stroke="#214883" stroke-linecap="round" stroke-width="4"/>
</g>
</g>
<g transform="matrix(.48204 .86963 -.87684 .48604 927.94 688.7)" display="block">
<g>
<path d="m0 0" fill="#b3e0ff"/>
<path d="m0 0" fill-opacity="0" stroke="#214883" stroke-linecap="round" stroke-width="4"/>
</g>
</g>
<g transform="translate(800 600)" display="block">
<g>
<path d="m-27.362 299.26-174.29-100.63c-6.387-3.688-5.586-10.129 1.789-14.387l184.73-106.93c7.375-4.258 18.533-4.721 24.92-1.033l174.29 100.63c6.387 3.688 5.586 10.129-1.789 14.387l-184.73 106.93c-7.375 4.258-18.533 4.721-24.92 1.033z" fill="#7dc3ea"/>
</g>
</g>
<g transform="translate(800 600)" display="block">
<g>
<path d="m-16.514 266.19c-4.977 0-9.765-1.043-13.429-3.158l-174.29-100.63c-4.383-2.532-6.895-6.44-6.895-10.723 0-4.83 3.164-9.428 8.681-12.615l184.73-106.93c8.94-5.165 22.155-5.62 30.09-1.037l174.29 100.63c4.383 2.529 6.895 6.437 6.895 10.723 0 4.83-3.164 9.427-8.684 12.612l-184.73 106.93c-4.812 2.779-10.861 4.195-16.66 4.195zm-8.264-12.106c4.786 2.764 14.017 2.279 19.754-1.035l184.72-106.93c2.585-1.492 3.523-3.011 3.523-3.666 0-0.388-0.535-1.084-1.728-1.774l-174.29-100.63c-4.786-2.765-14.017-2.28-19.754 1.034l-184.73 106.92c-2.585 1.492-3.522 3.012-3.522 3.67 0 0.38501 0.534 1.084 1.73 1.774l174.29 100.63z" fill="#4a90e2"/>
</g>
</g>
<g transform="translate(800 600)" display="block">
<g>
<g>
<g>
<g>
<g>
<g>
<path d="m-14.782-230.41s-95.688 9.116-153.32 13.542c0 0 152.86 435.35 152.86 435.35l202.19-116.62c0.033997-0.018005 0.065994-0.039001 0.098999-0.056999l0.36-0.208-0.0050049-0.017006c2.53-1.594 4.13-5.071 4.13-9.981v-425.51c0-4.493-1.347-9.33-3.512-13.581l-202.8 117.09z" fill="#396caa"/>
</g>
<g>
<path d="m179.01-357.84-177.81-102.66c-3.091-1.785-5.916-1.914-8.1-0.69998l-9.9993e-4 -0.0010071-203 117.11 9.564 35.397 50.9 144.96 9.582 5.532 327.89-189.31c-2.278-4.472-5.472-8.291-9.018-10.338z" fill="#cce7fc"/>
</g>
<g>
<path d="m-23.845 218.08-177.82-102.66c-6.915-3.992-12.521-14.703-12.521-23.923v-425.51c0-9.22 5.606-13.458 12.521-9.465l177.82 102.66c6.915 3.992 12.521 14.704 12.521 23.924v425.51c0 9.22-5.606 13.458-12.521 9.466z" fill="#5793ce"/>
</g>
<g>
<path d="m-20.034-242.96-177.81-102.66c-4.003-2.31-7.557-1.85-9.849 0.724 1.791-0.284 3.848 0.151 6.038 1.415l177.82 102.66c6.915 3.993 12.521 14.704 12.521 23.924v425.51c0 3.883-1.004 6.869-2.672 8.742 3.864-0.612 6.483-4.58 6.483-10.88v-425.51c0-9.22-5.606-19.931-12.521-23.924z" fill="#fff"/>
</g>
<g>
<path d="m-35.032 192.46s-155.44-89.745-155.44-89.745c-6.045-3.49-10.945-12.854-10.945-20.914v-395.18c0-8.06 4.9-11.765 10.945-8.275l155.44 89.745c6.045 3.49 10.946 12.854 10.946 20.914v395.18c0 8.06-4.901 11.765-10.946 8.275z" fill="url(#a)"/>
</g>
<g>
<path d="m-35.032 192.46s-155.44-89.745-155.44-89.745c-6.045-3.49-10.945-12.854-10.945-20.914v-395.18c0-8.06 4.9-11.765 10.945-8.275l155.44 89.745c6.045 3.49 10.946 12.854 10.946 20.914v395.18c0 8.06-4.901 11.765-10.946 8.275z" fill="url(#a)"/>
</g>
<g>
<path d="m-35.032 192.46s-155.44-89.745-155.44-89.745c-6.045-3.49-10.945-12.854-10.945-20.914v-395.18c0-8.06 4.9-11.765 10.945-8.275l155.44 89.745c6.045 3.49 10.946 12.854 10.946 20.914v395.18c0 8.06-4.901 11.765-10.946 8.275z" fill="#173d7a"/>
</g>
<g>
<path d="m-29.953 189.48-155.44-89.745c-6.045-3.49-10.945-12.854-10.945-20.914v-395.18c0-2.748 0.58101-4.975 1.571-6.598-3.909-0.029999-6.65 3.559-6.65 9.586v395.18c0 8.06 4.9 17.424 10.945 20.914 0 0 155.44 89.745 155.44 89.745 3.984 2.3 7.461 1.459 9.376-1.678-1.319-0.0099945-2.771-0.429-4.297-1.31z" fill="#396caa"/>
</g>
</g>
</g>
</g>
<g>
<g>
<g>
<path d="m-35.031 11.029-57.776-33.357-92.148 53.202 160.87 92.878v-91.809c0-8.06-4.9-17.424-10.945-20.914z" fill="#173d7a"/>
</g>
<g>
<path d="m-35.031-69.95-57.776-33.357-92.148 53.202 160.87 92.878v-91.809c0-8.06-4.9-17.424-10.945-20.914z" fill="#173d7a"/>
</g>
<g>
<path d="m-35.031-150.93-57.776-33.357-92.148 53.202 160.87 92.878v-91.809c0-8.06-4.9-17.424-10.945-20.914z" fill="#173d7a"/>
</g>
<g>
<path d="m-35.031-231.91-57.776-33.357-92.148 53.202 160.87 92.878v-91.809c0-8.061-4.9-17.424-10.945-20.914z" fill="#173d7a"/>
</g>
<g>
<path d="m-35.031-231.91s-127.91-73.847-127.91-73.847l-22.017 12.711 160.87 92.878v-10.828c0-8.061-4.9-17.424-10.945-20.914z" fill="#173d7a"/>
</g>
</g>
<g>
<path d="m-24.086-200.16-160.87-92.879v51.184l160.87 92.877v-51.182z" fill="#5793ce"/>
</g>
<g>
<path d="m-24.086-119.19-160.87-92.879v51.184l160.87 92.877v-51.182z" fill="#5793ce"/>
</g>
<g>
<path d="m-24.086-38.207s-160.87-92.878-160.87-92.878v51.182l160.87 92.878v-51.182z" fill="#5793ce"/>
</g>
<g>
<path d="m-24.086 42.772-160.87-92.879v51.183l160.87 92.878v-51.182z" fill="#5793ce"/>
</g>
<g>
<path d="m-24.086 123.75-160.87-92.879v51.183l160.87 92.878v-51.182z" fill="#5793ce"/>
</g>
</g>
<g>
<g>
<path d="m-38.273-167.22-121.17-69.957c-3.421-1.975-6.195-7.273-6.195-11.835v-13.707c0-4.562 2.774-6.658 6.195-4.683l121.17 69.957c3.421 1.975 6.194 7.273 6.194 11.835v13.707c0 4.562-2.773 6.658-6.194 4.683z" fill="#173d7a"/>
</g>
<g opacity=".3">
<path d="m-153.32-239.8c-3.422-1.976-6.195-7.274-6.195-11.836v-13.706c0-0.73001 0.093994-1.371 0.22699-1.969l-0.15599-0.089996c-3.421-1.976-6.195 0.121-6.195 4.683v13.707c0 4.562 2.774 9.86 6.195 11.836l121.17 69.955c2.873 1.659 5.267 0.42001 5.967-2.714l-121.01-69.866z" fill="#06033e"/>
</g>
<g>
<path d="m-76.296-204.79-72.914-42.097c-1.204-0.69499-2.179-2.559-2.179-4.163 0-1.605 0.97501-2.343 2.179-1.648l72.914 42.097c1.203 0.69501 2.179 2.559 2.179 4.164 0 1.605-0.97601 2.342-2.179 1.647z" fill="#fff"/>
</g>
</g>
<g>
<g>
<path d="m-38.273-86.743-121.17-69.957c-3.421-1.975-6.195-7.273-6.195-11.835v-13.707c0-4.561 2.774-6.658 6.195-4.683l121.17 69.956c3.421 1.975 6.194 7.274 6.194 11.836v13.707c0 4.561-2.773 6.658-6.194 4.683z" fill="#173d7a"/>
</g>
<g opacity=".3">
<path d="m-153.32-159.32c-3.422-1.976-6.195-7.274-6.195-11.836v-13.706c0-0.73 0.093994-1.372 0.22699-1.969l-0.15599-0.089996c-3.421-1.976-6.195 0.121-6.195 4.683v13.707c0 4.562 2.774 9.859 6.195 11.835l121.17 69.957c2.873 1.659 5.267 0.419 5.967-2.715 0 0-121.01-69.866-121.01-69.866z" fill="#06033e"/>
</g>
<g>
<path d="m-76.296-124.31-72.914-42.097c-1.204-0.69501-2.179-2.558-2.179-4.163 0-1.605 0.97501-2.343 2.179-1.648l72.914 42.098c1.203 0.69499 2.179 2.558 2.179 4.163 0 1.604-0.97601 2.342-2.179 1.647z" fill="#fff"/>
</g>
</g>
<g>
<g>
<path d="m-38.273-5.514-121.17-69.957c-3.421-1.975-6.195-7.273-6.195-11.835v-13.707c0-4.561 2.774-6.658 6.195-4.683l121.17 69.956c3.421 1.975 6.194 7.274 6.194 11.836v13.707c0 4.561-2.773 6.658-6.194 4.683z" fill="#173d7a"/>
</g>
<g opacity=".3">
<path d="m-153.32-78.095c-3.422-1.976-6.195-7.274-6.195-11.836v-13.706c0-0.73 0.093994-1.372 0.22699-1.969l-0.15599-0.089996c-3.421-1.976-6.195 0.121-6.195 4.683v13.707c0 4.562 2.774 9.859 6.195 11.835l121.17 69.956c2.873 1.659 5.267 0.42 5.967-2.714l-121.01-69.866z" fill="#06033e"/>
</g>
<g>
<path d="m-76.296-43.083-72.914-42.097c-1.204-0.695-2.179-2.559-2.179-4.164 0-1.605 0.97501-2.342 2.179-1.647l72.914 42.097c1.203 0.695 2.179 2.559 2.179 4.164 0 1.604-0.97601 2.342-2.179 1.647z" fill="#d4ecff"/>
</g>
</g>
<g>
<g>
<path d="m-38.273 76.464-121.17-69.956c-3.421-1.975-6.195-7.274-6.195-11.836v-13.706c0-4.562 2.774-6.658 6.195-4.683l121.17 69.956c3.421 1.975 6.194 7.274 6.194 11.836v13.707c0 4.562-2.773 6.657-6.194 4.682z" fill="#173d7a"/>
</g>
<g opacity=".3">
<path d="m-153.32 3.884c-3.422-1.976-6.195-7.274-6.195-11.836v-13.706c0-0.73 0.093994-1.372 0.22699-1.969 0 0-0.15599-0.089998-0.15599-0.089998-3.421-1.976-6.195 0.121-6.195 4.683v13.706c0 4.562 2.774 9.86 6.195 11.836l121.17 69.956c2.873 1.659 5.267 0.42001 5.967-2.714l-121.01-69.866z" fill="#06033e"/>
</g>
<g>
<path d="m-76.296 38.896-72.914-42.097c-1.204-0.695-2.179-2.56-2.179-4.164 0-1.605 0.97501-2.342 2.179-1.647l72.914 42.097c1.203 0.695 2.179 2.559 2.179 4.164 0 1.605-0.97601 2.342-2.179 1.647z" fill="#fff"/>
</g>
</g>
<g>
<g>
<path d="m-149.36-3.167 0.14799-0.034c-0.47699-1.736-2.179-2.56-2.179-4.164 0-1.605 1.576-0.885 1.866-1.772 0 0-0.14801 0.035-0.14801 0.035 1.203 0.695-1.696-0.0039997-1.696 1.601s3.212 5.029 2.009 4.334z" fill="#e20f22"/>
</g>
</g>
<g>
<g>
<path d="m-38.273 156.82s-121.17-69.956-121.17-69.956c-3.421-1.975-6.195-7.274-6.195-11.836v-13.706c0-4.562 2.774-6.658 6.195-4.683l121.17 69.956c3.421 1.975 6.194 7.274 6.194 11.836v13.707c0 4.562-2.773 6.657-6.194 4.682z" fill="#173d7a"/>
</g>
<g opacity=".3">
<path d="m-153.32 84.238c-3.422-1.976-6.195-7.274-6.195-11.836v-13.706c0-0.73 0.093994-1.372 0.22699-1.969 0 0-0.15599-0.09-0.15599-0.09-3.421-1.976-6.195 0.121-6.195 4.683v13.706c0 4.562 2.774 9.86 6.195 11.836 0 0 121.17 69.956 121.17 69.956 2.873 1.659 5.267 0.42001 5.967-2.714l-121.01-69.866z" fill="#06033e"/>
</g>
<g>
<path d="m-76.296 119.25-72.914-42.097c-1.204-0.695-2.179-2.559-2.179-4.164 0-1.605 0.97501-2.342 2.179-1.647l72.914 42.097c1.203 0.695 2.179 2.559 2.179 4.164 0 1.605-0.97601 2.342-2.179 1.647z" fill="#d4ecff"/>
</g>
</g>
<g opacity=".5">
<path d="m-184.96-293.04 12.668 7.314v51.183s-12.668-7.313-12.668-7.313v-51.184z" fill="#173d7a"/>
</g>
<g opacity=".5">
<path d="m-184.96-212.07s12.668 7.314 12.668 7.314v51.183s-12.668-7.313-12.668-7.313v-51.184z" fill="#173d7a"/>
</g>
<g opacity=".5">
<path d="m-184.96-131.09 12.668 7.313v51.183l-12.668-7.314v-51.182z" fill="#173d7a"/>
</g>
<g opacity=".5">
<path d="m-184.96-50.107 12.668 7.314v51.183l-12.668-7.314v-51.183z" fill="#173d7a"/>
</g>
<g opacity=".5">
<path d="m-184.96 30.872s12.668 7.314 12.668 7.314v51.183l-12.668-7.314v-51.183z" fill="#173d7a"/>
</g>
</g>
<g>
<path d="m-61.931-199.74c0 1.636-1.148 2.299-2.565 1.481-1.417-0.81801-2.565-2.807-2.565-4.442 0-1.636 1.148-2.299 2.565-1.481 1.417 0.81801 2.565 2.806 2.565 4.442z" fill="#d4ecff"/>
</g>
<g>
<path d="m-51.057-193.46c0 1.636-1.149 2.299-2.565 1.481-1.417-0.81801-2.565-2.806-2.565-4.442 0-1.636 1.148-2.299 2.565-1.481 1.416 0.81801 2.565 2.806 2.565 4.442z" fill="#ff2c9c"/>
</g>
<g>
<path d="m-40.183-187.18c0 1.635-1.148 2.299-2.565 1.481-1.416-0.81801-2.565-2.806-2.565-4.442 0-1.636 1.149-2.299 2.565-1.481 1.417 0.81801 2.565 2.806 2.565 4.442z" fill="#d4ecff"/>
</g>
<g>
<path d="m-61.931-118.8c0 1.635-1.148 2.299-2.565 1.481-1.417-0.818-2.565-2.806-2.565-4.442 0-1.636 1.148-2.299 2.565-1.481 1.417 0.818 2.565 2.806 2.565 4.442z" fill="#ff2c9c"/>
</g>
<g>
<path d="m-51.057-112.52c0 1.636-1.149 2.299-2.565 1.481-1.417-0.818-2.565-2.806-2.565-4.442 0-1.636 1.148-2.299 2.565-1.481 1.416 0.818 2.565 2.806 2.565 4.442z" fill="#d4ecff"/>
</g>
<g>
<path d="m-40.183-106.24c0 1.636-1.148 2.299-2.565 1.481-1.416-0.818-2.565-2.807-2.565-4.443 0-1.635 1.149-2.298 2.565-1.48 1.417 0.818 2.565 2.806 2.565 4.442z" fill="#4a90e2"/>
</g>
<g>
<path d="m-61.931-37.249c0 1.636-1.148 2.298-2.565 1.48-1.417-0.818-2.565-2.806-2.565-4.442 0-1.636 1.148-2.299 2.565-1.481 1.417 0.818 2.565 2.807 2.565 4.443z" fill="#4a90e2"/>
</g>
<g>
<path d="m-51.057-30.971c0 1.636-1.149 2.298-2.565 1.48-1.417-0.818-2.565-2.806-2.565-4.442 0-1.636 1.148-2.299 2.565-1.481 1.416 0.818 2.565 2.807 2.565 4.443z" fill="#ff2c9c"/>
</g>
<g>
<path d="m-40.183-24.694c0 1.636-1.148 2.299-2.565 1.481-1.416-0.818-2.565-2.806-2.565-4.442 0-1.636 1.149-2.299 2.565-1.481 1.417 0.818 2.565 2.807 2.565 4.442z" fill="#4a90e2"/>
</g>
<g>
<path d="m-61.931 43.112c0 1.635-1.148 2.299-2.565 1.481-1.417-0.818-2.565-2.807-2.565-4.443 0-1.636 1.148-2.298 2.565-1.48 1.417 0.818 2.565 2.806 2.565 4.442z" fill="#4a90e2"/>
</g>
<g>
<path d="m-51.057 49.39c0 1.636-1.149 2.299-2.565 1.481-1.417-0.818-2.565-2.806-2.565-4.442 0-1.636 1.148-2.299 2.565-1.481 1.416 0.818 2.565 2.806 2.565 4.442z" fill="#d4ecff"/>
</g>
<g>
<path d="m-40.183 55.668c0 1.636-1.148 2.299-2.565 1.481-1.416-0.818-2.565-2.807-2.565-4.443 0-1.635 1.149-2.298 2.565-1.48 1.417 0.818 2.565 2.806 2.565 4.442z" fill="#d4ecff"/>
</g>
<g>
<path d="m-61.931 124.57c0 1.636-1.148 2.298-2.565 1.48-1.417-0.818-2.565-2.806-2.565-4.442 0-1.635 1.148-2.299 2.565-1.481 1.417 0.818 2.565 2.807 2.565 4.443z" fill="#4a90e2"/>
</g>
<g>
<path d="m-51.057 130.85c0 1.636-1.149 2.298-2.565 1.48-1.417-0.81801-2.565-2.806-2.565-4.442s1.148-2.299 2.565-1.481c1.416 0.818 2.565 2.807 2.565 4.443z" fill="#ff2c9c"/>
</g>
<g>
<path d="m-40.183 137.13c0 1.635-1.148 2.299-2.565 1.481-1.416-0.81799-2.565-2.807-2.565-4.443s1.149-2.299 2.565-1.481c1.417 0.81801 2.565 2.807 2.565 4.443z" fill="#d4ecff"/>
</g>
<g>
<g>
<path d="m15.458 160.56v-362.33l0.749-0.431 151.43-87.428v362.33l-0.75 0.43-151.43 87.429zm2.999-360.6v355.4l146.18-84.397v-355.4s-146.18 84.397-146.18 84.397z" fill="#173d7a"/>
</g>
</g>
<g>
<g>
<path d="m128.3-126.6-67.899 39.201c-4.561 2.633-8.258-0.162-8.258-6.243v-37.646c0-6.081 3.697-13.147 8.258-15.78l67.899-39.201c4.561-2.633 8.258 0.162 8.258 6.243v37.646c0 6.081-3.697 13.147-8.258 15.78z" fill="#173d7a"/>
</g>
<g>
<path d="m129.95-187c0.388 1.053 0.61301 2.314 0.61301 3.776v37.647c0 6.081-3.698 13.145-8.259 15.778l-67.898 39.202c-0.564 0.326-1.115 0.566-1.647 0.729 1.226 3.325 4.182 4.469 7.646 2.468l67.898-39.201c4.561-2.634 8.258-9.698 8.258-15.779v-37.647c0-5.329-2.84-8.132-6.611-6.973z" fill="#5793ce"/>
</g>
<g>
<g>
<g>
<path d="m115.9-149.27c1.256-0.72501 2.273-0.13701 2.273 1.312v8.575c0 1.45-1.017 3.212-2.273 3.937-1.256 0.72501-2.273 0.138-2.273-1.312v-8.576c0-1.449 1.017-3.211 2.273-3.936z" fill="#fff"/>
</g>
<g>
<path d="m106.16-142.58c1.256-0.72499 2.273-0.13699 2.273 1.312v7.504c0 1.45-1.017 3.211-2.273 3.936-1.255 0.72501-2.272 0.138-2.272-1.312v-7.503c0-1.449 1.017-3.212 2.272-3.937z" fill="#d4ecff"/>
</g>
<g>
<path d="m96.416-145.33c1.255-0.72499 2.273-0.138 2.273 1.312v15.875c0 1.45-1.018 3.212-2.273 3.937-1.256 0.72501-2.272 0.138-2.272-1.312v-15.876c0-1.45 1.016-3.211 2.272-3.936z" fill="#ff2c9c"/>
</g>
<g>
<path d="m86.676-148.85c1.256-0.72501 2.273-0.13701 2.273 1.312v25.024c0 1.45-1.017 3.211-2.273 3.936-1.255 0.725-2.273 0.138-2.273-1.312v-25.024c0-1.449 1.018-3.211 2.273-3.936z" fill="#d4ecff"/>
</g>
<g>
<path d="m76.936-140.6c1.255-0.72501 2.272-0.13701 2.272 1.312v22.4c0 1.45-1.017 3.211-2.272 3.936-1.256 0.725-2.273 0.138-2.273-1.312v-22.4c0-1.449 1.017-3.211 2.273-3.936z" fill="#d4ecff"/>
</g>
<g>
<path d="m67.195-124.75c1.256-0.725 2.273-0.138 2.273 1.312v12.165c0 1.45-1.017 3.212-2.273 3.937s-2.272 0.137-2.272-1.313v-12.165c0-1.45 1.016-3.211 2.272-3.936z" fill="#fff"/>
</g>
</g>
<g>
<path d="m113.66-153.61c0 1.425 1.001 2.003 2.235 1.29 1.234-0.713 2.235-2.446 2.235-3.871 0-1.425-1.001-2.004-2.235-1.291-1.234 0.713-2.235 2.447-2.235 3.872z" fill="#ff2c9c"/>
</g>
<g>
<path d="m113.66-161.67c0 1.425 1.001 2.004 2.235 1.291 1.234-0.713 2.235-2.447 2.235-3.872 0-1.425-1.001-2.003-2.235-1.29-1.234 0.713-2.235 2.445-2.235 3.871z" fill="#fff"/>
</g>
</g>
</g>
</g>
</g>
<g transform="translate(415.5 335)" display="block">
<g>
<path d="m-22.868 483.08-103.82-59.942c-6.372-3.679-5.573-10.105 1.785-14.353l100.25-57.88c7.358-4.248 18.488-4.709 24.86-1.03l103.82 59.943c6.372 3.679 5.573 10.104-1.785 14.352l-100.25 57.88c-7.358 4.248-18.488 4.709-24.86 1.03z" fill="#7dc3ea"/>
</g>
</g>
<g transform="translate(415.5 335)" display="block">
<g>
<path d="m-12.016 458.69c-5.077 0-9.971-1.091-13.799-3.303h-0.0030003l-103.82-59.943c-4.607-2.659-7.248-6.792-7.251-11.34 0-5.091 3.293-9.912 9.034-13.226l100.25-57.878c9.275-5.359 22.495-5.805 30.756-1.031l103.83 59.943c4.606 2.659 7.248 6.792 7.248 11.337 0 5.091-3.294 9.912-9.037 13.226l-100.25 57.881c-4.977 2.873-11.087 4.334-16.957 4.334zm-7.906-13.515c4.583 2.641 13.438 2.16 18.964-1.031l100.25-57.881c2.521-1.454 3.126-2.77 3.14-3.017-0.034996-0.070984-0.373-0.55499-1.351-1.122 0 0-103.83-59.944-103.83-59.944-4.574-2.641-13.431-2.161-18.963 1.032l-100.25 57.878c-2.521 1.454-3.122 2.77-3.137 3.017 0.035004 0.072998 0.373 0.55798 1.351 1.125l103.83 59.943h-0.0030003z" fill="#4a90e2"/>
</g>
</g>
<g transform="translate(415.5 335)" display="block">
<g>
<path d="m108.3 346.52v-35.823l-80.327-0.045013-27.766-16.031c-6.372-3.679-17.502-3.217-24.86 1.031l-25.904 14.956-80.4-0.045013v36.843c-0.181 2.49 1.207 4.893 4.269 6.66l103.82 59.943c6.372 3.679 17.502 3.217 24.86-1.031l100.25-57.879c4.244-2.45 6.292-5.625 6.054-8.579z" fill="#396caa"/>
</g>
<g>
<path d="m-11.331 292.15c-4.663 0.11301-9.503 1.288-13.326 3.495l-25.904 14.956-80.4-0.045013v36.843c-0.181 2.49 1.207 4.893 4.269 6.66l103.82 59.943c3.062 1.768 7.224 2.569 11.537 2.464v-124.32z" fill="#5d91c7"/>
</g>
<g>
<path d="m-21.269 414.79c5.496 2.355 13.446 2.224 19.873-0.22699v-41.832h-19.873v42.059z" fill="#5793ce"/>
</g>
<g>
<path d="m-22.868 377.3-103.82-59.942c-6.372-3.679-5.573-10.105 1.785-14.353l100.25-57.88c7.358-4.248 18.488-4.709 24.86-1.03l103.82 59.943c6.372 3.679 5.573 10.104-1.785 14.352l-100.25 57.88c-7.358 4.248-18.488 4.709-24.86 1.03z" fill="#cce7fc"/>
</g>
<g>
<path d="m102.24 311.34-100.25 57.879c-7.358 4.248-18.488 4.71-24.86 1.031l-103.82-59.943c-1.421-0.81998-2.465-1.782-3.179-2.821-2.189 3.523-1.197 7.345 3.179 9.871l103.82 59.942c6.372 3.679 17.502 3.218 24.86-1.03l100.25-57.88c5.717-3.301 7.454-7.912 4.964-11.532-0.999 1.607-2.659 3.152-4.964 4.483z" fill="#4a90e2"/>
</g>
<g>
<g>
<path d="m70.108 355.97c0 2.674-1.877 5.926-4.193 7.263-2.316 1.337-4.194 0.25299-4.194-2.421 0-2.674 1.878-5.926 4.194-7.263 2.316-1.337 4.193-0.25299 4.193 2.421z" fill="#d4ecff"/>
</g>
<g>
<path d="m83.6 348.18c0 2.674-1.877 5.926-4.193 7.263-2.316 1.337-4.194 0.25299-4.194-2.421 0-2.674 1.878-5.926 4.194-7.263 2.316-1.337 4.193-0.25302 4.193 2.421z" fill="#d4ecff"/>
</g>
<g>
<path d="m97.092 340.39c0 2.674-1.877 5.926-4.193 7.263-2.316 1.337-4.194 0.254-4.194-2.42 0-2.674 1.878-5.927 4.194-7.264 2.316-1.337 4.193-0.25299 4.193 2.421z" fill="#d4ecff"/>
</g>
</g>
<g>
<g>
<path d="m-16.729 340.13-48.584-28.05c-2.982-1.721-2.608-4.729 0.83501-6.717l46.912-27.084c3.443-1.988 8.651-2.205 11.633-0.483l48.584 28.05c2.982 1.722 2.608 4.729-0.835 6.717l-46.912 27.085c-3.443 1.988-8.651 2.204-11.633 0.48199z" fill="#5793ce"/>
</g>
<g>
<path d="m-12.078 316.65-6.722-3.881c-0.413-0.23798-0.361-0.65399 0.116-0.92899l6.49-3.748c0.477-0.27499 1.197-0.30399 1.61-0.065979l6.722 3.88c0.412 0.23798 0.36 0.655-0.116 0.92999l-6.491 3.747c-0.476 0.27502-1.196 0.30502-1.609 0.067017z" fill="#d4ecff"/>
</g>
<g>
<path d="m-65.313 312.08 0.137 0.078979c0.22601-0.16199 0.436-0.32898 0.69801-0.47998l46.912-27.084c3.443-1.988 8.651-2.205 11.633-0.483l48.447 27.971c2.748-1.967 2.892-4.646 0.137-6.237l-48.584-28.05c-2.982-1.722-8.19-1.505-11.633 0.483l-46.912 27.084c-3.443 1.988-3.817 4.995-0.83501 6.717z" fill="#396caa"/>
</g>
</g>
</g>
<g transform="translate(817 553)" display="block">
<g>
<path d="m-391.79 444.78-67.96-39.237 67.958-39.235 67.96 39.236-67.958 39.236z" fill="#7dc3ea"/>
</g>
</g>
<g transform="translate(817 553)" display="block">
<g>
<path d="m-391.79 420.48c-0.89301 0-1.783-0.23199-2.582-0.69299l-67.961-39.238c-1.598-0.92297-2.585-2.629-2.585-4.474s0.987-3.552 2.585-4.475l67.958-39.234c1.598-0.923 3.566-0.923 5.164 0l67.961 39.234c1.598 0.92297 2.585 2.63 2.585 4.475s-0.98401 3.551-2.585 4.474l-67.958 39.238c-0.79901 0.461-1.689 0.69299-2.582 0.69299zm-57.628-44.405 57.628 33.271 57.625-33.271-57.628-33.268-57.625 33.268z" fill="#4a90e2"/>
</g>
</g>
<g transform="translate(817 553)" display="block">
<g>
<path d="m-391.79 384.65-67.958-39.236v-78.469l67.958 39.236v78.469z" fill="#396caa"/>
</g>
<g>
<g>
<path d="m-323.83 345.42-67.958 39.236v-78.469l67.958-39.236v78.469z" fill="#214883"/>
</g>
<g>
<path d="m-391.79 306.18-67.958-39.236 67.956-39.234 67.958 39.235-67.956 39.235z" fill="#cce7fc"/>
</g>
<g>
<path d="m-416.27 342.26-19.008-10.973v-21.948l19.008 10.974v21.947z" fill="#4a90e2"/>
</g>
</g>
</g>
<g transform="translate(1576 132)" display="block">
<g>
<path d="m-391.79 444.78-67.96-39.237 67.958-39.235 67.96 39.236-67.958 39.236z" fill="#7dc3ea"/>
</g>
</g>
<g transform="translate(1576 132)" display="block">
<g>
<path d="m-391.79 420.48c-0.89301 0-1.783-0.23199-2.582-0.69299l-67.961-39.238c-1.598-0.92297-2.585-2.629-2.585-4.474s0.987-3.552 2.585-4.475l67.958-39.234c1.598-0.923 3.566-0.923 5.164 0l67.961 39.234c1.598 0.92297 2.585 2.63 2.585 4.475s-0.98401 3.551-2.585 4.474l-67.958 39.238c-0.79901 0.461-1.689 0.69299-2.582 0.69299zm-57.628-44.405 57.628 33.271 57.625-33.271-57.628-33.268-57.625 33.268z" fill="#4a90e2"/>
</g>
</g>
<g transform="translate(1576 132)" display="block">
<g>
<path d="m-391.79 384.65-67.958-39.236v-78.469l67.958 39.236v78.469z" fill="#396caa"/>
</g>
<g>
<g>
<path d="m-323.83 345.42-67.958 39.236v-78.469l67.958-39.236v78.469z" fill="#214883"/>
</g>
<g>
<path d="m-391.79 306.18-67.958-39.236 67.956-39.234 67.958 39.235-67.956 39.235z" fill="#cce7fc"/>
</g>
<g>
<path d="m-416.27 342.26-19.008-10.973v-21.948l19.008 10.974v21.947z" fill="#4a90e2"/>
</g>
</g>
</g>
<g transform="translate(1181.5 335)" display="block">
<g>
<path d="m-22.868 483.08-103.82-59.942c-6.372-3.679-5.573-10.105 1.785-14.353l100.25-57.88c7.358-4.248 18.488-4.709 24.86-1.03l103.82 59.943c6.372 3.679 5.573 10.104-1.785 14.352l-100.25 57.88c-7.358 4.248-18.488 4.709-24.86 1.03z" fill="#7dc3ea"/>
</g>
</g>
<g transform="translate(1181.5 335)" display="block">
<g>
<path d="m-12.016 458.69c-5.077 0-9.971-1.091-13.799-3.303h-0.0030003l-103.82-59.943c-4.607-2.659-7.248-6.792-7.251-11.34 0-5.091 3.293-9.912 9.034-13.226l100.25-57.878c9.275-5.359 22.495-5.805 30.756-1.031l103.83 59.943c4.606 2.659 7.248 6.792 7.248 11.337 0 5.091-3.294 9.912-9.037 13.226l-100.25 57.881c-4.977 2.873-11.087 4.334-16.957 4.334zm-7.906-13.515c4.583 2.641 13.438 2.16 18.964-1.031l100.25-57.881c2.521-1.454 3.126-2.77 3.14-3.017-0.034996-0.070984-0.373-0.55499-1.351-1.122 0 0-103.83-59.944-103.83-59.944-4.574-2.641-13.431-2.161-18.963 1.032l-100.25 57.878c-2.521 1.454-3.122 2.77-3.137 3.017 0.035004 0.072998 0.373 0.55798 1.351 1.125l103.83 59.943h-0.0030003z" fill="#4a90e2"/>
</g>
</g>
<g transform="translate(1181.5 335)" display="block">
<g>
<path d="m108.3 346.52v-35.823l-80.327-0.045013-27.766-16.031c-6.372-3.679-17.502-3.217-24.86 1.031l-25.904 14.956-80.4-0.045013v36.843c-0.181 2.49 1.207 4.893 4.269 6.66l103.82 59.943c6.372 3.679 17.502 3.217 24.86-1.031l100.25-57.879c4.244-2.45 6.292-5.625 6.054-8.579z" fill="#396caa"/>
</g>
<g>
<path d="m-11.331 292.15c-4.663 0.11301-9.503 1.288-13.326 3.495l-25.904 14.956-80.4-0.045013v36.843c-0.181 2.49 1.207 4.893 4.269 6.66l103.82 59.943c3.062 1.768 7.224 2.569 11.537 2.464v-124.32z" fill="#5d91c7"/>
</g>
<g>
<path d="m-21.269 414.79c5.496 2.355 13.446 2.224 19.873-0.22699v-41.832h-19.873v42.059z" fill="#5793ce"/>
</g>
<g>
<path d="m-22.868 377.3-103.82-59.942c-6.372-3.679-5.573-10.105 1.785-14.353l100.25-57.88c7.358-4.248 18.488-4.709 24.86-1.03l103.82 59.943c6.372 3.679 5.573 10.104-1.785 14.352l-100.25 57.88c-7.358 4.248-18.488 4.709-24.86 1.03z" fill="#cce7fc"/>
</g>
<g>
<path d="m102.24 311.34-100.25 57.879c-7.358 4.248-18.488 4.71-24.86 1.031l-103.82-59.943c-1.421-0.81998-2.465-1.782-3.179-2.821-2.189 3.523-1.197 7.345 3.179 9.871l103.82 59.942c6.372 3.679 17.502 3.218 24.86-1.03l100.25-57.88c5.717-3.301 7.454-7.912 4.964-11.532-0.999 1.607-2.659 3.152-4.964 4.483z" fill="#4a90e2"/>
</g>
<g>
<g>
<path d="m70.108 355.97c0 2.674-1.877 5.926-4.193 7.263-2.316 1.337-4.194 0.25299-4.194-2.421 0-2.674 1.878-5.926 4.194-7.263 2.316-1.337 4.193-0.25299 4.193 2.421z" fill="#d4ecff"/>
</g>
<g>
<path d="m83.6 348.18c0 2.674-1.877 5.926-4.193 7.263-2.316 1.337-4.194 0.25299-4.194-2.421 0-2.674 1.878-5.926 4.194-7.263 2.316-1.337 4.193-0.25302 4.193 2.421z" fill="#d4ecff"/>
</g>
<g>
<path d="m97.092 340.39c0 2.674-1.877 5.926-4.193 7.263-2.316 1.337-4.194 0.254-4.194-2.42 0-2.674 1.878-5.927 4.194-7.264 2.316-1.337 4.193-0.25299 4.193 2.421z" fill="#d4ecff"/>
</g>
</g>
<g>
<g>
<path d="m-16.729 340.13-48.584-28.05c-2.982-1.721-2.608-4.729 0.83501-6.717l46.912-27.084c3.443-1.988 8.651-2.205 11.633-0.483l48.584 28.05c2.982 1.722 2.608 4.729-0.835 6.717l-46.912 27.085c-3.443 1.988-8.651 2.204-11.633 0.48199z" fill="#5793ce"/>
</g>
<g>
<path d="m-12.078 316.65-6.722-3.881c-0.413-0.23798-0.361-0.65399 0.116-0.92899l6.49-3.748c0.477-0.27499 1.197-0.30399 1.61-0.065979l6.722 3.88c0.412 0.23798 0.36 0.655-0.116 0.92999l-6.491 3.747c-0.476 0.27502-1.196 0.30502-1.609 0.067017z" fill="#d4ecff"/>
</g>
<g>
<path d="m-65.313 312.08 0.137 0.078979c0.22601-0.16199 0.436-0.32898 0.69801-0.47998l46.912-27.084c3.443-1.988 8.651-2.205 11.633-0.483l48.447 27.971c2.748-1.967 2.892-4.646 0.137-6.237l-48.584-28.05c-2.982-1.722-8.19-1.505-11.633 0.483l-46.912 27.084c-3.443 1.988-3.817 4.995-0.83501 6.717z" fill="#396caa"/>
</g>
</g>
</g>
<g transform="translate(1548 553)" display="block">
<g>
<path d="m-391.79 444.78-67.96-39.237 67.958-39.235 67.96 39.236-67.958 39.236z" fill="#7dc3ea"/>
</g>
</g>
<g transform="translate(1548 553)" display="block">
<g>
<path d="m-391.79 420.48c-0.89301 0-1.783-0.23199-2.582-0.69299l-67.961-39.238c-1.598-0.92297-2.585-2.629-2.585-4.474s0.987-3.552 2.585-4.475l67.958-39.234c1.598-0.923 3.566-0.923 5.164 0l67.961 39.234c1.598 0.92297 2.585 2.63 2.585 4.475s-0.98401 3.551-2.585 4.474l-67.958 39.238c-0.79901 0.461-1.689 0.69299-2.582 0.69299zm-57.628-44.405 57.628 33.271 57.625-33.271-57.628-33.268-57.625 33.268z" fill="#4a90e2"/>
</g>
</g>
<g transform="translate(1548 553)" display="block">
<g>
<path d="m-391.79 384.65-67.958-39.236v-78.469l67.958 39.236v78.469z" fill="#396caa"/>
</g>
<g>
<g>
<path d="m-323.83 345.42-67.958 39.236v-78.469l67.958-39.236v78.469z" fill="#214883"/>
</g>
<g>
<path d="m-391.79 306.18-67.958-39.236 67.956-39.234 67.958 39.235-67.956 39.235z" fill="#cce7fc"/>
</g>
<g>
<path d="m-416.27 342.26-19.008-10.973v-21.948l19.008 10.974v21.947z" fill="#4a90e2"/>
</g>
</g>
</g>
<g transform="translate(800 600)" display="block">
<g>
<path d="m-22.868 483.08-103.82-59.942c-6.372-3.679-5.573-10.105 1.785-14.353l100.25-57.88c7.358-4.248 18.488-4.709 24.86-1.03l103.82 59.943c6.372 3.679 5.573 10.104-1.785 14.352l-100.25 57.88c-7.358 4.248-18.488 4.709-24.86 1.03z" fill="#7dc3ea"/>
</g>
</g>
<g transform="translate(800 600)" display="block">
<g>
<path d="m-12.016 458.69c-5.077 0-9.971-1.091-13.799-3.303h-0.0030003l-103.82-59.943c-4.607-2.659-7.248-6.792-7.251-11.34 0-5.091 3.293-9.912 9.034-13.226l100.25-57.878c9.275-5.359 22.495-5.805 30.756-1.031l103.83 59.943c4.606 2.659 7.248 6.792 7.248 11.337 0 5.091-3.294 9.912-9.037 13.226l-100.25 57.881c-4.977 2.873-11.087 4.334-16.957 4.334zm-7.906-13.515c4.583 2.641 13.438 2.16 18.964-1.031l100.25-57.881c2.521-1.454 3.126-2.77 3.14-3.017-0.034996-0.070984-0.373-0.55499-1.351-1.122 0 0-103.83-59.944-103.83-59.944-4.574-2.641-13.431-2.161-18.963 1.032l-100.25 57.878c-2.521 1.454-3.122 2.77-3.137 3.017 0.035004 0.072998 0.373 0.55798 1.351 1.125l103.83 59.943h-0.0030003z" fill="#4a90e2"/>
</g>
</g>
<g transform="translate(800 600)" display="block">
<g>
<path d="m108.3 346.52v-35.823l-80.327-0.045013-27.766-16.031c-6.372-3.679-17.502-3.217-24.86 1.031l-25.904 14.956-80.4-0.045013v36.843c-0.181 2.49 1.207 4.893 4.269 6.66l103.82 59.943c6.372 3.679 17.502 3.217 24.86-1.031l100.25-57.879c4.244-2.45 6.292-5.625 6.054-8.579z" fill="#396caa"/>
</g>
<g>
<path d="m-11.331 292.15c-4.663 0.11301-9.503 1.288-13.326 3.495l-25.904 14.956-80.4-0.045013v36.843c-0.181 2.49 1.207 4.893 4.269 6.66l103.82 59.943c3.062 1.768 7.224 2.569 11.537 2.464v-124.32z" fill="#5d91c7"/>
</g>
<g>
<path d="m-21.269 414.79c5.496 2.355 13.446 2.224 19.873-0.22699v-41.832h-19.873v42.059z" fill="#5793ce"/>
</g>
<g>
<path d="m-22.868 377.3-103.82-59.942c-6.372-3.679-5.573-10.105 1.785-14.353l100.25-57.88c7.358-4.248 18.488-4.709 24.86-1.03l103.82 59.943c6.372 3.679 5.573 10.104-1.785 14.352l-100.25 57.88c-7.358 4.248-18.488 4.709-24.86 1.03z" fill="#cce7fc"/>
</g>
<g>
<path d="m102.24 311.34-100.25 57.879c-7.358 4.248-18.488 4.71-24.86 1.031l-103.82-59.943c-1.421-0.81998-2.465-1.782-3.179-2.821-2.189 3.523-1.197 7.345 3.179 9.871l103.82 59.942c6.372 3.679 17.502 3.218 24.86-1.03l100.25-57.88c5.717-3.301 7.454-7.912 4.964-11.532-0.999 1.607-2.659 3.152-4.964 4.483z" fill="#4a90e2"/>
</g>
<g>
<g>
<path d="m70.108 355.97c0 2.674-1.877 5.926-4.193 7.263-2.316 1.337-4.194 0.25299-4.194-2.421 0-2.674 1.878-5.926 4.194-7.263 2.316-1.337 4.193-0.25299 4.193 2.421z" fill="#d4ecff"/>
</g>
<g>
<path d="m83.6 348.18c0 2.674-1.877 5.926-4.193 7.263-2.316 1.337-4.194 0.25299-4.194-2.421 0-2.674 1.878-5.926 4.194-7.263 2.316-1.337 4.193-0.25302 4.193 2.421z" fill="#d4ecff"/>
</g>
<g>
<path d="m97.092 340.39c0 2.674-1.877 5.926-4.193 7.263-2.316 1.337-4.194 0.254-4.194-2.42 0-2.674 1.878-5.927 4.194-7.264 2.316-1.337 4.193-0.25299 4.193 2.421z" fill="#d4ecff"/>
</g>
</g>
<g>
<g>
<path d="m-16.729 340.13-48.584-28.05c-2.982-1.721-2.608-4.729 0.83501-6.717l46.912-27.084c3.443-1.988 8.651-2.205 11.633-0.483l48.584 28.05c2.982 1.722 2.608 4.729-0.835 6.717l-46.912 27.085c-3.443 1.988-8.651 2.204-11.633 0.48199z" fill="#5793ce"/>
</g>
<g>
<path d="m-12.078 316.65-6.722-3.881c-0.413-0.23798-0.361-0.65399 0.116-0.92899l6.49-3.748c0.477-0.27499 1.197-0.30399 1.61-0.065979l6.722 3.88c0.412 0.23798 0.36 0.655-0.116 0.92999l-6.491 3.747c-0.476 0.27502-1.196 0.30502-1.609 0.067017z" fill="#d4ecff"/>
</g>
<g>
<path d="m-65.313 312.08 0.137 0.078979c0.22601-0.16199 0.436-0.32898 0.69801-0.47998l46.912-27.084c3.443-1.988 8.651-2.205 11.633-0.483l48.447 27.971c2.748-1.967 2.892-4.646 0.137-6.237l-48.584-28.05c-2.982-1.722-8.19-1.505-11.633 0.483l-46.912 27.084c-3.443 1.988-3.817 4.995-0.83501 6.717z" fill="#396caa"/>
</g>
</g>
</g>
<g transform="translate(809.5 132)" display="block">
<g>
<path d="m-391.79 444.78-67.96-39.237 67.958-39.235 67.96 39.236-67.958 39.236z" fill="#7dc3ea"/>
</g>
</g>
<g transform="translate(809.5 132)" display="block">
<g>
<path d="m-391.79 420.48c-0.89301 0-1.783-0.23199-2.582-0.69299l-67.961-39.238c-1.598-0.92297-2.585-2.629-2.585-4.474s0.987-3.552 2.585-4.475l67.958-39.234c1.598-0.923 3.566-0.923 5.164 0l67.961 39.234c1.598 0.92297 2.585 2.63 2.585 4.475s-0.98401 3.551-2.585 4.474l-67.958 39.238c-0.79901 0.461-1.689 0.69299-2.582 0.69299zm-57.628-44.405 57.628 33.271 57.625-33.271-57.628-33.268-57.625 33.268z" fill="#4a90e2"/>
</g>
</g>
<g transform="translate(809.5 132)" display="block">
<g>
<path d="m-391.79 384.65-67.958-39.236v-78.469l67.958 39.236v78.469z" fill="#396caa"/>
</g>
<g>
<g>
<path d="m-323.83 345.42-67.958 39.236v-78.469l67.958-39.236v78.469z" fill="#214883"/>
</g>
<g>
<path d="m-391.79 306.18-67.958-39.236 67.956-39.234 67.958 39.235-67.956 39.235z" fill="#cce7fc"/>
</g>
<g>
<path d="m-416.27 342.26-19.008-10.973v-21.948l19.008 10.974v21.947z" fill="#4a90e2"/>
</g>
</g>
</g>
</g>
</svg>