<?xml version="1.0" encoding="UTF-8"?>
<svg style="content-visibility:visible;height:100%;transform:translate3d(0px, 0px, 0px);width:100%" viewBox="0 0 600 450" xmlns="http://www.w3.org/2000/svg">
<defs>
<clipPath id="l">
<rect width="600" height="450"/>
</clipPath>
<clipPath id="k">
<path d="m2-75.5h-149l-1.5 76.5v23.5h17.5v-47.5h133v-52.5" fill="#fff"/>
</clipPath>
<clipPath id="j">
<path d="m2-75.5h-149l-1.5 76.5v23.5h17.5v-47.5h133v-52.5" fill="#fff"/>
</clipPath>
<clipPath id="i">
<path d="m12-87h-34.5v37h-40v85.5s27.5-4 27.5-4v-47.5h47v-71" fill="#fff"/>
</clipPath>
<clipPath id="h">
<path d="m12-87h-34.5v37h-40v85.5s27.5-4 27.5-4v-47.5h47v-71" fill="#fff"/>
</clipPath>
<linearGradient id="g" x1="-98.596" x2="40.59" y1="-21.489" y2="8.848" gradientUnits="userSpaceOnUse">
<stop stop-color="#6ee1f8" offset="0"/>
<stop stop-color="#4ab0ee" offset=".6"/>
<stop stop-color="#267fe5" offset="1"/>
</linearGradient>
<linearGradient id="f" x1="-46" x2="41" y1="3" y2="2" gradientUnits="userSpaceOnUse">
<stop stop-color="#267fe5" offset="0"/>
<stop stop-color="#4ab0ee" offset=".6"/>
<stop stop-color="#6ee1f8" offset="1"/>
</linearGradient>
<linearGradient id="e" x1="-42.5" x2="41.5" y1="-1" y2="-2.5" gradientUnits="userSpaceOnUse">
<stop stop-color="#6ee1f8" offset="0"/>
<stop stop-color="#4ab0ee" offset=".6"/>
<stop stop-color="#267fe5" offset="1"/>
</linearGradient>
<linearGradient id="a" x1="-46" x2="41" y1="3" y2="2" gradientUnits="userSpaceOnUse">
<stop stop-color="#a31fa9" offset="0"/>
<stop stop-color="#7d139c" offset=".25"/>
<stop stop-color="#58068e" offset=".5"/>
<stop stop-color="#423db9" offset=".75"/>
<stop stop-color="#2c75e4" offset="1"/>
</linearGradient>
<linearGradient id="b" x1="-42.5" x2="41.5" y1="-1" y2="-2.5" gradientUnits="userSpaceOnUse">
<stop stop-color="#8d139b" offset="0"/>
<stop stop-color="#5b46c0" offset=".5"/>
<stop stop-color="#2979e4" offset="1"/>
</linearGradient>
<linearGradient id="d" x1="-39.5" x2="39" y1="1" y2="1" gradientUnits="userSpaceOnUse">
<stop stop-color="#267fe5" offset="0"/>
<stop stop-color="#4ab0ee" offset=".6"/>
<stop stop-color="#6ee1f8" offset="1"/>
</linearGradient>
<linearGradient id="c" x1="-31" x2="29" y1="-1" y2=".5" gradientUnits="userSpaceOnUse">
<stop stop-color="#6ee1f8" offset="0"/>
<stop stop-color="#4ab0ee" offset=".6"/>
<stop stop-color="#267fe5" offset="1"/>
</linearGradient>
</defs>
<g clip-path="url(#l)">
<g transform="translate(158.8 159.91)" display="block">
<g transform="translate(66.063 46.867)">
<path d="m65.813-46.618h-0.5-0.5v1.378 1.377 1.378 1.376 1.379 1.376 2.756 1.377 1.377 2.755 5.509 0.018s-0.034004 0.666-0.034004 0.666l-0.098 0.656s-0.082001 0.322-0.162 0.644c-0.112 0.313-0.225 0.625-0.225 0.625s-0.259 0.614-0.626 1.17c-0.374 0.552-0.842 1.028-0.842 1.028s-0.475 0.467-1.026 0.843c-0.556 0.366-1.169 0.626-1.169 0.626s-0.617 0.252-1.269 0.387c-0.654 0.128-1.321 0.132-1.321 0.132h-0.02-7.252-7.252-14.505-29.011-29.009-29.011l-0.021 0.0019989s-0.764 0.0040016-1.515 0.152c-0.749 0.153-1.457 0.443-1.457 0.443s-0.705 0.298-1.342 0.719c-0.633 0.429-1.178 0.966-1.178 0.966s-0.537 0.544-0.966 1.177c-0.421 0.637-0.719 1.342-0.719 1.342s-0.291 0.707-0.444 1.457c-0.14799 0.751-0.15099 1.515-0.15099 1.515l-0.0010071 0.021v56.609h0.5 0.5v-56.609l0.0010071-0.019s0.0039978-0.668 0.132-1.321c0.134-0.653 0.386-1.269 0.386-1.269s0.26-0.613 0.627-1.169c0.375-0.551 0.842-1.027 0.842-1.027s0.476-0.468 1.027-0.843c0.556-0.366 1.17-0.625 1.17-0.625s0.617-0.253 1.269-0.388c0.654-0.127 1.321-0.131 1.321-0.131s0.018997-0.0019989 0.018997-0.0019989h29.011 29.009 29.011 14.505 7.252 7.252 0.021s0.765-0.0039997 1.516-0.152c0.749-0.153 1.457-0.444 1.457-0.444s0.705-0.297 1.342-0.719c0.633-0.429 1.177-0.967 1.177-0.967s0.537-0.544 0.965-1.177c0.422-0.637 0.719-1.343 0.719-1.343s0.129-0.359 0.258-0.718c0.094002-0.369 0.18501-0.739 0.18501-0.739l0.113-0.755s0.039001-0.76 0.039001-0.76v-0.021-5.509-2.755-1.377-1.377-2.756-1.376-1.379-1.376-1.378-1.377-1.378z" fill="#72baf0"/>
</g>
</g>
<g transform="translate(252.43 166.74)" display="block">
<g transform="translate(21.782 43.45)">
<path d="m21.532-43.201h-0.5-0.5v1.022 1.021 1.021 1.02 1.021 1.02 2.043 1.021 1.02 2.041 4.084 0.02l-0.059999 1.142-0.168 1.129s-0.026001 0.142-0.083 0.349c-0.053001 0.207-0.123 0.484-0.194 0.76-0.193 0.538-0.387 1.076-0.387 1.076s-0.446 1.056-1.077 2.012c-0.644 0.949-1.448 1.766-1.448 1.766s-0.817 0.804-1.765 1.448c-0.957 0.631-2.013 1.076-2.013 1.076s-1.062 0.434-2.185 0.663c-0.565 0.08-1.128 0.192-1.559 0.189-0.428 0.022-0.712 0.036-0.712 0.036h-0.021-1.411-1.414-2.825-5.65-5.649-5.65l-0.021 0.0019999s-0.764 0.0040007-1.515 0.151c-0.749 0.153-1.457 0.444-1.457 0.444s-0.705 0.298-1.342 0.719c-0.633 0.429-1.177 0.967-1.177 0.967s-0.538 0.544-0.966 1.176c-0.422 0.638-0.719 1.343-0.719 1.343s-0.291 0.708-0.444 1.457c-0.148 0.751-0.152 1.515-0.152 1.515v0.021 12.651 12.653 12.651 12.652h0.5 0.5v-12.652-12.651-12.653-12.651-0.019s0.0049992-0.667 0.132-1.321c0.135-0.652 0.387-1.269 0.387-1.269s0.26-0.615 0.627-1.171c0.375-0.551 0.842-1.025 0.842-1.025s0.475-0.468 1.026-0.843c0.556-0.366 1.17-0.626 1.17-0.626s0.617-0.252 1.269-0.387c0.654-0.127 1.321-0.132 1.321-0.132s0.019-0.0019999 0.019-0.0019999h5.65 5.649 5.65 2.825 1.414 1.411 0.021s0.31-0.014999 0.775-0.038c0.466 0.0010004 1.077-0.116 1.69-0.206 1.221-0.247 2.373-0.72 2.373-0.72s1.149-0.483 2.187-1.169c1.031-0.698 1.916-1.572 1.916-1.572s0.875-0.886 1.572-1.916c0.687-1.038 1.17-2.186 1.17-2.186s0.223-0.58 0.42-1.168c0.077002-0.3 0.153-0.601 0.212-0.826 0.060001-0.225 0.09-0.378 0.09-0.378l0.182-1.227 0.063999-1.239v-0.021-4.084-2.041-1.02-1.021-2.043-1.02-1.021-1.02-1.021-1.021-1.022z" fill="#72baf0"/>
</g>
</g>
<g transform="translate(309.5 159.9)" display="block">
<g transform="translate(66.063 46.868)">
<path d="m65.814 46.617h-1v-56.612c0-3.743-3.046-6.789-6.789-6.789h-116.05c-4.295 0-7.789-3.495-7.789-7.789v-22.044h1v22.044c0 3.743 3.046 6.789 6.789 6.789h116.05c4.295 0 7.789 3.495 7.789 7.789v56.612z" fill="#72baf0"/>
</g>
</g>
<g transform="translate(304.42 166.74)" display="block">
<g transform="translate(21.781 43.451)">
<path d="m21.532 43.201h-1v-50.613c0-3.743-3.046-6.789-6.789-6.789h-22.617c-6.98 0-12.658-5.678-12.658-12.658v-16.342h1v16.342c0 6.429 5.229 11.658 11.658 11.658h22.617c4.295 0 7.789 3.495 7.789 7.789v50.613z" fill="#72baf0"/>
</g>
</g>
<g transform="translate(299.5 223.5)" clip-path="url(#k)" display="block">
<g>
<path d="m-9.25-84.25s-167.25 0.25-167.25 0.25v104.5l36.5-2.5v-44.625s0.60201-3.97 1.953-5.266c1.47-1.41 5.735-2.109 5.735-2.109h117.31s2.429-0.429 3.25-1.25 2.5-3.5 2.5-3.5v-45.5z" fill-opacity="0" stroke="#5ecbf4" stroke-dasharray=" 1 35" stroke-dashoffset="5" stroke-linecap="round" stroke-linejoin="round" stroke-width="5"/>
</g>
</g>
<g transform="matrix(-1,0,0,1,300.5,223.5)" clip-path="url(#j)" display="block">
<g>
<path d="m-10-84.25s-166.5 0.25-166.5 0.25v104.5l36.5-2.5v-44.625s0.60201-3.97 1.953-5.266c1.47-1.41 5.735-2.109 5.735-2.109h117.31s2.429-0.429 3.25-1.25 1.75-3.5 1.75-3.5v-45.5z" fill-opacity="0" stroke="#5ecbf4" stroke-dasharray=" 1 35" stroke-linecap="round" stroke-linejoin="round" stroke-width="5"/>
</g>
</g>
<g transform="translate(300 225)" clip-path="url(#i)" display="block">
<g>
<path d="m-4.5-77.25h-76v103l33.5 0.25v-48.75s0.904-2.904 1.938-3.938c1.153-1.153 4.312-2.312 4.312-2.312h27s4.616-2.744 6.312-4.761c1.48-1.759 2.938-6.239 2.938-6.239v-37.25z" fill-opacity="0" stroke="#5ecbf4" stroke-dasharray=" 1 28" stroke-dashoffset="17" stroke-linecap="round" stroke-linejoin="round" stroke-width="5"/>
</g>
</g>
<g transform="matrix(-1,0,0,1,300,225)" clip-path="url(#h)" display="block">
<g>
<path d="m-4.5-77.25h-76v103l33.5 0.25v-48.75s0.904-2.904 1.938-3.938c1.153-1.153 4.312-2.312 4.312-2.312h27s4.616-2.744 6.312-4.761c1.48-1.759 2.938-6.239 2.938-6.239v-37.25z" fill-opacity="0" stroke="#5ecbf4" stroke-dasharray=" 1 28" stroke-dashoffset="12" stroke-linecap="round" stroke-linejoin="round" stroke-width="5"/>
</g>
</g>
<g transform="translate(244.95 108.91)" display="block">
<g transform="translate(55.042 30.583)">
<path d="m38.25-2.75c-2.286 0-4.464 0.464-6.444 1.303 0.045-0.428 0.069-0.863 0.069-1.303 0-6.806-5.517-12.322-12.322-12.322-2.301 0-4.448 0.642-6.29 1.74-1.019-9.556-9.103-17.001-18.93-17.001-10.239 0-18.567 8.089-19 18.222-2.514-1-5.253-1.556-8.125-1.556-12.149 0-22 9.85-22 22 0 12.15 9.851 22 22 22h71.042c9.136 0 16.542-7.406 16.542-16.541 0-9.136-7.406-16.542-16.542-16.542z" fill="url(#g)"/>
</g>
</g>
<g transform="translate(121.58 298.79)" display="block">
<g transform="translate(37.97 22.028)">
<path d="m-4.046 20.487-31.438-18.15c-2.236-1.291-1.956-3.545 0.625-5.036l30.185-17.426c2.581-1.491 6.485-1.653 8.72-0.363l31.438 18.152c2.236 1.29 1.956 3.545-0.625 5.035l-30.185 17.427c-2.581 1.49-6.485 1.652-8.72 0.361z" fill="#261e51"/>
</g>
</g>
<g transform="translate(215.21 297.89)" display="block">
<g transform="translate(37.97 22.028)">
<path d="m-4.047 20.487-31.438-18.15c-2.235-1.291-1.955-3.545 0.626-5.036l30.185-17.426c2.581-1.491 6.485-1.653 8.721-0.363l31.438 18.152c2.235 1.29 1.955 3.545-0.626 5.035l-30.185 17.427c-2.581 1.49-6.486 1.652-8.721 0.361z" fill="#261e51"/>
</g>
</g>
<g transform="translate(308.85 297.99)" display="block">
<g transform="translate(37.971 22.028)">
<path d="m-4.046 20.487-31.439-18.15c-2.236-1.291-1.956-3.545 0.626-5.036l30.184-17.426c2.581-1.491 6.485-1.653 8.721-0.363l31.438 18.152c2.236 1.29 1.956 3.545-0.625 5.035l-30.185 17.427c-2.581 1.49-6.485 1.652-8.72 0.361z" fill="#261e51"/>
</g>
</g>
<g transform="translate(402.48 297.9)" display="block">
<g transform="translate(37.97 22.028)">
<path d="m-4.047 20.487-31.437-18.15c-2.236-1.291-1.956-3.545 0.625-5.036l30.185-17.426c2.581-1.491 6.485-1.653 8.721-0.363l31.437 18.152c2.236 1.29 1.955 3.545-0.626 5.035l-30.184 17.427c-2.581 1.49-6.486 1.652-8.721 0.361z" fill="#261e51"/>
</g>
</g>
<g transform="translate(122.55 276.62)" display="block" opacity=".5">
<g transform="translate(36.994 31.616)" opacity="1">
<path d="m36.994-10.257h-15.591l-17.356-10.021c-2.236-1.29-6.14-1.128-8.721 0.362l-16.73 9.659h-15.583v10.467h0.0039978c-0.063 0.873 0.424 1.716 1.498 2.336l31.438 18.151c2.235 1.29 6.14 1.129 8.721-0.361l30.185-17.428c1.341-0.773 2.054-1.754 2.123-2.698h0.012001v-10.467z" fill="url(#f)"/>
</g>
<g transform="translate(36.994 22.156)" opacity="1">
<path d="m-35.998 10.391h-0.0049973v-10.467h15.583l16.73-9.659c2.581-1.49 6.485-1.652 8.721-0.361l17.356 10.02h14.607v-0.721h-15.591l-17.356-10.021c-2.235-1.29-6.14-1.129-8.721 0.361l-16.73 9.66h-15.583v10.466h0.0050011c-0.064003 0.873 0.423 1.716 1.497 2.336l0.177 0.103c-0.504-0.515-0.734-1.108-0.69-1.717z" fill="#e430a1"/>
</g>
<g transform="translate(36.994 21.568)" opacity="1">
<path d="m-4.046 20.278-31.438-18.15c-2.236-1.291-1.956-3.545 0.625-5.036l30.185-17.427c2.581-1.491 6.485-1.652 8.72-0.362l31.438 18.152c2.236 1.29 1.956 3.544-0.625 5.034l-30.185 17.428c-2.581 1.49-6.485 1.651-8.72 0.361z" fill="url(#e)"/>
</g>
<g transform="translate(55.052 21.405)" opacity="1">
<path d="m17.426-2.382-31.438-18.151c-1.158-0.668-2.763-0.944-4.401-0.851 1.191 0.072001 2.306 0.352 3.171 0.851l31.438 18.151c2.235 1.29 1.955 3.544-0.626 5.034l-30.185 17.428c-1.244 0.718-2.795 1.124-4.32 1.212 1.888 0.113 3.967-0.299 5.55-1.212l30.185-17.428c2.581-1.49 2.861-3.744 0.626-5.034z" fill="#87ebfc"/>
</g>
<g transform="translate(36.993 21.197)" opacity="1">
<path d="m-0.195 16.327c-1.106 0-2.162-0.224-2.951-0.68l-23.407-13.514c-0.811-0.467-1.258-1.128-1.258-1.86 0-0.862 0.629-1.721 1.724-2.352l22.473-12.975c1.993-1.151 5.025-1.273 6.761-0.27l23.405 13.514c0.811 0.468 1.259 1.129 1.259 1.86 0 0.864-0.628 1.721-1.724 2.353l-22.472 12.975c-1.087 0.627-2.484 0.949-3.81 0.949zm0.39-31.801c-1.228 0-2.527 0.3-3.541 0.885l-22.472 12.974c-0.925 0.535-1.455 1.223-1.455 1.888 0 0.531 0.351 1.027 0.988 1.396l23.406 13.513c1.587 0.916 4.38 0.795 6.224-0.269l22.473-12.975c0.924-0.534 1.455-1.222 1.455-1.888 0-0.531-0.35-1.026-0.988-1.395l-23.407-13.514c-0.715-0.413-1.675-0.615-2.683-0.615z" fill="#70189e"/>
</g>
<g transform="translate(18.99 21.398)" opacity="1">
<path d="m15.367 20.447-31.438-18.15c-2.235-1.291-1.955-3.545 0.626-5.036l30.185-17.427c1.225-0.707 2.749-1.112 4.25-1.207-1.916-0.137-4.047 0.275-5.661 1.207l-30.184 17.427c-2.581 1.491-2.862 3.745-0.627 5.036l31.439 18.15c1.174 0.678 2.808 0.951 4.47 0.846-1.15-0.081999-2.222-0.363-3.06-0.846z" fill="#e430a1"/>
</g>
</g>
<g transform="translate(122.55 262.2)" display="block" opacity=".5">
<g transform="translate(36.994 31.616)" opacity="1">
<path d="m36.994-10.257h-15.591l-17.356-10.021c-2.236-1.29-6.14-1.127-8.721 0.363 0 0-16.73 9.658-16.73 9.658h-15.583v10.467h0.0039978c-0.063 0.874 0.424 1.717 1.498 2.337l31.438 18.15c2.235 1.291 6.14 1.129 8.721-0.361l30.185-17.428c1.341-0.773 2.054-1.754 2.123-2.698h0.012001v-10.467z" fill="url(#a)"/>
</g>
<g transform="translate(36.994 22.156)" opacity="1">
<path d="m-35.998 10.391h-0.0049973v-10.467h15.583l16.73-9.659c2.581-1.49 6.485-1.651 8.721-0.361l17.356 10.02h14.607v-0.721h-15.591l-17.356-10.021c-2.235-1.29-6.14-1.128-8.721 0.362 0 0-16.73 9.659-16.73 9.659h-15.583v10.466h0.0050011c-0.064003 0.874 0.423 1.717 1.497 2.337l0.177 0.102c-0.504-0.515-0.734-1.108-0.69-1.717z" fill="#e430a1"/>
</g>
<g transform="translate(36.994 21.568)" opacity="1">
<path d="m-4.046 20.277-31.438-18.15c-2.236-1.291-1.956-3.545 0.625-5.036l30.185-17.426c2.581-1.491 6.485-1.653 8.72-0.363l31.438 18.152c2.236 1.29 1.956 3.545-0.625 5.035l-30.185 17.427c-2.581 1.49-6.485 1.652-8.72 0.361z" fill="url(#b)"/>
</g>
<g transform="translate(55.052 21.405)" opacity="1">
<path d="m17.426-2.382-31.438-18.151c-1.158-0.668-2.763-0.944-4.401-0.85 1.191 0.070999 2.306 0.351 3.171 0.85l31.438 18.151c2.235 1.29 1.955 3.545-0.626 5.035l-30.185 17.427c-1.244 0.719-2.795 1.125-4.32 1.212 1.888 0.113 3.967-0.298 5.55-1.212l30.185-17.427c2.581-1.49 2.861-3.745 0.626-5.035z" fill="#87ebfc"/>
</g>
<g transform="translate(36.994 21.198)" opacity="1">
<path d="m-0.195 16.326c-1.106 0-2.164-0.224-2.953-0.68l-23.405-13.514c-0.811-0.467-1.258-1.127-1.258-1.859 0-0.863 0.628-1.721 1.724-2.353l22.472-12.975c1.994-1.15 5.027-1.271 6.761-0.269l23.407 13.513c0.811 0.468 1.258 1.129 1.258 1.861 0 0.863-0.629 1.721-1.724 2.353l-22.474 12.974c-1.086 0.628-2.482 0.949-3.808 0.949zm0.388-31.8c-1.228 0-2.526 0.3-3.539 0.884l-22.472 12.974c-0.925 0.535-1.455 1.223-1.455 1.889 0 0.531 0.35 1.026 0.988 1.395l23.406 13.513c1.587 0.916 4.381 0.795 6.225-0.269l22.472-12.974c0.925-0.534 1.454-1.223 1.454-1.888 0.0010014-0.532-0.351-1.027-0.989-1.396l-23.405-13.513c-0.716-0.413-1.677-0.615-2.685-0.615z" fill="#70189e"/>
</g>
<g transform="translate(18.99 21.398)" opacity="1">
<path d="m15.367 20.447-31.438-18.15c-2.235-1.291-1.955-3.545 0.626-5.036l30.185-17.426c1.225-0.708 2.749-1.113 4.25-1.207-1.916-0.138-4.047 0.275-5.661 1.207l-30.184 17.426c-2.581 1.491-2.862 3.745-0.627 5.036l31.439 18.15c1.174 0.678 2.808 0.951 4.47 0.846-1.15-0.081999-2.222-0.362-3.06-0.846z" fill="#e430a1"/>
</g>
</g>
<g transform="translate(122.55 247.78)" display="block" opacity=".5">
<g transform="translate(36.994 31.615)" opacity="1">
<path d="m36.994-10.257h-15.591l-17.356-10.02c-2.236-1.291-6.14-1.128-8.721 0.362 0 0-16.73 9.658-16.73 9.658h-15.583v10.467h0.0039978c-0.063 0.874 0.424 1.717 1.498 2.337l31.438 18.15c2.235 1.291 6.14 1.129 8.721-0.361l30.185-17.427c1.341-0.774 2.054-1.755 2.123-2.699h0.012001v-10.467z" fill="url(#a)"/>
</g>
<g transform="translate(36.994 22.156)" opacity="1">
<path d="m-35.998 10.391h-0.0049973v-10.468h15.583s16.73-9.658 16.73-9.658c2.581-1.49 6.485-1.652 8.721-0.362l17.356 10.02h14.607v-0.721h-15.591l-17.356-10.02c-2.235-1.291-6.14-1.129-8.721 0.361 0 0-16.73 9.659-16.73 9.659h-15.583v10.467h0.0050011c-0.064003 0.874 0.423 1.717 1.497 2.337l0.177 0.103c-0.504-0.515-0.734-1.109-0.69-1.718z" fill="#e430a1"/>
</g>
<g transform="translate(36.994 21.568)" opacity="1">
<path d="m-4.046 20.277-31.438-18.15c-2.236-1.291-1.956-3.545 0.625-5.036l30.185-17.426c2.581-1.491 6.485-1.653 8.72-0.362l31.438 18.151c2.236 1.291 1.956 3.545-0.625 5.035l-30.185 17.427c-2.581 1.49-6.485 1.652-8.72 0.361z" fill="url(#b)"/>
</g>
<g transform="translate(55.052 21.405)" opacity="1">
<path d="m17.426-2.383-31.438-18.15c-1.158-0.669-2.763-0.945-4.401-0.851 1.191 0.071001 2.306 0.352 3.171 0.851l31.438 18.15c2.235 1.291 1.955 3.545-0.626 5.035l-30.185 17.427c-1.244 0.719-2.795 1.125-4.32 1.212 1.888 0.114 3.967-0.298 5.55-1.212l30.185-17.427c2.581-1.49 2.861-3.744 0.626-5.035z" fill="#87ebfc"/>
</g>
<g transform="translate(36.994 21.197)" opacity="1">
<path d="m-0.193 16.326c-1.107 0-2.165-0.224-2.955-0.68l-23.405-13.513c-0.811-0.467-1.258-1.128-1.258-1.86 0-0.863 0.628-1.722 1.724-2.353l22.472-12.975c1.994-1.15 5.027-1.271 6.761-0.269l23.407 13.513c0.811 0.468 1.258 1.129 1.258 1.861 0 0.863-0.629 1.721-1.724 2.353l-22.474 12.975c-1.086 0.627-2.48 0.948-3.806 0.948zm0.386-31.8c-1.228 0-2.526 0.3-3.539 0.884l-22.472 12.974c-0.925 0.535-1.455 1.223-1.455 1.889 0 0.531 0.35 1.027 0.988 1.396l23.406 13.512c1.587 0.916 4.38 0.795 6.225-0.268l22.472-12.975c0.925-0.534 1.454-1.223 1.454-1.888 0.0010014-0.532-0.351-1.027-0.989-1.396l-23.405-13.513c-0.716-0.413-1.677-0.615-2.685-0.615z" fill="#70189e"/>
</g>
<g transform="translate(18.99 21.398)" opacity="1">
<path d="m15.367 20.447-31.438-18.15c-2.235-1.291-1.955-3.545 0.626-5.036l30.185-17.426c1.225-0.708 2.749-1.113 4.25-1.207-1.916-0.137-4.047 0.275-5.661 1.207l-30.184 17.426c-2.581 1.491-2.862 3.745-0.627 5.036l31.439 18.15c1.174 0.678 2.808 0.951 4.47 0.846-1.15-0.081999-2.222-0.362-3.06-0.846z" fill="#e430a1"/>
</g>
</g>
<g transform="translate(121.58 232.7)" display="block">
<g transform="translate(37.944 32.495)">
<path d="m37.02-10.466h-15.591l-17.356-10.021c-2.236-1.291-6.14-1.128-8.721 0.362l-16.73 9.659h-15.583v10.467h0.0039978c-0.063 0.873 0.424 1.716 1.498 2.336l31.438 18.15c2.235 1.291 6.14 1.129 8.721-0.361l30.185-17.427c1.341-0.774 2.054-1.754 2.123-2.698h0.012001v-10.467z" fill="url(#a)"/>
</g>
<g transform="translate(37.944 22.826)">
<path d="m-35.972 10.391h-0.0050011v-10.467h15.583l16.73-9.659c2.581-1.49 6.485-1.652 8.721-0.361l17.356 10.02h14.607v-0.722h-15.591l-17.356-10.02c-2.235-1.291-6.14-1.129-8.721 0.361l-16.73 9.659h-15.583v10.468h0.0049973c-0.063999 0.873 0.423 1.716 1.497 2.336l0.177 0.103c-0.504-0.515-0.734-1.108-0.69-1.718z" fill="#e430a1"/>
</g>
<g transform="translate(37.97 22.028)">
<path d="m-4.046 20.488-31.438-18.151c-2.236-1.29-1.956-3.545 0.625-5.036l30.185-17.426c2.581-1.491 6.485-1.653 8.72-0.362l31.438 18.151c2.236 1.291 1.956 3.545-0.625 5.035l-30.185 17.427c-2.581 1.49-6.485 1.652-8.72 0.362z" fill="url(#d)"/>
</g>
<g transform="translate(56.392 22.038)">
<path d="m17.063-2.347-31.438-18.15c-1.158-0.669-2.763-0.945-4.401-0.851 1.191 0.072001 2.306 0.352 3.171 0.851l31.438 18.15c2.235 1.291 1.955 3.545-0.626 5.035l-30.185 17.427c-1.244 0.719-2.795 1.125-4.32 1.212 1.888 0.114 3.967-0.298 5.55-1.212l30.185-17.427c2.581-1.49 2.861-3.744 0.626-5.035z" fill="#87ebfc"/>
</g>
<g transform="translate(37.97 21.866)">
<path d="m-0.193 16.327c-1.107 0-2.164-0.224-2.953-0.68l-23.407-13.513c-0.811-0.467-1.258-1.128-1.258-1.86 0-0.862 0.629-1.721 1.724-2.353l22.473-12.974c1.993-1.151 5.025-1.274 6.761-0.271l23.405 13.515c0.811 0.468 1.259 1.128 1.259 1.859 0 0.864-0.628 1.722-1.724 2.354l-22.472 12.975c-1.086 0.627-2.483 0.948-3.808 0.948zm0.388-31.801c-1.228 0-2.527 0.3-3.541 0.885l-22.472 12.973c-0.925 0.536-1.455 1.225-1.455 1.89 0 0.531 0.351 1.027 0.988 1.396l23.406 13.512c1.587 0.916 4.38 0.795 6.224-0.268l22.473-12.975c0.924-0.534 1.455-1.223 1.455-1.889 0-0.531-0.35-1.026-0.988-1.394l-23.407-13.515c-0.715-0.413-1.675-0.615-2.683-0.615z" fill="url(#c)"/>
</g>
<g transform="translate(19.604 22.012)">
<path d="m15.731 20.503-31.439-18.15c-2.235-1.29-1.954-3.546 0.627-5.037l30.185-17.425c1.225-0.707 2.749-1.112 4.25-1.207-1.916-0.137-4.047 0.275-5.661 1.207l-30.185 17.425c-2.581 1.491-2.861 3.747-0.626 5.037l31.439 18.15c1.174 0.678 2.808 0.95 4.47 0.845-1.15-0.081999-2.222-0.362-3.06-0.845z" fill="#47cbef"/>
</g>
<g transform="translate(56.838 39.436)">
<path d="m-13.297 8.907 26.594-15.382c0.243-0.14 0.44-0.517 0.44-0.842v-1.257c0-0.326-0.197-0.474-0.44-0.333l-26.594 15.381c-0.243 0.141-0.44 0.517-0.44 0.842v1.258c0 0.324 0.197 0.474 0.44 0.333z" fill="#87e5f7"/>
</g>
<g transform="translate(56.838 39.436)">
<path d="m12.715-6.808c0.244-0.14 0.441-0.516 0.441-0.84v-1.179l0.142-0.081c0.243-0.14 0.44 0.0080004 0.44 0.333v1.259c0 0.324-0.197 0.7-0.44 0.841l-26.594 15.383c-0.243 0.14-0.442-0.01-0.442-0.334v-0.081l26.453-15.301z" fill="#5b95e9"/>
</g>
</g>
<g transform="translate(216.05 275.72)" display="block" opacity=".5">
<g transform="translate(36.994 31.616)" opacity="1">
<path d="m36.994-10.257h-15.591l-17.356-10.021c-2.236-1.29-6.14-1.128-8.721 0.362l-16.73 9.659h-15.583v10.467h0.0039978c-0.063 0.873 0.424 1.716 1.498 2.336l31.438 18.151c2.235 1.29 6.14 1.129 8.721-0.361l30.185-17.428c1.341-0.773 2.054-1.754 2.123-2.698h0.012001v-10.467z" fill="url(#a)"/>
</g>
<g transform="translate(36.994 22.156)" opacity="1">
<path d="m-35.998 10.391h-0.0049973v-10.467h15.583l16.73-9.659c2.581-1.49 6.485-1.652 8.721-0.361l17.356 10.02h14.607v-0.721h-15.591l-17.356-10.021c-2.235-1.29-6.14-1.129-8.721 0.361l-16.73 9.66h-15.583v10.466h0.0050011c-0.064003 0.873 0.423 1.716 1.497 2.336l0.177 0.103c-0.504-0.515-0.734-1.108-0.69-1.717z" fill="#e430a1"/>
</g>
<g transform="translate(36.994 21.568)" opacity="1">
<path d="m-4.046 20.278-31.438-18.15c-2.236-1.291-1.956-3.545 0.625-5.036l30.185-17.427c2.581-1.491 6.485-1.652 8.72-0.362l31.438 18.152c2.236 1.29 1.956 3.544-0.625 5.034l-30.185 17.428c-2.581 1.49-6.485 1.651-8.72 0.361z" fill="url(#b)"/>
</g>
<g transform="translate(55.052 21.405)" opacity="1">
<path d="m17.426-2.382-31.438-18.151c-1.158-0.668-2.763-0.944-4.401-0.851 1.191 0.072001 2.306 0.352 3.171 0.851l31.438 18.151c2.235 1.29 1.955 3.544-0.626 5.034l-30.185 17.428c-1.244 0.718-2.795 1.124-4.32 1.212 1.888 0.113 3.967-0.299 5.55-1.212l30.185-17.428c2.581-1.49 2.861-3.744 0.626-5.034z" fill="#87ebfc"/>
</g>
<g transform="translate(36.993 21.197)" opacity="1">
<path d="m-0.195 16.327c-1.106 0-2.162-0.224-2.951-0.68l-23.407-13.514c-0.811-0.467-1.258-1.128-1.258-1.86 0-0.862 0.629-1.721 1.724-2.352l22.473-12.975c1.993-1.151 5.025-1.273 6.761-0.27l23.405 13.514c0.811 0.468 1.259 1.129 1.259 1.86 0 0.864-0.628 1.721-1.724 2.353l-22.472 12.975c-1.087 0.627-2.484 0.949-3.81 0.949zm0.39-31.801c-1.228 0-2.527 0.3-3.541 0.885l-22.472 12.974c-0.925 0.535-1.455 1.223-1.455 1.888 0 0.531 0.351 1.027 0.988 1.396l23.406 13.513c1.587 0.916 4.38 0.795 6.224-0.269l22.473-12.975c0.924-0.534 1.455-1.222 1.455-1.888 0-0.531-0.35-1.026-0.988-1.395l-23.407-13.514c-0.715-0.413-1.675-0.615-2.683-0.615z" fill="#70189e"/>
</g>
<g transform="translate(18.99 21.398)" opacity="1">
<path d="m15.367 20.447-31.438-18.15c-2.235-1.291-1.955-3.545 0.626-5.036l30.185-17.427c1.225-0.707 2.749-1.112 4.25-1.207-1.916-0.137-4.047 0.275-5.661 1.207l-30.184 17.427c-2.581 1.491-2.862 3.745-0.627 5.036l31.439 18.15c1.174 0.678 2.808 0.951 4.47 0.846-1.15-0.081999-2.222-0.363-3.06-0.846z" fill="#e430a1"/>
</g>
</g>
<g transform="translate(216.05 261.3)" display="block" opacity=".5">
<g transform="translate(36.994 31.616)" opacity="1">
<path d="m36.994-10.257h-15.591l-17.356-10.021c-2.236-1.29-6.14-1.127-8.721 0.363 0 0-16.73 9.658-16.73 9.658h-15.583v10.467h0.0039978c-0.063 0.874 0.424 1.717 1.498 2.337l31.438 18.15c2.235 1.291 6.14 1.129 8.721-0.361l30.185-17.428c1.341-0.773 2.054-1.754 2.123-2.698h0.012001v-10.467z" fill="url(#a)"/>
</g>
<g transform="translate(36.994 22.156)" opacity="1">
<path d="m-35.998 10.391h-0.0049973v-10.467h15.583l16.73-9.659c2.581-1.49 6.485-1.651 8.721-0.361l17.356 10.02h14.607v-0.721h-15.591l-17.356-10.021c-2.235-1.29-6.14-1.128-8.721 0.362 0 0-16.73 9.659-16.73 9.659h-15.583v10.466h0.0050011c-0.064003 0.874 0.423 1.717 1.497 2.337l0.177 0.102c-0.504-0.515-0.734-1.108-0.69-1.717z" fill="#e430a1"/>
</g>
<g transform="translate(36.994 21.568)" opacity="1">
<path d="m-4.046 20.277-31.438-18.15c-2.236-1.291-1.956-3.545 0.625-5.036l30.185-17.426c2.581-1.491 6.485-1.653 8.72-0.363l31.438 18.152c2.236 1.29 1.956 3.545-0.625 5.035l-30.185 17.427c-2.581 1.49-6.485 1.652-8.72 0.361z" fill="url(#b)"/>
</g>
<g transform="translate(55.052 21.405)" opacity="1">
<path d="m17.426-2.382-31.438-18.151c-1.158-0.668-2.763-0.944-4.401-0.85 1.191 0.070999 2.306 0.351 3.171 0.85l31.438 18.151c2.235 1.29 1.955 3.545-0.626 5.035l-30.185 17.427c-1.244 0.719-2.795 1.125-4.32 1.212 1.888 0.113 3.967-0.298 5.55-1.212l30.185-17.427c2.581-1.49 2.861-3.745 0.626-5.035z" fill="#87ebfc"/>
</g>
<g transform="translate(36.994 21.198)" opacity="1">
<path d="m-0.195 16.326c-1.106 0-2.164-0.224-2.953-0.68l-23.405-13.514c-0.811-0.467-1.258-1.127-1.258-1.859 0-0.863 0.628-1.721 1.724-2.353l22.472-12.975c1.994-1.15 5.027-1.271 6.761-0.269l23.407 13.513c0.811 0.468 1.258 1.129 1.258 1.861 0 0.863-0.629 1.721-1.724 2.353l-22.474 12.974c-1.086 0.628-2.482 0.949-3.808 0.949zm0.388-31.8c-1.228 0-2.526 0.3-3.539 0.884l-22.472 12.974c-0.925 0.535-1.455 1.223-1.455 1.889 0 0.531 0.35 1.026 0.988 1.395l23.406 13.513c1.587 0.916 4.381 0.795 6.225-0.269l22.472-12.974c0.925-0.534 1.454-1.223 1.454-1.888 0.0010014-0.532-0.351-1.027-0.989-1.396l-23.405-13.513c-0.716-0.413-1.677-0.615-2.685-0.615z" fill="#70189e"/>
</g>
<g transform="translate(18.99 21.398)" opacity="1">
<path d="m15.367 20.447-31.438-18.15c-2.235-1.291-1.955-3.545 0.626-5.036l30.185-17.426c1.225-0.708 2.749-1.113 4.25-1.207-1.916-0.138-4.047 0.275-5.661 1.207l-30.184 17.426c-2.581 1.491-2.862 3.745-0.627 5.036l31.439 18.15c1.174 0.678 2.808 0.951 4.47 0.846-1.15-0.081999-2.222-0.362-3.06-0.846z" fill="#e430a1"/>
</g>
</g>
<g transform="translate(216.05 246.88)" display="block" opacity=".5">
<g transform="translate(36.994 31.615)" opacity="1">
<path d="m36.994-10.257h-15.591l-17.356-10.02c-2.236-1.291-6.14-1.128-8.721 0.362 0 0-16.73 9.658-16.73 9.658h-15.583v10.467h0.0039978c-0.063 0.874 0.424 1.717 1.498 2.337l31.438 18.15c2.235 1.291 6.14 1.129 8.721-0.361l30.185-17.427c1.341-0.774 2.054-1.755 2.123-2.699h0.012001v-10.467z" fill="url(#a)"/>
</g>
<g transform="translate(36.994 22.156)" opacity="1">
<path d="m-35.998 10.391h-0.0049973v-10.468h15.583s16.73-9.658 16.73-9.658c2.581-1.49 6.485-1.652 8.721-0.362l17.356 10.02h14.607v-0.721h-15.591l-17.356-10.02c-2.235-1.291-6.14-1.129-8.721 0.361 0 0-16.73 9.659-16.73 9.659h-15.583v10.467h0.0050011c-0.064003 0.874 0.423 1.717 1.497 2.337l0.177 0.103c-0.504-0.515-0.734-1.109-0.69-1.718z" fill="#e430a1"/>
</g>
<g transform="translate(36.994 21.568)" opacity="1">
<path d="m-4.046 20.277-31.438-18.15c-2.236-1.291-1.956-3.545 0.625-5.036l30.185-17.426c2.581-1.491 6.485-1.653 8.72-0.362l31.438 18.151c2.236 1.291 1.956 3.545-0.625 5.035l-30.185 17.427c-2.581 1.49-6.485 1.652-8.72 0.361z" fill="url(#b)"/>
</g>
<g transform="translate(55.052 21.405)" opacity="1">
<path d="m17.426-2.383-31.438-18.15c-1.158-0.669-2.763-0.945-4.401-0.851 1.191 0.071001 2.306 0.352 3.171 0.851l31.438 18.15c2.235 1.291 1.955 3.545-0.626 5.035l-30.185 17.427c-1.244 0.719-2.795 1.125-4.32 1.212 1.888 0.114 3.967-0.298 5.55-1.212l30.185-17.427c2.581-1.49 2.861-3.744 0.626-5.035z" fill="#87ebfc"/>
</g>
<g transform="translate(36.994 21.197)" opacity="1">
<path d="m-0.193 16.326c-1.107 0-2.165-0.224-2.955-0.68l-23.405-13.513c-0.811-0.467-1.258-1.128-1.258-1.86 0-0.863 0.628-1.722 1.724-2.353l22.472-12.975c1.994-1.15 5.027-1.271 6.761-0.269l23.407 13.513c0.811 0.468 1.258 1.129 1.258 1.861 0 0.863-0.629 1.721-1.724 2.353l-22.474 12.975c-1.086 0.627-2.48 0.948-3.806 0.948zm0.386-31.8c-1.228 0-2.526 0.3-3.539 0.884l-22.472 12.974c-0.925 0.535-1.455 1.223-1.455 1.889 0 0.531 0.35 1.027 0.988 1.396l23.406 13.512c1.587 0.916 4.38 0.795 6.225-0.268l22.472-12.975c0.925-0.534 1.454-1.223 1.454-1.888 0.0010014-0.532-0.351-1.027-0.989-1.396l-23.405-13.513c-0.716-0.413-1.677-0.615-2.685-0.615z" fill="#70189e"/>
</g>
<g transform="translate(18.99 21.398)" opacity="1">
<path d="m15.367 20.447-31.438-18.15c-2.235-1.291-1.955-3.545 0.626-5.036l30.185-17.426c1.225-0.708 2.749-1.113 4.25-1.207-1.916-0.137-4.047 0.275-5.661 1.207l-30.184 17.426c-2.581 1.491-2.862 3.745-0.627 5.036l31.439 18.15c1.174 0.678 2.808 0.951 4.47 0.846-1.15-0.081999-2.222-0.362-3.06-0.846z" fill="#e430a1"/>
</g>
</g>
<g transform="translate(215.08 231.79)" display="block">
<g transform="translate(37.944 32.495)">
<path d="m37.02-10.466h-15.591l-17.356-10.021c-2.236-1.291-6.14-1.128-8.721 0.362l-16.73 9.659h-15.583v10.467h0.0039978c-0.063 0.873 0.424 1.716 1.498 2.336l31.438 18.15c2.235 1.291 6.14 1.129 8.721-0.361l30.185-17.427c1.341-0.774 2.054-1.754 2.123-2.698h0.012001v-10.467z" fill="url(#a)"/>
</g>
<g transform="translate(37.944 22.826)">
<path d="m-35.972 10.391h-0.0050011v-10.467h15.583l16.73-9.659c2.581-1.49 6.485-1.652 8.721-0.361l17.356 10.02h14.607v-0.722h-15.591l-17.356-10.02c-2.235-1.291-6.14-1.129-8.721 0.361l-16.73 9.659h-15.583v10.468h0.0049973c-0.063999 0.873 0.423 1.716 1.497 2.336l0.177 0.103c-0.504-0.515-0.734-1.108-0.69-1.718z" fill="#e430a1"/>
</g>
<g transform="translate(37.97 22.028)">
<path d="m-4.046 20.488-31.438-18.151c-2.236-1.29-1.956-3.545 0.625-5.036l30.185-17.426c2.581-1.491 6.485-1.653 8.72-0.362l31.438 18.151c2.236 1.291 1.956 3.545-0.625 5.035l-30.185 17.427c-2.581 1.49-6.485 1.652-8.72 0.362z" fill="url(#d)"/>
</g>
<g transform="translate(56.392 22.038)">
<path d="m17.063-2.347-31.438-18.15c-1.158-0.669-2.763-0.945-4.401-0.851 1.191 0.072001 2.306 0.352 3.171 0.851l31.438 18.15c2.235 1.291 1.955 3.545-0.626 5.035l-30.185 17.427c-1.244 0.719-2.795 1.125-4.32 1.212 1.888 0.114 3.967-0.298 5.55-1.212l30.185-17.427c2.581-1.49 2.861-3.744 0.626-5.035z" fill="#87ebfc"/>
</g>
<g transform="translate(37.97 21.866)">
<path d="m-0.193 16.327c-1.107 0-2.164-0.224-2.953-0.68l-23.407-13.513c-0.811-0.467-1.258-1.128-1.258-1.86 0-0.862 0.629-1.721 1.724-2.353l22.473-12.974c1.993-1.151 5.025-1.274 6.761-0.271l23.405 13.515c0.811 0.468 1.259 1.128 1.259 1.859 0 0.864-0.628 1.722-1.724 2.354l-22.472 12.975c-1.086 0.627-2.483 0.948-3.808 0.948zm0.388-31.801c-1.228 0-2.527 0.3-3.541 0.885l-22.472 12.973c-0.925 0.536-1.455 1.225-1.455 1.89 0 0.531 0.351 1.027 0.988 1.396l23.406 13.512c1.587 0.916 4.38 0.795 6.224-0.268l22.473-12.975c0.924-0.534 1.455-1.223 1.455-1.889 0-0.531-0.35-1.026-0.988-1.394l-23.407-13.515c-0.715-0.413-1.675-0.615-2.683-0.615z" fill="url(#c)"/>
</g>
<g transform="translate(19.604 22.012)">
<path d="m15.731 20.503-31.439-18.15c-2.235-1.29-1.954-3.546 0.627-5.037l30.185-17.425c1.225-0.707 2.749-1.112 4.25-1.207-1.916-0.137-4.047 0.275-5.661 1.207l-30.185 17.425c-2.581 1.491-2.861 3.747-0.626 5.037l31.439 18.15c1.174 0.678 2.808 0.95 4.47 0.845-1.15-0.081999-2.222-0.362-3.06-0.845z" fill="#47cbef"/>
</g>
<g transform="translate(56.838 39.436)">
<path d="m-13.297 8.907 26.594-15.382c0.243-0.14 0.44-0.517 0.44-0.842v-1.257c0-0.326-0.197-0.474-0.44-0.333l-26.594 15.381c-0.243 0.141-0.44 0.517-0.44 0.842v1.258c0 0.324 0.197 0.474 0.44 0.333z" fill="#87e5f7"/>
</g>
<g transform="translate(56.838 39.436)">
<path d="m12.715-6.808c0.244-0.14 0.441-0.516 0.441-0.84v-1.179l0.142-0.081c0.243-0.14 0.44 0.0080004 0.44 0.333v1.259c0 0.324-0.197 0.7-0.44 0.841l-26.594 15.383c-0.243 0.14-0.442-0.01-0.442-0.334v-0.081l26.453-15.301z" fill="#5b95e9"/>
</g>
</g>
<g transform="translate(309.55 275.82)" display="block" opacity=".5">
<g transform="translate(36.994 31.616)" opacity="1">
<path d="m36.994-10.257h-15.591l-17.356-10.021c-2.236-1.29-6.14-1.128-8.721 0.362l-16.73 9.659h-15.583v10.467h0.0039978c-0.063 0.873 0.424 1.716 1.498 2.336l31.438 18.151c2.235 1.29 6.14 1.129 8.721-0.361l30.185-17.428c1.341-0.773 2.054-1.754 2.123-2.698h0.012001v-10.467z" fill="url(#a)"/>
</g>
<g transform="translate(36.994 22.156)" opacity="1">
<path d="m-35.998 10.391h-0.0049973v-10.467h15.583l16.73-9.659c2.581-1.49 6.485-1.652 8.721-0.361l17.356 10.02h14.607v-0.721h-15.591l-17.356-10.021c-2.235-1.29-6.14-1.129-8.721 0.361l-16.73 9.66h-15.583v10.466h0.0050011c-0.064003 0.873 0.423 1.716 1.497 2.336l0.177 0.103c-0.504-0.515-0.734-1.108-0.69-1.717z" fill="#e430a1"/>
</g>
<g transform="translate(36.994 21.568)" opacity="1">
<path d="m-4.046 20.278-31.438-18.15c-2.236-1.291-1.956-3.545 0.625-5.036l30.185-17.427c2.581-1.491 6.485-1.652 8.72-0.362l31.438 18.152c2.236 1.29 1.956 3.544-0.625 5.034l-30.185 17.428c-2.581 1.49-6.485 1.651-8.72 0.361z" fill="url(#b)"/>
</g>
<g transform="translate(55.052 21.405)" opacity="1">
<path d="m17.426-2.382-31.438-18.151c-1.158-0.668-2.763-0.944-4.401-0.851 1.191 0.072001 2.306 0.352 3.171 0.851l31.438 18.151c2.235 1.29 1.955 3.544-0.626 5.034l-30.185 17.428c-1.244 0.718-2.795 1.124-4.32 1.212 1.888 0.113 3.967-0.299 5.55-1.212l30.185-17.428c2.581-1.49 2.861-3.744 0.626-5.034z" fill="#87ebfc"/>
</g>
<g transform="translate(36.993 21.197)" opacity="1">
<path d="m-0.195 16.327c-1.106 0-2.162-0.224-2.951-0.68l-23.407-13.514c-0.811-0.467-1.258-1.128-1.258-1.86 0-0.862 0.629-1.721 1.724-2.352l22.473-12.975c1.993-1.151 5.025-1.273 6.761-0.27l23.405 13.514c0.811 0.468 1.259 1.129 1.259 1.86 0 0.864-0.628 1.721-1.724 2.353l-22.472 12.975c-1.087 0.627-2.484 0.949-3.81 0.949zm0.39-31.801c-1.228 0-2.527 0.3-3.541 0.885l-22.472 12.974c-0.925 0.535-1.455 1.223-1.455 1.888 0 0.531 0.351 1.027 0.988 1.396l23.406 13.513c1.587 0.916 4.38 0.795 6.224-0.269l22.473-12.975c0.924-0.534 1.455-1.222 1.455-1.888 0-0.531-0.35-1.026-0.988-1.395l-23.407-13.514c-0.715-0.413-1.675-0.615-2.683-0.615z" fill="#70189e"/>
</g>
<g transform="translate(18.99 21.398)" opacity="1">
<path d="m15.367 20.447-31.438-18.15c-2.235-1.291-1.955-3.545 0.626-5.036l30.185-17.427c1.225-0.707 2.749-1.112 4.25-1.207-1.916-0.137-4.047 0.275-5.661 1.207l-30.184 17.427c-2.581 1.491-2.862 3.745-0.627 5.036l31.439 18.15c1.174 0.678 2.808 0.951 4.47 0.846-1.15-0.081999-2.222-0.363-3.06-0.846z" fill="#e430a1"/>
</g>
</g>
<g transform="translate(309.55 261.4)" display="block" opacity=".5">
<g transform="translate(36.994 31.616)" opacity="1">
<path d="m36.994-10.257h-15.591l-17.356-10.021c-2.236-1.29-6.14-1.127-8.721 0.363 0 0-16.73 9.658-16.73 9.658h-15.583v10.467h0.0039978c-0.063 0.874 0.424 1.717 1.498 2.337l31.438 18.15c2.235 1.291 6.14 1.129 8.721-0.361l30.185-17.428c1.341-0.773 2.054-1.754 2.123-2.698h0.012001v-10.467z" fill="url(#a)"/>
</g>
<g transform="translate(36.994 22.156)" opacity="1">
<path d="m-35.998 10.391h-0.0049973v-10.467h15.583l16.73-9.659c2.581-1.49 6.485-1.651 8.721-0.361l17.356 10.02h14.607v-0.721h-15.591l-17.356-10.021c-2.235-1.29-6.14-1.128-8.721 0.362 0 0-16.73 9.659-16.73 9.659h-15.583v10.466h0.0050011c-0.064003 0.874 0.423 1.717 1.497 2.337l0.177 0.102c-0.504-0.515-0.734-1.108-0.69-1.717z" fill="#e430a1"/>
</g>
<g transform="translate(36.994 21.568)" opacity="1">
<path d="m-4.046 20.277-31.438-18.15c-2.236-1.291-1.956-3.545 0.625-5.036l30.185-17.426c2.581-1.491 6.485-1.653 8.72-0.363l31.438 18.152c2.236 1.29 1.956 3.545-0.625 5.035l-30.185 17.427c-2.581 1.49-6.485 1.652-8.72 0.361z" fill="url(#b)"/>
</g>
<g transform="translate(55.052 21.405)" opacity="1">
<path d="m17.426-2.382-31.438-18.151c-1.158-0.668-2.763-0.944-4.401-0.85 1.191 0.070999 2.306 0.351 3.171 0.85l31.438 18.151c2.235 1.29 1.955 3.545-0.626 5.035l-30.185 17.427c-1.244 0.719-2.795 1.125-4.32 1.212 1.888 0.113 3.967-0.298 5.55-1.212l30.185-17.427c2.581-1.49 2.861-3.745 0.626-5.035z" fill="#87ebfc"/>
</g>
<g transform="translate(36.994 21.198)" opacity="1">
<path d="m-0.195 16.326c-1.106 0-2.164-0.224-2.953-0.68l-23.405-13.514c-0.811-0.467-1.258-1.127-1.258-1.859 0-0.863 0.628-1.721 1.724-2.353l22.472-12.975c1.994-1.15 5.027-1.271 6.761-0.269l23.407 13.513c0.811 0.468 1.258 1.129 1.258 1.861 0 0.863-0.629 1.721-1.724 2.353l-22.474 12.974c-1.086 0.628-2.482 0.949-3.808 0.949zm0.388-31.8c-1.228 0-2.526 0.3-3.539 0.884l-22.472 12.974c-0.925 0.535-1.455 1.223-1.455 1.889 0 0.531 0.35 1.026 0.988 1.395l23.406 13.513c1.587 0.916 4.381 0.795 6.225-0.269l22.472-12.974c0.925-0.534 1.454-1.223 1.454-1.888 0.0010014-0.532-0.351-1.027-0.989-1.396l-23.405-13.513c-0.716-0.413-1.677-0.615-2.685-0.615z" fill="#70189e"/>
</g>
<g transform="translate(18.99 21.398)" opacity="1">
<path d="m15.367 20.447-31.438-18.15c-2.235-1.291-1.955-3.545 0.626-5.036l30.185-17.426c1.225-0.708 2.749-1.113 4.25-1.207-1.916-0.138-4.047 0.275-5.661 1.207l-30.184 17.426c-2.581 1.491-2.862 3.745-0.627 5.036l31.439 18.15c1.174 0.678 2.808 0.951 4.47 0.846-1.15-0.081999-2.222-0.362-3.06-0.846z" fill="#e430a1"/>
</g>
</g>
<g transform="translate(309.55 246.98)" display="block" opacity=".5">
<g transform="translate(36.994 31.615)" opacity="1">
<path d="m36.994-10.257h-15.591l-17.356-10.02c-2.236-1.291-6.14-1.128-8.721 0.362 0 0-16.73 9.658-16.73 9.658h-15.583v10.467h0.0039978c-0.063 0.874 0.424 1.717 1.498 2.337l31.438 18.15c2.235 1.291 6.14 1.129 8.721-0.361l30.185-17.427c1.341-0.774 2.054-1.755 2.123-2.699h0.012001v-10.467z" fill="url(#a)"/>
</g>
<g transform="translate(36.994 22.156)" opacity="1">
<path d="m-35.998 10.391h-0.0049973v-10.468h15.583s16.73-9.658 16.73-9.658c2.581-1.49 6.485-1.652 8.721-0.362l17.356 10.02h14.607v-0.721h-15.591l-17.356-10.02c-2.235-1.291-6.14-1.129-8.721 0.361 0 0-16.73 9.659-16.73 9.659h-15.583v10.467h0.0050011c-0.064003 0.874 0.423 1.717 1.497 2.337l0.177 0.103c-0.504-0.515-0.734-1.109-0.69-1.718z" fill="#e430a1"/>
</g>
<g transform="translate(36.994 21.568)" opacity="1">
<path d="m-4.046 20.277-31.438-18.15c-2.236-1.291-1.956-3.545 0.625-5.036l30.185-17.426c2.581-1.491 6.485-1.653 8.72-0.362l31.438 18.151c2.236 1.291 1.956 3.545-0.625 5.035l-30.185 17.427c-2.581 1.49-6.485 1.652-8.72 0.361z" fill="url(#b)"/>
</g>
<g transform="translate(55.052 21.405)" opacity="1">
<path d="m17.426-2.383-31.438-18.15c-1.158-0.669-2.763-0.945-4.401-0.851 1.191 0.071001 2.306 0.352 3.171 0.851l31.438 18.15c2.235 1.291 1.955 3.545-0.626 5.035l-30.185 17.427c-1.244 0.719-2.795 1.125-4.32 1.212 1.888 0.114 3.967-0.298 5.55-1.212l30.185-17.427c2.581-1.49 2.861-3.744 0.626-5.035z" fill="#87ebfc"/>
</g>
<g transform="translate(36.994 21.197)" opacity="1">
<path d="m-0.193 16.326c-1.107 0-2.165-0.224-2.955-0.68l-23.405-13.513c-0.811-0.467-1.258-1.128-1.258-1.86 0-0.863 0.628-1.722 1.724-2.353l22.472-12.975c1.994-1.15 5.027-1.271 6.761-0.269l23.407 13.513c0.811 0.468 1.258 1.129 1.258 1.861 0 0.863-0.629 1.721-1.724 2.353l-22.474 12.975c-1.086 0.627-2.48 0.948-3.806 0.948zm0.386-31.8c-1.228 0-2.526 0.3-3.539 0.884l-22.472 12.974c-0.925 0.535-1.455 1.223-1.455 1.889 0 0.531 0.35 1.027 0.988 1.396l23.406 13.512c1.587 0.916 4.38 0.795 6.225-0.268l22.472-12.975c0.925-0.534 1.454-1.223 1.454-1.888 0.0010014-0.532-0.351-1.027-0.989-1.396l-23.405-13.513c-0.716-0.413-1.677-0.615-2.685-0.615z" fill="#70189e"/>
</g>
<g transform="translate(18.99 21.398)" opacity="1">
<path d="m15.367 20.447-31.438-18.15c-2.235-1.291-1.955-3.545 0.626-5.036l30.185-17.426c1.225-0.708 2.749-1.113 4.25-1.207-1.916-0.137-4.047 0.275-5.661 1.207l-30.184 17.426c-2.581 1.491-2.862 3.745-0.627 5.036l31.439 18.15c1.174 0.678 2.808 0.951 4.47 0.846-1.15-0.081999-2.222-0.362-3.06-0.846z" fill="#e430a1"/>
</g>
</g>
<g transform="translate(308.58 231.9)" display="block">
<g transform="translate(37.944 32.495)">
<path d="m37.02-10.466h-15.591l-17.356-10.021c-2.236-1.291-6.14-1.128-8.721 0.362l-16.73 9.659h-15.583v10.467h0.0039978c-0.063 0.873 0.424 1.716 1.498 2.336l31.438 18.15c2.235 1.291 6.14 1.129 8.721-0.361l30.185-17.427c1.341-0.774 2.054-1.754 2.123-2.698h0.012001v-10.467z" fill="url(#a)"/>
</g>
<g transform="translate(37.944 22.826)">
<path d="m-35.972 10.391h-0.0050011v-10.467h15.583l16.73-9.659c2.581-1.49 6.485-1.652 8.721-0.361l17.356 10.02h14.607v-0.722h-15.591l-17.356-10.02c-2.235-1.291-6.14-1.129-8.721 0.361l-16.73 9.659h-15.583v10.468h0.0049973c-0.063999 0.873 0.423 1.716 1.497 2.336l0.177 0.103c-0.504-0.515-0.734-1.108-0.69-1.718z" fill="#e430a1"/>
</g>
<g transform="translate(37.97 22.028)">
<path d="m-4.046 20.488-31.438-18.151c-2.236-1.29-1.956-3.545 0.625-5.036l30.185-17.426c2.581-1.491 6.485-1.653 8.72-0.362l31.438 18.151c2.236 1.291 1.956 3.545-0.625 5.035l-30.185 17.427c-2.581 1.49-6.485 1.652-8.72 0.362z" fill="url(#d)"/>
</g>
<g transform="translate(56.392 22.038)">
<path d="m17.063-2.347-31.438-18.15c-1.158-0.669-2.763-0.945-4.401-0.851 1.191 0.072001 2.306 0.352 3.171 0.851l31.438 18.15c2.235 1.291 1.955 3.545-0.626 5.035l-30.185 17.427c-1.244 0.719-2.795 1.125-4.32 1.212 1.888 0.114 3.967-0.298 5.55-1.212l30.185-17.427c2.581-1.49 2.861-3.744 0.626-5.035z" fill="#87ebfc"/>
</g>
<g transform="translate(37.97 21.866)">
<path d="m-0.193 16.327c-1.107 0-2.164-0.224-2.953-0.68l-23.407-13.513c-0.811-0.467-1.258-1.128-1.258-1.86 0-0.862 0.629-1.721 1.724-2.353l22.473-12.974c1.993-1.151 5.025-1.274 6.761-0.271l23.405 13.515c0.811 0.468 1.259 1.128 1.259 1.859 0 0.864-0.628 1.722-1.724 2.354l-22.472 12.975c-1.086 0.627-2.483 0.948-3.808 0.948zm0.388-31.801c-1.228 0-2.527 0.3-3.541 0.885l-22.472 12.973c-0.925 0.536-1.455 1.225-1.455 1.89 0 0.531 0.351 1.027 0.988 1.396l23.406 13.512c1.587 0.916 4.38 0.795 6.224-0.268l22.473-12.975c0.924-0.534 1.455-1.223 1.455-1.889 0-0.531-0.35-1.026-0.988-1.394l-23.407-13.515c-0.715-0.413-1.675-0.615-2.683-0.615z" fill="url(#c)"/>
</g>
<g transform="translate(19.604 22.012)">
<path d="m15.731 20.503-31.439-18.15c-2.235-1.29-1.954-3.546 0.627-5.037l30.185-17.425c1.225-0.707 2.749-1.112 4.25-1.207-1.916-0.137-4.047 0.275-5.661 1.207l-30.185 17.425c-2.581 1.491-2.861 3.747-0.626 5.037l31.439 18.15c1.174 0.678 2.808 0.95 4.47 0.845-1.15-0.081999-2.222-0.362-3.06-0.845z" fill="#47cbef"/>
</g>
<g transform="translate(56.838 39.436)">
<path d="m-13.297 8.907 26.594-15.382c0.243-0.14 0.44-0.517 0.44-0.842v-1.257c0-0.326-0.197-0.474-0.44-0.333l-26.594 15.381c-0.243 0.141-0.44 0.517-0.44 0.842v1.258c0 0.324 0.197 0.474 0.44 0.333z" fill="#87e5f7"/>
</g>
<g transform="translate(56.838 39.436)">
<path d="m12.715-6.808c0.244-0.14 0.441-0.516 0.441-0.84v-1.179l0.142-0.081c0.243-0.14 0.44 0.0080004 0.44 0.333v1.259c0 0.324-0.197 0.7-0.44 0.841l-26.594 15.383c-0.243 0.14-0.442-0.01-0.442-0.334v-0.081l26.453-15.301z" fill="#5b95e9"/>
</g>
</g>
<g transform="translate(403.05 275.72)" display="block" opacity=".5">
<g transform="translate(36.994 31.616)" opacity="1">
<path d="m36.994-10.257h-15.591l-17.356-10.021c-2.236-1.29-6.14-1.128-8.721 0.362l-16.73 9.659h-15.583v10.467h0.0039978c-0.063 0.873 0.424 1.716 1.498 2.336l31.438 18.151c2.235 1.29 6.14 1.129 8.721-0.361l30.185-17.428c1.341-0.773 2.054-1.754 2.123-2.698h0.012001v-10.467z" fill="url(#a)"/>
</g>
<g transform="translate(36.994 22.156)" opacity="1">
<path d="m-35.998 10.391h-0.0049973v-10.467h15.583l16.73-9.659c2.581-1.49 6.485-1.652 8.721-0.361l17.356 10.02h14.607v-0.721h-15.591l-17.356-10.021c-2.235-1.29-6.14-1.129-8.721 0.361l-16.73 9.66h-15.583v10.466h0.0050011c-0.064003 0.873 0.423 1.716 1.497 2.336l0.177 0.103c-0.504-0.515-0.734-1.108-0.69-1.717z" fill="#e430a1"/>
</g>
<g transform="translate(36.994 21.568)" opacity="1">
<path d="m-4.046 20.278-31.438-18.15c-2.236-1.291-1.956-3.545 0.625-5.036l30.185-17.427c2.581-1.491 6.485-1.652 8.72-0.362l31.438 18.152c2.236 1.29 1.956 3.544-0.625 5.034l-30.185 17.428c-2.581 1.49-6.485 1.651-8.72 0.361z" fill="url(#b)"/>
</g>
<g transform="translate(55.052 21.405)" opacity="1">
<path d="m17.426-2.382-31.438-18.151c-1.158-0.668-2.763-0.944-4.401-0.851 1.191 0.072001 2.306 0.352 3.171 0.851l31.438 18.151c2.235 1.29 1.955 3.544-0.626 5.034l-30.185 17.428c-1.244 0.718-2.795 1.124-4.32 1.212 1.888 0.113 3.967-0.299 5.55-1.212l30.185-17.428c2.581-1.49 2.861-3.744 0.626-5.034z" fill="#87ebfc"/>
</g>
<g transform="translate(36.993 21.197)" opacity="1">
<path d="m-0.195 16.327c-1.106 0-2.162-0.224-2.951-0.68l-23.407-13.514c-0.811-0.467-1.258-1.128-1.258-1.86 0-0.862 0.629-1.721 1.724-2.352l22.473-12.975c1.993-1.151 5.025-1.273 6.761-0.27l23.405 13.514c0.811 0.468 1.259 1.129 1.259 1.86 0 0.864-0.628 1.721-1.724 2.353l-22.472 12.975c-1.087 0.627-2.484 0.949-3.81 0.949zm0.39-31.801c-1.228 0-2.527 0.3-3.541 0.885l-22.472 12.974c-0.925 0.535-1.455 1.223-1.455 1.888 0 0.531 0.351 1.027 0.988 1.396l23.406 13.513c1.587 0.916 4.38 0.795 6.224-0.269l22.473-12.975c0.924-0.534 1.455-1.222 1.455-1.888 0-0.531-0.35-1.026-0.988-1.395l-23.407-13.514c-0.715-0.413-1.675-0.615-2.683-0.615z" fill="#70189e"/>
</g>
<g transform="translate(18.99 21.398)" opacity="1">
<path d="m15.367 20.447-31.438-18.15c-2.235-1.291-1.955-3.545 0.626-5.036l30.185-17.427c1.225-0.707 2.749-1.112 4.25-1.207-1.916-0.137-4.047 0.275-5.661 1.207l-30.184 17.427c-2.581 1.491-2.862 3.745-0.627 5.036l31.439 18.15c1.174 0.678 2.808 0.951 4.47 0.846-1.15-0.081999-2.222-0.363-3.06-0.846z" fill="#e430a1"/>
</g>
</g>
<g transform="translate(403.05 261.31)" display="block" opacity=".5">
<g transform="translate(36.994 31.616)" opacity="1">
<path d="m36.994-10.257h-15.591l-17.356-10.021c-2.236-1.29-6.14-1.127-8.721 0.363 0 0-16.73 9.658-16.73 9.658h-15.583v10.467h0.0039978c-0.063 0.874 0.424 1.717 1.498 2.337l31.438 18.15c2.235 1.291 6.14 1.129 8.721-0.361l30.185-17.428c1.341-0.773 2.054-1.754 2.123-2.698h0.012001v-10.467z" fill="url(#a)"/>
</g>
<g transform="translate(36.994 22.156)" opacity="1">
<path d="m-35.998 10.391h-0.0049973v-10.467h15.583l16.73-9.659c2.581-1.49 6.485-1.651 8.721-0.361l17.356 10.02h14.607v-0.721h-15.591l-17.356-10.021c-2.235-1.29-6.14-1.128-8.721 0.362 0 0-16.73 9.659-16.73 9.659h-15.583v10.466h0.0050011c-0.064003 0.874 0.423 1.717 1.497 2.337l0.177 0.102c-0.504-0.515-0.734-1.108-0.69-1.717z" fill="#e430a1"/>
</g>
<g transform="translate(36.994 21.568)" opacity="1">
<path d="m-4.046 20.277-31.438-18.15c-2.236-1.291-1.956-3.545 0.625-5.036l30.185-17.426c2.581-1.491 6.485-1.653 8.72-0.363l31.438 18.152c2.236 1.29 1.956 3.545-0.625 5.035l-30.185 17.427c-2.581 1.49-6.485 1.652-8.72 0.361z" fill="url(#b)"/>
</g>
<g transform="translate(55.052 21.405)" opacity="1">
<path d="m17.426-2.382-31.438-18.151c-1.158-0.668-2.763-0.944-4.401-0.85 1.191 0.070999 2.306 0.351 3.171 0.85l31.438 18.151c2.235 1.29 1.955 3.545-0.626 5.035l-30.185 17.427c-1.244 0.719-2.795 1.125-4.32 1.212 1.888 0.113 3.967-0.298 5.55-1.212l30.185-17.427c2.581-1.49 2.861-3.745 0.626-5.035z" fill="#87ebfc"/>
</g>
<g transform="translate(36.994 21.198)" opacity="1">
<path d="m-0.195 16.326c-1.106 0-2.164-0.224-2.953-0.68l-23.405-13.514c-0.811-0.467-1.258-1.127-1.258-1.859 0-0.863 0.628-1.721 1.724-2.353l22.472-12.975c1.994-1.15 5.027-1.271 6.761-0.269l23.407 13.513c0.811 0.468 1.258 1.129 1.258 1.861 0 0.863-0.629 1.721-1.724 2.353l-22.474 12.974c-1.086 0.628-2.482 0.949-3.808 0.949zm0.388-31.8c-1.228 0-2.526 0.3-3.539 0.884l-22.472 12.974c-0.925 0.535-1.455 1.223-1.455 1.889 0 0.531 0.35 1.026 0.988 1.395l23.406 13.513c1.587 0.916 4.381 0.795 6.225-0.269l22.472-12.974c0.925-0.534 1.454-1.223 1.454-1.888 0.0010014-0.532-0.351-1.027-0.989-1.396l-23.405-13.513c-0.716-0.413-1.677-0.615-2.685-0.615z" fill="#70189e"/>
</g>
<g transform="translate(18.99 21.398)" opacity="1">
<path d="m15.367 20.447-31.438-18.15c-2.235-1.291-1.955-3.545 0.626-5.036l30.185-17.426c1.225-0.708 2.749-1.113 4.25-1.207-1.916-0.138-4.047 0.275-5.661 1.207l-30.184 17.426c-2.581 1.491-2.862 3.745-0.627 5.036l31.439 18.15c1.174 0.678 2.808 0.951 4.47 0.846-1.15-0.081999-2.222-0.362-3.06-0.846z" fill="#e430a1"/>
</g>
</g>
<g transform="translate(403.05 246.89)" display="block" opacity=".5">
<g transform="translate(36.994 31.615)" opacity="1">
<path d="m36.994-10.257h-15.591l-17.356-10.02c-2.236-1.291-6.14-1.128-8.721 0.362 0 0-16.73 9.658-16.73 9.658h-15.583v10.467h0.0039978c-0.063 0.874 0.424 1.717 1.498 2.337l31.438 18.15c2.235 1.291 6.14 1.129 8.721-0.361l30.185-17.427c1.341-0.774 2.054-1.755 2.123-2.699h0.012001v-10.467z" fill="url(#a)"/>
</g>
<g transform="translate(36.994 22.156)" opacity="1">
<path d="m-35.998 10.391h-0.0049973v-10.468h15.583s16.73-9.658 16.73-9.658c2.581-1.49 6.485-1.652 8.721-0.362l17.356 10.02h14.607v-0.721h-15.591l-17.356-10.02c-2.235-1.291-6.14-1.129-8.721 0.361 0 0-16.73 9.659-16.73 9.659h-15.583v10.467h0.0050011c-0.064003 0.874 0.423 1.717 1.497 2.337l0.177 0.103c-0.504-0.515-0.734-1.109-0.69-1.718z" fill="#e430a1"/>
</g>
<g transform="translate(36.994 21.568)" opacity="1">
<path d="m-4.046 20.277-31.438-18.15c-2.236-1.291-1.956-3.545 0.625-5.036l30.185-17.426c2.581-1.491 6.485-1.653 8.72-0.362l31.438 18.151c2.236 1.291 1.956 3.545-0.625 5.035l-30.185 17.427c-2.581 1.49-6.485 1.652-8.72 0.361z" fill="url(#b)"/>
</g>
<g transform="translate(55.052 21.405)" opacity="1">
<path d="m17.426-2.383-31.438-18.15c-1.158-0.669-2.763-0.945-4.401-0.851 1.191 0.071001 2.306 0.352 3.171 0.851l31.438 18.15c2.235 1.291 1.955 3.545-0.626 5.035l-30.185 17.427c-1.244 0.719-2.795 1.125-4.32 1.212 1.888 0.114 3.967-0.298 5.55-1.212l30.185-17.427c2.581-1.49 2.861-3.744 0.626-5.035z" fill="#87ebfc"/>
</g>
<g transform="translate(36.994 21.197)" opacity="1">
<path d="m-0.193 16.326c-1.107 0-2.165-0.224-2.955-0.68l-23.405-13.513c-0.811-0.467-1.258-1.128-1.258-1.86 0-0.863 0.628-1.722 1.724-2.353l22.472-12.975c1.994-1.15 5.027-1.271 6.761-0.269l23.407 13.513c0.811 0.468 1.258 1.129 1.258 1.861 0 0.863-0.629 1.721-1.724 2.353l-22.474 12.975c-1.086 0.627-2.48 0.948-3.806 0.948zm0.386-31.8c-1.228 0-2.526 0.3-3.539 0.884l-22.472 12.974c-0.925 0.535-1.455 1.223-1.455 1.889 0 0.531 0.35 1.027 0.988 1.396l23.406 13.512c1.587 0.916 4.38 0.795 6.225-0.268l22.472-12.975c0.925-0.534 1.454-1.223 1.454-1.888 0.0010014-0.532-0.351-1.027-0.989-1.396l-23.405-13.513c-0.716-0.413-1.677-0.615-2.685-0.615z" fill="#70189e"/>
</g>
<g transform="translate(18.99 21.398)" opacity="1">
<path d="m15.367 20.447-31.438-18.15c-2.235-1.291-1.955-3.545 0.626-5.036l30.185-17.426c1.225-0.708 2.749-1.113 4.25-1.207-1.916-0.137-4.047 0.275-5.661 1.207l-30.184 17.426c-2.581 1.491-2.862 3.745-0.627 5.036l31.439 18.15c1.174 0.678 2.808 0.951 4.47 0.846-1.15-0.081999-2.222-0.362-3.06-0.846z" fill="#e430a1"/>
</g>
</g>
<g transform="translate(402.08 231.8)" display="block">
<g transform="translate(37.944 32.495)">
<path d="m37.02-10.466h-15.591l-17.356-10.021c-2.236-1.291-6.14-1.128-8.721 0.362l-16.73 9.659h-15.583v10.467h0.0039978c-0.063 0.873 0.424 1.716 1.498 2.336l31.438 18.15c2.235 1.291 6.14 1.129 8.721-0.361l30.185-17.427c1.341-0.774 2.054-1.754 2.123-2.698h0.012001v-10.467z" fill="url(#a)"/>
</g>
<g transform="translate(37.944 22.826)">
<path d="m-35.972 10.391h-0.0050011v-10.467h15.583l16.73-9.659c2.581-1.49 6.485-1.652 8.721-0.361l17.356 10.02h14.607v-0.722h-15.591l-17.356-10.02c-2.235-1.291-6.14-1.129-8.721 0.361l-16.73 9.659h-15.583v10.468h0.0049973c-0.063999 0.873 0.423 1.716 1.497 2.336l0.177 0.103c-0.504-0.515-0.734-1.108-0.69-1.718z" fill="#e430a1"/>
</g>
<g transform="translate(37.97 22.028)">
<path d="m-4.046 20.488-31.438-18.151c-2.236-1.29-1.956-3.545 0.625-5.036l30.185-17.426c2.581-1.491 6.485-1.653 8.72-0.362l31.438 18.151c2.236 1.291 1.956 3.545-0.625 5.035l-30.185 17.427c-2.581 1.49-6.485 1.652-8.72 0.362z" fill="url(#d)"/>
</g>
<g transform="translate(56.392 22.038)">
<path d="m17.063-2.347-31.438-18.15c-1.158-0.669-2.763-0.945-4.401-0.851 1.191 0.072001 2.306 0.352 3.171 0.851l31.438 18.15c2.235 1.291 1.955 3.545-0.626 5.035l-30.185 17.427c-1.244 0.719-2.795 1.125-4.32 1.212 1.888 0.114 3.967-0.298 5.55-1.212l30.185-17.427c2.581-1.49 2.861-3.744 0.626-5.035z" fill="#87ebfc"/>
</g>
<g transform="translate(37.97 21.866)">
<path d="m-0.193 16.327c-1.107 0-2.164-0.224-2.953-0.68l-23.407-13.513c-0.811-0.467-1.258-1.128-1.258-1.86 0-0.862 0.629-1.721 1.724-2.353l22.473-12.974c1.993-1.151 5.025-1.274 6.761-0.271l23.405 13.515c0.811 0.468 1.259 1.128 1.259 1.859 0 0.864-0.628 1.722-1.724 2.354l-22.472 12.975c-1.086 0.627-2.483 0.948-3.808 0.948zm0.388-31.801c-1.228 0-2.527 0.3-3.541 0.885l-22.472 12.973c-0.925 0.536-1.455 1.225-1.455 1.89 0 0.531 0.351 1.027 0.988 1.396l23.406 13.512c1.587 0.916 4.38 0.795 6.224-0.268l22.473-12.975c0.924-0.534 1.455-1.223 1.455-1.889 0-0.531-0.35-1.026-0.988-1.394l-23.407-13.515c-0.715-0.413-1.675-0.615-2.683-0.615z" fill="url(#c)"/>
</g>
<g transform="translate(19.604 22.012)">
<path d="m15.731 20.503-31.439-18.15c-2.235-1.29-1.954-3.546 0.627-5.037l30.185-17.425c1.225-0.707 2.749-1.112 4.25-1.207-1.916-0.137-4.047 0.275-5.661 1.207l-30.185 17.425c-2.581 1.491-2.861 3.747-0.626 5.037l31.439 18.15c1.174 0.678 2.808 0.95 4.47 0.845-1.15-0.081999-2.222-0.362-3.06-0.845z" fill="#47cbef"/>
</g>
<g transform="translate(56.838 39.436)">
<path d="m-13.297 8.907 26.594-15.382c0.243-0.14 0.44-0.517 0.44-0.842v-1.257c0-0.326-0.197-0.474-0.44-0.333l-26.594 15.381c-0.243 0.141-0.44 0.517-0.44 0.842v1.258c0 0.324 0.197 0.474 0.44 0.333z" fill="#87e5f7"/>
</g>
<g transform="translate(56.838 39.436)">
<path d="m12.715-6.808c0.244-0.14 0.441-0.516 0.441-0.84v-1.179l0.142-0.081c0.243-0.14 0.44 0.0080004 0.44 0.333v1.259c0 0.324-0.197 0.7-0.44 0.841l-26.594 15.383c-0.243 0.14-0.442-0.01-0.442-0.334v-0.081l26.453-15.301z" fill="#5b95e9"/>
</g>
</g>
</g>
</svg>
