<?xml version="1.0" encoding="UTF-8"?>
<svg style="content-visibility:visible;height:100%;transform:translate3d(0px, 0px, 0px);width:100%" viewBox="0 0 750 500" xmlns="http://www.w3.org/2000/svg" xmlns:xlink="http://www.w3.org/1999/xlink">
<defs>
<clipPath id="g">
<rect width="750" height="500"/>
</clipPath>
<clipPath id="f">
<path d="m0 0h540v450h-540z"/>
</clipPath>
<clipPath id="e">
<path d="m0 0h540v450h-540z"/>
</clipPath>
<symbol id="d">
<g transform="matrix(.92 0 0 .92 176.88 76.623)" display="block">
<g transform="translate(111.81 126.36)">
<path d="m-91.809-1e-3s85.879 106.36 183.62 0c-97.74-106.19-183.62 0-183.62 0z" fill="#eaeaea"/>
</g>
</g>
</symbol>
<mask id="c" mask-type="alpha">
<use xlink:href="#d"/>
</mask>
<symbol id="b">
<g transform="matrix(.92 0 0 .92 176.88 76.623)" display="block">
<g transform="translate(111.81 126.36)">
<path d="m-91.809-1e-3s85.879 106.36 183.62 0c-97.74-106.19-183.62 0-183.62 0z" fill="#eaeaea"/>
</g>
</g>
</symbol>
<mask id="a" mask-type="alpha">
<use xlink:href="#b"/>
</mask>
</defs>
<g clip-path="url(#g)">
<g transform="translate(44.297 69.356)" display="block">
<g transform="translate(68.686 113.52)">
<path d="m59.79 107.41h-119.58v-214.82h119.58v214.82z" fill="#ebebeb"/>
</g>
<g transform="translate(68.07 113.43)">
<path d="m54.396 101.09h-108.79v-202.19h108.79v202.19z" fill="#f9f9f9"/>
</g>
<g transform="translate(68.07 82.725)">
<path d="m54.396-68.003-108.79 138.39v-140.77h108.79v2.382z" fill="#f5f5f5"/>
</g>
<g transform="translate(69.252 71.58)">
<path d="m55.577 1.077h-111.15v-2.154h111.15v2.154z" fill="#ebebeb"/>
</g>
<g transform="translate(69.252 119.73)">
<path d="m55.577 1.077h-111.15v-2.154h111.15v2.154z" fill="#ebebeb"/>
</g>
<g transform="translate(69.252 167.88)">
<path d="m55.577 1.076h-111.15v-2.152h111.15v2.152z" fill="#ebebeb"/>
</g>
<g transform="translate(68.069 145.92)">
<path d="m2.749 74.341h-5.498v-148.68h5.498v148.68z" fill="#ebebeb"/>
</g>
<g transform="translate(35.868 41.961)">
<path d="m1.245 29.62h-2.49v-59.24h2.49v59.24z" fill="#ebebeb"/>
</g>
<g transform="translate(57.344 41.961)">
<path d="m1.245 29.62h-2.49v-59.24h2.49v59.24z" fill="#ebebeb"/>
</g>
<g transform="translate(78.82 41.961)">
<path d="m1.245 29.62h-2.49v-59.24h2.49v59.24z" fill="#ebebeb"/>
</g>
<g transform="translate(100.3 41.961)">
<path d="m1.245 29.62h-2.49v-59.24h2.49v59.24z" fill="#ebebeb"/>
</g>
<g transform="translate(6.367 112.36)">
<path d="m2.529 109.9h-5.058v-219.79h5.058v219.79z" fill="#f5f5f5"/>
</g>
<g transform="translate(131.01 112.67)">
<path d="m2.529 110.2-5.058-1.937v-218.46h5.058v220.4z" fill="#dfdfdf"/>
</g>
<g transform="translate(68.686 3.18)">
<path d="m64.848 2.93h-129.7v-5.86h129.7v5.86z" fill="#dfdfdf"/>
</g>
<g transform="translate(68.604 226.32)">
<path d="m68.354 2.73h-136.71v-5.46h136.71v5.46z" fill="#dfdfdf"/>
</g>
<g transform="translate(68.604 222.26)">
<path d="m59.873-1.33 8.481 2.66h-136.71l8.646-2.66h119.58z" fill="#ebebeb"/>
</g>
<g transform="translate(648.72 214.69)">
<path d="m-5.858-74.663s-8.452-0.608-7.674 18.352c0.778 18.961 2.712 29.06 2.712 29.06s-0.248 4.204-3.504 3.379c-3.256-0.826-9.381-4.917-12.406-1.859-3.138 3.172-2.023 8.037 2.139 13.768 4.162 5.73 12.818 18.62 13.596 19.788 0.764 1.147 1.072 3.298-1.237 3.091-2.309-0.206-17.887-5.487-19.95 2.055-2.063 7.543 12.154 21.602 13.679 23.169 1.525 1.567 1.607 2.556 0.989 3.503-0.619 0.948-5.689-1.32-10.181-2.64-4.492-1.321-9.933-2.064-10.759 2.387-0.825 4.452 5.437 17.479 28.886 31.169l11.281 5.633 10.677-6.811c21.963-15.967 26.89-29.555 25.623-33.902-1.267-4.346-6.605-3.062-10.943-1.299-4.338 1.763-9.156 4.527-9.867 3.646-0.709-0.882-0.726-1.874 0.633-3.585 1.361-1.712 14.101-17.122 11.294-24.421-2.807-7.298-17.78-0.485-20.055-0.049999-2.277 0.438-2.187-1.733-1.541-2.951 0.658-1.24 7.98-14.932 11.547-21.049 3.568-6.118 4.192-11.07 0.752-13.913-3.315-2.74-9 1.943-12.157 3.09-3.156 1.147-3.824-3.011-3.824-3.011s0.913-10.242-0.209-29.185c-1.122-18.943-9.674-17.414-9.674-17.414" fill="#ebebeb"/>
</g>
<g transform="translate(647.33 233.92)">
<path d="m-3.803-76.915s0.022 0.134 0.045 0.396c0.021 0.28 0.051 0.667 0.089 1.164 0.071 1.043 0.174 2.548 0.304 4.477 0.259 3.889 0.591 9.518 0.975 16.476 0.774 13.915 1.678 33.147 2.606 54.389 0.927 21.249 1.784 40.482 2.479 54.4 0.354 6.945 0.64 12.571 0.839 16.482 0.096 1.93 0.171 3.436 0.223 4.481 0.019 0.497 0.034 0.885 0.045 1.166 0.0079999 0.263 0.0019999 0.399 0.0019999 0.399s-0.023-0.134-0.046-0.396c-0.021-0.281-0.051-0.667-0.089-1.164-0.072-1.044-0.173-2.548-0.304-4.477-0.259-3.888-0.591-9.517-0.975-16.475-0.773-13.915-1.678-33.148-2.606-54.398-0.928-21.242-1.783-40.473-2.479-54.391-0.353-6.945-0.638-12.571-0.837-16.482-0.096-1.931-0.171-3.437-0.223-4.482-0.02-0.498-0.035-0.885-0.047-1.167-0.0079999-0.263-9.9993e-4 -0.398-9.9993e-4 -0.398z" fill="#dfdfdf"/>
</g>
<g transform="translate(638.29 203.41)">
<path d="m-7.966-8.387c0.021-0.021 0.27 0.188 0.702 0.584 0.434 0.395 1.043 0.984 1.789 1.72 1.489 1.474 3.491 3.565 5.657 5.914 2.12 2.319 4.036 4.416 5.518 6.037 0.658 0.715 1.219 1.322 1.679 1.821 0.398 0.429 0.608 0.677 0.588 0.698-0.021 0.022-0.271-0.185-0.706-0.579-0.434-0.395-1.044-0.985-1.783-1.729-1.474-1.49-3.448-3.607-5.613-5.954-2.135-2.303-4.065-4.385-5.559-5.995-0.663-0.711-1.226-1.317-1.689-1.814-0.396-0.432-0.604-0.682-0.583-0.703z" fill="#dfdfdf"/>
</g>
<g transform="translate(656.74 201.93)">
<path d="m-9.368 9.497c-0.085-0.083 4.041-4.404 9.214-9.648 5.175-5.247 9.437-9.43 9.522-9.347 0.085 0.084001-4.04 4.403-9.215 9.65-5.172 5.244-9.436 9.429-9.521 9.345z" fill="#dfdfdf"/>
</g>
<g transform="translate(657.39 237.95)">
<path d="m-10.06 6.166c-0.014-0.027 0.266-0.204 0.785-0.501 0.603-0.338 1.339-0.751 2.206-1.238 1.862-1.046 4.429-2.5 7.202-4.205 2.78-1.7 5.244-3.324 7.018-4.512 0.827-0.552 1.529-1.021 2.103-1.404 0.5-0.328 0.785-0.498 0.802-0.474 0.018001 0.023-0.233 0.24-0.703 0.61-0.471 0.37-1.161 0.893-2.029 1.519-1.733 1.255-4.177 2.924-6.964 4.629-2.783 1.711-5.382 3.127-7.284 4.106-0.953 0.486-1.73 0.869-2.274 1.118-0.544 0.251-0.849 0.378-0.862 0.352z" fill="#dfdfdf"/>
</g>
<g transform="translate(638.02 238.25)">
<path d="m-9.38-5.578c0.016-0.026 0.293 0.105 0.78 0.366 0.489 0.26 1.187 0.649 2.045 1.136 1.718 0.977 4.075 2.35 6.665 3.89 2.591 1.541 4.924 2.957 6.601 3.999 0.839 0.522 1.513 0.95 1.975 1.255 0.461 0.304 0.709 0.485 0.694 0.51-0.015 0.026-0.292-0.106-0.78-0.366-0.488-0.26-1.186-0.648-2.045-1.137-1.717-0.975-4.075-2.349-6.665-3.889-2.59-1.541-4.923-2.956-6.6-3.999-0.839-0.522-1.514-0.951-1.976-1.254-0.461-0.305-0.709-0.486-0.694-0.511z" fill="#dfdfdf"/>
</g>
<g transform="translate(637.02 268.57)">
<path d="m-12.089-7.035c0.014999-0.026 0.367 0.146 0.992 0.479 0.695 0.384 1.575 0.87 2.626 1.449 2.207 1.239 5.241 2.977 8.58 4.92 3.339 1.942 6.35 3.721 8.518 5.029 1.022 0.626 1.88 1.152 2.556 1.567 0.599 0.378 0.922 0.6 0.908 0.625-0.014999 0.027-0.368-0.146-0.993-0.479-0.694-0.384-1.575-0.869-2.625-1.448-2.208-1.24-5.243-2.979-8.582-4.921-3.337-1.943-6.347-3.722-8.516-5.029-1.023-0.627-1.88-1.152-2.557-1.567-0.598-0.378-0.923-0.6-0.907-0.625z" fill="#dfdfdf"/>
</g>
<g transform="translate(661.18 266.93)">
<path d="m-12.549 8.169c-0.015-0.025 0.335-0.259 0.979-0.657 0.718-0.437 1.639-0.996 2.743-1.668 2.314-1.41 5.505-3.369 8.965-5.628 3.467-2.254 6.551-4.374 8.775-5.924 1.061-0.737 1.946-1.352 2.637-1.832 0.625-0.43 0.979-0.656 0.997-0.632 0.017 0.025-0.303 0.296-0.898 0.767-0.595 0.471-1.467 1.138-2.557 1.945-2.181 1.614-5.245 3.779-8.717 6.038-3.469 2.263-6.691 4.184-9.047 5.529-1.18 0.669-2.141 1.201-2.814 1.552-0.671 0.354-1.048 0.536-1.063 0.51z" fill="#dfdfdf"/>
</g>
<g transform="translate(649.98 333.12)">
<path d="m15.605-38.553h-31.21l10.187 77.106h10.836l10.187-77.106z" fill="#dfdfdf"/>
</g>
<g transform="translate(650.06 304.23)">
<path d="m-14.062-0.183c-0.013 8e-3 0.034 0.109 0.166 0.274 0.134 0.164 0.378 0.377 0.753 0.539 0.74 0.323 2.04 0.348 3.297-0.405 1.26-0.695 2.357-2.06 4.047-2.664 1.675-0.64 3.75-0.524 5.738 0.114 2.013 0.623 3.761 1.641 5.345 2.589 1.587 0.945 3.041 1.787 4.345 2.332 1.295 0.566 2.424 0.826 3.205 0.927 0.392 0.052 0.698 0.067 0.906 0.062 0.208-9.9993e-4 0.316-0.0090001 0.317-0.027 0.018-0.102-1.766-0.086-4.281-1.291-1.26-0.576-2.676-1.437-4.25-2.404-1.567-0.968-3.358-2.031-5.436-2.674-2.052-0.66-4.26-0.779-6.056-0.064-0.899 0.341-1.652 0.877-2.281 1.408-0.637 0.527-1.208 1.023-1.786 1.385-1.141 0.737-2.341 0.768-3.04 0.527-0.718-0.25-0.949-0.671-0.989-0.628z" fill="#f5f5f5"/>
</g>
<g transform="translate(650.34 315.39)">
<path d="m-13.2 2.857c0.042 0.026 0.247-0.317 0.735-0.827 0.496-0.495 1.311-1.143 2.493-1.581 1.17-0.449 2.675-0.717 4.339-0.655 1.672 0.058 3.495 0.426 5.432 0.741 1.934 0.325 3.849 0.47 5.561 0.231 1.71-0.22 3.196-0.713 4.375-1.25 1.181-0.539 2.055-1.129 2.63-1.563 0.577-0.437 0.851-0.731 0.833-0.75-0.058-0.085-1.263 0.994-3.608 1.983-1.17 0.483-2.625 0.926-4.287 1.113-1.662 0.206-3.501 0.055-5.424-0.266-1.921-0.313-3.772-0.673-5.497-0.706-1.728-0.039-3.284 0.275-4.489 0.788-1.216 0.501-2.038 1.228-2.505 1.782-0.225 0.288-0.388 0.519-0.472 0.691-0.092 0.168-0.132 0.26-0.116 0.269z" fill="#f5f5f5"/>
</g>
<g transform="translate(650.47 325.38)">
<path d="m11.577 0.473c0.012-0.022-0.276-0.218-0.859-0.446-0.581-0.23-1.468-0.465-2.587-0.555-1.117-0.089-2.457-0.017-3.91 0.224-1.457 0.236-3.016 0.637-4.655 0.985-1.636 0.346-3.217 0.578-4.647 0.525-1.431-0.049-2.702-0.362-3.69-0.797-2.008-0.882-2.723-2.165-2.798-2.084-0.02 0.011 0.122 0.333 0.528 0.815 0.401 0.48 1.103 1.094 2.118 1.595 1.013 0.498 2.332 0.862 3.821 0.94 1.492 0.081 3.116-0.146 4.773-0.495 1.657-0.353 3.206-0.766 4.63-1.021 1.422-0.262 2.721-0.368 3.809-0.328 2.191 0.074 3.436 0.736 3.467 0.642z" fill="#f5f5f5"/>
</g>
<g transform="translate(649.99 336.76)">
<path d="m-10.099-0.21c0.015 0.082 1.114-0.694 3.029-0.306 0.94 0.17 1.99 0.646 3.171 1.182 1.176 0.549 2.594 1.018 4.114 1.135 3.067 0.294 5.794-0.697 7.467-1.731 0.857-0.508 1.453-1.054 1.858-1.428 0.38-0.405 0.575-0.637 0.549-0.662-0.068-0.075-0.888 0.848-2.587 1.779-1.671 0.925-4.304 1.817-7.241 1.534-2.955-0.168-5.222-1.931-7.271-2.164-0.998-0.15-1.833-6e-3 -2.354 0.204-0.528 0.206-0.751 0.438-0.735 0.457z" fill="#f5f5f5"/>
</g>
<g transform="translate(649.78 349.2)">
<path d="m-8.15 2.141c-0.0010004 0.059 1.047 0.052 2.602-0.517 1.569-0.524 3.509-1.727 5.777-2.628 1.138-0.433 2.28-0.701 3.317-0.695 1.038 5e-3 1.965 0.259 2.667 0.609 1.434 0.713 1.849 1.728 1.928 1.664 0.022-0.01-0.040999-0.265-0.296-0.659-0.252-0.391-0.73-0.902-1.463-1.323-0.729-0.417-1.712-0.727-2.828-0.76-1.12-0.032-2.326 0.24-3.505 0.688-2.349 0.936-4.231 2.175-5.729 2.768-1.481 0.639-2.482 0.771-2.47 0.853z" fill="#f5f5f5"/>
</g>
<g transform="translate(650.15 359)">
<path d="m-6.986-0.766c-0.017 0.063 0.73 0.333 1.976 0.642 1.244 0.309 2.99 0.639 4.939 0.833 1.951 0.189 3.728 0.206 5.008 0.144 1.281-0.06 2.067-0.179 2.063-0.244-7e-3 -0.154-3.163-0.02-7.021-0.408-3.859-0.369-6.928-1.116-6.965-0.967z" fill="#f5f5f5"/>
</g>
<g transform="translate(599.69 46.625)">
<path d="m48.182 31.678h-96.363v-63.356h96.363v63.356z" fill="#dfdfdf"/>
</g>
<g transform="translate(599.67 46.504)">
<path d="m44.805 28.966h-89.61v-57.932h89.61v57.932z" fill="#f9f9f9"/>
</g>
<g transform="translate(599.67 46.625)">
<path d="m14.616 7.971h-29.232v-15.942h29.232v15.942z" fill="#dfdfdf"/>
</g>
</g>
<g transform="translate(93.215 55.123)" display="block">
<g transform="translate(293.78 188.76)">
<path d="m289.55-26.345c-3.427-28.335-24.189-53.851-51.237-62.964-30.816-10.383-64.409-0.235-95.107 10.492-30.697 10.727-63.46 22.221-95.009 14.341-43.224-10.796-69.294-53.497-104.1-81.315-37.222-29.753-87.366-42.721-134.35-34.744-26.738 4.54-53.252 16.298-70.169 37.497-14.693 18.411-31.107 47.563-31.821 71.108-1.297 42.791 10.063 82.953 51.648 130.82 124.64 129.62 270.37 109.69 401.81 83.992 32.579-6.372 66.57-30.949 94.022-59.455 32.311-33.55 38.293-76.819 34.308-109.77z" fill="#f5f5f5"/>
</g>
</g>
<g transform="translate(30.501 441.54)" display="block">
<g transform="translate(344.5 .511)">
<path d="m344.25 1e-3c0 0.144-154.14 0.259-344.23 0.259-190.16 0-344.26-0.115-344.26-0.259 0-0.145 154.1-0.261 344.26-0.261 190.09 0 344.23 0.116 344.23 0.261z" fill="#253138"/>
</g>
</g>
<g transform="translate(289.85 37.999)" display="block">
<g transform="translate(103.43 106.63)">
<path d="m86.959 106.38h-190.14v-212.76h206.36v196.54c0 8.958-7.263 16.22-16.22 16.22z" fill="#ebebeb"/>
</g>
</g>
<g transform="translate(312.56 85.089)" display="block">
<g transform="translate(152.48 58.166)">
<path d="m0 0" fill="#455a63"/>
</g>
<g transform="translate(129.03 44.287)">
<path d="m0 0" fill="#455a63"/>
</g>
<g transform="translate(38.958 44.685)">
<path d="m0 0" fill="#455a63"/>
</g>
<g transform="translate(149.72 28.668)">
<path d="m0 0" fill="#455a63"/>
</g>
<g transform="translate(106.56 29.557)">
<path d="m0 0" fill="#455a63"/>
</g>
<g transform="translate(43.385 30.892)">
<path d="m0 0" fill="#455a63"/>
</g>
<g transform="translate(83.55 16.48)">
<path d="m0 0" fill="#455a63"/>
</g>
<g transform="translate(47.833 1.031)">
<path d="m0 0" fill="#ffcd00"/>
</g>
</g>
<g transform="translate(101.19 120.26)" display="block">
<g transform="translate(231.91 178.9)">
<path d="m199.76 141.74h-399.53c-8.045 0-14.567-6.522-14.567-14.567v-254.34c0-8.045 6.522-14.567 14.567-14.567h399.53c8.045 0 14.567 6.522 14.567 14.567v254.34c0 8.045-6.522 14.567-14.567 14.567z" fill="#253138"/>
</g>
<g transform="translate(232.46 312.07)">
<path d="m214.41 12.402h-428.83c-9.829 0-17.797-7.969-17.797-17.798v-7.006h464.43v7.006c0 9.829-7.968 17.798-17.798 17.798z" fill="#253138"/>
</g>
<g transform="translate(231.91 168.12)">
<path d="m202.23 119.69h-404.45v-239.39h404.45v239.39z" fill="#455a63"/>
</g>
<g transform="translate(236.59 304.25)">
<path d="m-46.342-4.583c-0.0079994-0.0049996 0.143-0.0089998 0.446-0.014 0.33-0.0029998 0.781-7e-3 1.36-0.013 1.232-7e-3 3.006-0.017 5.281-0.03 4.642-0.019 11.325-0.047 19.598-0.08 16.68-0.036 39.769-0.085 65.524-0.14 0 0 0.483-9.9993e-4 0.483-9.9993e-4s-0.244 0.418-0.244 0.418c-0.824 1.413-1.71 2.929-2.6 4.456-0.934 1.599-1.863 3.189-2.75 4.711l-0.081001 0.137h-0.16c-35.637-0.067-66.072-0.124-81.094-0.152h-0.07s-0.036003-0.059-0.036003-0.059c-1.848-3.004-3.271-5.319-4.247-6.906-0.461-0.755-0.815-1.336-1.068-1.749-0.236-0.39-0.342-0.578-0.342-0.578s0.145 0.21 0.403 0.606c0.268 0.415 0.644 0.998 1.134 1.754 0.995 1.549 2.447 3.807 4.332 6.741l-0.106-0.059c15.022-0.028 45.457-0.086 81.094-0.152l-0.239 0.137c0.889-1.522 1.817-3.111 2.75-4.712 0.892-1.525 1.777-3.043 2.602-4.455 0 0 0.239 0.417 0.239 0.417-25.65-0.055-48.645-0.104-65.256-0.14-8.313-0.033-15.026-0.061-19.69-0.08-2.31-0.013-4.112-0.023-5.364-0.03-0.598-0.0059996-1.064-0.0099998-1.404-0.013-0.32-0.0050001-0.495-0.014-0.495-0.014z" fill="#455a63"/>
</g>
<g>
<path d="m17.577 299.67h428.67" fill="#253138"/>
</g>
<g transform="translate(231.91 299.67)">
<path d="m214.33 0c0 0.144-95.968 0.261-214.32 0.261-118.4 0-214.34-0.117-214.34-0.261s95.948-0.261 214.34-0.261c118.35 0 214.32 0.117 214.32 0.261z" fill="#455a63"/>
</g>
<g transform="translate(330.91 18.886)">
<path d="m5.929-18.273c6.613 0 11.975 5.362 11.975 11.975v24.571h-35.808v-22.668c0-7.664 6.214-13.878 13.878-13.878h9.955z" fill="#253138"/>
</g>
<g transform="translate(261.39 .547)">
<path d="m75.452 0.066c0 0.144-33.784 0.231-75.449 0.194-41.679-0.036-75.455-0.182-75.455-0.326 0-0.144 33.777-0.231 75.456-0.195 41.665 0.037 75.448 0.183 75.448 0.327z" fill="#253138"/>
</g>
<g transform="translate(226.3 144.43)">
<path d="m110.23-143.85-14.932-0.103-21.69 0.13301h-159.34c-13.53 0-24.498 10.968-24.498 24.498v258.75 4.525h206.36v-274.34c0.605-13.431 14.105-13.461 14.105-13.461z" fill="#f9f9f9"/>
</g>
<g transform="translate(226.05 144.59)">
<path d="m110.48-144s-124.43 0.272-124.43 0.272l-69.99 0.053009c-1.304-0.026001-2.58 0.050995-3.858 0.11899-1.266 0.179-2.544 0.319-3.773 0.688-4.982 1.235-9.45 4.223-12.698 8.166-1.62 1.986-2.878 4.249-3.799 6.631-0.202 0.607-0.479 1.189-0.619 1.815l-0.47701 1.859c-0.19399 1.263-0.435 2.523-0.445 3.806-0.111 5.153-0.024994 10.361-0.046997 15.538l0.167 248.85-0.497-0.496 206.36 0.134-0.364 0.362 0.099998-148 0.119-73.998 0.071999-36.999s0.018997-9.25 0.018997-9.25l0.0090027-4.625c0.0029984-0.771-0.024002-1.542 0.096001-2.309 0.096001-0.767 0.127-1.545 0.364-2.285 0.682-2.998 2.4-5.823 4.997-7.535 1.261-0.88499 2.672-1.561 4.149-2.003 1.474-0.45 3.002-0.743 4.544-0.791zm0 0c-1.541 0.054001-3.068 0.35301-4.538 0.808-1.475 0.44801-2.88 1.128-4.135 2.016-2.583 1.718-4.279 4.535-4.947 7.521-0.233 0.73801-0.26 1.512-0.353 2.275-0.117 0.761-0.087006 1.534-0.087006 2.305l0.0090027 4.625 0.018997 9.251 0.071999 37.001 0.118 74 0.101 148v0.364h-0.364l-206.36 0.13301h-0.498v-0.49701l0.167-248.85c0.029007-5.191-0.050995-10.356 0.068001-15.567 0.013-1.316 0.26-2.61 0.46301-3.906l0.492-1.909c0.145-0.641 0.429-1.238 0.637-1.86 0.948-2.444 2.243-4.764 3.907-6.798 3.336-4.04 7.921-7.096 13.029-8.355 1.26-0.37599 2.57-0.519 3.867-0.69899 1.311-0.070007 2.623-0.14401 3.914-0.117l69.989 0.052994 124.43 0.211z" fill="#253138"/>
</g>
<g transform="translate(165.15 68.191)">
<path d="m-18.004-20.21h36.01l0.056999 12.063h-1.722c-0.566-4.316-2.181-7.235-4.848-8.758-1.5-0.84-3.738-1.299-6.718-1.378v31.509c0 2.202 0.385 3.663 1.155 4.383 0.768 0.722 2.37 1.082 4.803 1.082v1.519h-21.319v-1.519c2.336 0 3.889-0.365 4.658-1.095 0.769-0.732 1.153-2.188 1.153-4.37v-31.509c-2.919 0.079-5.159 0.538-6.716 1.378-2.863 1.562-4.479 4.481-4.848 8.758h-1.724l0.059-12.063z" fill="#a499b3"/>
</g>
<g transform="translate(158.92 202.7)">
<path d="m37.762-48.325s4.686 86.759 4.686 86.759l-84.831 10.625s-0.065002-98.118-0.065002-98.118l80.21 0.734z" fill="#dfdfdf"/>
</g>
<g transform="translate(144.1 194.74)">
<path d="m57.855-45.648s-0.591 92.035-0.591 92.035l-115.12-0.74s0.59-92.034 0.59-92.034 115.12 0.739 115.12 0.739z" fill="#f5f5f5"/>
</g>
<g transform="translate(144.03 194.74)">
<path d="m-53.775 39.88 107.03 0.688s0.517-80.448 0.517-80.448l-107.03-0.687s-0.517 80.447-0.517 80.447z" fill="#a499b3"/>
</g>
<g transform="translate(143.77 210.08)">
<path d="m-53.516 24.538s37.705-49.765 37.705-49.765 22.956 31.435 22.956 31.435 15.814-16.624 15.814-16.624l30.557 35.642-107.03-0.688z" fill="#383838"/>
</g>
<g transform="translate(152.56 178.89)">
<path d="m8.427 0.054c-0.03 4.655-3.827 8.403-8.481 8.374-4.655-0.030001-8.404-3.827-8.374-8.482 0.030001-4.655 3.827-8.403 8.481-8.373 4.655 0.03 8.404 3.827 8.374 8.481z" fill="#383838"/>
</g>
<g transform="translate(210.68 262.85)">
<path d="m1.78 0c0 0.982-0.797 1.78-1.781 1.78-0.983 0-1.779-0.798-1.779-1.78 0-0.983 0.796-1.78 1.779-1.78 0.984 0 1.781 0.797 1.781 1.78z" fill="#253138"/>
</g>
<g transform="translate(221.24 262.85)">
<path d="m1.78 0c0 0.982-0.797 1.78-1.78 1.78s-1.78-0.798-1.78-1.78c0-0.983 0.797-1.78 1.78-1.78s1.78 0.797 1.78 1.78z" fill="#253138"/>
</g>
<g transform="translate(231.8 262.85)">
<path d="m1.78 0c0 0.982-0.797 1.78-1.779 1.78-0.984 0-1.781-0.798-1.781-1.78 0-0.983 0.797-1.78 1.781-1.78 0.982 0 1.779 0.797 1.779 1.78z" fill="#253138"/>
</g>
</g>
<g transform="translate(572.72 361.71)" display="block">
<g transform="translate(71.468 38.765)">
<path d="m34.85-27.497s-0.356 55.438-0.356 55.438l-69.344-0.444s0.357-55.438 0.357-55.438l69.343 0.444z" fill="#f5f5f5"/>
</g>
<g transform="translate(71.423 38.764)">
<path d="m-32.391 24.021 64.472 0.416s0.31-48.46 0.31-48.46l-64.471-0.414-0.311 48.458z" fill="#0057b8"/>
</g>
<g transform="translate(71.267 48.005)">
<path d="m-32.236 14.78s22.712-29.976 22.712-29.976 13.828 18.935 13.828 18.935l9.525-10.014 18.407 21.47-64.472-0.415z"/>
</g>
<g transform="translate(76.561 29.215)">
<path d="m5.075 0.033c-0.018 2.804-2.305 5.062-5.108 5.044-2.804-0.019-5.062-2.306-5.044-5.109 0.018-2.804 2.305-5.062 5.109-5.044 2.804 0.018 5.062 2.305 5.043 5.109z"/>
</g>
<g transform="translate(61.299 32.976)">
<path d="m34.85-27.497s-0.356 55.438-0.356 55.438l-69.344-0.446s0.357-55.436 0.357-55.436l69.343 0.444z" fill="#f5f5f5"/>
</g>
<g transform="translate(61.254 32.975)">
<path d="m-32.391 24.021 64.472 0.415 0.31-48.457-64.471-0.415-0.311 48.457z" fill="#a499b3"/>
</g>
<g transform="translate(61.098 42.216)">
<path d="m-32.236 14.781s22.712-29.976 22.712-29.976l13.828 18.935 9.525-10.014s18.407 21.47 18.407 21.47l-64.472-0.415z"/>
</g>
<g transform="translate(66.392 23.426)">
<path d="m5.076 0.033c-0.018 2.804-2.305 5.062-5.108 5.044-2.804-0.019-5.062-2.306-5.044-5.109 0.017-2.804 2.305-5.062 5.109-5.044 2.804 0.018 5.062 2.305 5.043 5.109z"/>
</g>
<g transform="translate(52.243 28.192)">
<path d="m34.85-27.497s-0.357 55.438-0.357 55.438l-69.343-0.444 0.355-55.438 69.345 0.444z" fill="#f5f5f5"/>
</g>
<g transform="translate(52.198 28.192)">
<path d="m-32.391 24.022 64.471 0.414s0.311-48.458 0.311-48.458l-64.471-0.414s-0.311 48.458-0.311 48.458z" fill="#0057b8"/>
</g>
<g transform="translate(52.042 37.432)">
<path d="m-32.235 14.782 22.711-29.977 13.828 18.935 9.524-10.014 18.407 21.47-64.47-0.414z"/>
</g>
<g transform="translate(57.335 18.642)">
<path d="m5.077 0.033c-0.019 2.804-2.306 5.062-5.109 5.044-2.804-0.019-5.062-2.306-5.044-5.109 0.018-2.804 2.305-5.062 5.109-5.043 2.804 0.017 5.062 2.304 5.044 5.108z"/>
</g>
<g transform="translate(42.074 34.147)">
<path d="m34.85-27.497s-0.357 55.438-0.357 55.438l-69.343-0.446 0.355-55.436 69.345 0.444z" fill="#f5f5f5"/>
</g>
<g transform="translate(42.028 34.146)">
<path d="m-32.391 24.022 64.472 0.414s0.31-48.458 0.31-48.458l-64.471-0.414s-0.311 48.458-0.311 48.458z" fill="#455a63"/>
</g>
<g transform="translate(41.873 43.386)">
<path d="m-32.236 14.781 22.712-29.977 13.828 18.936 9.525-10.014 18.407 21.469-64.472-0.414z"/>
</g>
<g transform="translate(47.166 24.597)">
<path d="m5.077 0.033c-0.019 2.804-2.306 5.062-5.109 5.043-2.804-0.018-5.062-2.305-5.044-5.108 0.018-2.804 2.305-5.062 5.109-5.044 2.804 0.018 5.062 2.305 5.044 5.109z"/>
</g>
<g transform="translate(96.941 53.583)">
<path d="m20.017 26.764h-40.034v-53.528h40.034v53.528z" fill="#253138"/>
</g>
<g transform="translate(40.284 53.583)">
<path d="m-40.035 26.764h80.07v-53.528h-80.07v53.528zm48.548-40.86h-17.023c-2.036 0-3.685-1.649-3.685-3.684 0-2.035 1.649-3.684 3.685-3.684h17.023c2.034 0 3.684 1.649 3.684 3.684 0 2.035-1.65 3.684-3.684 3.684z" fill="#e9edde"/>
</g>
</g>
<g transform="translate(322.94 260.97)" display="block">
<g transform="translate(109.39 190.02)">
<path d="m88.723-14.532-74.457-4.559c-0.47-1.065-0.782-1.686-0.782-1.686s-20.18 0.402-20.18 0.402l-6.566-0.402s-0.102 0.2-0.261 0.538l-67.74 1.351c-13.505 0-27.704 8.239-27.704 18.767-0.171 10.021 4.682 20.898 16.783 20.651l92.295-0.31 92.295 0.31c12.101 0.247 15.299-7.051 15.318-15.708 1.414-16.123-8.684-19.219-19.001-19.354z" fill="#455a63"/>
</g>
<g transform="translate(69.473 196.58)">
<path d="m-43.798 13.977s0.149-0.018001 0.443-0.026c0.316-0.0060005 0.75-0.014 1.306-0.025001 1.172-0.011 2.859-0.026999 5.026-0.047999 4.395-0.019 10.726-0.046 18.572-0.08 15.745-0.02 37.567-0.05 61.972-0.082001l-0.259 0.276c-0.127-2.024-0.261-4.189-0.397-6.371-0.279-4.465-0.552-8.856-0.813-13.034l0.231 0.24c-22.669-2.523-42.7-4.751-57.09-6.352-7.165-0.82-12.925-1.479-16.918-1.936-1.965-0.236-3.495-0.419-4.558-0.546-0.502-0.066-0.891-0.116-1.179-0.153-0.265-0.037-0.4-0.061-0.4-0.069 9.9945e-4 -0.0080004 0.138-9.9945e-4 0.405 0.019 0.288 0.027 0.68 0.062 1.184 0.107 1.066 0.106 2.6 0.261 4.569 0.457 3.997 0.42 9.761 1.025 16.933 1.779 14.395 1.558 34.433 3.727 57.11 6.181 0 0 0.214 0.023 0.214 0.023l0.014999 0.218c0.261 4.178 0.536 8.569 0.815 13.034 0.137 2.183 0.272 4.348 0.398 6.371l0.017002 0.276h-0.277c-24.405-0.032-46.227-0.062-61.972-0.082-7.846-0.034-14.177-0.061-18.572-0.08-2.167-0.02-3.854-0.036-5.026-0.047-0.557-0.011001-0.99-0.02-1.306-0.026-0.294-0.0080004-0.443-0.024-0.443-0.024z" fill="#253138"/>
</g>
<g transform="translate(34.808 181.03)">
<path d="m9.896 3.049c-0.057 0.069-0.983-0.676-2.609-1.667-1.622-0.994-3.991-2.172-6.779-2.978-2.791-0.798-5.424-1.06-7.326-1.08-1.905-0.023-3.085 0.117-3.097 0.028-0.0039997-0.036 0.286-0.101 0.818-0.189 0.532-0.095 1.31-0.172 2.276-0.207 1.928-0.075 4.625 0.131 7.473 0.946 2.845 0.823 5.24 2.081 6.833 3.168 0.799 0.543 1.419 1.02 1.819 1.384 0.404 0.358 0.615 0.568 0.592 0.595z" fill="#253138"/>
</g>
<g transform="translate(159.47 187.8)">
<path d="m32.859-7.677c0.031998 0.14-14.653 3.691-32.798 7.931-18.15 4.241-32.886 7.564-32.918 7.424-0.033001-0.139 14.65-3.69 32.8-7.931 18.145-4.24 32.883-7.565 32.916-7.424z" fill="#253138"/>
</g>
<g transform="translate(174.7 182.26)">
<path d="m5.216-3.57c0.049 0.161-2.837 0.744-5.754 2.755-2.942 1.975-4.543 4.446-4.676 4.341-0.051-0.033 0.275-0.692 1.001-1.627 0.723-0.936 1.883-2.12 3.382-3.145 1.503-1.018 3.03-1.662 4.165-1.991 1.138-0.331 1.871-0.394 1.882-0.333z" fill="#253138"/>
</g>
<g transform="translate(150.93 127.84)">
<path d="m1.263-33.686s23.585 41.054 23.585 41.054c2.912 5.069 3.09 11.261 0.476 16.491-3.036 6.068-9.313 9.826-16.095 9.635l-36.213-1.023-0.955-13.168s31.895-6.107 31.895-6.107l-21.504-37.218 18.811-9.664z" fill="#ffbd9d"/>
</g>
<g transform="translate(70.135 133.69)">
<path d="m-5.834 30.717s33.301 8.82 33.301 8.82 0.722-9.985 0.722-9.985l-30.687-17.824s22.413-41.602 22.413-41.602l-18.811-9.663s-23.585 41.054-23.585 41.054c-5.709 10.603-0.375 23.786 11.101 27.436l5.546 1.764z" fill="#ffbd9d"/>
</g>
<g transform="translate(112.14 124.76)">
<path d="m30.049-4.247 22.761-11.986s-3.788-8.017-9.751-16.261c-7.052-9.749-17.983-16.566-30.396-19.159 0-9.9945e-4 -0.0010004-9.9945e-4 -0.0019999-9.9945e-4l-26.179 0.309c-3.734 0.402-6.787 1.114-9.337 2.149l0.018-0.102c-14.207 3.134-29.973 34.122-29.973 34.122l20.712 10.904 0.458 3.257c0.602 4.289 2.476 8.319 5.397 11.61l-6.032 39.669 67.221 1.39-8.558-28.409 3.661-27.492z" fill="#17203f"/>
</g>
<g transform="translate(83.304 121)">
<path d="m3.199 14.576c-0.018 0.023-0.391-0.227-1.001-0.758-0.614-0.526-1.441-1.372-2.287-2.556-1.688-2.348-3.194-6.325-2.804-10.815 0.316-2.212 0.945-4.219 1.536-6.03 0.603-1.809 1.214-3.411 1.746-4.748 0.535-1.336 0.995-2.405 1.328-3.138 0.334-0.732 0.54-1.129 0.572-1.114 0.033 0.013-0.109 0.435-0.384 1.19-0.313 0.855-0.706 1.923-1.171 3.194-0.487 1.349-1.06 2.959-1.635 4.764-0.563 1.804-1.171 3.811-1.475 5.946-0.203 2.12 0.081 4.227 0.566 6.02 0.482 1.814 1.26 3.333 2.026 4.524 1.586 2.371 3.068 3.436 2.983 3.521z" fill="#253138"/>
</g>
<g transform="translate(113.57 162.76)">
<path d="m-37.146 21.847s-3.795-44.246-3.795-44.246h81.882l-5.426 44.798-72.661-0.552z" fill="#253138"/>
</g>
<g transform="translate(113.57 163.95)">
<path d="m5.214 0c0 2.879-2.335 5.214-5.214 5.214-2.88 0-5.214-2.335-5.214-5.214 0-2.88 2.334-5.214 5.214-5.214 2.879 0 5.214 2.334 5.214 5.214z" fill="#f9f9f9"/>
</g>
<g transform="translate(119.09 201.77)">
<path d="m-6.951-8.526 13.902 1.94v15.112l-12.785-0.33s-1.117-16.722-1.117-16.722z" fill="#ffbd9d"/>
</g>
<g transform="translate(143.12 203.51)">
<path d="m-17.078-8.32h6.25c1.217 0 2.412 0.32 3.465 0.929l3.296 1.903c1.08 0.623 4.572 2.364 5.76 2.746 3.8 1.221 10.195 2.865 11.541 3.903 3.844 2.966 2.676 6.472 0.564 6.838-1.855 0.322-30.876-1.209-30.876-1.209v-15.11z" fill="#e9edde"/>
</g>
<g transform="translate(136.01 205.11)">
<path d="m0.298 3.94c-0.133 0.031-0.611-1.712-0.674-3.927-0.07-2.216 0.303-3.984 0.438-3.962 0.149 0.02 0.013 1.782 0.084 3.947 0.059 2.164 0.3 3.914 0.152 3.942z" fill="#253138"/>
</g>
<g transform="translate(139.3 205.36)">
<path d="m-0.028 3.606c-0.145-9.9993e-4 -0.249-1.617-0.233-3.608 0.016-1.992 0.145-3.605 0.289-3.604 0.144 9.9993e-4 0.248 1.616 0.232 3.608-0.017 1.992-0.144 3.605-0.288 3.604z" fill="#253138"/>
</g>
<g transform="translate(142.49 205.85)">
<path d="m0.29 3.717c-0.144 0.012-0.39-1.644-0.55-3.696-0.16-2.055-0.174-3.728-0.03-3.74 0.143-0.01 0.39 1.644 0.55 3.698 0.16 2.053 0.174 3.727 0.03 3.738z" fill="#253138"/>
</g>
<g transform="translate(130.51 204.66)">
<path d="m3.098 0.365c-0.0090001 0.027-0.481-0.067-1.282-0.402-0.796-0.336-1.932-0.917-3.123-1.93-0.296-0.254-0.596-0.532-0.893-0.838-0.293-0.308-0.608-0.658-0.797-1.129-0.189-0.467-0.192-1.076 0.176-1.552 0.184-0.236 0.482-0.391 0.776-0.425 0.296-0.038 0.581 0.013 0.843 0.093 2.027 0.69 3.767 2.684 4.085 5.136 0.306 2.478-1.024 4.784-2.777 5.938-0.438 0.285-0.901 0.546-1.433 0.642-0.261 0.046-0.543 0.052-0.816-0.039-0.276-0.092-0.507-0.301-0.63-0.556-0.242-0.545-0.026-1.064 0.184-1.44 0.223-0.395 0.529-0.694 0.803-0.965 1.129-1.093 2.272-1.689 3.072-2.013 0.81-0.321 1.288-0.392 1.294-0.365 0.013 0.041-0.444 0.181-1.211 0.552-0.76 0.372-1.841 1.002-2.896 2.088-0.263 0.275-0.53 0.557-0.712 0.9-0.184 0.334-0.302 0.752-0.146 1.053 0.15 0.32 0.549 0.428 0.974 0.335 0.421-0.08 0.844-0.317 1.249-0.591 1.601-1.08 2.812-3.227 2.529-5.475-0.279-2.237-1.904-4.104-3.714-4.741-0.441-0.153-0.891-0.131-1.12 0.162-0.239 0.292-0.269 0.749-0.125 1.11 0.309 0.748 1 1.325 1.529 1.843 2.289 2.021 4.219 2.507 4.161 2.609z" fill="#253138"/>
</g>
<g transform="translate(145.8 203.43)">
<path d="m11.115 8.079c-0.043-0.046 0.413-0.247 0.76-0.95 0.353-0.693 0.285-1.929-0.409-3.152-0.681-1.227-2.095-2.292-3.862-2.912-1.766-0.635-3.875-0.942-6.002-1.605-4.269-1.274-7.879-3.141-10.326-4.705-1.227-0.782-2.174-1.483-2.814-1.983-0.635-0.507-0.969-0.808-0.948-0.836 0.023-0.029 0.399 0.217 1.067 0.672 0.674 0.448 1.646 1.097 2.887 1.832 2.477 1.472 6.066 3.263 10.284 4.521 2.093 0.655 4.181 0.969 6.019 1.655 1.83 0.669 3.324 1.833 4.018 3.184 0.699 1.323 0.717 2.68 0.266 3.422-0.209 0.371-0.465 0.586-0.643 0.711-0.185 0.116-0.289 0.16-0.297 0.146z" fill="#253138"/>
</g>
<g transform="translate(110.38 92.751)">
<path d="m37.077-8.782c7e-3 0 7e-3 0.072-9.9945e-4 0.213-0.012001 0.165-0.027 0.37-0.046001 0.623-0.052998 0.584-0.127 1.39-0.221 2.417-0.215 2.147-0.523 5.22-0.911 9.078l-0.022999 0.233-0.21-0.11c-3.35-1.764-7.443-3.918-12.071-6.354l0.286-0.08c-1.99 3.357-4.204 7.093-6.557 11.062 0 0-0.14 0.237-0.14 0.237l-0.219-0.168c-3.451-2.646-7.176-5.503-11.042-8.467l0.317-1e-3c-1.535 1.203-3.162 2.478-4.809 3.769-2.227 1.743-4.416 3.458-6.557 5.134l-0.24 0.188s-0.146-0.268-0.146-0.268c-2.177-4.027-4.269-7.9-6.246-11.555l0.313 0.106c-4.814 2.145-9.262 4.127-13.246 5.902l-0.243 0.108-0.045-0.26c-0.77-4.541-1.44-8.492-1.999-11.782l0.204 0.115c-3.228 1.231-5.792 2.209-7.584 2.892-0.856 0.318-1.528 0.567-2.017 0.748-0.211 0.074-0.383 0.133-0.523 0.182-0.118 0.039-0.179 0.056-0.182 0.049-0.0029984-6e-3 0.054001-0.036 0.167-0.088 0.137-0.059 0.303-0.131 0.508-0.22 0.482-0.199 1.144-0.473 1.988-0.821 1.781-0.714 4.326-1.736 7.533-3.023l0.171-0.068999 0.033001 0.184c0.589 3.285 1.295 7.228 2.108 11.761l-0.288-0.152c3.975-1.795 8.414-3.8 13.216-5.969 0 0 0.204-0.093 0.204-0.093l0.109 0.199c1.984 3.651 4.087 7.519 6.272 11.541l-0.385-0.08c2.139-1.678 4.328-3.394 6.553-5.138 1.649-1.291 3.277-2.566 4.812-3.769l0.158-0.124 0.159 0.123c3.861 2.972 7.579 5.836 11.026 8.491l-0.36 0.068c2.37-3.959 4.602-7.685 6.607-11.033l0.106-0.177s0.18 0.097 0.18 0.097c4.608 2.474 8.683 4.664 12.018 6.455l-0.232 0.123c0.449-3.853 0.808-6.919 1.058-9.062 0.128-1.025 0.23-1.827 0.303-2.409 0.035999-0.251 0.065998-0.454 0.089001-0.618 0.022999-0.139 0.036999-0.209 0.044998-0.208z" fill="#f5f5f5"/>
</g>
<g transform="translate(112.8 108.31)">
<path d="m44.365-13.211c0.0079994 0.0030003-0.011002 0.102-0.056004 0.293-0.051998 0.216-0.122 0.496-0.21 0.85-0.202 0.774-0.489 1.869-0.855 3.271-0.775 2.876-1.887 7.009-3.275 12.167l-0.054001 0.197s-0.186-0.089-0.186-0.089c-4.01-1.925-8.792-4.219-14.105-6.77l0.276-0.072c-3.602 5.138-7.609 10.851-11.882 16.945 0 0-0.174 0.249-0.174 0.249s-0.213-0.217-0.213-0.217c-3.628-3.677-7.469-7.569-11.42-11.573-0.804-0.815-1.604-1.627-2.397-2.432 0 0 0.323 0.038 0.323 0.038-5.354 3.358-10.517 6.595-15.388 9.65l-0.22 0.138-0.127-0.226c-2.973-5.249-5.757-10.166-8.297-14.651 0 0 0.261 0.097 0.261 0.097-6.085 2.095-11.433 3.936-15.823 5.447 0 0-0.151 0.052-0.151 0.052l-0.050999-0.149c-1.498-4.347-2.687-7.792-3.511-10.183-0.391-1.161-0.694-2.064-0.91-2.708-0.092999-0.289-0.166-0.519-0.224-0.699-0.048-0.158-0.069-0.239-0.061001-0.242 0.0060005-0.0019999 0.042 0.074 0.103 0.227 0.067001 0.176 0.155 0.402 0.264 0.686 0.235 0.636 0.565 1.53 0.988 2.68 0.857 2.378 2.092 5.808 3.649 10.133 0 0-0.201-0.096-0.201-0.096 4.38-1.542 9.715-3.421 15.784-5.559l0.171-0.059 0.09 0.158c2.557 4.476 5.359 9.384 8.35 14.622 0 0-0.347-0.087999-0.347-0.087999 4.866-3.061 10.025-6.306 15.375-9.671l0.177-0.11s0.147 0.148 0.147 0.148c0.793 0.805 1.593 1.615 2.397 2.432 3.947 4.007 7.785 7.903 11.409 11.583l-0.387 0.032c4.292-6.081 8.316-11.781 11.935-16.908l0.108-0.154 0.169 0.082c5.297 2.584 10.063 4.911 14.062 6.862l-0.239 0.107c1.453-5.14 2.617-9.259 3.426-12.126 0.404-1.391 0.72-2.478 0.943-3.247 0.106-0.348 0.19-0.625 0.254-0.837 0.061001-0.187 0.094997-0.282 0.103-0.28z" fill="#f5f5f5"/>
</g>
<g transform="translate(121.72 27.938)">
<path d="m25.361-2.599c-3.997 0.445-8.16-0.868-11.179-3.527 3.644 1.839 8.497-0.685 9.779-4.56 1.281-3.874 0.23-11.083-2.951-13.64-3.026-2.431-7.222-3.363-10.972-2.359-3.75 1.004-7.725 6.705-8.951 10.389l0.071 0.112c-0.576-0.229-1.159-0.444-1.744-0.642-4.154-1.394-8.592-2.069-12.944-1.565-4.352 0.504-8.614 2.233-11.831 5.209l25.429 40.871c4.618-0.407 8.71-3.521 11.13-7.476 2.42-3.956 3.349-8.66 3.577-13.291 0.057-1.162 0.054001-2.336 0.0060005-3.509 2.725 0.437 5.453 0.876 8.179 1.314-1.46-1.964-3.323-3.628-5.438-4.86 2.761 1.053 6.178-0.023 7.839-2.466z" fill="#253138"/>
</g>
<g transform="translate(109.19 51.976)">
<path d="m5.753 36.796c6.897-0.148 12.433-5.739 12.513-12.638l0.59-50.847c0.042-2.101-1.532-3.884-3.621-4.106l-21.477-5.428c-6.878-0.727-11.452 7.742-11.887 14.645-0.483 7.669-0.77 17.051 0.138 22.773 1.827 11.506 10.646 12.971 10.646 12.971 0.0019999-0.030001 7e-3 4.452 0.034 9.905 0.034 7.146 5.92 12.879 13.064 12.725z" fill="#ffbd9d"/>
</g>
<g transform="translate(95.998 34.597)">
<path d="m-2.903 0.681c0.183 0.193 1.301-0.635 2.889-0.63 1.587-0.018 2.752 0.798 2.923 0.604 0.085-0.086-0.101-0.434-0.608-0.803-0.5-0.368-1.351-0.726-2.341-0.722-0.989 6e-3 -1.821 0.37-2.3 0.742-0.488 0.375-0.653 0.723-0.563 0.809z" fill="#253138"/>
</g>
<g transform="translate(111.61 34.892)">
<path d="m-2.904 0.682c0.184 0.192 1.303-0.635 2.89-0.631 1.586-0.018 2.752 0.799 2.923 0.605 0.085-0.087-0.1-0.434-0.61-0.803-0.499-0.368-1.349-0.727-2.339-0.722-0.989 5e-3 -1.821 0.369-2.3 0.742-0.487 0.374-0.653 0.723-0.564 0.809z" fill="#253138"/>
</g>
<g transform="translate(101.3 40.748)">
<path d="m1.637 6.603c8e-3 -0.091-0.98-0.261-2.58-0.466-0.405-0.042-0.789-0.122-0.858-0.398-0.095-0.294 0.075-0.731 0.271-1.202 0.382-0.982 0.78-2.01 1.199-3.088 1.665-4.396 2.871-8.011 2.694-8.076-0.178-0.066-1.672 3.444-3.337 7.84-0.401 1.084-0.784 2.118-1.148 3.106-0.153 0.461-0.418 0.984-0.211 1.592 0.11 0.302 0.406 0.522 0.666 0.592 0.26 0.079 0.489 0.084 0.689 0.096 1.61 0.087 2.609 0.094 2.615 0.0040002z" fill="#253138"/>
</g>
<g transform="translate(109.55 65.983)">
<path d="m-7.705 0.159s7.741 0.499 15.41-4.111c0 0-3.739 7.904-15.255 6.828l-0.155-2.717z" fill="#eb996d"/>
</g>
<g transform="translate(105.95 51.862)">
<path d="m-2.337-0.685c0.571-0.756 1.57-1.17 2.564-1.062 0.689 0.073 1.385 0.406 1.804 0.966 0.418 0.562 0.507 1.36 0.127 1.894-0.429 0.603-1.324 0.742-2.082 0.527-0.758-0.216-1.411-0.715-2.03-1.212-0.172-0.137-0.347-0.282-0.454-0.47-0.107-0.189-0.13-0.435 3e-3 -0.591" fill="#eb996d"/>
</g>
<g transform="translate(105.23 50.735)">
<path d="m2.388-2.286c-0.259-0.016-0.263 1.708-1.738 2.932-1.473 1.227-3.309 1.034-3.323 1.274-0.024 0.108 0.41 0.335 1.185 0.356 0.761 0.026 1.87-0.218 2.773-0.966 0.9-0.75 1.289-1.751 1.347-2.459 0.066-0.72-0.127-1.147-0.244-1.137z" fill="#253138"/>
</g>
<g transform="translate(111.62 32.75)">
<path d="m-3.632 0.044c0.156 0.432 1.741 0.228 3.603 0.451 1.869 0.188 3.372 0.734 3.619 0.346 0.11-0.186-0.152-0.591-0.759-1.01-0.602-0.417-1.563-0.813-2.681-0.938-1.119-0.122-2.142 0.055-2.821 0.332-0.684 0.275-1.028 0.614-0.961 0.819z" fill="#253138"/>
</g>
<g transform="translate(95.998 31.693)">
<path d="m-2.681 0.654c0.279 0.361 1.373-0.013 2.688-0.03 1.315-0.064 2.43 0.242 2.686-0.135 0.112-0.183-0.063-0.544-0.551-0.886-0.479-0.34-1.281-0.618-2.185-0.591-0.904 0.029-1.688 0.355-2.145 0.724-0.465 0.371-0.616 0.742-0.493 0.918z" fill="#253138"/>
</g>
<g transform="translate(129.68 44.471)">
<path d="m-2.91-4.885c0.871-0.604 2.091-0.38 3.009 0.151 2.114 1.223 3.165 4.018 2.38 6.33-0.785 2.313-3.321 3.893-5.743 3.577" fill="#ffbd9d"/>
</g>
<g transform="translate(128.76 44.164)">
<path d="m-1.183 2.048c0.033-0.082 0.446 0.098 1.001-0.157 0.548-0.217 1.045-1.027 0.987-1.967-0.031-0.954-0.647-1.638-1.226-1.846-0.575-0.235-1-0.12-1.025-0.209-0.04-0.056 0.392-0.362 1.152-0.192 0.365 0.085 0.792 0.304 1.124 0.701 0.33 0.392 0.545 0.937 0.572 1.515 0.084 1.16-0.646 2.214-1.439 2.394-0.784 0.206-1.208-0.193-1.146-0.239z" fill="#eb996d"/>
</g>
<g transform="translate(133.32 56.267)">
<path d="m-2.603-7.727c0.015-0.018 0.198 0.112 0.527 0.372 0.385 0.314 0.852 0.694 1.41 1.15 1.273 1.082 2.962 2.517 4.965 4.218l0.167 0.143-0.141 0.169c-1.849 2.219-3.908 5-6.224 7.904-0.524 0.655-1.048 1.297-1.557 1.896 0 0-0.425 0.502-0.425 0.502l-0.03-0.657c-0.209-4.685-0.37-8.833-0.462-11.809-0.034-1.417-0.062-2.592-0.084-3.509-0.0090003-0.824 9.9993e-4 -1.276 0.035-1.278 0.033-9.9945e-4 0.086 0.448 0.153 1.269 0.062 0.915 0.144 2.088 0.241 3.501 0.184 2.973 0.407 7.117 0.634 11.802l-0.455-0.155c0.494-0.604 1.015-1.241 1.544-1.887 2.307-2.895 4.392-5.661 6.294-7.864 0 0 0.025 0.311 0.025 0.311-1.954-1.759-3.603-3.242-4.846-4.359-0.527-0.493-0.966-0.905-1.331-1.244-0.301-0.293-0.455-0.457-0.44-0.475z" fill="#455a63"/>
</g>
<g transform="translate(110.09 26.077)">
<path d="m-2.642-15.355c-2.815 0.117-5.654 0.237-8.39 0.917-2.734 0.68-5.393 1.967-7.254 4.084-1.86 2.117-2.808 5.146-2.003 7.847 0.803 2.701 3.577 4.818 6.37 4.444 2.121-0.284 4.155-1.854 6.202-1.23 1.933 0.588 2.999 2.949 4.987 3.316 1.963 0.363 3.71-1.399 5.698-1.571 2.195-0.191 4.099 1.61 5.076 3.584 0.976 1.973 1.346 4.204 2.327 6.175 0.627 1.26 1.601 2.469 2.964 2.821 1.251 0.323 2.612-0.16 3.586-1.009 0.975-0.849 1.614-2.019 2.102-3.216 2.071-5.085 1.623-11.13-1.177-15.853-2.8-4.725-7.886-8.02-13.342-8.643" fill="#253138"/>
</g>
<g transform="translate(129.3 17.339)">
<path d="m6.189 5.605c-0.09 0.026-0.357-0.928-1.063-2.336-0.701-1.408-1.925-3.236-3.703-4.85-1.785-1.605-3.727-2.638-5.199-3.193-1.473-0.56-2.448-0.73-2.431-0.822 0.0049996-0.035 0.252-0.02 0.699 0.039 0.447 0.049 1.086 0.194 1.854 0.436 1.539 0.477 3.582 1.495 5.427 3.155 1.836 1.666 3.055 3.595 3.686 5.078 0.318 0.74 0.527 1.361 0.622 1.802 0.103 0.437 0.143 0.682 0.108 0.691z" fill="#ffcd00"/>
</g>
<g transform="translate(136.09 8.838)">
<path d="m8.197-2.749c-0.044999 0.092-1.009-0.541-2.771-0.859-1.738-0.332-4.311-0.199-6.749 1.015-2.439 1.223-4.158 3.103-5.215 4.538-1.068 1.45-1.566 2.464-1.645 2.423-0.030001-0.014 0.061-0.283 0.274-0.748 0.213-0.465 0.562-1.12 1.069-1.886 1.001-1.517 2.734-3.513 5.285-4.793 2.558-1.275 5.268-1.35 7.055-0.91 0.901 0.213 1.595 0.508 2.043 0.762 0.449 0.252 0.67 0.433 0.654 0.458z" fill="#455a63"/>
</g>
<g transform="translate(130.14 26.797)">
<path d="m3.087-7.19c0.059-9.9993e-4 0.152 0.904 0.018 2.366-0.131 1.459-0.551 3.47-1.438 5.535-0.893 2.064-2.067 3.749-3.037 4.846-0.971 1.102-1.694 1.655-1.733 1.612-0.136-0.111 2.569-2.596 4.292-6.664 1.773-4.043 1.723-7.717 1.898-7.695z" fill="#455a63"/>
</g>
<g transform="translate(131.94 28.191)">
<path d="m1.62-8.338c0.034-0.011 0.131 0.223 0.28 0.659 0.157 0.433 0.318 1.083 0.451 1.897 0.274 1.624 0.305 3.954-0.31 6.413-0.626 2.457-1.762 4.492-2.775 5.792-0.503 0.652-0.952 1.148-1.295 1.455-0.338 0.312-0.536 0.471-0.561 0.446-0.065-0.065001 0.647-0.785 1.559-2.117 0.915-1.326 1.959-3.32 2.567-5.704 0.597-2.385 0.625-4.637 0.45-6.237-0.17-1.606-0.455-2.579-0.366-2.604z" fill="#455a63"/>
</g>
</g>
<g transform="translate(234.01 169.93)" display="block">
<g transform="translate(121.58 183.36)">
<path d="m0 0" fill="#455a63"/>
</g>
<g transform="translate(107.1 171.81)">
<path d="m0 0" fill="#ffcd00"/>
</g>
<g transform="translate(114.11 82.152)">
<path d="m0 0" fill="#455a63"/>
</g>
<g transform="translate(105.25 148.39)">
<path d="m0 0" fill="#455a63"/>
</g>
<g transform="translate(123.99 137.15)">
<path d="m0 0" fill="#455a63"/>
</g>
<g transform="translate(123.99 125.91)">
<path d="m0 0" fill="#455a63"/>
</g>
<g transform="translate(123.99 114.67)">
<path d="m0 0" fill="#455a63"/>
</g>
<g transform="translate(123.99 103.43)">
<path d="m0 0" fill="#ffcd00"/>
</g>
<g transform="translate(121.08 69.999)">
<path d="m0 0" fill="#455a63"/>
</g>
<g transform="translate(122.97 26.468)">
<path d="m0 0" fill="#455a63"/>
</g>
<g transform="translate(144.83 15.207)">
<path d="m0 0" fill="#455a63"/>
</g>
<g transform="translate(156.71 58.45)">
<path d="m0 0" fill="#455a63"/>
</g>
<g transform="translate(91.489 38.73)">
<path d="m0 0" fill="#455a63"/>
</g>
<g transform="translate(32.826 81.548)">
<path d="m0 0" fill="#ffcd00"/>
</g>
<g transform="translate(32.826 69.999)">
<path d="m0 0" fill="#455a63"/>
</g>
<g transform="translate(106.6 58.45)">
<path d="m0 0" fill="#ffcd00"/>
</g>
<g transform="translate(32.826 58.45)">
<path d="m0 0" fill="#455a63"/>
</g>
<g transform="translate(91.489 15.207)">
<path d="m0 0" fill="#455a63"/>
</g>
<g transform="translate(116.92 1.031)">
<path d="m0 0" fill="#ffcd00"/>
</g>
</g>
<g transform="matrix(0 0 0 0 484.83 292.99)" display="block">
<g transform="translate(6.352 122.04)">
<path d="m-1.429-4.829c-2.906 0.917-4.165 5.06-2.261 7.438 1.905 2.38 6.223 2.058 7.753-0.577 1.531-2.635-0.328-6.546-3.338-7.021" fill="#ebebeb"/>
</g>
<g transform="translate(20.082 103.11)">
<path d="m-1.639-5.54c-3.334 1.052-4.779 5.805-2.595 8.534 2.186 2.73 7.139 2.361 8.895-0.663 1.757-3.022-0.376-7.509-3.829-8.055" fill="#ebebeb"/>
</g>
<g transform="translate(69.438 52.75)">
<path d="m-22.122-41.787c-9.047-0.765-18.198 1.255-24.401 7.884-6.203 6.629-9.161 16.163-7.798 25.138-9.622 3.999-14.867 16.234-11.129 25.96 3.737 9.726 15.828 15.3 25.651 11.825 4.414 11.188 15.015 19.697 26.892 21.588 11.878 1.892 24.597-2.906 32.267-12.17 9.438 2.133 20.03 1.993 27.958-3.552 7.929-5.544 11.515-17.745 5.474-25.302 10.871-2.647 16.397-16.224 13.172-26.938-3.224-10.714-12.875-18.402-23.182-22.756-6.812-2.877-15.305-4.38-21.117 0.193-4.652-7.158-12.884-11.855-21.412-12.219-8.528-0.364-17.13 3.614-22.375 10.349z" fill="#f5f5f5"/>
</g>
<g transform="translate(69.269 53.061)">
<path d="m-21.953-42.099s0.178-0.24 0.547-0.698c0.358-0.466 0.947-1.117 1.756-1.936 1.634-1.603 4.292-3.847 8.354-5.607 2.024-0.87 4.389-1.618 7.062-1.997 2.668-0.355 5.648-0.383 8.75 0.268 3.102 0.608 6.312 1.864 9.36 3.786 3.025 1.946 5.896 4.587 8.106 7.957 0 0-0.255-0.041-0.255-0.041 2.338-1.816 5.386-2.858 8.558-2.938 3.174-0.115 6.445 0.48 9.641 1.538 3.2 1.066 6.363 2.533 9.444 4.332 3.075 1.804 6.075 3.962 8.756 6.606 2.704 2.611 5.052 5.746 6.765 9.302 0.819 1.795 1.501 3.675 1.925 5.655 0.355 1.982 0.568 4.026 0.404 6.08-0.264 4.094-1.525 8.243-3.907 11.792-1.208 1.749-2.625 3.418-4.396 4.694-1.752 1.29-3.754 2.261-5.896 2.822l0.136-0.399c1.302 1.656 2.224 3.623 2.685 5.709 0.468 2.088 0.494 4.277 0.158 6.417-0.68 4.288-2.816 8.379-5.976 11.528-3.204 3.153-7.471 5.104-11.904 6.081-4.458 0.975-9.121 0.996-13.705 0.405-1.673-0.204-3.322-0.531-4.943-0.877 0 0 0.258-0.088001 0.258-0.088001-8.305 9.957-21.888 14.429-33.789 12.006-5.958-1.195-11.422-4.009-15.857-7.781-4.442-3.776-7.88-8.537-9.936-13.721l0.301 0.137c-5.691 1.965-11.907 0.959-16.786-1.755-4.929-2.687-8.623-7.309-9.823-12.448-1.225-5.137-0.227-10.422 2.033-14.673 2.266-4.275 5.847-7.587 9.907-9.299l-0.109 0.193c-0.614-4.164-0.281-8.217 0.623-11.875 0.946-3.654 2.457-6.925 4.315-9.674 0.912-1.388 1.952-2.612 2.987-3.751 1.083-1.095 2.177-2.103 3.347-2.91 2.294-1.677 4.695-2.735 6.894-3.465 4.437-1.435 8.093-1.558 10.511-1.573 2.433 0.025002 3.699 0.198 3.699 0.198s-0.32-0.0020027-0.94-0.034c-0.621-0.041-1.545-0.063999-2.759-0.062-2.411 0.048-6.053 0.203-10.448 1.657-2.18 0.74-4.552 1.802-6.816 3.474-1.154 0.804-2.23 1.809-3.297 2.897-1.02 1.133-2.047 2.349-2.943 3.728-1.829 2.731-3.313 5.974-4.237 9.594-0.882 3.623-1.198 7.631-0.58 11.742l0.021 0.138-0.131 0.056c-3.972 1.688-7.477 4.946-9.694 9.151-2.211 4.181-3.174 9.375-1.967 14.388 1.181 5.012 4.791 9.523 9.627 12.15 4.786 2.655 10.874 3.622 16.407 1.703 0 0 0.217-0.074999 0.217-0.074999l0.084999 0.212c2.032 5.105 5.427 9.799 9.812 13.52 4.378 3.718 9.77 6.486 15.636 7.659 11.713 2.383 25.12-2.037 33.289-11.839l0.101-0.122 0.157 0.034c1.605 0.342 3.239 0.665 4.896 0.867 4.537 0.585 9.142 0.564 13.525-0.394 4.354-0.955 8.547-2.882 11.654-5.942 3.079-3.064 5.172-7.065 5.834-11.24 0.69-4.155-0.183-8.539-2.73-11.733 0 0-0.241-0.301-0.241-0.301s0.377-0.099 0.377-0.099c2.077-0.544 4.016-1.482 5.719-2.732 1.721-1.238 3.104-2.864 4.286-4.571 2.332-3.464 3.576-7.534 3.838-11.547 0.16399-2.015-0.044006-4.018-0.388-5.959-0.412-1.932-1.08-3.786-1.883-5.552-1.68-3.5-3.989-6.597-6.658-9.183-2.645-2.618-5.613-4.761-8.659-6.556-3.049-1.791-6.195-3.256-9.356-4.317-3.161-1.054-6.389-1.646-9.501-1.54-3.113 0.070999-6.077 1.079-8.357 2.837l-0.151 0.116s-0.104-0.159-0.104-0.159c-2.17-3.33-4.997-5.95-7.982-7.884-3.007-1.911-6.18-3.166-9.247-3.781-3.066-0.657-6.015-0.644-8.661-0.305-2.651 0.36-5.003 1.089-7.019 1.94-4.046 1.72-6.711 3.926-8.361 5.5-0.817 0.804-1.414 1.443-1.785 1.897-0.381 0.447-0.586 0.667-0.586 0.667z" fill="#253138"/>
</g>
</g>
<g transform="translate(511.53 207.33)" display="block">
<g transform="translate(39.856 26.812)">
<path d="m0 0" fill="#455a63"/>
</g>
<g transform="translate(39.856 18.218)">
<path d="m0 0" fill="#455a63"/>
</g>
<g transform="translate(39.856 9.625)">
<path d="m0 0" fill="#455a63"/>
</g>
<g transform="translate(39.856 1.031)">
<path d="m0 0" fill="#455a63"/>
</g>
</g>
<g transform="matrix(.03 0 0 .03 426.15 292.75)" clip-path="url(#f)" display="block">
<g transform="translate(167.94 66.514)" display="block">
<g transform="translate(111.81 126.36)">
<path d="m-91.809-1e-3s85.879 106.36 183.62 0c-97.74-106.19-183.62 0-183.62 0z" fill="#fff"/>
</g>
<g transform="translate(111.81 126.36)">
<path d="m-91.809-1e-3s85.879 106.36 183.62 0c-97.739-106.18-183.62 0-183.62 0z" fill-opacity="0" stroke="#0b0622" stroke-linecap="round" stroke-linejoin="round" stroke-width="8"/>
</g>
</g>
<g display="block" mask="url(#c)">
<g transform="translate(237.58 150.71)">
<g transform="translate(42.168 42.168)">
<path d="m41.919 0c0 23.151-18.769 41.918-41.92 41.918-23.151 0-41.918-18.767-41.918-41.918s18.767-41.918 41.918-41.918c23.151 0 41.92 18.767 41.92 41.918z" fill="#961269"/>
</g>
<g transform="translate(42.168 42.168)">
<path d="m26.404 0c0 14.582-11.822 26.403-26.404 26.403s-26.404-11.821-26.404-26.403 11.822-26.403 26.404-26.403 26.404 11.821 26.404 26.403z" fill="#110239"/>
</g>
<g transform="matrix(1.13 0 0 1.13 31.671 17.536)" opacity=".74">
<path d="m10.738 0c0 5.931-4.808 10.738-10.738 10.738-5.931 0-10.738-4.807-10.738-10.738s4.807-10.738 10.738-10.738c5.93 0 10.738 4.807 10.738 10.738z" fill="#fff"/>
</g>
<g transform="matrix(.73 0 0 .73 64.671 41.536)" opacity=".74">
<path d="m10.738 0c0 5.931-4.808 10.738-10.738 10.738-5.931 0-10.738-4.807-10.738-10.738s4.807-10.738 10.738-10.738c5.93 0 10.738 4.807 10.738 10.738z" fill="#fff"/>
</g>
</g>
</g>
<g transform="translate(167.94 66.514)" display="block">
<g transform="translate(111.81 126.36)">
<path d="m-91.809-1e-3s85.879 106.36 183.62 0c-97.739-106.18-183.62 0-183.62 0z" fill-opacity="0" stroke="#110239" stroke-linecap="round" stroke-linejoin="round" stroke-width="8"/>
</g>
</g>
</g>
<g transform="matrix(.03 0 0 .03 410.9 292.5)" clip-path="url(#e)" display="block">
<g transform="translate(167.94 66.514)" display="block">
<g transform="translate(111.81 126.36)">
<path d="m-91.809-1e-3s85.879 106.36 183.62 0c-97.74-106.19-183.62 0-183.62 0z" fill="#fff"/>
</g>
<g transform="translate(111.81 126.36)">
<path d="m-91.809-1e-3s85.879 106.36 183.62 0c-97.739-106.18-183.62 0-183.62 0z" fill-opacity="0" stroke="#0b0622" stroke-linecap="round" stroke-linejoin="round" stroke-width="8"/>
</g>
</g>
<g display="block" mask="url(#a)">
<g transform="translate(237.58 150.71)">
<g transform="translate(42.168 42.168)">
<path d="m41.919 0c0 23.151-18.769 41.918-41.92 41.918-23.151 0-41.918-18.767-41.918-41.918s18.767-41.918 41.918-41.918c23.151 0 41.92 18.767 41.92 41.918z" fill="#961269"/>
</g>
<g transform="translate(42.168 42.168)">
<path d="m26.404 0c0 14.582-11.822 26.403-26.404 26.403s-26.404-11.821-26.404-26.403 11.822-26.403 26.404-26.403 26.404 11.821 26.404 26.403z" fill="#110239"/>
</g>
<g transform="matrix(1.13 0 0 1.13 31.671 17.536)" opacity=".74">
<path d="m10.738 0c0 5.931-4.808 10.738-10.738 10.738-5.931 0-10.738-4.807-10.738-10.738s4.807-10.738 10.738-10.738c5.93 0 10.738 4.807 10.738 10.738z" fill="#fff"/>
</g>
<g transform="matrix(.73 0 0 .73 64.671 41.536)" opacity=".74">
<path d="m10.738 0c0 5.931-4.808 10.738-10.738 10.738-5.931 0-10.738-4.807-10.738-10.738s4.807-10.738 10.738-10.738c5.93 0 10.738 4.807 10.738 10.738z" fill="#fff"/>
</g>
</g>
</g>
<g transform="translate(167.94 66.514)" display="block">
<g transform="translate(111.81 126.36)">
<path d="m-91.809-1e-3s85.879 106.36 183.62 0c-97.739-106.18-183.62 0-183.62 0z" fill-opacity="0" stroke="#110239" stroke-linecap="round" stroke-linejoin="round" stroke-width="8"/>
</g>
</g>
</g>
</g>
</svg>
