<svg xmlns="http://www.w3.org/2000/svg" viewBox="0 0 200 200"><defs><style>.cls-1{fill:#343434;}.cls-2{fill:#f8c81f;}.cls-3{fill:#fff;}</style></defs><g id="vertical-text-logo"><path class="cls-1" d="M39.5,153.12l2.21-3.06A7.17,7.17,0,0,0,46,151.81c1.46,0,2.09-.56,2.09-1.43,0-1.09-1.64-1.59-3.35-2.26-2-.78-4.38-2.13-4.38-4.87,0-3.09,2.51-5.19,6.33-5.19a9.38,9.38,0,0,1,5.84,2.1l-2.19,3a6.17,6.17,0,0,0-3.5-1.42c-1.26,0-1.89.5-1.89,1.33,0,1,1.55,1.46,3.27,2.08,2.1.78,4.47,2,4.47,5s-2.37,5.35-6.81,5.35A10.75,10.75,0,0,1,39.5,153.12Z"/><path class="cls-1" d="M55.39,133.47A2.85,2.85,0,1,1,58.23,136,2.61,2.61,0,0,1,55.39,133.47Zm.38,5h4.91V155H55.77Z"/><path class="cls-1" d="M65,149.89V131.63H69.9v18.46c0,1,.49,1.39.89,1.39a2,2,0,0,0,.6-.07L72,155a6.39,6.39,0,0,1-2.47.41C66.14,155.44,65,153.24,65,149.89Z"/><path class="cls-1" d="M74.17,133.47A2.85,2.85,0,1,1,77,136,2.61,2.61,0,0,1,74.17,133.47Zm.38,5h4.91V155H74.55Z"/><path class="cls-1" d="M82.8,146.76a8.35,8.35,0,0,1,8.64-8.7,7.27,7.27,0,0,1,4.85,1.78L94,143a3.38,3.38,0,0,0-2.25-1c-2.36,0-3.88,1.87-3.88,4.74s1.58,4.72,3.71,4.72a4.94,4.94,0,0,0,3-1.23l1.93,3.22a8.32,8.32,0,0,1-5.47,2C86.37,155.44,82.8,152.26,82.8,146.76Z"/><path class="cls-1" d="M97.47,146.76c0-5.38,3.84-8.7,7.82-8.7,4.72,0,7.06,3.43,7.06,8a11.56,11.56,0,0,1-.2,2.17h-9.92a4,4,0,0,0,4.3,3.51,7,7,0,0,0,3.59-1.09l1.62,3a10.77,10.77,0,0,1-5.88,1.87C101.13,155.44,97.47,152.24,97.47,146.76Zm10.69-1.82c0-1.82-.8-3.14-2.76-3.14-1.55,0-2.89,1-3.22,3.14Z"/><path class="cls-1" d="M115.59,148.75V138.46h4.91v9.66c0,2.39.64,3.14,2.06,3.14,1.23,0,2-.52,2.94-1.83v-11h4.92V155h-4l-.36-2.3h-.12a6.47,6.47,0,0,1-5.2,2.7C117.12,155.44,115.59,152.9,115.59,148.75Z"/><path class="cls-1" d="M134.72,138.46h4l.35,2.13h.12c1.36-1.37,2.85-2.53,5-2.53a4.58,4.58,0,0,1,4.57,2.79c1.46-1.52,3-2.79,5.21-2.79,3.58,0,5.19,2.54,5.19,6.69V155h-4.92v-9.66c0-2.39-.65-3.14-2-3.14a4.24,4.24,0,0,0-2.83,1.61V155H144.5v-9.66c0-2.39-.65-3.14-2.05-3.14a4.26,4.26,0,0,0-2.82,1.61V155h-4.91Z"/><rect class="cls-2" x="62.3" y="32.64" width="80.34" height="80.34" rx="40.17"/><path class="cls-3" d="M121.62,26,77.53,64,69.84,82.78a5.57,5.57,0,0,0-.11,4L73.24,97a5.63,5.63,0,0,0,2.23,2.87l14.28,9.41a4.32,4.32,0,0,0,2.17.7l18.94.86a5.67,5.67,0,0,0,4-1.4l8.65-7.62a5.64,5.64,0,0,0,1.69-2.67l5.35-18.7Z"/><path class="cls-1" d="M111.12,113h-.35l-19-.86a6.5,6.5,0,0,1-3.27-1.06l-14.28-9.41a7.83,7.83,0,0,1-3.09-4L67.67,87.45a7.78,7.78,0,0,1,.15-5.5l7.89-19.3L120.6,24a1.88,1.88,0,0,1,3.09,1.12l9.07,55.39L127.28,99.7a7.88,7.88,0,0,1-2.35,3.71L116.28,111A7.76,7.76,0,0,1,111.12,113ZM79.35,65.27,71.86,83.61A3.37,3.37,0,0,0,71.79,86L75.3,96.24A3.46,3.46,0,0,0,76.67,98L91,107.41a2.05,2.05,0,0,0,1.07.34l18.94.86a3.45,3.45,0,0,0,2.44-.86l8.65-7.61a3.51,3.51,0,0,0,1-1.64l5.22-18.23L120.1,30.2Z"/><polyline class="cls-2" points="121.18 27.5 94.9 98.95 132.13 79.66"/><path class="cls-1" d="M123.45,23.68a1.05,1.05,0,0,0-1.73-.62l-46,39.59L67.82,82a7.78,7.78,0,0,0-.15,5.5l3.51,10.21a7.83,7.83,0,0,0,3.09,4l14.28,9.41a6.5,6.5,0,0,0,3.27,1.06l19,.86h.35a7.76,7.76,0,0,0,5.16-2l8.65-7.61a7.88,7.88,0,0,0,2.35-3.71l5.48-19.17Zm-2.46,12,7.07,43.18L99.7,93.5Zm2.09,62.87a3.51,3.51,0,0,1-1,1.64l-8.65,7.61a3.45,3.45,0,0,1-2.44.86L92,107.75a2.05,2.05,0,0,1-1.07-.34L76.67,98a3.46,3.46,0,0,1-1.37-1.76L71.79,86a3.37,3.37,0,0,1,.07-2.42l7.49-18.34,36.78-31.65-26,70.78,36.75-19Z"/><circle class="cls-2" cx="93.76" cy="97.78" r="16.65"/><path class="cls-1" d="M93.79,117.17a19.4,19.4,0,1,1,9.37-2.44A19.33,19.33,0,0,1,93.79,117.17Zm0-33.32a13.94,13.94,0,0,0-1.3,27.81,13.45,13.45,0,0,0,5.8-.69,13.92,13.92,0,0,0,8.89-9.35h0A13.94,13.94,0,0,0,93.76,83.85Z"/></g></svg>